G04 #@! TF.GenerationSoftware,KiCad,Pcbnew,(5.1.10)-1*
G04 #@! TF.CreationDate,2022-04-06T13:47:00+02:00*
G04 #@! TF.ProjectId,POV_display_schematic,504f565f-6469-4737-906c-61795f736368,1*
G04 #@! TF.SameCoordinates,Original*
G04 #@! TF.FileFunction,Paste,Bot*
G04 #@! TF.FilePolarity,Positive*
%FSLAX46Y46*%
G04 Gerber Fmt 4.6, Leading zero omitted, Abs format (unit mm)*
G04 Created by KiCad (PCBNEW (5.1.10)-1) date 2022-04-06 13:47:00*
%MOMM*%
%LPD*%
G01*
G04 APERTURE LIST*
%ADD10C,0.152400*%
%ADD11R,2.300000X0.900000*%
%ADD12R,0.650000X2.000000*%
G04 APERTURE END LIST*
G36*
G01*
X212700000Y-98849998D02*
X212700000Y-100150002D01*
G75*
G02*
X212450002Y-100400000I-249998J0D01*
G01*
X211624998Y-100400000D01*
G75*
G02*
X211375000Y-100150002I0J249998D01*
G01*
X211375000Y-98849998D01*
G75*
G02*
X211624998Y-98600000I249998J0D01*
G01*
X212450002Y-98600000D01*
G75*
G02*
X212700000Y-98849998I0J-249998D01*
G01*
G37*
G36*
G01*
X215825000Y-98849998D02*
X215825000Y-100150002D01*
G75*
G02*
X215575002Y-100400000I-249998J0D01*
G01*
X214749998Y-100400000D01*
G75*
G02*
X214500000Y-100150002I0J249998D01*
G01*
X214500000Y-98849998D01*
G75*
G02*
X214749998Y-98600000I249998J0D01*
G01*
X215575002Y-98600000D01*
G75*
G02*
X215825000Y-98849998I0J-249998D01*
G01*
G37*
D10*
G36*
X236500000Y-95466500D02*
G01*
X232375000Y-95466500D01*
X232375000Y-95050000D01*
X229900000Y-95050000D01*
X229900000Y-94150000D01*
X232375000Y-94150000D01*
X232375000Y-93733500D01*
X236500000Y-93733500D01*
X236500000Y-95466500D01*
G37*
D11*
X231050000Y-93100000D03*
X231050000Y-96100000D03*
D12*
X235100000Y-103710000D03*
X236050000Y-100290000D03*
X234150000Y-100290000D03*
X230200000Y-100300000D03*
X229250000Y-103720000D03*
X231150000Y-103720000D03*
G36*
G01*
X239150001Y-100474999D02*
X239150001Y-101725001D01*
G75*
G02*
X238900002Y-101975000I-249999J0D01*
G01*
X238100000Y-101975000D01*
G75*
G02*
X237850001Y-101725001I0J249999D01*
G01*
X237850001Y-100474999D01*
G75*
G02*
X238100000Y-100225000I249999J0D01*
G01*
X238900002Y-100225000D01*
G75*
G02*
X239150001Y-100474999I0J-249999D01*
G01*
G37*
G36*
G01*
X242250001Y-100474999D02*
X242250001Y-101725001D01*
G75*
G02*
X242000002Y-101975000I-249999J0D01*
G01*
X241200000Y-101975000D01*
G75*
G02*
X240950001Y-101725001I0J249999D01*
G01*
X240950001Y-100474999D01*
G75*
G02*
X241200000Y-100225000I249999J0D01*
G01*
X242000002Y-100225000D01*
G75*
G02*
X242250001Y-100474999I0J-249999D01*
G01*
G37*
G36*
G01*
X240950000Y-104325001D02*
X240950000Y-103074999D01*
G75*
G02*
X241199999Y-102825000I249999J0D01*
G01*
X242000001Y-102825000D01*
G75*
G02*
X242250000Y-103074999I0J-249999D01*
G01*
X242250000Y-104325001D01*
G75*
G02*
X242000001Y-104575000I-249999J0D01*
G01*
X241199999Y-104575000D01*
G75*
G02*
X240950000Y-104325001I0J249999D01*
G01*
G37*
G36*
G01*
X237850000Y-104325001D02*
X237850000Y-103074999D01*
G75*
G02*
X238099999Y-102825000I249999J0D01*
G01*
X238900001Y-102825000D01*
G75*
G02*
X239150000Y-103074999I0J-249999D01*
G01*
X239150000Y-104325001D01*
G75*
G02*
X238900001Y-104575000I-249999J0D01*
G01*
X238099999Y-104575000D01*
G75*
G02*
X237850000Y-104325001I0J249999D01*
G01*
G37*
G36*
G01*
X225100000Y-104325001D02*
X225100000Y-103074999D01*
G75*
G02*
X225349999Y-102825000I249999J0D01*
G01*
X226150001Y-102825000D01*
G75*
G02*
X226400000Y-103074999I0J-249999D01*
G01*
X226400000Y-104325001D01*
G75*
G02*
X226150001Y-104575000I-249999J0D01*
G01*
X225349999Y-104575000D01*
G75*
G02*
X225100000Y-104325001I0J249999D01*
G01*
G37*
G36*
G01*
X222000000Y-104325001D02*
X222000000Y-103074999D01*
G75*
G02*
X222249999Y-102825000I249999J0D01*
G01*
X223050001Y-102825000D01*
G75*
G02*
X223300000Y-103074999I0J-249999D01*
G01*
X223300000Y-104325001D01*
G75*
G02*
X223050001Y-104575000I-249999J0D01*
G01*
X222249999Y-104575000D01*
G75*
G02*
X222000000Y-104325001I0J249999D01*
G01*
G37*
G36*
G01*
X227249998Y-95700000D02*
X228550002Y-95700000D01*
G75*
G02*
X228800000Y-95949998I0J-249998D01*
G01*
X228800000Y-96775002D01*
G75*
G02*
X228550002Y-97025000I-249998J0D01*
G01*
X227249998Y-97025000D01*
G75*
G02*
X227000000Y-96775002I0J249998D01*
G01*
X227000000Y-95949998D01*
G75*
G02*
X227249998Y-95700000I249998J0D01*
G01*
G37*
G36*
G01*
X227249998Y-92575000D02*
X228550002Y-92575000D01*
G75*
G02*
X228800000Y-92824998I0J-249998D01*
G01*
X228800000Y-93650002D01*
G75*
G02*
X228550002Y-93900000I-249998J0D01*
G01*
X227249998Y-93900000D01*
G75*
G02*
X227000000Y-93650002I0J249998D01*
G01*
X227000000Y-92824998D01*
G75*
G02*
X227249998Y-92575000I249998J0D01*
G01*
G37*
G36*
G01*
X237600000Y-90850002D02*
X237600000Y-89549998D01*
G75*
G02*
X237849998Y-89300000I249998J0D01*
G01*
X238675002Y-89300000D01*
G75*
G02*
X238925000Y-89549998I0J-249998D01*
G01*
X238925000Y-90850002D01*
G75*
G02*
X238675002Y-91100000I-249998J0D01*
G01*
X237849998Y-91100000D01*
G75*
G02*
X237600000Y-90850002I0J249998D01*
G01*
G37*
G36*
G01*
X234475000Y-90850002D02*
X234475000Y-89549998D01*
G75*
G02*
X234724998Y-89300000I249998J0D01*
G01*
X235550002Y-89300000D01*
G75*
G02*
X235800000Y-89549998I0J-249998D01*
G01*
X235800000Y-90850002D01*
G75*
G02*
X235550002Y-91100000I-249998J0D01*
G01*
X234724998Y-91100000D01*
G75*
G02*
X234475000Y-90850002I0J249998D01*
G01*
G37*
G36*
G01*
X55205000Y-99000000D02*
X55505000Y-99000000D01*
G75*
G02*
X55655000Y-99150000I0J-150000D01*
G01*
X55655000Y-100600000D01*
G75*
G02*
X55505000Y-100750000I-150000J0D01*
G01*
X55205000Y-100750000D01*
G75*
G02*
X55055000Y-100600000I0J150000D01*
G01*
X55055000Y-99150000D01*
G75*
G02*
X55205000Y-99000000I150000J0D01*
G01*
G37*
G36*
G01*
X56475000Y-99000000D02*
X56775000Y-99000000D01*
G75*
G02*
X56925000Y-99150000I0J-150000D01*
G01*
X56925000Y-100600000D01*
G75*
G02*
X56775000Y-100750000I-150000J0D01*
G01*
X56475000Y-100750000D01*
G75*
G02*
X56325000Y-100600000I0J150000D01*
G01*
X56325000Y-99150000D01*
G75*
G02*
X56475000Y-99000000I150000J0D01*
G01*
G37*
G36*
G01*
X57745000Y-99000000D02*
X58045000Y-99000000D01*
G75*
G02*
X58195000Y-99150000I0J-150000D01*
G01*
X58195000Y-100600000D01*
G75*
G02*
X58045000Y-100750000I-150000J0D01*
G01*
X57745000Y-100750000D01*
G75*
G02*
X57595000Y-100600000I0J150000D01*
G01*
X57595000Y-99150000D01*
G75*
G02*
X57745000Y-99000000I150000J0D01*
G01*
G37*
G36*
G01*
X59015000Y-99000000D02*
X59315000Y-99000000D01*
G75*
G02*
X59465000Y-99150000I0J-150000D01*
G01*
X59465000Y-100600000D01*
G75*
G02*
X59315000Y-100750000I-150000J0D01*
G01*
X59015000Y-100750000D01*
G75*
G02*
X58865000Y-100600000I0J150000D01*
G01*
X58865000Y-99150000D01*
G75*
G02*
X59015000Y-99000000I150000J0D01*
G01*
G37*
G36*
G01*
X60285000Y-99000000D02*
X60585000Y-99000000D01*
G75*
G02*
X60735000Y-99150000I0J-150000D01*
G01*
X60735000Y-100600000D01*
G75*
G02*
X60585000Y-100750000I-150000J0D01*
G01*
X60285000Y-100750000D01*
G75*
G02*
X60135000Y-100600000I0J150000D01*
G01*
X60135000Y-99150000D01*
G75*
G02*
X60285000Y-99000000I150000J0D01*
G01*
G37*
G36*
G01*
X61555000Y-99000000D02*
X61855000Y-99000000D01*
G75*
G02*
X62005000Y-99150000I0J-150000D01*
G01*
X62005000Y-100600000D01*
G75*
G02*
X61855000Y-100750000I-150000J0D01*
G01*
X61555000Y-100750000D01*
G75*
G02*
X61405000Y-100600000I0J150000D01*
G01*
X61405000Y-99150000D01*
G75*
G02*
X61555000Y-99000000I150000J0D01*
G01*
G37*
G36*
G01*
X62825000Y-99000000D02*
X63125000Y-99000000D01*
G75*
G02*
X63275000Y-99150000I0J-150000D01*
G01*
X63275000Y-100600000D01*
G75*
G02*
X63125000Y-100750000I-150000J0D01*
G01*
X62825000Y-100750000D01*
G75*
G02*
X62675000Y-100600000I0J150000D01*
G01*
X62675000Y-99150000D01*
G75*
G02*
X62825000Y-99000000I150000J0D01*
G01*
G37*
G36*
G01*
X64095000Y-99000000D02*
X64395000Y-99000000D01*
G75*
G02*
X64545000Y-99150000I0J-150000D01*
G01*
X64545000Y-100600000D01*
G75*
G02*
X64395000Y-100750000I-150000J0D01*
G01*
X64095000Y-100750000D01*
G75*
G02*
X63945000Y-100600000I0J150000D01*
G01*
X63945000Y-99150000D01*
G75*
G02*
X64095000Y-99000000I150000J0D01*
G01*
G37*
G36*
G01*
X64095000Y-93850000D02*
X64395000Y-93850000D01*
G75*
G02*
X64545000Y-94000000I0J-150000D01*
G01*
X64545000Y-95450000D01*
G75*
G02*
X64395000Y-95600000I-150000J0D01*
G01*
X64095000Y-95600000D01*
G75*
G02*
X63945000Y-95450000I0J150000D01*
G01*
X63945000Y-94000000D01*
G75*
G02*
X64095000Y-93850000I150000J0D01*
G01*
G37*
G36*
G01*
X62825000Y-93850000D02*
X63125000Y-93850000D01*
G75*
G02*
X63275000Y-94000000I0J-150000D01*
G01*
X63275000Y-95450000D01*
G75*
G02*
X63125000Y-95600000I-150000J0D01*
G01*
X62825000Y-95600000D01*
G75*
G02*
X62675000Y-95450000I0J150000D01*
G01*
X62675000Y-94000000D01*
G75*
G02*
X62825000Y-93850000I150000J0D01*
G01*
G37*
G36*
G01*
X61555000Y-93850000D02*
X61855000Y-93850000D01*
G75*
G02*
X62005000Y-94000000I0J-150000D01*
G01*
X62005000Y-95450000D01*
G75*
G02*
X61855000Y-95600000I-150000J0D01*
G01*
X61555000Y-95600000D01*
G75*
G02*
X61405000Y-95450000I0J150000D01*
G01*
X61405000Y-94000000D01*
G75*
G02*
X61555000Y-93850000I150000J0D01*
G01*
G37*
G36*
G01*
X60285000Y-93850000D02*
X60585000Y-93850000D01*
G75*
G02*
X60735000Y-94000000I0J-150000D01*
G01*
X60735000Y-95450000D01*
G75*
G02*
X60585000Y-95600000I-150000J0D01*
G01*
X60285000Y-95600000D01*
G75*
G02*
X60135000Y-95450000I0J150000D01*
G01*
X60135000Y-94000000D01*
G75*
G02*
X60285000Y-93850000I150000J0D01*
G01*
G37*
G36*
G01*
X59015000Y-93850000D02*
X59315000Y-93850000D01*
G75*
G02*
X59465000Y-94000000I0J-150000D01*
G01*
X59465000Y-95450000D01*
G75*
G02*
X59315000Y-95600000I-150000J0D01*
G01*
X59015000Y-95600000D01*
G75*
G02*
X58865000Y-95450000I0J150000D01*
G01*
X58865000Y-94000000D01*
G75*
G02*
X59015000Y-93850000I150000J0D01*
G01*
G37*
G36*
G01*
X57745000Y-93850000D02*
X58045000Y-93850000D01*
G75*
G02*
X58195000Y-94000000I0J-150000D01*
G01*
X58195000Y-95450000D01*
G75*
G02*
X58045000Y-95600000I-150000J0D01*
G01*
X57745000Y-95600000D01*
G75*
G02*
X57595000Y-95450000I0J150000D01*
G01*
X57595000Y-94000000D01*
G75*
G02*
X57745000Y-93850000I150000J0D01*
G01*
G37*
G36*
G01*
X56475000Y-93850000D02*
X56775000Y-93850000D01*
G75*
G02*
X56925000Y-94000000I0J-150000D01*
G01*
X56925000Y-95450000D01*
G75*
G02*
X56775000Y-95600000I-150000J0D01*
G01*
X56475000Y-95600000D01*
G75*
G02*
X56325000Y-95450000I0J150000D01*
G01*
X56325000Y-94000000D01*
G75*
G02*
X56475000Y-93850000I150000J0D01*
G01*
G37*
G36*
G01*
X55205000Y-93850000D02*
X55505000Y-93850000D01*
G75*
G02*
X55655000Y-94000000I0J-150000D01*
G01*
X55655000Y-95450000D01*
G75*
G02*
X55505000Y-95600000I-150000J0D01*
G01*
X55205000Y-95600000D01*
G75*
G02*
X55055000Y-95450000I0J150000D01*
G01*
X55055000Y-94000000D01*
G75*
G02*
X55205000Y-93850000I150000J0D01*
G01*
G37*
G36*
G01*
X71455000Y-99000000D02*
X71755000Y-99000000D01*
G75*
G02*
X71905000Y-99150000I0J-150000D01*
G01*
X71905000Y-100600000D01*
G75*
G02*
X71755000Y-100750000I-150000J0D01*
G01*
X71455000Y-100750000D01*
G75*
G02*
X71305000Y-100600000I0J150000D01*
G01*
X71305000Y-99150000D01*
G75*
G02*
X71455000Y-99000000I150000J0D01*
G01*
G37*
G36*
G01*
X72725000Y-99000000D02*
X73025000Y-99000000D01*
G75*
G02*
X73175000Y-99150000I0J-150000D01*
G01*
X73175000Y-100600000D01*
G75*
G02*
X73025000Y-100750000I-150000J0D01*
G01*
X72725000Y-100750000D01*
G75*
G02*
X72575000Y-100600000I0J150000D01*
G01*
X72575000Y-99150000D01*
G75*
G02*
X72725000Y-99000000I150000J0D01*
G01*
G37*
G36*
G01*
X73995000Y-99000000D02*
X74295000Y-99000000D01*
G75*
G02*
X74445000Y-99150000I0J-150000D01*
G01*
X74445000Y-100600000D01*
G75*
G02*
X74295000Y-100750000I-150000J0D01*
G01*
X73995000Y-100750000D01*
G75*
G02*
X73845000Y-100600000I0J150000D01*
G01*
X73845000Y-99150000D01*
G75*
G02*
X73995000Y-99000000I150000J0D01*
G01*
G37*
G36*
G01*
X75265000Y-99000000D02*
X75565000Y-99000000D01*
G75*
G02*
X75715000Y-99150000I0J-150000D01*
G01*
X75715000Y-100600000D01*
G75*
G02*
X75565000Y-100750000I-150000J0D01*
G01*
X75265000Y-100750000D01*
G75*
G02*
X75115000Y-100600000I0J150000D01*
G01*
X75115000Y-99150000D01*
G75*
G02*
X75265000Y-99000000I150000J0D01*
G01*
G37*
G36*
G01*
X76535000Y-99000000D02*
X76835000Y-99000000D01*
G75*
G02*
X76985000Y-99150000I0J-150000D01*
G01*
X76985000Y-100600000D01*
G75*
G02*
X76835000Y-100750000I-150000J0D01*
G01*
X76535000Y-100750000D01*
G75*
G02*
X76385000Y-100600000I0J150000D01*
G01*
X76385000Y-99150000D01*
G75*
G02*
X76535000Y-99000000I150000J0D01*
G01*
G37*
G36*
G01*
X77805000Y-99000000D02*
X78105000Y-99000000D01*
G75*
G02*
X78255000Y-99150000I0J-150000D01*
G01*
X78255000Y-100600000D01*
G75*
G02*
X78105000Y-100750000I-150000J0D01*
G01*
X77805000Y-100750000D01*
G75*
G02*
X77655000Y-100600000I0J150000D01*
G01*
X77655000Y-99150000D01*
G75*
G02*
X77805000Y-99000000I150000J0D01*
G01*
G37*
G36*
G01*
X79075000Y-99000000D02*
X79375000Y-99000000D01*
G75*
G02*
X79525000Y-99150000I0J-150000D01*
G01*
X79525000Y-100600000D01*
G75*
G02*
X79375000Y-100750000I-150000J0D01*
G01*
X79075000Y-100750000D01*
G75*
G02*
X78925000Y-100600000I0J150000D01*
G01*
X78925000Y-99150000D01*
G75*
G02*
X79075000Y-99000000I150000J0D01*
G01*
G37*
G36*
G01*
X80345000Y-99000000D02*
X80645000Y-99000000D01*
G75*
G02*
X80795000Y-99150000I0J-150000D01*
G01*
X80795000Y-100600000D01*
G75*
G02*
X80645000Y-100750000I-150000J0D01*
G01*
X80345000Y-100750000D01*
G75*
G02*
X80195000Y-100600000I0J150000D01*
G01*
X80195000Y-99150000D01*
G75*
G02*
X80345000Y-99000000I150000J0D01*
G01*
G37*
G36*
G01*
X80345000Y-93850000D02*
X80645000Y-93850000D01*
G75*
G02*
X80795000Y-94000000I0J-150000D01*
G01*
X80795000Y-95450000D01*
G75*
G02*
X80645000Y-95600000I-150000J0D01*
G01*
X80345000Y-95600000D01*
G75*
G02*
X80195000Y-95450000I0J150000D01*
G01*
X80195000Y-94000000D01*
G75*
G02*
X80345000Y-93850000I150000J0D01*
G01*
G37*
G36*
G01*
X79075000Y-93850000D02*
X79375000Y-93850000D01*
G75*
G02*
X79525000Y-94000000I0J-150000D01*
G01*
X79525000Y-95450000D01*
G75*
G02*
X79375000Y-95600000I-150000J0D01*
G01*
X79075000Y-95600000D01*
G75*
G02*
X78925000Y-95450000I0J150000D01*
G01*
X78925000Y-94000000D01*
G75*
G02*
X79075000Y-93850000I150000J0D01*
G01*
G37*
G36*
G01*
X77805000Y-93850000D02*
X78105000Y-93850000D01*
G75*
G02*
X78255000Y-94000000I0J-150000D01*
G01*
X78255000Y-95450000D01*
G75*
G02*
X78105000Y-95600000I-150000J0D01*
G01*
X77805000Y-95600000D01*
G75*
G02*
X77655000Y-95450000I0J150000D01*
G01*
X77655000Y-94000000D01*
G75*
G02*
X77805000Y-93850000I150000J0D01*
G01*
G37*
G36*
G01*
X76535000Y-93850000D02*
X76835000Y-93850000D01*
G75*
G02*
X76985000Y-94000000I0J-150000D01*
G01*
X76985000Y-95450000D01*
G75*
G02*
X76835000Y-95600000I-150000J0D01*
G01*
X76535000Y-95600000D01*
G75*
G02*
X76385000Y-95450000I0J150000D01*
G01*
X76385000Y-94000000D01*
G75*
G02*
X76535000Y-93850000I150000J0D01*
G01*
G37*
G36*
G01*
X75265000Y-93850000D02*
X75565000Y-93850000D01*
G75*
G02*
X75715000Y-94000000I0J-150000D01*
G01*
X75715000Y-95450000D01*
G75*
G02*
X75565000Y-95600000I-150000J0D01*
G01*
X75265000Y-95600000D01*
G75*
G02*
X75115000Y-95450000I0J150000D01*
G01*
X75115000Y-94000000D01*
G75*
G02*
X75265000Y-93850000I150000J0D01*
G01*
G37*
G36*
G01*
X73995000Y-93850000D02*
X74295000Y-93850000D01*
G75*
G02*
X74445000Y-94000000I0J-150000D01*
G01*
X74445000Y-95450000D01*
G75*
G02*
X74295000Y-95600000I-150000J0D01*
G01*
X73995000Y-95600000D01*
G75*
G02*
X73845000Y-95450000I0J150000D01*
G01*
X73845000Y-94000000D01*
G75*
G02*
X73995000Y-93850000I150000J0D01*
G01*
G37*
G36*
G01*
X72725000Y-93850000D02*
X73025000Y-93850000D01*
G75*
G02*
X73175000Y-94000000I0J-150000D01*
G01*
X73175000Y-95450000D01*
G75*
G02*
X73025000Y-95600000I-150000J0D01*
G01*
X72725000Y-95600000D01*
G75*
G02*
X72575000Y-95450000I0J150000D01*
G01*
X72575000Y-94000000D01*
G75*
G02*
X72725000Y-93850000I150000J0D01*
G01*
G37*
G36*
G01*
X71455000Y-93850000D02*
X71755000Y-93850000D01*
G75*
G02*
X71905000Y-94000000I0J-150000D01*
G01*
X71905000Y-95450000D01*
G75*
G02*
X71755000Y-95600000I-150000J0D01*
G01*
X71455000Y-95600000D01*
G75*
G02*
X71305000Y-95450000I0J150000D01*
G01*
X71305000Y-94000000D01*
G75*
G02*
X71455000Y-93850000I150000J0D01*
G01*
G37*
G36*
G01*
X91255000Y-99000000D02*
X91555000Y-99000000D01*
G75*
G02*
X91705000Y-99150000I0J-150000D01*
G01*
X91705000Y-100600000D01*
G75*
G02*
X91555000Y-100750000I-150000J0D01*
G01*
X91255000Y-100750000D01*
G75*
G02*
X91105000Y-100600000I0J150000D01*
G01*
X91105000Y-99150000D01*
G75*
G02*
X91255000Y-99000000I150000J0D01*
G01*
G37*
G36*
G01*
X92525000Y-99000000D02*
X92825000Y-99000000D01*
G75*
G02*
X92975000Y-99150000I0J-150000D01*
G01*
X92975000Y-100600000D01*
G75*
G02*
X92825000Y-100750000I-150000J0D01*
G01*
X92525000Y-100750000D01*
G75*
G02*
X92375000Y-100600000I0J150000D01*
G01*
X92375000Y-99150000D01*
G75*
G02*
X92525000Y-99000000I150000J0D01*
G01*
G37*
G36*
G01*
X93795000Y-99000000D02*
X94095000Y-99000000D01*
G75*
G02*
X94245000Y-99150000I0J-150000D01*
G01*
X94245000Y-100600000D01*
G75*
G02*
X94095000Y-100750000I-150000J0D01*
G01*
X93795000Y-100750000D01*
G75*
G02*
X93645000Y-100600000I0J150000D01*
G01*
X93645000Y-99150000D01*
G75*
G02*
X93795000Y-99000000I150000J0D01*
G01*
G37*
G36*
G01*
X95065000Y-99000000D02*
X95365000Y-99000000D01*
G75*
G02*
X95515000Y-99150000I0J-150000D01*
G01*
X95515000Y-100600000D01*
G75*
G02*
X95365000Y-100750000I-150000J0D01*
G01*
X95065000Y-100750000D01*
G75*
G02*
X94915000Y-100600000I0J150000D01*
G01*
X94915000Y-99150000D01*
G75*
G02*
X95065000Y-99000000I150000J0D01*
G01*
G37*
G36*
G01*
X96335000Y-99000000D02*
X96635000Y-99000000D01*
G75*
G02*
X96785000Y-99150000I0J-150000D01*
G01*
X96785000Y-100600000D01*
G75*
G02*
X96635000Y-100750000I-150000J0D01*
G01*
X96335000Y-100750000D01*
G75*
G02*
X96185000Y-100600000I0J150000D01*
G01*
X96185000Y-99150000D01*
G75*
G02*
X96335000Y-99000000I150000J0D01*
G01*
G37*
G36*
G01*
X97605000Y-99000000D02*
X97905000Y-99000000D01*
G75*
G02*
X98055000Y-99150000I0J-150000D01*
G01*
X98055000Y-100600000D01*
G75*
G02*
X97905000Y-100750000I-150000J0D01*
G01*
X97605000Y-100750000D01*
G75*
G02*
X97455000Y-100600000I0J150000D01*
G01*
X97455000Y-99150000D01*
G75*
G02*
X97605000Y-99000000I150000J0D01*
G01*
G37*
G36*
G01*
X98875000Y-99000000D02*
X99175000Y-99000000D01*
G75*
G02*
X99325000Y-99150000I0J-150000D01*
G01*
X99325000Y-100600000D01*
G75*
G02*
X99175000Y-100750000I-150000J0D01*
G01*
X98875000Y-100750000D01*
G75*
G02*
X98725000Y-100600000I0J150000D01*
G01*
X98725000Y-99150000D01*
G75*
G02*
X98875000Y-99000000I150000J0D01*
G01*
G37*
G36*
G01*
X100145000Y-99000000D02*
X100445000Y-99000000D01*
G75*
G02*
X100595000Y-99150000I0J-150000D01*
G01*
X100595000Y-100600000D01*
G75*
G02*
X100445000Y-100750000I-150000J0D01*
G01*
X100145000Y-100750000D01*
G75*
G02*
X99995000Y-100600000I0J150000D01*
G01*
X99995000Y-99150000D01*
G75*
G02*
X100145000Y-99000000I150000J0D01*
G01*
G37*
G36*
G01*
X100145000Y-93850000D02*
X100445000Y-93850000D01*
G75*
G02*
X100595000Y-94000000I0J-150000D01*
G01*
X100595000Y-95450000D01*
G75*
G02*
X100445000Y-95600000I-150000J0D01*
G01*
X100145000Y-95600000D01*
G75*
G02*
X99995000Y-95450000I0J150000D01*
G01*
X99995000Y-94000000D01*
G75*
G02*
X100145000Y-93850000I150000J0D01*
G01*
G37*
G36*
G01*
X98875000Y-93850000D02*
X99175000Y-93850000D01*
G75*
G02*
X99325000Y-94000000I0J-150000D01*
G01*
X99325000Y-95450000D01*
G75*
G02*
X99175000Y-95600000I-150000J0D01*
G01*
X98875000Y-95600000D01*
G75*
G02*
X98725000Y-95450000I0J150000D01*
G01*
X98725000Y-94000000D01*
G75*
G02*
X98875000Y-93850000I150000J0D01*
G01*
G37*
G36*
G01*
X97605000Y-93850000D02*
X97905000Y-93850000D01*
G75*
G02*
X98055000Y-94000000I0J-150000D01*
G01*
X98055000Y-95450000D01*
G75*
G02*
X97905000Y-95600000I-150000J0D01*
G01*
X97605000Y-95600000D01*
G75*
G02*
X97455000Y-95450000I0J150000D01*
G01*
X97455000Y-94000000D01*
G75*
G02*
X97605000Y-93850000I150000J0D01*
G01*
G37*
G36*
G01*
X96335000Y-93850000D02*
X96635000Y-93850000D01*
G75*
G02*
X96785000Y-94000000I0J-150000D01*
G01*
X96785000Y-95450000D01*
G75*
G02*
X96635000Y-95600000I-150000J0D01*
G01*
X96335000Y-95600000D01*
G75*
G02*
X96185000Y-95450000I0J150000D01*
G01*
X96185000Y-94000000D01*
G75*
G02*
X96335000Y-93850000I150000J0D01*
G01*
G37*
G36*
G01*
X95065000Y-93850000D02*
X95365000Y-93850000D01*
G75*
G02*
X95515000Y-94000000I0J-150000D01*
G01*
X95515000Y-95450000D01*
G75*
G02*
X95365000Y-95600000I-150000J0D01*
G01*
X95065000Y-95600000D01*
G75*
G02*
X94915000Y-95450000I0J150000D01*
G01*
X94915000Y-94000000D01*
G75*
G02*
X95065000Y-93850000I150000J0D01*
G01*
G37*
G36*
G01*
X93795000Y-93850000D02*
X94095000Y-93850000D01*
G75*
G02*
X94245000Y-94000000I0J-150000D01*
G01*
X94245000Y-95450000D01*
G75*
G02*
X94095000Y-95600000I-150000J0D01*
G01*
X93795000Y-95600000D01*
G75*
G02*
X93645000Y-95450000I0J150000D01*
G01*
X93645000Y-94000000D01*
G75*
G02*
X93795000Y-93850000I150000J0D01*
G01*
G37*
G36*
G01*
X92525000Y-93850000D02*
X92825000Y-93850000D01*
G75*
G02*
X92975000Y-94000000I0J-150000D01*
G01*
X92975000Y-95450000D01*
G75*
G02*
X92825000Y-95600000I-150000J0D01*
G01*
X92525000Y-95600000D01*
G75*
G02*
X92375000Y-95450000I0J150000D01*
G01*
X92375000Y-94000000D01*
G75*
G02*
X92525000Y-93850000I150000J0D01*
G01*
G37*
G36*
G01*
X91255000Y-93850000D02*
X91555000Y-93850000D01*
G75*
G02*
X91705000Y-94000000I0J-150000D01*
G01*
X91705000Y-95450000D01*
G75*
G02*
X91555000Y-95600000I-150000J0D01*
G01*
X91255000Y-95600000D01*
G75*
G02*
X91105000Y-95450000I0J150000D01*
G01*
X91105000Y-94000000D01*
G75*
G02*
X91255000Y-93850000I150000J0D01*
G01*
G37*
G36*
G01*
X110205000Y-99000000D02*
X110505000Y-99000000D01*
G75*
G02*
X110655000Y-99150000I0J-150000D01*
G01*
X110655000Y-100600000D01*
G75*
G02*
X110505000Y-100750000I-150000J0D01*
G01*
X110205000Y-100750000D01*
G75*
G02*
X110055000Y-100600000I0J150000D01*
G01*
X110055000Y-99150000D01*
G75*
G02*
X110205000Y-99000000I150000J0D01*
G01*
G37*
G36*
G01*
X111475000Y-99000000D02*
X111775000Y-99000000D01*
G75*
G02*
X111925000Y-99150000I0J-150000D01*
G01*
X111925000Y-100600000D01*
G75*
G02*
X111775000Y-100750000I-150000J0D01*
G01*
X111475000Y-100750000D01*
G75*
G02*
X111325000Y-100600000I0J150000D01*
G01*
X111325000Y-99150000D01*
G75*
G02*
X111475000Y-99000000I150000J0D01*
G01*
G37*
G36*
G01*
X112745000Y-99000000D02*
X113045000Y-99000000D01*
G75*
G02*
X113195000Y-99150000I0J-150000D01*
G01*
X113195000Y-100600000D01*
G75*
G02*
X113045000Y-100750000I-150000J0D01*
G01*
X112745000Y-100750000D01*
G75*
G02*
X112595000Y-100600000I0J150000D01*
G01*
X112595000Y-99150000D01*
G75*
G02*
X112745000Y-99000000I150000J0D01*
G01*
G37*
G36*
G01*
X114015000Y-99000000D02*
X114315000Y-99000000D01*
G75*
G02*
X114465000Y-99150000I0J-150000D01*
G01*
X114465000Y-100600000D01*
G75*
G02*
X114315000Y-100750000I-150000J0D01*
G01*
X114015000Y-100750000D01*
G75*
G02*
X113865000Y-100600000I0J150000D01*
G01*
X113865000Y-99150000D01*
G75*
G02*
X114015000Y-99000000I150000J0D01*
G01*
G37*
G36*
G01*
X115285000Y-99000000D02*
X115585000Y-99000000D01*
G75*
G02*
X115735000Y-99150000I0J-150000D01*
G01*
X115735000Y-100600000D01*
G75*
G02*
X115585000Y-100750000I-150000J0D01*
G01*
X115285000Y-100750000D01*
G75*
G02*
X115135000Y-100600000I0J150000D01*
G01*
X115135000Y-99150000D01*
G75*
G02*
X115285000Y-99000000I150000J0D01*
G01*
G37*
G36*
G01*
X116555000Y-99000000D02*
X116855000Y-99000000D01*
G75*
G02*
X117005000Y-99150000I0J-150000D01*
G01*
X117005000Y-100600000D01*
G75*
G02*
X116855000Y-100750000I-150000J0D01*
G01*
X116555000Y-100750000D01*
G75*
G02*
X116405000Y-100600000I0J150000D01*
G01*
X116405000Y-99150000D01*
G75*
G02*
X116555000Y-99000000I150000J0D01*
G01*
G37*
G36*
G01*
X117825000Y-99000000D02*
X118125000Y-99000000D01*
G75*
G02*
X118275000Y-99150000I0J-150000D01*
G01*
X118275000Y-100600000D01*
G75*
G02*
X118125000Y-100750000I-150000J0D01*
G01*
X117825000Y-100750000D01*
G75*
G02*
X117675000Y-100600000I0J150000D01*
G01*
X117675000Y-99150000D01*
G75*
G02*
X117825000Y-99000000I150000J0D01*
G01*
G37*
G36*
G01*
X119095000Y-99000000D02*
X119395000Y-99000000D01*
G75*
G02*
X119545000Y-99150000I0J-150000D01*
G01*
X119545000Y-100600000D01*
G75*
G02*
X119395000Y-100750000I-150000J0D01*
G01*
X119095000Y-100750000D01*
G75*
G02*
X118945000Y-100600000I0J150000D01*
G01*
X118945000Y-99150000D01*
G75*
G02*
X119095000Y-99000000I150000J0D01*
G01*
G37*
G36*
G01*
X119095000Y-93850000D02*
X119395000Y-93850000D01*
G75*
G02*
X119545000Y-94000000I0J-150000D01*
G01*
X119545000Y-95450000D01*
G75*
G02*
X119395000Y-95600000I-150000J0D01*
G01*
X119095000Y-95600000D01*
G75*
G02*
X118945000Y-95450000I0J150000D01*
G01*
X118945000Y-94000000D01*
G75*
G02*
X119095000Y-93850000I150000J0D01*
G01*
G37*
G36*
G01*
X117825000Y-93850000D02*
X118125000Y-93850000D01*
G75*
G02*
X118275000Y-94000000I0J-150000D01*
G01*
X118275000Y-95450000D01*
G75*
G02*
X118125000Y-95600000I-150000J0D01*
G01*
X117825000Y-95600000D01*
G75*
G02*
X117675000Y-95450000I0J150000D01*
G01*
X117675000Y-94000000D01*
G75*
G02*
X117825000Y-93850000I150000J0D01*
G01*
G37*
G36*
G01*
X116555000Y-93850000D02*
X116855000Y-93850000D01*
G75*
G02*
X117005000Y-94000000I0J-150000D01*
G01*
X117005000Y-95450000D01*
G75*
G02*
X116855000Y-95600000I-150000J0D01*
G01*
X116555000Y-95600000D01*
G75*
G02*
X116405000Y-95450000I0J150000D01*
G01*
X116405000Y-94000000D01*
G75*
G02*
X116555000Y-93850000I150000J0D01*
G01*
G37*
G36*
G01*
X115285000Y-93850000D02*
X115585000Y-93850000D01*
G75*
G02*
X115735000Y-94000000I0J-150000D01*
G01*
X115735000Y-95450000D01*
G75*
G02*
X115585000Y-95600000I-150000J0D01*
G01*
X115285000Y-95600000D01*
G75*
G02*
X115135000Y-95450000I0J150000D01*
G01*
X115135000Y-94000000D01*
G75*
G02*
X115285000Y-93850000I150000J0D01*
G01*
G37*
G36*
G01*
X114015000Y-93850000D02*
X114315000Y-93850000D01*
G75*
G02*
X114465000Y-94000000I0J-150000D01*
G01*
X114465000Y-95450000D01*
G75*
G02*
X114315000Y-95600000I-150000J0D01*
G01*
X114015000Y-95600000D01*
G75*
G02*
X113865000Y-95450000I0J150000D01*
G01*
X113865000Y-94000000D01*
G75*
G02*
X114015000Y-93850000I150000J0D01*
G01*
G37*
G36*
G01*
X112745000Y-93850000D02*
X113045000Y-93850000D01*
G75*
G02*
X113195000Y-94000000I0J-150000D01*
G01*
X113195000Y-95450000D01*
G75*
G02*
X113045000Y-95600000I-150000J0D01*
G01*
X112745000Y-95600000D01*
G75*
G02*
X112595000Y-95450000I0J150000D01*
G01*
X112595000Y-94000000D01*
G75*
G02*
X112745000Y-93850000I150000J0D01*
G01*
G37*
G36*
G01*
X111475000Y-93850000D02*
X111775000Y-93850000D01*
G75*
G02*
X111925000Y-94000000I0J-150000D01*
G01*
X111925000Y-95450000D01*
G75*
G02*
X111775000Y-95600000I-150000J0D01*
G01*
X111475000Y-95600000D01*
G75*
G02*
X111325000Y-95450000I0J150000D01*
G01*
X111325000Y-94000000D01*
G75*
G02*
X111475000Y-93850000I150000J0D01*
G01*
G37*
G36*
G01*
X110205000Y-93850000D02*
X110505000Y-93850000D01*
G75*
G02*
X110655000Y-94000000I0J-150000D01*
G01*
X110655000Y-95450000D01*
G75*
G02*
X110505000Y-95600000I-150000J0D01*
G01*
X110205000Y-95600000D01*
G75*
G02*
X110055000Y-95450000I0J150000D01*
G01*
X110055000Y-94000000D01*
G75*
G02*
X110205000Y-93850000I150000J0D01*
G01*
G37*
G36*
G01*
X129005000Y-99100000D02*
X129305000Y-99100000D01*
G75*
G02*
X129455000Y-99250000I0J-150000D01*
G01*
X129455000Y-100700000D01*
G75*
G02*
X129305000Y-100850000I-150000J0D01*
G01*
X129005000Y-100850000D01*
G75*
G02*
X128855000Y-100700000I0J150000D01*
G01*
X128855000Y-99250000D01*
G75*
G02*
X129005000Y-99100000I150000J0D01*
G01*
G37*
G36*
G01*
X130275000Y-99100000D02*
X130575000Y-99100000D01*
G75*
G02*
X130725000Y-99250000I0J-150000D01*
G01*
X130725000Y-100700000D01*
G75*
G02*
X130575000Y-100850000I-150000J0D01*
G01*
X130275000Y-100850000D01*
G75*
G02*
X130125000Y-100700000I0J150000D01*
G01*
X130125000Y-99250000D01*
G75*
G02*
X130275000Y-99100000I150000J0D01*
G01*
G37*
G36*
G01*
X131545000Y-99100000D02*
X131845000Y-99100000D01*
G75*
G02*
X131995000Y-99250000I0J-150000D01*
G01*
X131995000Y-100700000D01*
G75*
G02*
X131845000Y-100850000I-150000J0D01*
G01*
X131545000Y-100850000D01*
G75*
G02*
X131395000Y-100700000I0J150000D01*
G01*
X131395000Y-99250000D01*
G75*
G02*
X131545000Y-99100000I150000J0D01*
G01*
G37*
G36*
G01*
X132815000Y-99100000D02*
X133115000Y-99100000D01*
G75*
G02*
X133265000Y-99250000I0J-150000D01*
G01*
X133265000Y-100700000D01*
G75*
G02*
X133115000Y-100850000I-150000J0D01*
G01*
X132815000Y-100850000D01*
G75*
G02*
X132665000Y-100700000I0J150000D01*
G01*
X132665000Y-99250000D01*
G75*
G02*
X132815000Y-99100000I150000J0D01*
G01*
G37*
G36*
G01*
X134085000Y-99100000D02*
X134385000Y-99100000D01*
G75*
G02*
X134535000Y-99250000I0J-150000D01*
G01*
X134535000Y-100700000D01*
G75*
G02*
X134385000Y-100850000I-150000J0D01*
G01*
X134085000Y-100850000D01*
G75*
G02*
X133935000Y-100700000I0J150000D01*
G01*
X133935000Y-99250000D01*
G75*
G02*
X134085000Y-99100000I150000J0D01*
G01*
G37*
G36*
G01*
X135355000Y-99100000D02*
X135655000Y-99100000D01*
G75*
G02*
X135805000Y-99250000I0J-150000D01*
G01*
X135805000Y-100700000D01*
G75*
G02*
X135655000Y-100850000I-150000J0D01*
G01*
X135355000Y-100850000D01*
G75*
G02*
X135205000Y-100700000I0J150000D01*
G01*
X135205000Y-99250000D01*
G75*
G02*
X135355000Y-99100000I150000J0D01*
G01*
G37*
G36*
G01*
X136625000Y-99100000D02*
X136925000Y-99100000D01*
G75*
G02*
X137075000Y-99250000I0J-150000D01*
G01*
X137075000Y-100700000D01*
G75*
G02*
X136925000Y-100850000I-150000J0D01*
G01*
X136625000Y-100850000D01*
G75*
G02*
X136475000Y-100700000I0J150000D01*
G01*
X136475000Y-99250000D01*
G75*
G02*
X136625000Y-99100000I150000J0D01*
G01*
G37*
G36*
G01*
X137895000Y-99100000D02*
X138195000Y-99100000D01*
G75*
G02*
X138345000Y-99250000I0J-150000D01*
G01*
X138345000Y-100700000D01*
G75*
G02*
X138195000Y-100850000I-150000J0D01*
G01*
X137895000Y-100850000D01*
G75*
G02*
X137745000Y-100700000I0J150000D01*
G01*
X137745000Y-99250000D01*
G75*
G02*
X137895000Y-99100000I150000J0D01*
G01*
G37*
G36*
G01*
X137895000Y-93950000D02*
X138195000Y-93950000D01*
G75*
G02*
X138345000Y-94100000I0J-150000D01*
G01*
X138345000Y-95550000D01*
G75*
G02*
X138195000Y-95700000I-150000J0D01*
G01*
X137895000Y-95700000D01*
G75*
G02*
X137745000Y-95550000I0J150000D01*
G01*
X137745000Y-94100000D01*
G75*
G02*
X137895000Y-93950000I150000J0D01*
G01*
G37*
G36*
G01*
X136625000Y-93950000D02*
X136925000Y-93950000D01*
G75*
G02*
X137075000Y-94100000I0J-150000D01*
G01*
X137075000Y-95550000D01*
G75*
G02*
X136925000Y-95700000I-150000J0D01*
G01*
X136625000Y-95700000D01*
G75*
G02*
X136475000Y-95550000I0J150000D01*
G01*
X136475000Y-94100000D01*
G75*
G02*
X136625000Y-93950000I150000J0D01*
G01*
G37*
G36*
G01*
X135355000Y-93950000D02*
X135655000Y-93950000D01*
G75*
G02*
X135805000Y-94100000I0J-150000D01*
G01*
X135805000Y-95550000D01*
G75*
G02*
X135655000Y-95700000I-150000J0D01*
G01*
X135355000Y-95700000D01*
G75*
G02*
X135205000Y-95550000I0J150000D01*
G01*
X135205000Y-94100000D01*
G75*
G02*
X135355000Y-93950000I150000J0D01*
G01*
G37*
G36*
G01*
X134085000Y-93950000D02*
X134385000Y-93950000D01*
G75*
G02*
X134535000Y-94100000I0J-150000D01*
G01*
X134535000Y-95550000D01*
G75*
G02*
X134385000Y-95700000I-150000J0D01*
G01*
X134085000Y-95700000D01*
G75*
G02*
X133935000Y-95550000I0J150000D01*
G01*
X133935000Y-94100000D01*
G75*
G02*
X134085000Y-93950000I150000J0D01*
G01*
G37*
G36*
G01*
X132815000Y-93950000D02*
X133115000Y-93950000D01*
G75*
G02*
X133265000Y-94100000I0J-150000D01*
G01*
X133265000Y-95550000D01*
G75*
G02*
X133115000Y-95700000I-150000J0D01*
G01*
X132815000Y-95700000D01*
G75*
G02*
X132665000Y-95550000I0J150000D01*
G01*
X132665000Y-94100000D01*
G75*
G02*
X132815000Y-93950000I150000J0D01*
G01*
G37*
G36*
G01*
X131545000Y-93950000D02*
X131845000Y-93950000D01*
G75*
G02*
X131995000Y-94100000I0J-150000D01*
G01*
X131995000Y-95550000D01*
G75*
G02*
X131845000Y-95700000I-150000J0D01*
G01*
X131545000Y-95700000D01*
G75*
G02*
X131395000Y-95550000I0J150000D01*
G01*
X131395000Y-94100000D01*
G75*
G02*
X131545000Y-93950000I150000J0D01*
G01*
G37*
G36*
G01*
X130275000Y-93950000D02*
X130575000Y-93950000D01*
G75*
G02*
X130725000Y-94100000I0J-150000D01*
G01*
X130725000Y-95550000D01*
G75*
G02*
X130575000Y-95700000I-150000J0D01*
G01*
X130275000Y-95700000D01*
G75*
G02*
X130125000Y-95550000I0J150000D01*
G01*
X130125000Y-94100000D01*
G75*
G02*
X130275000Y-93950000I150000J0D01*
G01*
G37*
G36*
G01*
X129005000Y-93950000D02*
X129305000Y-93950000D01*
G75*
G02*
X129455000Y-94100000I0J-150000D01*
G01*
X129455000Y-95550000D01*
G75*
G02*
X129305000Y-95700000I-150000J0D01*
G01*
X129005000Y-95700000D01*
G75*
G02*
X128855000Y-95550000I0J150000D01*
G01*
X128855000Y-94100000D01*
G75*
G02*
X129005000Y-93950000I150000J0D01*
G01*
G37*
G36*
G01*
X150755000Y-98900000D02*
X151055000Y-98900000D01*
G75*
G02*
X151205000Y-99050000I0J-150000D01*
G01*
X151205000Y-100500000D01*
G75*
G02*
X151055000Y-100650000I-150000J0D01*
G01*
X150755000Y-100650000D01*
G75*
G02*
X150605000Y-100500000I0J150000D01*
G01*
X150605000Y-99050000D01*
G75*
G02*
X150755000Y-98900000I150000J0D01*
G01*
G37*
G36*
G01*
X152025000Y-98900000D02*
X152325000Y-98900000D01*
G75*
G02*
X152475000Y-99050000I0J-150000D01*
G01*
X152475000Y-100500000D01*
G75*
G02*
X152325000Y-100650000I-150000J0D01*
G01*
X152025000Y-100650000D01*
G75*
G02*
X151875000Y-100500000I0J150000D01*
G01*
X151875000Y-99050000D01*
G75*
G02*
X152025000Y-98900000I150000J0D01*
G01*
G37*
G36*
G01*
X153295000Y-98900000D02*
X153595000Y-98900000D01*
G75*
G02*
X153745000Y-99050000I0J-150000D01*
G01*
X153745000Y-100500000D01*
G75*
G02*
X153595000Y-100650000I-150000J0D01*
G01*
X153295000Y-100650000D01*
G75*
G02*
X153145000Y-100500000I0J150000D01*
G01*
X153145000Y-99050000D01*
G75*
G02*
X153295000Y-98900000I150000J0D01*
G01*
G37*
G36*
G01*
X154565000Y-98900000D02*
X154865000Y-98900000D01*
G75*
G02*
X155015000Y-99050000I0J-150000D01*
G01*
X155015000Y-100500000D01*
G75*
G02*
X154865000Y-100650000I-150000J0D01*
G01*
X154565000Y-100650000D01*
G75*
G02*
X154415000Y-100500000I0J150000D01*
G01*
X154415000Y-99050000D01*
G75*
G02*
X154565000Y-98900000I150000J0D01*
G01*
G37*
G36*
G01*
X155835000Y-98900000D02*
X156135000Y-98900000D01*
G75*
G02*
X156285000Y-99050000I0J-150000D01*
G01*
X156285000Y-100500000D01*
G75*
G02*
X156135000Y-100650000I-150000J0D01*
G01*
X155835000Y-100650000D01*
G75*
G02*
X155685000Y-100500000I0J150000D01*
G01*
X155685000Y-99050000D01*
G75*
G02*
X155835000Y-98900000I150000J0D01*
G01*
G37*
G36*
G01*
X157105000Y-98900000D02*
X157405000Y-98900000D01*
G75*
G02*
X157555000Y-99050000I0J-150000D01*
G01*
X157555000Y-100500000D01*
G75*
G02*
X157405000Y-100650000I-150000J0D01*
G01*
X157105000Y-100650000D01*
G75*
G02*
X156955000Y-100500000I0J150000D01*
G01*
X156955000Y-99050000D01*
G75*
G02*
X157105000Y-98900000I150000J0D01*
G01*
G37*
G36*
G01*
X158375000Y-98900000D02*
X158675000Y-98900000D01*
G75*
G02*
X158825000Y-99050000I0J-150000D01*
G01*
X158825000Y-100500000D01*
G75*
G02*
X158675000Y-100650000I-150000J0D01*
G01*
X158375000Y-100650000D01*
G75*
G02*
X158225000Y-100500000I0J150000D01*
G01*
X158225000Y-99050000D01*
G75*
G02*
X158375000Y-98900000I150000J0D01*
G01*
G37*
G36*
G01*
X159645000Y-98900000D02*
X159945000Y-98900000D01*
G75*
G02*
X160095000Y-99050000I0J-150000D01*
G01*
X160095000Y-100500000D01*
G75*
G02*
X159945000Y-100650000I-150000J0D01*
G01*
X159645000Y-100650000D01*
G75*
G02*
X159495000Y-100500000I0J150000D01*
G01*
X159495000Y-99050000D01*
G75*
G02*
X159645000Y-98900000I150000J0D01*
G01*
G37*
G36*
G01*
X159645000Y-93750000D02*
X159945000Y-93750000D01*
G75*
G02*
X160095000Y-93900000I0J-150000D01*
G01*
X160095000Y-95350000D01*
G75*
G02*
X159945000Y-95500000I-150000J0D01*
G01*
X159645000Y-95500000D01*
G75*
G02*
X159495000Y-95350000I0J150000D01*
G01*
X159495000Y-93900000D01*
G75*
G02*
X159645000Y-93750000I150000J0D01*
G01*
G37*
G36*
G01*
X158375000Y-93750000D02*
X158675000Y-93750000D01*
G75*
G02*
X158825000Y-93900000I0J-150000D01*
G01*
X158825000Y-95350000D01*
G75*
G02*
X158675000Y-95500000I-150000J0D01*
G01*
X158375000Y-95500000D01*
G75*
G02*
X158225000Y-95350000I0J150000D01*
G01*
X158225000Y-93900000D01*
G75*
G02*
X158375000Y-93750000I150000J0D01*
G01*
G37*
G36*
G01*
X157105000Y-93750000D02*
X157405000Y-93750000D01*
G75*
G02*
X157555000Y-93900000I0J-150000D01*
G01*
X157555000Y-95350000D01*
G75*
G02*
X157405000Y-95500000I-150000J0D01*
G01*
X157105000Y-95500000D01*
G75*
G02*
X156955000Y-95350000I0J150000D01*
G01*
X156955000Y-93900000D01*
G75*
G02*
X157105000Y-93750000I150000J0D01*
G01*
G37*
G36*
G01*
X155835000Y-93750000D02*
X156135000Y-93750000D01*
G75*
G02*
X156285000Y-93900000I0J-150000D01*
G01*
X156285000Y-95350000D01*
G75*
G02*
X156135000Y-95500000I-150000J0D01*
G01*
X155835000Y-95500000D01*
G75*
G02*
X155685000Y-95350000I0J150000D01*
G01*
X155685000Y-93900000D01*
G75*
G02*
X155835000Y-93750000I150000J0D01*
G01*
G37*
G36*
G01*
X154565000Y-93750000D02*
X154865000Y-93750000D01*
G75*
G02*
X155015000Y-93900000I0J-150000D01*
G01*
X155015000Y-95350000D01*
G75*
G02*
X154865000Y-95500000I-150000J0D01*
G01*
X154565000Y-95500000D01*
G75*
G02*
X154415000Y-95350000I0J150000D01*
G01*
X154415000Y-93900000D01*
G75*
G02*
X154565000Y-93750000I150000J0D01*
G01*
G37*
G36*
G01*
X153295000Y-93750000D02*
X153595000Y-93750000D01*
G75*
G02*
X153745000Y-93900000I0J-150000D01*
G01*
X153745000Y-95350000D01*
G75*
G02*
X153595000Y-95500000I-150000J0D01*
G01*
X153295000Y-95500000D01*
G75*
G02*
X153145000Y-95350000I0J150000D01*
G01*
X153145000Y-93900000D01*
G75*
G02*
X153295000Y-93750000I150000J0D01*
G01*
G37*
G36*
G01*
X152025000Y-93750000D02*
X152325000Y-93750000D01*
G75*
G02*
X152475000Y-93900000I0J-150000D01*
G01*
X152475000Y-95350000D01*
G75*
G02*
X152325000Y-95500000I-150000J0D01*
G01*
X152025000Y-95500000D01*
G75*
G02*
X151875000Y-95350000I0J150000D01*
G01*
X151875000Y-93900000D01*
G75*
G02*
X152025000Y-93750000I150000J0D01*
G01*
G37*
G36*
G01*
X150755000Y-93750000D02*
X151055000Y-93750000D01*
G75*
G02*
X151205000Y-93900000I0J-150000D01*
G01*
X151205000Y-95350000D01*
G75*
G02*
X151055000Y-95500000I-150000J0D01*
G01*
X150755000Y-95500000D01*
G75*
G02*
X150605000Y-95350000I0J150000D01*
G01*
X150605000Y-93900000D01*
G75*
G02*
X150755000Y-93750000I150000J0D01*
G01*
G37*
G36*
G01*
X165755000Y-99000000D02*
X166055000Y-99000000D01*
G75*
G02*
X166205000Y-99150000I0J-150000D01*
G01*
X166205000Y-100600000D01*
G75*
G02*
X166055000Y-100750000I-150000J0D01*
G01*
X165755000Y-100750000D01*
G75*
G02*
X165605000Y-100600000I0J150000D01*
G01*
X165605000Y-99150000D01*
G75*
G02*
X165755000Y-99000000I150000J0D01*
G01*
G37*
G36*
G01*
X167025000Y-99000000D02*
X167325000Y-99000000D01*
G75*
G02*
X167475000Y-99150000I0J-150000D01*
G01*
X167475000Y-100600000D01*
G75*
G02*
X167325000Y-100750000I-150000J0D01*
G01*
X167025000Y-100750000D01*
G75*
G02*
X166875000Y-100600000I0J150000D01*
G01*
X166875000Y-99150000D01*
G75*
G02*
X167025000Y-99000000I150000J0D01*
G01*
G37*
G36*
G01*
X168295000Y-99000000D02*
X168595000Y-99000000D01*
G75*
G02*
X168745000Y-99150000I0J-150000D01*
G01*
X168745000Y-100600000D01*
G75*
G02*
X168595000Y-100750000I-150000J0D01*
G01*
X168295000Y-100750000D01*
G75*
G02*
X168145000Y-100600000I0J150000D01*
G01*
X168145000Y-99150000D01*
G75*
G02*
X168295000Y-99000000I150000J0D01*
G01*
G37*
G36*
G01*
X169565000Y-99000000D02*
X169865000Y-99000000D01*
G75*
G02*
X170015000Y-99150000I0J-150000D01*
G01*
X170015000Y-100600000D01*
G75*
G02*
X169865000Y-100750000I-150000J0D01*
G01*
X169565000Y-100750000D01*
G75*
G02*
X169415000Y-100600000I0J150000D01*
G01*
X169415000Y-99150000D01*
G75*
G02*
X169565000Y-99000000I150000J0D01*
G01*
G37*
G36*
G01*
X170835000Y-99000000D02*
X171135000Y-99000000D01*
G75*
G02*
X171285000Y-99150000I0J-150000D01*
G01*
X171285000Y-100600000D01*
G75*
G02*
X171135000Y-100750000I-150000J0D01*
G01*
X170835000Y-100750000D01*
G75*
G02*
X170685000Y-100600000I0J150000D01*
G01*
X170685000Y-99150000D01*
G75*
G02*
X170835000Y-99000000I150000J0D01*
G01*
G37*
G36*
G01*
X172105000Y-99000000D02*
X172405000Y-99000000D01*
G75*
G02*
X172555000Y-99150000I0J-150000D01*
G01*
X172555000Y-100600000D01*
G75*
G02*
X172405000Y-100750000I-150000J0D01*
G01*
X172105000Y-100750000D01*
G75*
G02*
X171955000Y-100600000I0J150000D01*
G01*
X171955000Y-99150000D01*
G75*
G02*
X172105000Y-99000000I150000J0D01*
G01*
G37*
G36*
G01*
X173375000Y-99000000D02*
X173675000Y-99000000D01*
G75*
G02*
X173825000Y-99150000I0J-150000D01*
G01*
X173825000Y-100600000D01*
G75*
G02*
X173675000Y-100750000I-150000J0D01*
G01*
X173375000Y-100750000D01*
G75*
G02*
X173225000Y-100600000I0J150000D01*
G01*
X173225000Y-99150000D01*
G75*
G02*
X173375000Y-99000000I150000J0D01*
G01*
G37*
G36*
G01*
X174645000Y-99000000D02*
X174945000Y-99000000D01*
G75*
G02*
X175095000Y-99150000I0J-150000D01*
G01*
X175095000Y-100600000D01*
G75*
G02*
X174945000Y-100750000I-150000J0D01*
G01*
X174645000Y-100750000D01*
G75*
G02*
X174495000Y-100600000I0J150000D01*
G01*
X174495000Y-99150000D01*
G75*
G02*
X174645000Y-99000000I150000J0D01*
G01*
G37*
G36*
G01*
X174645000Y-93850000D02*
X174945000Y-93850000D01*
G75*
G02*
X175095000Y-94000000I0J-150000D01*
G01*
X175095000Y-95450000D01*
G75*
G02*
X174945000Y-95600000I-150000J0D01*
G01*
X174645000Y-95600000D01*
G75*
G02*
X174495000Y-95450000I0J150000D01*
G01*
X174495000Y-94000000D01*
G75*
G02*
X174645000Y-93850000I150000J0D01*
G01*
G37*
G36*
G01*
X173375000Y-93850000D02*
X173675000Y-93850000D01*
G75*
G02*
X173825000Y-94000000I0J-150000D01*
G01*
X173825000Y-95450000D01*
G75*
G02*
X173675000Y-95600000I-150000J0D01*
G01*
X173375000Y-95600000D01*
G75*
G02*
X173225000Y-95450000I0J150000D01*
G01*
X173225000Y-94000000D01*
G75*
G02*
X173375000Y-93850000I150000J0D01*
G01*
G37*
G36*
G01*
X172105000Y-93850000D02*
X172405000Y-93850000D01*
G75*
G02*
X172555000Y-94000000I0J-150000D01*
G01*
X172555000Y-95450000D01*
G75*
G02*
X172405000Y-95600000I-150000J0D01*
G01*
X172105000Y-95600000D01*
G75*
G02*
X171955000Y-95450000I0J150000D01*
G01*
X171955000Y-94000000D01*
G75*
G02*
X172105000Y-93850000I150000J0D01*
G01*
G37*
G36*
G01*
X170835000Y-93850000D02*
X171135000Y-93850000D01*
G75*
G02*
X171285000Y-94000000I0J-150000D01*
G01*
X171285000Y-95450000D01*
G75*
G02*
X171135000Y-95600000I-150000J0D01*
G01*
X170835000Y-95600000D01*
G75*
G02*
X170685000Y-95450000I0J150000D01*
G01*
X170685000Y-94000000D01*
G75*
G02*
X170835000Y-93850000I150000J0D01*
G01*
G37*
G36*
G01*
X169565000Y-93850000D02*
X169865000Y-93850000D01*
G75*
G02*
X170015000Y-94000000I0J-150000D01*
G01*
X170015000Y-95450000D01*
G75*
G02*
X169865000Y-95600000I-150000J0D01*
G01*
X169565000Y-95600000D01*
G75*
G02*
X169415000Y-95450000I0J150000D01*
G01*
X169415000Y-94000000D01*
G75*
G02*
X169565000Y-93850000I150000J0D01*
G01*
G37*
G36*
G01*
X168295000Y-93850000D02*
X168595000Y-93850000D01*
G75*
G02*
X168745000Y-94000000I0J-150000D01*
G01*
X168745000Y-95450000D01*
G75*
G02*
X168595000Y-95600000I-150000J0D01*
G01*
X168295000Y-95600000D01*
G75*
G02*
X168145000Y-95450000I0J150000D01*
G01*
X168145000Y-94000000D01*
G75*
G02*
X168295000Y-93850000I150000J0D01*
G01*
G37*
G36*
G01*
X167025000Y-93850000D02*
X167325000Y-93850000D01*
G75*
G02*
X167475000Y-94000000I0J-150000D01*
G01*
X167475000Y-95450000D01*
G75*
G02*
X167325000Y-95600000I-150000J0D01*
G01*
X167025000Y-95600000D01*
G75*
G02*
X166875000Y-95450000I0J150000D01*
G01*
X166875000Y-94000000D01*
G75*
G02*
X167025000Y-93850000I150000J0D01*
G01*
G37*
G36*
G01*
X165755000Y-93850000D02*
X166055000Y-93850000D01*
G75*
G02*
X166205000Y-94000000I0J-150000D01*
G01*
X166205000Y-95450000D01*
G75*
G02*
X166055000Y-95600000I-150000J0D01*
G01*
X165755000Y-95600000D01*
G75*
G02*
X165605000Y-95450000I0J150000D01*
G01*
X165605000Y-94000000D01*
G75*
G02*
X165755000Y-93850000I150000J0D01*
G01*
G37*
G36*
G01*
X180805000Y-98925000D02*
X181105000Y-98925000D01*
G75*
G02*
X181255000Y-99075000I0J-150000D01*
G01*
X181255000Y-100525000D01*
G75*
G02*
X181105000Y-100675000I-150000J0D01*
G01*
X180805000Y-100675000D01*
G75*
G02*
X180655000Y-100525000I0J150000D01*
G01*
X180655000Y-99075000D01*
G75*
G02*
X180805000Y-98925000I150000J0D01*
G01*
G37*
G36*
G01*
X182075000Y-98925000D02*
X182375000Y-98925000D01*
G75*
G02*
X182525000Y-99075000I0J-150000D01*
G01*
X182525000Y-100525000D01*
G75*
G02*
X182375000Y-100675000I-150000J0D01*
G01*
X182075000Y-100675000D01*
G75*
G02*
X181925000Y-100525000I0J150000D01*
G01*
X181925000Y-99075000D01*
G75*
G02*
X182075000Y-98925000I150000J0D01*
G01*
G37*
G36*
G01*
X183345000Y-98925000D02*
X183645000Y-98925000D01*
G75*
G02*
X183795000Y-99075000I0J-150000D01*
G01*
X183795000Y-100525000D01*
G75*
G02*
X183645000Y-100675000I-150000J0D01*
G01*
X183345000Y-100675000D01*
G75*
G02*
X183195000Y-100525000I0J150000D01*
G01*
X183195000Y-99075000D01*
G75*
G02*
X183345000Y-98925000I150000J0D01*
G01*
G37*
G36*
G01*
X184615000Y-98925000D02*
X184915000Y-98925000D01*
G75*
G02*
X185065000Y-99075000I0J-150000D01*
G01*
X185065000Y-100525000D01*
G75*
G02*
X184915000Y-100675000I-150000J0D01*
G01*
X184615000Y-100675000D01*
G75*
G02*
X184465000Y-100525000I0J150000D01*
G01*
X184465000Y-99075000D01*
G75*
G02*
X184615000Y-98925000I150000J0D01*
G01*
G37*
G36*
G01*
X185885000Y-98925000D02*
X186185000Y-98925000D01*
G75*
G02*
X186335000Y-99075000I0J-150000D01*
G01*
X186335000Y-100525000D01*
G75*
G02*
X186185000Y-100675000I-150000J0D01*
G01*
X185885000Y-100675000D01*
G75*
G02*
X185735000Y-100525000I0J150000D01*
G01*
X185735000Y-99075000D01*
G75*
G02*
X185885000Y-98925000I150000J0D01*
G01*
G37*
G36*
G01*
X187155000Y-98925000D02*
X187455000Y-98925000D01*
G75*
G02*
X187605000Y-99075000I0J-150000D01*
G01*
X187605000Y-100525000D01*
G75*
G02*
X187455000Y-100675000I-150000J0D01*
G01*
X187155000Y-100675000D01*
G75*
G02*
X187005000Y-100525000I0J150000D01*
G01*
X187005000Y-99075000D01*
G75*
G02*
X187155000Y-98925000I150000J0D01*
G01*
G37*
G36*
G01*
X188425000Y-98925000D02*
X188725000Y-98925000D01*
G75*
G02*
X188875000Y-99075000I0J-150000D01*
G01*
X188875000Y-100525000D01*
G75*
G02*
X188725000Y-100675000I-150000J0D01*
G01*
X188425000Y-100675000D01*
G75*
G02*
X188275000Y-100525000I0J150000D01*
G01*
X188275000Y-99075000D01*
G75*
G02*
X188425000Y-98925000I150000J0D01*
G01*
G37*
G36*
G01*
X189695000Y-98925000D02*
X189995000Y-98925000D01*
G75*
G02*
X190145000Y-99075000I0J-150000D01*
G01*
X190145000Y-100525000D01*
G75*
G02*
X189995000Y-100675000I-150000J0D01*
G01*
X189695000Y-100675000D01*
G75*
G02*
X189545000Y-100525000I0J150000D01*
G01*
X189545000Y-99075000D01*
G75*
G02*
X189695000Y-98925000I150000J0D01*
G01*
G37*
G36*
G01*
X189695000Y-93775000D02*
X189995000Y-93775000D01*
G75*
G02*
X190145000Y-93925000I0J-150000D01*
G01*
X190145000Y-95375000D01*
G75*
G02*
X189995000Y-95525000I-150000J0D01*
G01*
X189695000Y-95525000D01*
G75*
G02*
X189545000Y-95375000I0J150000D01*
G01*
X189545000Y-93925000D01*
G75*
G02*
X189695000Y-93775000I150000J0D01*
G01*
G37*
G36*
G01*
X188425000Y-93775000D02*
X188725000Y-93775000D01*
G75*
G02*
X188875000Y-93925000I0J-150000D01*
G01*
X188875000Y-95375000D01*
G75*
G02*
X188725000Y-95525000I-150000J0D01*
G01*
X188425000Y-95525000D01*
G75*
G02*
X188275000Y-95375000I0J150000D01*
G01*
X188275000Y-93925000D01*
G75*
G02*
X188425000Y-93775000I150000J0D01*
G01*
G37*
G36*
G01*
X187155000Y-93775000D02*
X187455000Y-93775000D01*
G75*
G02*
X187605000Y-93925000I0J-150000D01*
G01*
X187605000Y-95375000D01*
G75*
G02*
X187455000Y-95525000I-150000J0D01*
G01*
X187155000Y-95525000D01*
G75*
G02*
X187005000Y-95375000I0J150000D01*
G01*
X187005000Y-93925000D01*
G75*
G02*
X187155000Y-93775000I150000J0D01*
G01*
G37*
G36*
G01*
X185885000Y-93775000D02*
X186185000Y-93775000D01*
G75*
G02*
X186335000Y-93925000I0J-150000D01*
G01*
X186335000Y-95375000D01*
G75*
G02*
X186185000Y-95525000I-150000J0D01*
G01*
X185885000Y-95525000D01*
G75*
G02*
X185735000Y-95375000I0J150000D01*
G01*
X185735000Y-93925000D01*
G75*
G02*
X185885000Y-93775000I150000J0D01*
G01*
G37*
G36*
G01*
X184615000Y-93775000D02*
X184915000Y-93775000D01*
G75*
G02*
X185065000Y-93925000I0J-150000D01*
G01*
X185065000Y-95375000D01*
G75*
G02*
X184915000Y-95525000I-150000J0D01*
G01*
X184615000Y-95525000D01*
G75*
G02*
X184465000Y-95375000I0J150000D01*
G01*
X184465000Y-93925000D01*
G75*
G02*
X184615000Y-93775000I150000J0D01*
G01*
G37*
G36*
G01*
X183345000Y-93775000D02*
X183645000Y-93775000D01*
G75*
G02*
X183795000Y-93925000I0J-150000D01*
G01*
X183795000Y-95375000D01*
G75*
G02*
X183645000Y-95525000I-150000J0D01*
G01*
X183345000Y-95525000D01*
G75*
G02*
X183195000Y-95375000I0J150000D01*
G01*
X183195000Y-93925000D01*
G75*
G02*
X183345000Y-93775000I150000J0D01*
G01*
G37*
G36*
G01*
X182075000Y-93775000D02*
X182375000Y-93775000D01*
G75*
G02*
X182525000Y-93925000I0J-150000D01*
G01*
X182525000Y-95375000D01*
G75*
G02*
X182375000Y-95525000I-150000J0D01*
G01*
X182075000Y-95525000D01*
G75*
G02*
X181925000Y-95375000I0J150000D01*
G01*
X181925000Y-93925000D01*
G75*
G02*
X182075000Y-93775000I150000J0D01*
G01*
G37*
G36*
G01*
X180805000Y-93775000D02*
X181105000Y-93775000D01*
G75*
G02*
X181255000Y-93925000I0J-150000D01*
G01*
X181255000Y-95375000D01*
G75*
G02*
X181105000Y-95525000I-150000J0D01*
G01*
X180805000Y-95525000D01*
G75*
G02*
X180655000Y-95375000I0J150000D01*
G01*
X180655000Y-93925000D01*
G75*
G02*
X180805000Y-93775000I150000J0D01*
G01*
G37*
G36*
G01*
X68900002Y-97637500D02*
X67599998Y-97637500D01*
G75*
G02*
X67350000Y-97387502I0J249998D01*
G01*
X67350000Y-96562498D01*
G75*
G02*
X67599998Y-96312500I249998J0D01*
G01*
X68900002Y-96312500D01*
G75*
G02*
X69150000Y-96562498I0J-249998D01*
G01*
X69150000Y-97387502D01*
G75*
G02*
X68900002Y-97637500I-249998J0D01*
G01*
G37*
G36*
G01*
X68900002Y-100762500D02*
X67599998Y-100762500D01*
G75*
G02*
X67350000Y-100512502I0J249998D01*
G01*
X67350000Y-99687498D01*
G75*
G02*
X67599998Y-99437500I249998J0D01*
G01*
X68900002Y-99437500D01*
G75*
G02*
X69150000Y-99687498I0J-249998D01*
G01*
X69150000Y-100512502D01*
G75*
G02*
X68900002Y-100762500I-249998J0D01*
G01*
G37*
G36*
G01*
X52700002Y-97637500D02*
X51399998Y-97637500D01*
G75*
G02*
X51150000Y-97387502I0J249998D01*
G01*
X51150000Y-96562498D01*
G75*
G02*
X51399998Y-96312500I249998J0D01*
G01*
X52700002Y-96312500D01*
G75*
G02*
X52950000Y-96562498I0J-249998D01*
G01*
X52950000Y-97387502D01*
G75*
G02*
X52700002Y-97637500I-249998J0D01*
G01*
G37*
G36*
G01*
X52700002Y-100762500D02*
X51399998Y-100762500D01*
G75*
G02*
X51150000Y-100512502I0J249998D01*
G01*
X51150000Y-99687498D01*
G75*
G02*
X51399998Y-99437500I249998J0D01*
G01*
X52700002Y-99437500D01*
G75*
G02*
X52950000Y-99687498I0J-249998D01*
G01*
X52950000Y-100512502D01*
G75*
G02*
X52700002Y-100762500I-249998J0D01*
G01*
G37*
G36*
G01*
X88700002Y-97600000D02*
X87399998Y-97600000D01*
G75*
G02*
X87150000Y-97350002I0J249998D01*
G01*
X87150000Y-96524998D01*
G75*
G02*
X87399998Y-96275000I249998J0D01*
G01*
X88700002Y-96275000D01*
G75*
G02*
X88950000Y-96524998I0J-249998D01*
G01*
X88950000Y-97350002D01*
G75*
G02*
X88700002Y-97600000I-249998J0D01*
G01*
G37*
G36*
G01*
X88700002Y-100725000D02*
X87399998Y-100725000D01*
G75*
G02*
X87150000Y-100475002I0J249998D01*
G01*
X87150000Y-99649998D01*
G75*
G02*
X87399998Y-99400000I249998J0D01*
G01*
X88700002Y-99400000D01*
G75*
G02*
X88950000Y-99649998I0J-249998D01*
G01*
X88950000Y-100475002D01*
G75*
G02*
X88700002Y-100725000I-249998J0D01*
G01*
G37*
G36*
G01*
X107650002Y-97650000D02*
X106349998Y-97650000D01*
G75*
G02*
X106100000Y-97400002I0J249998D01*
G01*
X106100000Y-96574998D01*
G75*
G02*
X106349998Y-96325000I249998J0D01*
G01*
X107650002Y-96325000D01*
G75*
G02*
X107900000Y-96574998I0J-249998D01*
G01*
X107900000Y-97400002D01*
G75*
G02*
X107650002Y-97650000I-249998J0D01*
G01*
G37*
G36*
G01*
X107650002Y-100775000D02*
X106349998Y-100775000D01*
G75*
G02*
X106100000Y-100525002I0J249998D01*
G01*
X106100000Y-99699998D01*
G75*
G02*
X106349998Y-99450000I249998J0D01*
G01*
X107650002Y-99450000D01*
G75*
G02*
X107900000Y-99699998I0J-249998D01*
G01*
X107900000Y-100525002D01*
G75*
G02*
X107650002Y-100775000I-249998J0D01*
G01*
G37*
G36*
G01*
X125550002Y-97537500D02*
X124249998Y-97537500D01*
G75*
G02*
X124000000Y-97287502I0J249998D01*
G01*
X124000000Y-96462498D01*
G75*
G02*
X124249998Y-96212500I249998J0D01*
G01*
X125550002Y-96212500D01*
G75*
G02*
X125800000Y-96462498I0J-249998D01*
G01*
X125800000Y-97287502D01*
G75*
G02*
X125550002Y-97537500I-249998J0D01*
G01*
G37*
G36*
G01*
X125550002Y-100662500D02*
X124249998Y-100662500D01*
G75*
G02*
X124000000Y-100412502I0J249998D01*
G01*
X124000000Y-99587498D01*
G75*
G02*
X124249998Y-99337500I249998J0D01*
G01*
X125550002Y-99337500D01*
G75*
G02*
X125800000Y-99587498I0J-249998D01*
G01*
X125800000Y-100412502D01*
G75*
G02*
X125550002Y-100662500I-249998J0D01*
G01*
G37*
G36*
G01*
X148250002Y-97537500D02*
X146949998Y-97537500D01*
G75*
G02*
X146700000Y-97287502I0J249998D01*
G01*
X146700000Y-96462498D01*
G75*
G02*
X146949998Y-96212500I249998J0D01*
G01*
X148250002Y-96212500D01*
G75*
G02*
X148500000Y-96462498I0J-249998D01*
G01*
X148500000Y-97287502D01*
G75*
G02*
X148250002Y-97537500I-249998J0D01*
G01*
G37*
G36*
G01*
X148250002Y-100662500D02*
X146949998Y-100662500D01*
G75*
G02*
X146700000Y-100412502I0J249998D01*
G01*
X146700000Y-99587498D01*
G75*
G02*
X146949998Y-99337500I249998J0D01*
G01*
X148250002Y-99337500D01*
G75*
G02*
X148500000Y-99587498I0J-249998D01*
G01*
X148500000Y-100412502D01*
G75*
G02*
X148250002Y-100662500I-249998J0D01*
G01*
G37*
G36*
G01*
X163550002Y-97537500D02*
X162249998Y-97537500D01*
G75*
G02*
X162000000Y-97287502I0J249998D01*
G01*
X162000000Y-96462498D01*
G75*
G02*
X162249998Y-96212500I249998J0D01*
G01*
X163550002Y-96212500D01*
G75*
G02*
X163800000Y-96462498I0J-249998D01*
G01*
X163800000Y-97287502D01*
G75*
G02*
X163550002Y-97537500I-249998J0D01*
G01*
G37*
G36*
G01*
X163550002Y-100662500D02*
X162249998Y-100662500D01*
G75*
G02*
X162000000Y-100412502I0J249998D01*
G01*
X162000000Y-99587498D01*
G75*
G02*
X162249998Y-99337500I249998J0D01*
G01*
X163550002Y-99337500D01*
G75*
G02*
X163800000Y-99587498I0J-249998D01*
G01*
X163800000Y-100412502D01*
G75*
G02*
X163550002Y-100662500I-249998J0D01*
G01*
G37*
G36*
G01*
X178550002Y-97462500D02*
X177249998Y-97462500D01*
G75*
G02*
X177000000Y-97212502I0J249998D01*
G01*
X177000000Y-96387498D01*
G75*
G02*
X177249998Y-96137500I249998J0D01*
G01*
X178550002Y-96137500D01*
G75*
G02*
X178800000Y-96387498I0J-249998D01*
G01*
X178800000Y-97212502D01*
G75*
G02*
X178550002Y-97462500I-249998J0D01*
G01*
G37*
G36*
G01*
X178550002Y-100587500D02*
X177249998Y-100587500D01*
G75*
G02*
X177000000Y-100337502I0J249998D01*
G01*
X177000000Y-99512498D01*
G75*
G02*
X177249998Y-99262500I249998J0D01*
G01*
X178550002Y-99262500D01*
G75*
G02*
X178800000Y-99512498I0J-249998D01*
G01*
X178800000Y-100337502D01*
G75*
G02*
X178550002Y-100587500I-249998J0D01*
G01*
G37*
G36*
G01*
X209962500Y-104449998D02*
X209962500Y-105750002D01*
G75*
G02*
X209712502Y-106000000I-249998J0D01*
G01*
X208887498Y-106000000D01*
G75*
G02*
X208637500Y-105750002I0J249998D01*
G01*
X208637500Y-104449998D01*
G75*
G02*
X208887498Y-104200000I249998J0D01*
G01*
X209712502Y-104200000D01*
G75*
G02*
X209962500Y-104449998I0J-249998D01*
G01*
G37*
G36*
G01*
X213087500Y-104449998D02*
X213087500Y-105750002D01*
G75*
G02*
X212837502Y-106000000I-249998J0D01*
G01*
X212012498Y-106000000D01*
G75*
G02*
X211762500Y-105750002I0J249998D01*
G01*
X211762500Y-104449998D01*
G75*
G02*
X212012498Y-104200000I249998J0D01*
G01*
X212837502Y-104200000D01*
G75*
G02*
X213087500Y-104449998I0J-249998D01*
G01*
G37*
G36*
G01*
X210337500Y-89749998D02*
X210337500Y-91050002D01*
G75*
G02*
X210087502Y-91300000I-249998J0D01*
G01*
X209262498Y-91300000D01*
G75*
G02*
X209012500Y-91050002I0J249998D01*
G01*
X209012500Y-89749998D01*
G75*
G02*
X209262498Y-89500000I249998J0D01*
G01*
X210087502Y-89500000D01*
G75*
G02*
X210337500Y-89749998I0J-249998D01*
G01*
G37*
G36*
G01*
X213462500Y-89749998D02*
X213462500Y-91050002D01*
G75*
G02*
X213212502Y-91300000I-249998J0D01*
G01*
X212387498Y-91300000D01*
G75*
G02*
X212137500Y-91050002I0J249998D01*
G01*
X212137500Y-89749998D01*
G75*
G02*
X212387498Y-89500000I249998J0D01*
G01*
X213212502Y-89500000D01*
G75*
G02*
X213462500Y-89749998I0J-249998D01*
G01*
G37*
M02*
