%FSLAX45Y45*%
G04 Gerber Fmt 4.5, Leading zero omitted, Abs format (unit mm)*
G04 Created by KiCad (PCBNEW (5.1.10)-1) date 2022-04-06 13:47:04*
%MOMM*%
%LPD*%
G01*
G04 APERTURE LIST*
%TA.AperFunction,Profile*%
%ADD10C,0.038100*%
%TD*%
%ADD11C,0.200000*%
%ADD12C,0.300000*%
G04 APERTURE END LIST*
D10*
X5000000Y-10500000D02*
X20750000Y-10500000D01*
X20750000Y-9000000D02*
X5000000Y-9000000D01*
X20750000Y-10750000D02*
X20750000Y-10500000D01*
X25000000Y-10750000D02*
X20750000Y-10750000D01*
X25000000Y-10500000D02*
X25000000Y-10750000D01*
X25000000Y-8750000D02*
X25000000Y-9000000D01*
X20750000Y-8750000D02*
X25000000Y-8750000D01*
X20750000Y-9000000D02*
X20750000Y-8750000D01*
X20150000Y-10150000D02*
G75*
G03*
X20150000Y-10150000I-150000J0D01*
G01*
X20150000Y-9350000D02*
G75*
G03*
X20150000Y-9350000I-150000J0D01*
G01*
X25000000Y-10500000D02*
X25000000Y-9000000D01*
X5000000Y-9000000D02*
X5000000Y-10500000D01*
D11*
D12*
X5284523Y-11217619D02*
X5284523Y-10917619D01*
X5355952Y-10917619D01*
X5398809Y-10931905D01*
X5427381Y-10960477D01*
X5441666Y-10989048D01*
X5455952Y-11046191D01*
X5455952Y-11089048D01*
X5441666Y-11146191D01*
X5427381Y-11174762D01*
X5398809Y-11203334D01*
X5355952Y-11217619D01*
X5284523Y-11217619D01*
X5584523Y-11217619D02*
X5584523Y-11017619D01*
X5584523Y-11074762D02*
X5598809Y-11046191D01*
X5613095Y-11031905D01*
X5641666Y-11017619D01*
X5670238Y-11017619D01*
X5770238Y-11217619D02*
X5770238Y-11017619D01*
X5770238Y-10917619D02*
X5755952Y-10931905D01*
X5770238Y-10946191D01*
X5784523Y-10931905D01*
X5770238Y-10917619D01*
X5770238Y-10946191D01*
X5955952Y-11217619D02*
X5927381Y-11203334D01*
X5913095Y-11174762D01*
X5913095Y-10917619D01*
X6113095Y-11217619D02*
X6084523Y-11203334D01*
X6070238Y-11174762D01*
X6070238Y-10917619D01*
X6455952Y-11217619D02*
X6455952Y-10917619D01*
X6555952Y-11131905D01*
X6655952Y-10917619D01*
X6655952Y-11217619D01*
X6927381Y-11217619D02*
X6927381Y-11060477D01*
X6913095Y-11031905D01*
X6884523Y-11017619D01*
X6827381Y-11017619D01*
X6798809Y-11031905D01*
X6927381Y-11203334D02*
X6898809Y-11217619D01*
X6827381Y-11217619D01*
X6798809Y-11203334D01*
X6784523Y-11174762D01*
X6784523Y-11146191D01*
X6798809Y-11117619D01*
X6827381Y-11103334D01*
X6898809Y-11103334D01*
X6927381Y-11089048D01*
X7070238Y-11017619D02*
X7070238Y-11317619D01*
X7070238Y-11031905D02*
X7098809Y-11017619D01*
X7155952Y-11017619D01*
X7184523Y-11031905D01*
X7198809Y-11046191D01*
X7213095Y-11074762D01*
X7213095Y-11160477D01*
X7198809Y-11189048D01*
X7184523Y-11203334D01*
X7155952Y-11217619D01*
X7098809Y-11217619D01*
X7070238Y-11203334D01*
X7341666Y-11189048D02*
X7355952Y-11203334D01*
X7341666Y-11217619D01*
X7327381Y-11203334D01*
X7341666Y-11189048D01*
X7341666Y-11217619D01*
X7341666Y-11031905D02*
X7355952Y-11046191D01*
X7341666Y-11060477D01*
X7327381Y-11046191D01*
X7341666Y-11031905D01*
X7341666Y-11060477D01*
M02*
