G04 #@! TF.GenerationSoftware,KiCad,Pcbnew,(5.1.10)-1*
G04 #@! TF.CreationDate,2022-04-06T13:47:00+02:00*
G04 #@! TF.ProjectId,POV_display_schematic,504f565f-6469-4737-906c-61795f736368,1*
G04 #@! TF.SameCoordinates,Original*
G04 #@! TF.FileFunction,Legend,Top*
G04 #@! TF.FilePolarity,Positive*
%FSLAX46Y46*%
G04 Gerber Fmt 4.6, Leading zero omitted, Abs format (unit mm)*
G04 Created by KiCad (PCBNEW (5.1.10)-1) date 2022-04-06 13:47:00*
%MOMM*%
%LPD*%
G01*
G04 APERTURE LIST*
%ADD10C,0.152400*%
%ADD11C,0.120000*%
%ADD12C,0.150000*%
%ADD13O,1.700000X1.700000*%
%ADD14R,1.700000X1.700000*%
%ADD15R,1.100000X2.000000*%
%ADD16R,1.050000X1.100000*%
%ADD17R,2.000000X0.650000*%
G04 APERTURE END LIST*
D10*
X228538857Y-89341942D02*
X228267923Y-89341942D01*
X228267923Y-89767695D02*
X228267923Y-88954895D01*
X228654971Y-88954895D01*
X229080723Y-89767695D02*
X229003314Y-89728990D01*
X228964609Y-89651580D01*
X228964609Y-88954895D01*
X229738704Y-89767695D02*
X229738704Y-89341942D01*
X229700000Y-89264533D01*
X229622590Y-89225828D01*
X229467771Y-89225828D01*
X229390361Y-89264533D01*
X229738704Y-89728990D02*
X229661295Y-89767695D01*
X229467771Y-89767695D01*
X229390361Y-89728990D01*
X229351657Y-89651580D01*
X229351657Y-89574171D01*
X229390361Y-89496761D01*
X229467771Y-89458057D01*
X229661295Y-89458057D01*
X229738704Y-89419352D01*
X230087047Y-89728990D02*
X230164457Y-89767695D01*
X230319276Y-89767695D01*
X230396685Y-89728990D01*
X230435390Y-89651580D01*
X230435390Y-89612876D01*
X230396685Y-89535466D01*
X230319276Y-89496761D01*
X230203161Y-89496761D01*
X230125752Y-89458057D01*
X230087047Y-89380647D01*
X230087047Y-89341942D01*
X230125752Y-89264533D01*
X230203161Y-89225828D01*
X230319276Y-89225828D01*
X230396685Y-89264533D01*
X230783733Y-89767695D02*
X230783733Y-88954895D01*
X231132076Y-89767695D02*
X231132076Y-89341942D01*
X231093371Y-89264533D01*
X231015961Y-89225828D01*
X230899847Y-89225828D01*
X230822438Y-89264533D01*
X230783733Y-89303238D01*
X247454971Y-106054895D02*
X247725904Y-106867695D01*
X247996838Y-106054895D01*
X248422590Y-106054895D02*
X248500000Y-106054895D01*
X248577409Y-106093600D01*
X248616114Y-106132304D01*
X248654819Y-106209714D01*
X248693523Y-106364533D01*
X248693523Y-106558057D01*
X248654819Y-106712876D01*
X248616114Y-106790285D01*
X248577409Y-106828990D01*
X248500000Y-106867695D01*
X248422590Y-106867695D01*
X248345180Y-106828990D01*
X248306476Y-106790285D01*
X248267771Y-106712876D01*
X248229066Y-106558057D01*
X248229066Y-106364533D01*
X248267771Y-106209714D01*
X248306476Y-106132304D01*
X248345180Y-106093600D01*
X248422590Y-106054895D01*
X249467619Y-106867695D02*
X249003161Y-106867695D01*
X249235390Y-106867695D02*
X249235390Y-106054895D01*
X249157980Y-106171009D01*
X249080571Y-106248419D01*
X249003161Y-106287123D01*
X232329447Y-101381895D02*
X232329447Y-100569095D01*
X232639085Y-100569095D01*
X232716495Y-100607800D01*
X232755200Y-100646504D01*
X232793904Y-100723914D01*
X232793904Y-100840028D01*
X232755200Y-100917438D01*
X232716495Y-100956142D01*
X232639085Y-100994847D01*
X232329447Y-100994847D01*
X233297066Y-100569095D02*
X233451885Y-100569095D01*
X233529295Y-100607800D01*
X233606704Y-100685209D01*
X233645409Y-100840028D01*
X233645409Y-101110961D01*
X233606704Y-101265780D01*
X233529295Y-101343190D01*
X233451885Y-101381895D01*
X233297066Y-101381895D01*
X233219657Y-101343190D01*
X233142247Y-101265780D01*
X233103542Y-101110961D01*
X233103542Y-100840028D01*
X233142247Y-100685209D01*
X233219657Y-100607800D01*
X233297066Y-100569095D01*
X233877638Y-100569095D02*
X234148571Y-101381895D01*
X234419504Y-100569095D01*
X235774171Y-101304485D02*
X235735466Y-101343190D01*
X235619352Y-101381895D01*
X235541942Y-101381895D01*
X235425828Y-101343190D01*
X235348419Y-101265780D01*
X235309714Y-101188371D01*
X235271009Y-101033552D01*
X235271009Y-100917438D01*
X235309714Y-100762619D01*
X235348419Y-100685209D01*
X235425828Y-100607800D01*
X235541942Y-100569095D01*
X235619352Y-100569095D01*
X235735466Y-100607800D01*
X235774171Y-100646504D01*
X236509561Y-101381895D02*
X236122514Y-101381895D01*
X236122514Y-100569095D01*
X236935314Y-100569095D02*
X237090133Y-100569095D01*
X237167542Y-100607800D01*
X237244952Y-100685209D01*
X237283657Y-100840028D01*
X237283657Y-101110961D01*
X237244952Y-101265780D01*
X237167542Y-101343190D01*
X237090133Y-101381895D01*
X236935314Y-101381895D01*
X236857904Y-101343190D01*
X236780495Y-101265780D01*
X236741790Y-101110961D01*
X236741790Y-100840028D01*
X236780495Y-100685209D01*
X236857904Y-100607800D01*
X236935314Y-100569095D01*
X238096457Y-101304485D02*
X238057752Y-101343190D01*
X237941638Y-101381895D01*
X237864228Y-101381895D01*
X237748114Y-101343190D01*
X237670704Y-101265780D01*
X237632000Y-101188371D01*
X237593295Y-101033552D01*
X237593295Y-100917438D01*
X237632000Y-100762619D01*
X237670704Y-100685209D01*
X237748114Y-100607800D01*
X237864228Y-100569095D01*
X237941638Y-100569095D01*
X238057752Y-100607800D01*
X238096457Y-100646504D01*
X238444800Y-101381895D02*
X238444800Y-100569095D01*
X238909257Y-101381895D02*
X238560914Y-100917438D01*
X238909257Y-100569095D02*
X238444800Y-101033552D01*
X232716495Y-102753495D02*
X232716495Y-101940695D01*
X232716495Y-102250333D02*
X232793904Y-102211628D01*
X232948723Y-102211628D01*
X233026133Y-102250333D01*
X233064838Y-102289038D01*
X233103542Y-102366447D01*
X233103542Y-102598676D01*
X233064838Y-102676085D01*
X233026133Y-102714790D01*
X232948723Y-102753495D01*
X232793904Y-102753495D01*
X232716495Y-102714790D01*
X233374476Y-102211628D02*
X233568000Y-102753495D01*
X233761523Y-102211628D02*
X233568000Y-102753495D01*
X233490590Y-102947019D01*
X233451885Y-102985723D01*
X233374476Y-103024428D01*
X234690438Y-102753495D02*
X234690438Y-101940695D01*
X234961371Y-102521266D01*
X235232304Y-101940695D01*
X235232304Y-102753495D01*
X235619352Y-102753495D02*
X235619352Y-101940695D01*
X236083809Y-102753495D02*
X235735466Y-102289038D01*
X236083809Y-101940695D02*
X235619352Y-102405152D01*
X236432152Y-102753495D02*
X236432152Y-102211628D01*
X236432152Y-102366447D02*
X236470857Y-102289038D01*
X236509561Y-102250333D01*
X236586971Y-102211628D01*
X236664380Y-102211628D01*
X236857904Y-102211628D02*
X237051428Y-102753495D01*
X237244952Y-102211628D02*
X237051428Y-102753495D01*
X236974019Y-102947019D01*
X236935314Y-102985723D01*
X236857904Y-103024428D01*
X237515885Y-102714790D02*
X237593295Y-102753495D01*
X237748114Y-102753495D01*
X237825523Y-102714790D01*
X237864228Y-102637380D01*
X237864228Y-102598676D01*
X237825523Y-102521266D01*
X237748114Y-102482561D01*
X237632000Y-102482561D01*
X237554590Y-102443857D01*
X237515885Y-102366447D01*
X237515885Y-102327742D01*
X237554590Y-102250333D01*
X237632000Y-102211628D01*
X237748114Y-102211628D01*
X237825523Y-102250333D01*
X238135161Y-102211628D02*
X238560914Y-102211628D01*
X238135161Y-102753495D01*
X238560914Y-102753495D01*
X202000000Y-92500000D02*
X202000000Y-102000000D01*
X198000000Y-102000000D02*
X198000000Y-92500000D01*
X198000000Y-92500000D02*
X198000000Y-90000000D01*
X202000000Y-90000000D02*
X202000000Y-92500000D01*
X198000000Y-102000000D02*
X198000000Y-105000000D01*
X202000000Y-105000000D02*
X202000000Y-102000000D01*
X243780723Y-102393600D02*
X243703314Y-102354895D01*
X243587200Y-102354895D01*
X243471085Y-102393600D01*
X243393676Y-102471009D01*
X243354971Y-102548419D01*
X243316266Y-102703238D01*
X243316266Y-102819352D01*
X243354971Y-102974171D01*
X243393676Y-103051580D01*
X243471085Y-103128990D01*
X243587200Y-103167695D01*
X243664609Y-103167695D01*
X243780723Y-103128990D01*
X243819428Y-103090285D01*
X243819428Y-102819352D01*
X243664609Y-102819352D01*
X244167771Y-103167695D02*
X244167771Y-102354895D01*
X244632228Y-103167695D01*
X244632228Y-102354895D01*
X245019276Y-103167695D02*
X245019276Y-102354895D01*
X245212800Y-102354895D01*
X245328914Y-102393600D01*
X245406323Y-102471009D01*
X245445028Y-102548419D01*
X245483733Y-102703238D01*
X245483733Y-102819352D01*
X245445028Y-102974171D01*
X245406323Y-103051580D01*
X245328914Y-103128990D01*
X245212800Y-103167695D01*
X245019276Y-103167695D01*
X241761523Y-100328990D02*
X241877638Y-100367695D01*
X242071161Y-100367695D01*
X242148571Y-100328990D01*
X242187276Y-100290285D01*
X242225980Y-100212876D01*
X242225980Y-100135466D01*
X242187276Y-100058057D01*
X242148571Y-100019352D01*
X242071161Y-99980647D01*
X241916342Y-99941942D01*
X241838933Y-99903238D01*
X241800228Y-99864533D01*
X241761523Y-99787123D01*
X241761523Y-99709714D01*
X241800228Y-99632304D01*
X241838933Y-99593600D01*
X241916342Y-99554895D01*
X242109866Y-99554895D01*
X242225980Y-99593600D01*
X242496914Y-99554895D02*
X242690438Y-100367695D01*
X242845257Y-99787123D01*
X243000076Y-100367695D01*
X243193600Y-99554895D01*
X243967695Y-100290285D02*
X243928990Y-100328990D01*
X243812876Y-100367695D01*
X243735466Y-100367695D01*
X243619352Y-100328990D01*
X243541942Y-100251580D01*
X243503238Y-100174171D01*
X243464533Y-100019352D01*
X243464533Y-99903238D01*
X243503238Y-99748419D01*
X243541942Y-99671009D01*
X243619352Y-99593600D01*
X243735466Y-99554895D01*
X243812876Y-99554895D01*
X243928990Y-99593600D01*
X243967695Y-99632304D01*
X244703085Y-100367695D02*
X244316038Y-100367695D01*
X244316038Y-99554895D01*
X244974019Y-100367695D02*
X244974019Y-99554895D01*
X245438476Y-100367695D02*
X245090133Y-99903238D01*
X245438476Y-99554895D02*
X244974019Y-100019352D01*
X242077638Y-97928990D02*
X242193752Y-97967695D01*
X242387276Y-97967695D01*
X242464685Y-97928990D01*
X242503390Y-97890285D01*
X242542095Y-97812876D01*
X242542095Y-97735466D01*
X242503390Y-97658057D01*
X242464685Y-97619352D01*
X242387276Y-97580647D01*
X242232457Y-97541942D01*
X242155047Y-97503238D01*
X242116342Y-97464533D01*
X242077638Y-97387123D01*
X242077638Y-97309714D01*
X242116342Y-97232304D01*
X242155047Y-97193600D01*
X242232457Y-97154895D01*
X242425980Y-97154895D01*
X242542095Y-97193600D01*
X242813028Y-97154895D02*
X243006552Y-97967695D01*
X243161371Y-97387123D01*
X243316190Y-97967695D01*
X243509714Y-97154895D01*
X243819352Y-97967695D02*
X243819352Y-97154895D01*
X244012876Y-97154895D01*
X244128990Y-97193600D01*
X244206400Y-97271009D01*
X244245104Y-97348419D01*
X244283809Y-97503238D01*
X244283809Y-97619352D01*
X244245104Y-97774171D01*
X244206400Y-97851580D01*
X244128990Y-97928990D01*
X244012876Y-97967695D01*
X243819352Y-97967695D01*
X244632152Y-97967695D02*
X244632152Y-97154895D01*
X245174019Y-97154895D02*
X245328838Y-97154895D01*
X245406247Y-97193600D01*
X245483657Y-97271009D01*
X245522361Y-97425828D01*
X245522361Y-97696761D01*
X245483657Y-97851580D01*
X245406247Y-97928990D01*
X245328838Y-97967695D01*
X245174019Y-97967695D01*
X245096609Y-97928990D01*
X245019200Y-97851580D01*
X244980495Y-97696761D01*
X244980495Y-97425828D01*
X245019200Y-97271009D01*
X245096609Y-97193600D01*
X245174019Y-97154895D01*
X243496914Y-94216664D02*
X244309714Y-94216664D01*
X244154895Y-95367695D02*
X243883961Y-94980647D01*
X243690438Y-95367695D02*
X243690438Y-94554895D01*
X244000076Y-94554895D01*
X244077485Y-94593600D01*
X244116190Y-94632304D01*
X244154895Y-94709714D01*
X244154895Y-94825828D01*
X244116190Y-94903238D01*
X244077485Y-94941942D01*
X244000076Y-94980647D01*
X243690438Y-94980647D01*
X244309714Y-94216664D02*
X245083809Y-94216664D01*
X244464533Y-95328990D02*
X244580647Y-95367695D01*
X244774171Y-95367695D01*
X244851580Y-95328990D01*
X244890285Y-95290285D01*
X244928990Y-95212876D01*
X244928990Y-95135466D01*
X244890285Y-95058057D01*
X244851580Y-95019352D01*
X244774171Y-94980647D01*
X244619352Y-94941942D01*
X244541942Y-94903238D01*
X244503238Y-94864533D01*
X244464533Y-94787123D01*
X244464533Y-94709714D01*
X244503238Y-94632304D01*
X244541942Y-94593600D01*
X244619352Y-94554895D01*
X244812876Y-94554895D01*
X244928990Y-94593600D01*
X245083809Y-94216664D02*
X245703085Y-94216664D01*
X245161219Y-94554895D02*
X245625676Y-94554895D01*
X245393447Y-95367695D02*
X245393447Y-94554895D01*
X243516266Y-91954895D02*
X243787200Y-92767695D01*
X244058133Y-91954895D01*
X244793523Y-92690285D02*
X244754819Y-92728990D01*
X244638704Y-92767695D01*
X244561295Y-92767695D01*
X244445180Y-92728990D01*
X244367771Y-92651580D01*
X244329066Y-92574171D01*
X244290361Y-92419352D01*
X244290361Y-92303238D01*
X244329066Y-92148419D01*
X244367771Y-92071009D01*
X244445180Y-91993600D01*
X244561295Y-91954895D01*
X244638704Y-91954895D01*
X244754819Y-91993600D01*
X244793523Y-92032304D01*
X245606323Y-92690285D02*
X245567619Y-92728990D01*
X245451504Y-92767695D01*
X245374095Y-92767695D01*
X245257980Y-92728990D01*
X245180571Y-92651580D01*
X245141866Y-92574171D01*
X245103161Y-92419352D01*
X245103161Y-92303238D01*
X245141866Y-92148419D01*
X245180571Y-92071009D01*
X245257980Y-91993600D01*
X245374095Y-91954895D01*
X245451504Y-91954895D01*
X245567619Y-91993600D01*
X245606323Y-92032304D01*
D11*
X216760000Y-100660000D02*
X218050000Y-100660000D01*
X216760000Y-101110000D02*
X216760000Y-100660000D01*
X216310000Y-101110000D02*
X216760000Y-101110000D01*
X209540000Y-101110000D02*
X209540000Y-100660000D01*
X209990000Y-101110000D02*
X209540000Y-101110000D01*
X216760000Y-93890000D02*
X216760000Y-94340000D01*
X216310000Y-93890000D02*
X216760000Y-93890000D01*
X209540000Y-93890000D02*
X209540000Y-94340000D01*
X209990000Y-93890000D02*
X209540000Y-93890000D01*
X221786233Y-97810000D02*
X222078767Y-97810000D01*
X221786233Y-96790000D02*
X222078767Y-96790000D01*
X226213767Y-96790000D02*
X225921233Y-96790000D01*
X226213767Y-97810000D02*
X225921233Y-97810000D01*
X218227064Y-90510000D02*
X216772936Y-90510000D01*
X218227064Y-88690000D02*
X216772936Y-88690000D01*
X227370000Y-90730000D02*
X227370000Y-88070000D01*
X224770000Y-90730000D02*
X227370000Y-90730000D01*
X224770000Y-88070000D02*
X227370000Y-88070000D01*
X224770000Y-90730000D02*
X224770000Y-88070000D01*
X223500000Y-90730000D02*
X222170000Y-90730000D01*
X222170000Y-90730000D02*
X222170000Y-89400000D01*
X228077500Y-93167224D02*
X228077500Y-92657776D01*
X229122500Y-93167224D02*
X229122500Y-92657776D01*
X220972500Y-101295276D02*
X220972500Y-101804724D01*
X219927500Y-101295276D02*
X219927500Y-101804724D01*
X55522500Y-91545276D02*
X55522500Y-92054724D01*
X54477500Y-91545276D02*
X54477500Y-92054724D01*
X62522500Y-91557776D02*
X62522500Y-92067224D01*
X61477500Y-91557776D02*
X61477500Y-92067224D01*
X69522500Y-91557776D02*
X69522500Y-92067224D01*
X68477500Y-91557776D02*
X68477500Y-92067224D01*
X76522500Y-91545276D02*
X76522500Y-92054724D01*
X75477500Y-91545276D02*
X75477500Y-92054724D01*
X83522500Y-91545276D02*
X83522500Y-92054724D01*
X82477500Y-91545276D02*
X82477500Y-92054724D01*
X90422500Y-91545276D02*
X90422500Y-92054724D01*
X89377500Y-91545276D02*
X89377500Y-92054724D01*
X97522500Y-91557776D02*
X97522500Y-92067224D01*
X96477500Y-91557776D02*
X96477500Y-92067224D01*
X53722500Y-91557776D02*
X53722500Y-92067224D01*
X52677500Y-91557776D02*
X52677500Y-92067224D01*
X60722500Y-91545276D02*
X60722500Y-92054724D01*
X59677500Y-91545276D02*
X59677500Y-92054724D01*
X67722500Y-91545276D02*
X67722500Y-92054724D01*
X66677500Y-91545276D02*
X66677500Y-92054724D01*
X74722500Y-91545276D02*
X74722500Y-92054724D01*
X73677500Y-91545276D02*
X73677500Y-92054724D01*
X81822500Y-91532776D02*
X81822500Y-92042224D01*
X80777500Y-91532776D02*
X80777500Y-92042224D01*
X88822500Y-91545276D02*
X88822500Y-92054724D01*
X87777500Y-91545276D02*
X87777500Y-92054724D01*
X95722500Y-91545276D02*
X95722500Y-92054724D01*
X94677500Y-91545276D02*
X94677500Y-92054724D01*
X52022500Y-91545276D02*
X52022500Y-92054724D01*
X50977500Y-91545276D02*
X50977500Y-92054724D01*
X59022500Y-91545276D02*
X59022500Y-92054724D01*
X57977500Y-91545276D02*
X57977500Y-92054724D01*
X66022500Y-91545276D02*
X66022500Y-92054724D01*
X64977500Y-91545276D02*
X64977500Y-92054724D01*
X73022500Y-91545276D02*
X73022500Y-92054724D01*
X71977500Y-91545276D02*
X71977500Y-92054724D01*
X80022500Y-91557776D02*
X80022500Y-92067224D01*
X78977500Y-91557776D02*
X78977500Y-92067224D01*
X87022500Y-91545276D02*
X87022500Y-92054724D01*
X85977500Y-91545276D02*
X85977500Y-92054724D01*
X94022500Y-91545276D02*
X94022500Y-92054724D01*
X92977500Y-91545276D02*
X92977500Y-92054724D01*
X104522500Y-91545276D02*
X104522500Y-92054724D01*
X103477500Y-91545276D02*
X103477500Y-92054724D01*
X111522500Y-91545276D02*
X111522500Y-92054724D01*
X110477500Y-91545276D02*
X110477500Y-92054724D01*
X118522500Y-91545276D02*
X118522500Y-92054724D01*
X117477500Y-91545276D02*
X117477500Y-92054724D01*
X125522500Y-91545276D02*
X125522500Y-92054724D01*
X124477500Y-91545276D02*
X124477500Y-92054724D01*
X132522500Y-91545276D02*
X132522500Y-92054724D01*
X131477500Y-91545276D02*
X131477500Y-92054724D01*
X139522500Y-91532776D02*
X139522500Y-92042224D01*
X138477500Y-91532776D02*
X138477500Y-92042224D01*
X146522500Y-91532776D02*
X146522500Y-92042224D01*
X145477500Y-91532776D02*
X145477500Y-92042224D01*
X102822500Y-91545276D02*
X102822500Y-92054724D01*
X101777500Y-91545276D02*
X101777500Y-92054724D01*
X109722500Y-91545276D02*
X109722500Y-92054724D01*
X108677500Y-91545276D02*
X108677500Y-92054724D01*
X116722500Y-91632776D02*
X116722500Y-92142224D01*
X115677500Y-91632776D02*
X115677500Y-92142224D01*
X123822500Y-91545276D02*
X123822500Y-92054724D01*
X122777500Y-91545276D02*
X122777500Y-92054724D01*
X130722500Y-91545276D02*
X130722500Y-92054724D01*
X129677500Y-91545276D02*
X129677500Y-92054724D01*
X137722500Y-91557776D02*
X137722500Y-92067224D01*
X136677500Y-91557776D02*
X136677500Y-92067224D01*
X144722500Y-91545276D02*
X144722500Y-92054724D01*
X143677500Y-91545276D02*
X143677500Y-92054724D01*
X101122500Y-91532776D02*
X101122500Y-92042224D01*
X100077500Y-91532776D02*
X100077500Y-92042224D01*
X108022500Y-91532776D02*
X108022500Y-92042224D01*
X106977500Y-91532776D02*
X106977500Y-92042224D01*
X115022500Y-91545276D02*
X115022500Y-92054724D01*
X113977500Y-91545276D02*
X113977500Y-92054724D01*
X122022500Y-91545276D02*
X122022500Y-92054724D01*
X120977500Y-91545276D02*
X120977500Y-92054724D01*
X129022500Y-91545276D02*
X129022500Y-92054724D01*
X127977500Y-91545276D02*
X127977500Y-92054724D01*
X136022500Y-91545276D02*
X136022500Y-92054724D01*
X134977500Y-91545276D02*
X134977500Y-92054724D01*
X143022500Y-91545276D02*
X143022500Y-92054724D01*
X141977500Y-91545276D02*
X141977500Y-92054724D01*
X153422500Y-91545276D02*
X153422500Y-92054724D01*
X152377500Y-91545276D02*
X152377500Y-92054724D01*
X160522500Y-91545276D02*
X160522500Y-92054724D01*
X159477500Y-91545276D02*
X159477500Y-92054724D01*
X167522500Y-91545276D02*
X167522500Y-92054724D01*
X166477500Y-91545276D02*
X166477500Y-92054724D01*
X174522500Y-91557776D02*
X174522500Y-92067224D01*
X173477500Y-91557776D02*
X173477500Y-92067224D01*
X181522500Y-91557776D02*
X181522500Y-92067224D01*
X180477500Y-91557776D02*
X180477500Y-92067224D01*
X188522500Y-91532776D02*
X188522500Y-92042224D01*
X187477500Y-91532776D02*
X187477500Y-92042224D01*
X195522500Y-91545276D02*
X195522500Y-92054724D01*
X194477500Y-91545276D02*
X194477500Y-92054724D01*
X151722500Y-91557776D02*
X151722500Y-92067224D01*
X150677500Y-91557776D02*
X150677500Y-92067224D01*
X158722500Y-91545276D02*
X158722500Y-92054724D01*
X157677500Y-91545276D02*
X157677500Y-92054724D01*
X165722500Y-91545276D02*
X165722500Y-92054724D01*
X164677500Y-91545276D02*
X164677500Y-92054724D01*
X172722500Y-91545276D02*
X172722500Y-92054724D01*
X171677500Y-91545276D02*
X171677500Y-92054724D01*
X179722500Y-91545276D02*
X179722500Y-92054724D01*
X178677500Y-91545276D02*
X178677500Y-92054724D01*
X186722500Y-91545276D02*
X186722500Y-92054724D01*
X185677500Y-91545276D02*
X185677500Y-92054724D01*
X193822500Y-91557776D02*
X193822500Y-92067224D01*
X192777500Y-91557776D02*
X192777500Y-92067224D01*
X150022500Y-91545276D02*
X150022500Y-92054724D01*
X148977500Y-91545276D02*
X148977500Y-92054724D01*
X157022500Y-91545276D02*
X157022500Y-92054724D01*
X155977500Y-91545276D02*
X155977500Y-92054724D01*
X164022500Y-91532776D02*
X164022500Y-92042224D01*
X162977500Y-91532776D02*
X162977500Y-92042224D01*
X171022500Y-91545276D02*
X171022500Y-92054724D01*
X169977500Y-91545276D02*
X169977500Y-92054724D01*
X178022500Y-91545276D02*
X178022500Y-92054724D01*
X176977500Y-91545276D02*
X176977500Y-92054724D01*
X185022500Y-91545276D02*
X185022500Y-92054724D01*
X183977500Y-91545276D02*
X183977500Y-92054724D01*
X192022500Y-91545276D02*
X192022500Y-92054724D01*
X190977500Y-91545276D02*
X190977500Y-92054724D01*
X50550000Y-100850000D02*
X50550000Y-94750000D01*
X51650000Y-100850000D02*
X50550000Y-100850000D01*
X55950000Y-94750000D02*
X55950000Y-99750000D01*
X57550000Y-100850000D02*
X57550000Y-94750000D01*
X58650000Y-100850000D02*
X57550000Y-100850000D01*
X62950000Y-94750000D02*
X62950000Y-99750000D01*
X64550000Y-100850000D02*
X64550000Y-94750000D01*
X65650000Y-100850000D02*
X64550000Y-100850000D01*
X69950000Y-94750000D02*
X69950000Y-99750000D01*
X71550000Y-100850000D02*
X71550000Y-94750000D01*
X72650000Y-100850000D02*
X71550000Y-100850000D01*
X76950000Y-94750000D02*
X76950000Y-99750000D01*
X78550000Y-100850000D02*
X78550000Y-94750000D01*
X79650000Y-100850000D02*
X78550000Y-100850000D01*
X83950000Y-94750000D02*
X83950000Y-99750000D01*
X85550000Y-100850000D02*
X85550000Y-94750000D01*
X86650000Y-100850000D02*
X85550000Y-100850000D01*
X90950000Y-94750000D02*
X90950000Y-99750000D01*
X92550000Y-100850000D02*
X92550000Y-94750000D01*
X93650000Y-100850000D02*
X92550000Y-100850000D01*
X97950000Y-94750000D02*
X97950000Y-99750000D01*
X99550000Y-100850000D02*
X99550000Y-94750000D01*
X100650000Y-100850000D02*
X99550000Y-100850000D01*
X104950000Y-94750000D02*
X104950000Y-99750000D01*
X106550000Y-100850000D02*
X106550000Y-94750000D01*
X107650000Y-100850000D02*
X106550000Y-100850000D01*
X111950000Y-94750000D02*
X111950000Y-99750000D01*
X113550000Y-100850000D02*
X113550000Y-94750000D01*
X114650000Y-100850000D02*
X113550000Y-100850000D01*
X118950000Y-94750000D02*
X118950000Y-99750000D01*
X120550000Y-100850000D02*
X120550000Y-94750000D01*
X121650000Y-100850000D02*
X120550000Y-100850000D01*
X125950000Y-94750000D02*
X125950000Y-99750000D01*
X127550000Y-100850000D02*
X127550000Y-94750000D01*
X128650000Y-100850000D02*
X127550000Y-100850000D01*
X132950000Y-94750000D02*
X132950000Y-99750000D01*
X134550000Y-100850000D02*
X134550000Y-94750000D01*
X135650000Y-100850000D02*
X134550000Y-100850000D01*
X139950000Y-94750000D02*
X139950000Y-99750000D01*
X141550000Y-100850000D02*
X141550000Y-94750000D01*
X142650000Y-100850000D02*
X141550000Y-100850000D01*
X146950000Y-94750000D02*
X146950000Y-99750000D01*
X148550000Y-100850000D02*
X148550000Y-94750000D01*
X149650000Y-100850000D02*
X148550000Y-100850000D01*
X153950000Y-94750000D02*
X153950000Y-99750000D01*
X155550000Y-100850000D02*
X155550000Y-94750000D01*
X156650000Y-100850000D02*
X155550000Y-100850000D01*
X160950000Y-94750000D02*
X160950000Y-99750000D01*
X162550000Y-100850000D02*
X162550000Y-94750000D01*
X163650000Y-100850000D02*
X162550000Y-100850000D01*
X167950000Y-94750000D02*
X167950000Y-99750000D01*
X169550000Y-100850000D02*
X169550000Y-94750000D01*
X170650000Y-100850000D02*
X169550000Y-100850000D01*
X174950000Y-94750000D02*
X174950000Y-99750000D01*
X176550000Y-100850000D02*
X176550000Y-94750000D01*
X177650000Y-100850000D02*
X176550000Y-100850000D01*
X181950000Y-94750000D02*
X181950000Y-99750000D01*
X183550000Y-100850000D02*
X183550000Y-94750000D01*
X184650000Y-100850000D02*
X183550000Y-100850000D01*
X188950000Y-94750000D02*
X188950000Y-99750000D01*
X190550000Y-100850000D02*
X190550000Y-94750000D01*
X191650000Y-100850000D02*
X190550000Y-100850000D01*
X195950000Y-94750000D02*
X195950000Y-99750000D01*
X224775000Y-93500000D02*
X221925000Y-93500000D01*
X221925000Y-93500000D02*
X221925000Y-95100000D01*
X221925000Y-95100000D02*
X224775000Y-95100000D01*
X226550000Y-101950000D02*
X226550000Y-103000000D01*
X226550000Y-103000000D02*
X224700000Y-103000000D01*
X226550000Y-99950000D02*
X226550000Y-100950000D01*
X226530000Y-99940000D02*
X224100000Y-99940000D01*
X246670000Y-103990000D02*
X249330000Y-103990000D01*
X246670000Y-93770000D02*
X246670000Y-103990000D01*
X249330000Y-93770000D02*
X249330000Y-103990000D01*
X246670000Y-93770000D02*
X249330000Y-93770000D01*
X246670000Y-92500000D02*
X246670000Y-91170000D01*
X246670000Y-91170000D02*
X248000000Y-91170000D01*
X206146398Y-102140536D02*
X205140536Y-103146398D01*
X204859464Y-100853602D02*
X203853602Y-101859464D01*
X231290000Y-97073752D02*
X231290000Y-95651248D01*
X233110000Y-97073752D02*
X233110000Y-95651248D01*
D12*
X212388095Y-102802380D02*
X212388095Y-103611904D01*
X212435714Y-103707142D01*
X212483333Y-103754761D01*
X212578571Y-103802380D01*
X212769047Y-103802380D01*
X212864285Y-103754761D01*
X212911904Y-103707142D01*
X212959523Y-103611904D01*
X212959523Y-102802380D01*
X213483333Y-103802380D02*
X213673809Y-103802380D01*
X213769047Y-103754761D01*
X213816666Y-103707142D01*
X213911904Y-103564285D01*
X213959523Y-103373809D01*
X213959523Y-102992857D01*
X213911904Y-102897619D01*
X213864285Y-102850000D01*
X213769047Y-102802380D01*
X213578571Y-102802380D01*
X213483333Y-102850000D01*
X213435714Y-102897619D01*
X213388095Y-102992857D01*
X213388095Y-103230952D01*
X213435714Y-103326190D01*
X213483333Y-103373809D01*
X213578571Y-103421428D01*
X213769047Y-103421428D01*
X213864285Y-103373809D01*
X213911904Y-103326190D01*
X213959523Y-103230952D01*
X221289642Y-96227142D02*
X221242023Y-96274761D01*
X221099166Y-96322380D01*
X221003928Y-96322380D01*
X220861071Y-96274761D01*
X220765833Y-96179523D01*
X220718214Y-96084285D01*
X220670595Y-95893809D01*
X220670595Y-95750952D01*
X220718214Y-95560476D01*
X220765833Y-95465238D01*
X220861071Y-95370000D01*
X221003928Y-95322380D01*
X221099166Y-95322380D01*
X221242023Y-95370000D01*
X221289642Y-95417619D01*
X222242023Y-96322380D02*
X221670595Y-96322380D01*
X221956309Y-96322380D02*
X221956309Y-95322380D01*
X221861071Y-95465238D01*
X221765833Y-95560476D01*
X221670595Y-95608095D01*
X222575357Y-95322380D02*
X223194404Y-95322380D01*
X222861071Y-95703333D01*
X223003928Y-95703333D01*
X223099166Y-95750952D01*
X223146785Y-95798571D01*
X223194404Y-95893809D01*
X223194404Y-96131904D01*
X223146785Y-96227142D01*
X223099166Y-96274761D01*
X223003928Y-96322380D01*
X222718214Y-96322380D01*
X222622976Y-96274761D01*
X222575357Y-96227142D01*
X226257142Y-95757142D02*
X226209523Y-95804761D01*
X226066666Y-95852380D01*
X225971428Y-95852380D01*
X225828571Y-95804761D01*
X225733333Y-95709523D01*
X225685714Y-95614285D01*
X225638095Y-95423809D01*
X225638095Y-95280952D01*
X225685714Y-95090476D01*
X225733333Y-94995238D01*
X225828571Y-94900000D01*
X225971428Y-94852380D01*
X226066666Y-94852380D01*
X226209523Y-94900000D01*
X226257142Y-94947619D01*
X227209523Y-95852380D02*
X226638095Y-95852380D01*
X226923809Y-95852380D02*
X226923809Y-94852380D01*
X226828571Y-94995238D01*
X226733333Y-95090476D01*
X226638095Y-95138095D01*
X227590476Y-94947619D02*
X227638095Y-94900000D01*
X227733333Y-94852380D01*
X227971428Y-94852380D01*
X228066666Y-94900000D01*
X228114285Y-94947619D01*
X228161904Y-95042857D01*
X228161904Y-95138095D01*
X228114285Y-95280952D01*
X227542857Y-95852380D01*
X228161904Y-95852380D01*
X216857142Y-91872380D02*
X216523809Y-91396190D01*
X216285714Y-91872380D02*
X216285714Y-90872380D01*
X216666666Y-90872380D01*
X216761904Y-90920000D01*
X216809523Y-90967619D01*
X216857142Y-91062857D01*
X216857142Y-91205714D01*
X216809523Y-91300952D01*
X216761904Y-91348571D01*
X216666666Y-91396190D01*
X216285714Y-91396190D01*
X217714285Y-90872380D02*
X217523809Y-90872380D01*
X217428571Y-90920000D01*
X217380952Y-90967619D01*
X217285714Y-91110476D01*
X217238095Y-91300952D01*
X217238095Y-91681904D01*
X217285714Y-91777142D01*
X217333333Y-91824761D01*
X217428571Y-91872380D01*
X217619047Y-91872380D01*
X217714285Y-91824761D01*
X217761904Y-91777142D01*
X217809523Y-91681904D01*
X217809523Y-91443809D01*
X217761904Y-91348571D01*
X217714285Y-91300952D01*
X217619047Y-91253333D01*
X217428571Y-91253333D01*
X217333333Y-91300952D01*
X217285714Y-91348571D01*
X217238095Y-91443809D01*
X218285714Y-91872380D02*
X218476190Y-91872380D01*
X218571428Y-91824761D01*
X218619047Y-91777142D01*
X218714285Y-91634285D01*
X218761904Y-91443809D01*
X218761904Y-91062857D01*
X218714285Y-90967619D01*
X218666666Y-90920000D01*
X218571428Y-90872380D01*
X218380952Y-90872380D01*
X218285714Y-90920000D01*
X218238095Y-90967619D01*
X218190476Y-91062857D01*
X218190476Y-91300952D01*
X218238095Y-91396190D01*
X218285714Y-91443809D01*
X218380952Y-91491428D01*
X218571428Y-91491428D01*
X218666666Y-91443809D01*
X218714285Y-91396190D01*
X218761904Y-91300952D01*
X220622380Y-89733333D02*
X221336666Y-89733333D01*
X221479523Y-89780952D01*
X221574761Y-89876190D01*
X221622380Y-90019047D01*
X221622380Y-90114285D01*
X220717619Y-89304761D02*
X220670000Y-89257142D01*
X220622380Y-89161904D01*
X220622380Y-88923809D01*
X220670000Y-88828571D01*
X220717619Y-88780952D01*
X220812857Y-88733333D01*
X220908095Y-88733333D01*
X221050952Y-88780952D01*
X221622380Y-89352380D01*
X221622380Y-88733333D01*
X227622380Y-93555357D02*
X227146190Y-93888690D01*
X227622380Y-94126785D02*
X226622380Y-94126785D01*
X226622380Y-93745833D01*
X226670000Y-93650595D01*
X226717619Y-93602976D01*
X226812857Y-93555357D01*
X226955714Y-93555357D01*
X227050952Y-93602976D01*
X227098571Y-93650595D01*
X227146190Y-93745833D01*
X227146190Y-94126785D01*
X226622380Y-92698214D02*
X226622380Y-92888690D01*
X226670000Y-92983928D01*
X226717619Y-93031547D01*
X226860476Y-93126785D01*
X227050952Y-93174404D01*
X227431904Y-93174404D01*
X227527142Y-93126785D01*
X227574761Y-93079166D01*
X227622380Y-92983928D01*
X227622380Y-92793452D01*
X227574761Y-92698214D01*
X227527142Y-92650595D01*
X227431904Y-92602976D01*
X227193809Y-92602976D01*
X227098571Y-92650595D01*
X227050952Y-92698214D01*
X227003333Y-92793452D01*
X227003333Y-92983928D01*
X227050952Y-93079166D01*
X227098571Y-93126785D01*
X227193809Y-93174404D01*
X226622380Y-91698214D02*
X226622380Y-92174404D01*
X227098571Y-92222023D01*
X227050952Y-92174404D01*
X227003333Y-92079166D01*
X227003333Y-91841071D01*
X227050952Y-91745833D01*
X227098571Y-91698214D01*
X227193809Y-91650595D01*
X227431904Y-91650595D01*
X227527142Y-91698214D01*
X227574761Y-91745833D01*
X227622380Y-91841071D01*
X227622380Y-92079166D01*
X227574761Y-92174404D01*
X227527142Y-92222023D01*
X222332380Y-102192857D02*
X221856190Y-102526190D01*
X222332380Y-102764285D02*
X221332380Y-102764285D01*
X221332380Y-102383333D01*
X221380000Y-102288095D01*
X221427619Y-102240476D01*
X221522857Y-102192857D01*
X221665714Y-102192857D01*
X221760952Y-102240476D01*
X221808571Y-102288095D01*
X221856190Y-102383333D01*
X221856190Y-102764285D01*
X221332380Y-101335714D02*
X221332380Y-101526190D01*
X221380000Y-101621428D01*
X221427619Y-101669047D01*
X221570476Y-101764285D01*
X221760952Y-101811904D01*
X222141904Y-101811904D01*
X222237142Y-101764285D01*
X222284761Y-101716666D01*
X222332380Y-101621428D01*
X222332380Y-101430952D01*
X222284761Y-101335714D01*
X222237142Y-101288095D01*
X222141904Y-101240476D01*
X221903809Y-101240476D01*
X221808571Y-101288095D01*
X221760952Y-101335714D01*
X221713333Y-101430952D01*
X221713333Y-101621428D01*
X221760952Y-101716666D01*
X221808571Y-101764285D01*
X221903809Y-101811904D01*
X221665714Y-100383333D02*
X222332380Y-100383333D01*
X221284761Y-100621428D02*
X221999047Y-100859523D01*
X221999047Y-100240476D01*
X57202380Y-98464285D02*
X56202380Y-98464285D01*
X56202380Y-98226190D01*
X56250000Y-98083333D01*
X56345238Y-97988095D01*
X56440476Y-97940476D01*
X56630952Y-97892857D01*
X56773809Y-97892857D01*
X56964285Y-97940476D01*
X57059523Y-97988095D01*
X57154761Y-98083333D01*
X57202380Y-98226190D01*
X57202380Y-98464285D01*
X56297619Y-97511904D02*
X56250000Y-97464285D01*
X56202380Y-97369047D01*
X56202380Y-97130952D01*
X56250000Y-97035714D01*
X56297619Y-96988095D01*
X56392857Y-96940476D01*
X56488095Y-96940476D01*
X56630952Y-96988095D01*
X57202380Y-97559523D01*
X57202380Y-96940476D01*
X56202380Y-96321428D02*
X56202380Y-96226190D01*
X56250000Y-96130952D01*
X56297619Y-96083333D01*
X56392857Y-96035714D01*
X56583333Y-95988095D01*
X56821428Y-95988095D01*
X57011904Y-96035714D01*
X57107142Y-96083333D01*
X57154761Y-96130952D01*
X57202380Y-96226190D01*
X57202380Y-96321428D01*
X57154761Y-96416666D01*
X57107142Y-96464285D01*
X57011904Y-96511904D01*
X56821428Y-96559523D01*
X56583333Y-96559523D01*
X56392857Y-96511904D01*
X56297619Y-96464285D01*
X56250000Y-96416666D01*
X56202380Y-96321428D01*
X64202380Y-98464285D02*
X63202380Y-98464285D01*
X63202380Y-98226190D01*
X63250000Y-98083333D01*
X63345238Y-97988095D01*
X63440476Y-97940476D01*
X63630952Y-97892857D01*
X63773809Y-97892857D01*
X63964285Y-97940476D01*
X64059523Y-97988095D01*
X64154761Y-98083333D01*
X64202380Y-98226190D01*
X64202380Y-98464285D01*
X64202380Y-96940476D02*
X64202380Y-97511904D01*
X64202380Y-97226190D02*
X63202380Y-97226190D01*
X63345238Y-97321428D01*
X63440476Y-97416666D01*
X63488095Y-97511904D01*
X64202380Y-96464285D02*
X64202380Y-96273809D01*
X64154761Y-96178571D01*
X64107142Y-96130952D01*
X63964285Y-96035714D01*
X63773809Y-95988095D01*
X63392857Y-95988095D01*
X63297619Y-96035714D01*
X63250000Y-96083333D01*
X63202380Y-96178571D01*
X63202380Y-96369047D01*
X63250000Y-96464285D01*
X63297619Y-96511904D01*
X63392857Y-96559523D01*
X63630952Y-96559523D01*
X63726190Y-96511904D01*
X63773809Y-96464285D01*
X63821428Y-96369047D01*
X63821428Y-96178571D01*
X63773809Y-96083333D01*
X63726190Y-96035714D01*
X63630952Y-95988095D01*
X71202380Y-98464285D02*
X70202380Y-98464285D01*
X70202380Y-98226190D01*
X70250000Y-98083333D01*
X70345238Y-97988095D01*
X70440476Y-97940476D01*
X70630952Y-97892857D01*
X70773809Y-97892857D01*
X70964285Y-97940476D01*
X71059523Y-97988095D01*
X71154761Y-98083333D01*
X71202380Y-98226190D01*
X71202380Y-98464285D01*
X71202380Y-96940476D02*
X71202380Y-97511904D01*
X71202380Y-97226190D02*
X70202380Y-97226190D01*
X70345238Y-97321428D01*
X70440476Y-97416666D01*
X70488095Y-97511904D01*
X70630952Y-96369047D02*
X70583333Y-96464285D01*
X70535714Y-96511904D01*
X70440476Y-96559523D01*
X70392857Y-96559523D01*
X70297619Y-96511904D01*
X70250000Y-96464285D01*
X70202380Y-96369047D01*
X70202380Y-96178571D01*
X70250000Y-96083333D01*
X70297619Y-96035714D01*
X70392857Y-95988095D01*
X70440476Y-95988095D01*
X70535714Y-96035714D01*
X70583333Y-96083333D01*
X70630952Y-96178571D01*
X70630952Y-96369047D01*
X70678571Y-96464285D01*
X70726190Y-96511904D01*
X70821428Y-96559523D01*
X71011904Y-96559523D01*
X71107142Y-96511904D01*
X71154761Y-96464285D01*
X71202380Y-96369047D01*
X71202380Y-96178571D01*
X71154761Y-96083333D01*
X71107142Y-96035714D01*
X71011904Y-95988095D01*
X70821428Y-95988095D01*
X70726190Y-96035714D01*
X70678571Y-96083333D01*
X70630952Y-96178571D01*
X78202380Y-98464285D02*
X77202380Y-98464285D01*
X77202380Y-98226190D01*
X77250000Y-98083333D01*
X77345238Y-97988095D01*
X77440476Y-97940476D01*
X77630952Y-97892857D01*
X77773809Y-97892857D01*
X77964285Y-97940476D01*
X78059523Y-97988095D01*
X78154761Y-98083333D01*
X78202380Y-98226190D01*
X78202380Y-98464285D01*
X78202380Y-96940476D02*
X78202380Y-97511904D01*
X78202380Y-97226190D02*
X77202380Y-97226190D01*
X77345238Y-97321428D01*
X77440476Y-97416666D01*
X77488095Y-97511904D01*
X77202380Y-96607142D02*
X77202380Y-95940476D01*
X78202380Y-96369047D01*
X85202380Y-98464285D02*
X84202380Y-98464285D01*
X84202380Y-98226190D01*
X84250000Y-98083333D01*
X84345238Y-97988095D01*
X84440476Y-97940476D01*
X84630952Y-97892857D01*
X84773809Y-97892857D01*
X84964285Y-97940476D01*
X85059523Y-97988095D01*
X85154761Y-98083333D01*
X85202380Y-98226190D01*
X85202380Y-98464285D01*
X85202380Y-96940476D02*
X85202380Y-97511904D01*
X85202380Y-97226190D02*
X84202380Y-97226190D01*
X84345238Y-97321428D01*
X84440476Y-97416666D01*
X84488095Y-97511904D01*
X84202380Y-96083333D02*
X84202380Y-96273809D01*
X84250000Y-96369047D01*
X84297619Y-96416666D01*
X84440476Y-96511904D01*
X84630952Y-96559523D01*
X85011904Y-96559523D01*
X85107142Y-96511904D01*
X85154761Y-96464285D01*
X85202380Y-96369047D01*
X85202380Y-96178571D01*
X85154761Y-96083333D01*
X85107142Y-96035714D01*
X85011904Y-95988095D01*
X84773809Y-95988095D01*
X84678571Y-96035714D01*
X84630952Y-96083333D01*
X84583333Y-96178571D01*
X84583333Y-96369047D01*
X84630952Y-96464285D01*
X84678571Y-96511904D01*
X84773809Y-96559523D01*
X92202380Y-98464285D02*
X91202380Y-98464285D01*
X91202380Y-98226190D01*
X91250000Y-98083333D01*
X91345238Y-97988095D01*
X91440476Y-97940476D01*
X91630952Y-97892857D01*
X91773809Y-97892857D01*
X91964285Y-97940476D01*
X92059523Y-97988095D01*
X92154761Y-98083333D01*
X92202380Y-98226190D01*
X92202380Y-98464285D01*
X92202380Y-96940476D02*
X92202380Y-97511904D01*
X92202380Y-97226190D02*
X91202380Y-97226190D01*
X91345238Y-97321428D01*
X91440476Y-97416666D01*
X91488095Y-97511904D01*
X91202380Y-96035714D02*
X91202380Y-96511904D01*
X91678571Y-96559523D01*
X91630952Y-96511904D01*
X91583333Y-96416666D01*
X91583333Y-96178571D01*
X91630952Y-96083333D01*
X91678571Y-96035714D01*
X91773809Y-95988095D01*
X92011904Y-95988095D01*
X92107142Y-96035714D01*
X92154761Y-96083333D01*
X92202380Y-96178571D01*
X92202380Y-96416666D01*
X92154761Y-96511904D01*
X92107142Y-96559523D01*
X99202380Y-98464285D02*
X98202380Y-98464285D01*
X98202380Y-98226190D01*
X98250000Y-98083333D01*
X98345238Y-97988095D01*
X98440476Y-97940476D01*
X98630952Y-97892857D01*
X98773809Y-97892857D01*
X98964285Y-97940476D01*
X99059523Y-97988095D01*
X99154761Y-98083333D01*
X99202380Y-98226190D01*
X99202380Y-98464285D01*
X99202380Y-96940476D02*
X99202380Y-97511904D01*
X99202380Y-97226190D02*
X98202380Y-97226190D01*
X98345238Y-97321428D01*
X98440476Y-97416666D01*
X98488095Y-97511904D01*
X98535714Y-96083333D02*
X99202380Y-96083333D01*
X98154761Y-96321428D02*
X98869047Y-96559523D01*
X98869047Y-95940476D01*
X106202380Y-98464285D02*
X105202380Y-98464285D01*
X105202380Y-98226190D01*
X105250000Y-98083333D01*
X105345238Y-97988095D01*
X105440476Y-97940476D01*
X105630952Y-97892857D01*
X105773809Y-97892857D01*
X105964285Y-97940476D01*
X106059523Y-97988095D01*
X106154761Y-98083333D01*
X106202380Y-98226190D01*
X106202380Y-98464285D01*
X106202380Y-96940476D02*
X106202380Y-97511904D01*
X106202380Y-97226190D02*
X105202380Y-97226190D01*
X105345238Y-97321428D01*
X105440476Y-97416666D01*
X105488095Y-97511904D01*
X105202380Y-96607142D02*
X105202380Y-95988095D01*
X105583333Y-96321428D01*
X105583333Y-96178571D01*
X105630952Y-96083333D01*
X105678571Y-96035714D01*
X105773809Y-95988095D01*
X106011904Y-95988095D01*
X106107142Y-96035714D01*
X106154761Y-96083333D01*
X106202380Y-96178571D01*
X106202380Y-96464285D01*
X106154761Y-96559523D01*
X106107142Y-96607142D01*
X113202380Y-98464285D02*
X112202380Y-98464285D01*
X112202380Y-98226190D01*
X112250000Y-98083333D01*
X112345238Y-97988095D01*
X112440476Y-97940476D01*
X112630952Y-97892857D01*
X112773809Y-97892857D01*
X112964285Y-97940476D01*
X113059523Y-97988095D01*
X113154761Y-98083333D01*
X113202380Y-98226190D01*
X113202380Y-98464285D01*
X113202380Y-96940476D02*
X113202380Y-97511904D01*
X113202380Y-97226190D02*
X112202380Y-97226190D01*
X112345238Y-97321428D01*
X112440476Y-97416666D01*
X112488095Y-97511904D01*
X112297619Y-96559523D02*
X112250000Y-96511904D01*
X112202380Y-96416666D01*
X112202380Y-96178571D01*
X112250000Y-96083333D01*
X112297619Y-96035714D01*
X112392857Y-95988095D01*
X112488095Y-95988095D01*
X112630952Y-96035714D01*
X113202380Y-96607142D01*
X113202380Y-95988095D01*
X120202380Y-98464285D02*
X119202380Y-98464285D01*
X119202380Y-98226190D01*
X119250000Y-98083333D01*
X119345238Y-97988095D01*
X119440476Y-97940476D01*
X119630952Y-97892857D01*
X119773809Y-97892857D01*
X119964285Y-97940476D01*
X120059523Y-97988095D01*
X120154761Y-98083333D01*
X120202380Y-98226190D01*
X120202380Y-98464285D01*
X120202380Y-96940476D02*
X120202380Y-97511904D01*
X120202380Y-97226190D02*
X119202380Y-97226190D01*
X119345238Y-97321428D01*
X119440476Y-97416666D01*
X119488095Y-97511904D01*
X120202380Y-95988095D02*
X120202380Y-96559523D01*
X120202380Y-96273809D02*
X119202380Y-96273809D01*
X119345238Y-96369047D01*
X119440476Y-96464285D01*
X119488095Y-96559523D01*
X127202380Y-98464285D02*
X126202380Y-98464285D01*
X126202380Y-98226190D01*
X126250000Y-98083333D01*
X126345238Y-97988095D01*
X126440476Y-97940476D01*
X126630952Y-97892857D01*
X126773809Y-97892857D01*
X126964285Y-97940476D01*
X127059523Y-97988095D01*
X127154761Y-98083333D01*
X127202380Y-98226190D01*
X127202380Y-98464285D01*
X127202380Y-96940476D02*
X127202380Y-97511904D01*
X127202380Y-97226190D02*
X126202380Y-97226190D01*
X126345238Y-97321428D01*
X126440476Y-97416666D01*
X126488095Y-97511904D01*
X126202380Y-96321428D02*
X126202380Y-96226190D01*
X126250000Y-96130952D01*
X126297619Y-96083333D01*
X126392857Y-96035714D01*
X126583333Y-95988095D01*
X126821428Y-95988095D01*
X127011904Y-96035714D01*
X127107142Y-96083333D01*
X127154761Y-96130952D01*
X127202380Y-96226190D01*
X127202380Y-96321428D01*
X127154761Y-96416666D01*
X127107142Y-96464285D01*
X127011904Y-96511904D01*
X126821428Y-96559523D01*
X126583333Y-96559523D01*
X126392857Y-96511904D01*
X126297619Y-96464285D01*
X126250000Y-96416666D01*
X126202380Y-96321428D01*
X134202380Y-97988095D02*
X133202380Y-97988095D01*
X133202380Y-97750000D01*
X133250000Y-97607142D01*
X133345238Y-97511904D01*
X133440476Y-97464285D01*
X133630952Y-97416666D01*
X133773809Y-97416666D01*
X133964285Y-97464285D01*
X134059523Y-97511904D01*
X134154761Y-97607142D01*
X134202380Y-97750000D01*
X134202380Y-97988095D01*
X134202380Y-96940476D02*
X134202380Y-96750000D01*
X134154761Y-96654761D01*
X134107142Y-96607142D01*
X133964285Y-96511904D01*
X133773809Y-96464285D01*
X133392857Y-96464285D01*
X133297619Y-96511904D01*
X133250000Y-96559523D01*
X133202380Y-96654761D01*
X133202380Y-96845238D01*
X133250000Y-96940476D01*
X133297619Y-96988095D01*
X133392857Y-97035714D01*
X133630952Y-97035714D01*
X133726190Y-96988095D01*
X133773809Y-96940476D01*
X133821428Y-96845238D01*
X133821428Y-96654761D01*
X133773809Y-96559523D01*
X133726190Y-96511904D01*
X133630952Y-96464285D01*
X141202380Y-97988095D02*
X140202380Y-97988095D01*
X140202380Y-97750000D01*
X140250000Y-97607142D01*
X140345238Y-97511904D01*
X140440476Y-97464285D01*
X140630952Y-97416666D01*
X140773809Y-97416666D01*
X140964285Y-97464285D01*
X141059523Y-97511904D01*
X141154761Y-97607142D01*
X141202380Y-97750000D01*
X141202380Y-97988095D01*
X140630952Y-96845238D02*
X140583333Y-96940476D01*
X140535714Y-96988095D01*
X140440476Y-97035714D01*
X140392857Y-97035714D01*
X140297619Y-96988095D01*
X140250000Y-96940476D01*
X140202380Y-96845238D01*
X140202380Y-96654761D01*
X140250000Y-96559523D01*
X140297619Y-96511904D01*
X140392857Y-96464285D01*
X140440476Y-96464285D01*
X140535714Y-96511904D01*
X140583333Y-96559523D01*
X140630952Y-96654761D01*
X140630952Y-96845238D01*
X140678571Y-96940476D01*
X140726190Y-96988095D01*
X140821428Y-97035714D01*
X141011904Y-97035714D01*
X141107142Y-96988095D01*
X141154761Y-96940476D01*
X141202380Y-96845238D01*
X141202380Y-96654761D01*
X141154761Y-96559523D01*
X141107142Y-96511904D01*
X141011904Y-96464285D01*
X140821428Y-96464285D01*
X140726190Y-96511904D01*
X140678571Y-96559523D01*
X140630952Y-96654761D01*
X148202380Y-97988095D02*
X147202380Y-97988095D01*
X147202380Y-97750000D01*
X147250000Y-97607142D01*
X147345238Y-97511904D01*
X147440476Y-97464285D01*
X147630952Y-97416666D01*
X147773809Y-97416666D01*
X147964285Y-97464285D01*
X148059523Y-97511904D01*
X148154761Y-97607142D01*
X148202380Y-97750000D01*
X148202380Y-97988095D01*
X147202380Y-97083333D02*
X147202380Y-96416666D01*
X148202380Y-96845238D01*
X155202380Y-97988095D02*
X154202380Y-97988095D01*
X154202380Y-97750000D01*
X154250000Y-97607142D01*
X154345238Y-97511904D01*
X154440476Y-97464285D01*
X154630952Y-97416666D01*
X154773809Y-97416666D01*
X154964285Y-97464285D01*
X155059523Y-97511904D01*
X155154761Y-97607142D01*
X155202380Y-97750000D01*
X155202380Y-97988095D01*
X154202380Y-96559523D02*
X154202380Y-96750000D01*
X154250000Y-96845238D01*
X154297619Y-96892857D01*
X154440476Y-96988095D01*
X154630952Y-97035714D01*
X155011904Y-97035714D01*
X155107142Y-96988095D01*
X155154761Y-96940476D01*
X155202380Y-96845238D01*
X155202380Y-96654761D01*
X155154761Y-96559523D01*
X155107142Y-96511904D01*
X155011904Y-96464285D01*
X154773809Y-96464285D01*
X154678571Y-96511904D01*
X154630952Y-96559523D01*
X154583333Y-96654761D01*
X154583333Y-96845238D01*
X154630952Y-96940476D01*
X154678571Y-96988095D01*
X154773809Y-97035714D01*
X162202380Y-97988095D02*
X161202380Y-97988095D01*
X161202380Y-97750000D01*
X161250000Y-97607142D01*
X161345238Y-97511904D01*
X161440476Y-97464285D01*
X161630952Y-97416666D01*
X161773809Y-97416666D01*
X161964285Y-97464285D01*
X162059523Y-97511904D01*
X162154761Y-97607142D01*
X162202380Y-97750000D01*
X162202380Y-97988095D01*
X161202380Y-96511904D02*
X161202380Y-96988095D01*
X161678571Y-97035714D01*
X161630952Y-96988095D01*
X161583333Y-96892857D01*
X161583333Y-96654761D01*
X161630952Y-96559523D01*
X161678571Y-96511904D01*
X161773809Y-96464285D01*
X162011904Y-96464285D01*
X162107142Y-96511904D01*
X162154761Y-96559523D01*
X162202380Y-96654761D01*
X162202380Y-96892857D01*
X162154761Y-96988095D01*
X162107142Y-97035714D01*
X169202380Y-97988095D02*
X168202380Y-97988095D01*
X168202380Y-97750000D01*
X168250000Y-97607142D01*
X168345238Y-97511904D01*
X168440476Y-97464285D01*
X168630952Y-97416666D01*
X168773809Y-97416666D01*
X168964285Y-97464285D01*
X169059523Y-97511904D01*
X169154761Y-97607142D01*
X169202380Y-97750000D01*
X169202380Y-97988095D01*
X168535714Y-96559523D02*
X169202380Y-96559523D01*
X168154761Y-96797619D02*
X168869047Y-97035714D01*
X168869047Y-96416666D01*
X176202380Y-97988095D02*
X175202380Y-97988095D01*
X175202380Y-97750000D01*
X175250000Y-97607142D01*
X175345238Y-97511904D01*
X175440476Y-97464285D01*
X175630952Y-97416666D01*
X175773809Y-97416666D01*
X175964285Y-97464285D01*
X176059523Y-97511904D01*
X176154761Y-97607142D01*
X176202380Y-97750000D01*
X176202380Y-97988095D01*
X175202380Y-97083333D02*
X175202380Y-96464285D01*
X175583333Y-96797619D01*
X175583333Y-96654761D01*
X175630952Y-96559523D01*
X175678571Y-96511904D01*
X175773809Y-96464285D01*
X176011904Y-96464285D01*
X176107142Y-96511904D01*
X176154761Y-96559523D01*
X176202380Y-96654761D01*
X176202380Y-96940476D01*
X176154761Y-97035714D01*
X176107142Y-97083333D01*
X183202380Y-97988095D02*
X182202380Y-97988095D01*
X182202380Y-97750000D01*
X182250000Y-97607142D01*
X182345238Y-97511904D01*
X182440476Y-97464285D01*
X182630952Y-97416666D01*
X182773809Y-97416666D01*
X182964285Y-97464285D01*
X183059523Y-97511904D01*
X183154761Y-97607142D01*
X183202380Y-97750000D01*
X183202380Y-97988095D01*
X182297619Y-97035714D02*
X182250000Y-96988095D01*
X182202380Y-96892857D01*
X182202380Y-96654761D01*
X182250000Y-96559523D01*
X182297619Y-96511904D01*
X182392857Y-96464285D01*
X182488095Y-96464285D01*
X182630952Y-96511904D01*
X183202380Y-97083333D01*
X183202380Y-96464285D01*
X190202380Y-97988095D02*
X189202380Y-97988095D01*
X189202380Y-97750000D01*
X189250000Y-97607142D01*
X189345238Y-97511904D01*
X189440476Y-97464285D01*
X189630952Y-97416666D01*
X189773809Y-97416666D01*
X189964285Y-97464285D01*
X190059523Y-97511904D01*
X190154761Y-97607142D01*
X190202380Y-97750000D01*
X190202380Y-97988095D01*
X190202380Y-96464285D02*
X190202380Y-97035714D01*
X190202380Y-96750000D02*
X189202380Y-96750000D01*
X189345238Y-96845238D01*
X189440476Y-96940476D01*
X189488095Y-97035714D01*
X223098809Y-92476190D02*
X223098809Y-92952380D01*
X222765476Y-91952380D02*
X223098809Y-92476190D01*
X223432142Y-91952380D01*
X224289285Y-92952380D02*
X223717857Y-92952380D01*
X224003571Y-92952380D02*
X224003571Y-91952380D01*
X223908333Y-92095238D01*
X223813095Y-92190476D01*
X223717857Y-92238095D01*
X224838095Y-98452380D02*
X224838095Y-99261904D01*
X224885714Y-99357142D01*
X224933333Y-99404761D01*
X225028571Y-99452380D01*
X225219047Y-99452380D01*
X225314285Y-99404761D01*
X225361904Y-99357142D01*
X225409523Y-99261904D01*
X225409523Y-98452380D01*
X226314285Y-98452380D02*
X226123809Y-98452380D01*
X226028571Y-98500000D01*
X225980952Y-98547619D01*
X225885714Y-98690476D01*
X225838095Y-98880952D01*
X225838095Y-99261904D01*
X225885714Y-99357142D01*
X225933333Y-99404761D01*
X226028571Y-99452380D01*
X226219047Y-99452380D01*
X226314285Y-99404761D01*
X226361904Y-99357142D01*
X226409523Y-99261904D01*
X226409523Y-99023809D01*
X226361904Y-98928571D01*
X226314285Y-98880952D01*
X226219047Y-98833333D01*
X226028571Y-98833333D01*
X225933333Y-98880952D01*
X225885714Y-98928571D01*
X225838095Y-99023809D01*
X247666666Y-89622380D02*
X247666666Y-90336666D01*
X247619047Y-90479523D01*
X247523809Y-90574761D01*
X247380952Y-90622380D01*
X247285714Y-90622380D01*
X248666666Y-90622380D02*
X248095238Y-90622380D01*
X248380952Y-90622380D02*
X248380952Y-89622380D01*
X248285714Y-89765238D01*
X248190476Y-89860476D01*
X248095238Y-89908095D01*
X206442835Y-103678537D02*
X206442835Y-103745880D01*
X206375491Y-103880567D01*
X206308148Y-103947911D01*
X206173460Y-104015254D01*
X206038773Y-104015254D01*
X205937758Y-103981583D01*
X205769399Y-103880567D01*
X205668384Y-103779552D01*
X205567369Y-103611193D01*
X205533697Y-103510178D01*
X205533697Y-103375491D01*
X205601041Y-103240804D01*
X205668384Y-103173460D01*
X205803071Y-103106117D01*
X205870415Y-103106117D01*
X206510178Y-102937758D02*
X206409163Y-102971430D01*
X206341819Y-102971430D01*
X206240804Y-102937758D01*
X206207132Y-102904086D01*
X206173460Y-102803071D01*
X206173460Y-102735728D01*
X206207132Y-102634712D01*
X206341819Y-102500025D01*
X206442835Y-102466354D01*
X206510178Y-102466354D01*
X206611193Y-102500025D01*
X206644865Y-102533697D01*
X206678537Y-102634712D01*
X206678537Y-102702056D01*
X206644865Y-102803071D01*
X206510178Y-102937758D01*
X206476506Y-103038773D01*
X206476506Y-103106117D01*
X206510178Y-103207132D01*
X206644865Y-103341819D01*
X206745880Y-103375491D01*
X206813224Y-103375491D01*
X206914239Y-103341819D01*
X207048926Y-103207132D01*
X207082598Y-103106117D01*
X207082598Y-103038773D01*
X207048926Y-102937758D01*
X206914239Y-102803071D01*
X206813224Y-102769399D01*
X206745880Y-102769399D01*
X206644865Y-102803071D01*
X230707142Y-96529166D02*
X230754761Y-96576785D01*
X230802380Y-96719642D01*
X230802380Y-96814880D01*
X230754761Y-96957738D01*
X230659523Y-97052976D01*
X230564285Y-97100595D01*
X230373809Y-97148214D01*
X230230952Y-97148214D01*
X230040476Y-97100595D01*
X229945238Y-97052976D01*
X229850000Y-96957738D01*
X229802380Y-96814880D01*
X229802380Y-96719642D01*
X229850000Y-96576785D01*
X229897619Y-96529166D01*
X229802380Y-95672023D02*
X229802380Y-95862500D01*
X229850000Y-95957738D01*
X229897619Y-96005357D01*
X230040476Y-96100595D01*
X230230952Y-96148214D01*
X230611904Y-96148214D01*
X230707142Y-96100595D01*
X230754761Y-96052976D01*
X230802380Y-95957738D01*
X230802380Y-95767261D01*
X230754761Y-95672023D01*
X230707142Y-95624404D01*
X230611904Y-95576785D01*
X230373809Y-95576785D01*
X230278571Y-95624404D01*
X230230952Y-95672023D01*
X230183333Y-95767261D01*
X230183333Y-95957738D01*
X230230952Y-96052976D01*
X230278571Y-96100595D01*
X230373809Y-96148214D01*
%LPC*%
G36*
G01*
X216050000Y-101000000D02*
X216050000Y-102325000D01*
G75*
G02*
X215975000Y-102400000I-75000J0D01*
G01*
X215825000Y-102400000D01*
G75*
G02*
X215750000Y-102325000I0J75000D01*
G01*
X215750000Y-101000000D01*
G75*
G02*
X215825000Y-100925000I75000J0D01*
G01*
X215975000Y-100925000D01*
G75*
G02*
X216050000Y-101000000I0J-75000D01*
G01*
G37*
G36*
G01*
X215550000Y-101000000D02*
X215550000Y-102325000D01*
G75*
G02*
X215475000Y-102400000I-75000J0D01*
G01*
X215325000Y-102400000D01*
G75*
G02*
X215250000Y-102325000I0J75000D01*
G01*
X215250000Y-101000000D01*
G75*
G02*
X215325000Y-100925000I75000J0D01*
G01*
X215475000Y-100925000D01*
G75*
G02*
X215550000Y-101000000I0J-75000D01*
G01*
G37*
G36*
G01*
X215050000Y-101000000D02*
X215050000Y-102325000D01*
G75*
G02*
X214975000Y-102400000I-75000J0D01*
G01*
X214825000Y-102400000D01*
G75*
G02*
X214750000Y-102325000I0J75000D01*
G01*
X214750000Y-101000000D01*
G75*
G02*
X214825000Y-100925000I75000J0D01*
G01*
X214975000Y-100925000D01*
G75*
G02*
X215050000Y-101000000I0J-75000D01*
G01*
G37*
G36*
G01*
X214550000Y-101000000D02*
X214550000Y-102325000D01*
G75*
G02*
X214475000Y-102400000I-75000J0D01*
G01*
X214325000Y-102400000D01*
G75*
G02*
X214250000Y-102325000I0J75000D01*
G01*
X214250000Y-101000000D01*
G75*
G02*
X214325000Y-100925000I75000J0D01*
G01*
X214475000Y-100925000D01*
G75*
G02*
X214550000Y-101000000I0J-75000D01*
G01*
G37*
G36*
G01*
X214050000Y-101000000D02*
X214050000Y-102325000D01*
G75*
G02*
X213975000Y-102400000I-75000J0D01*
G01*
X213825000Y-102400000D01*
G75*
G02*
X213750000Y-102325000I0J75000D01*
G01*
X213750000Y-101000000D01*
G75*
G02*
X213825000Y-100925000I75000J0D01*
G01*
X213975000Y-100925000D01*
G75*
G02*
X214050000Y-101000000I0J-75000D01*
G01*
G37*
G36*
G01*
X213550000Y-101000000D02*
X213550000Y-102325000D01*
G75*
G02*
X213475000Y-102400000I-75000J0D01*
G01*
X213325000Y-102400000D01*
G75*
G02*
X213250000Y-102325000I0J75000D01*
G01*
X213250000Y-101000000D01*
G75*
G02*
X213325000Y-100925000I75000J0D01*
G01*
X213475000Y-100925000D01*
G75*
G02*
X213550000Y-101000000I0J-75000D01*
G01*
G37*
G36*
G01*
X213050000Y-101000000D02*
X213050000Y-102325000D01*
G75*
G02*
X212975000Y-102400000I-75000J0D01*
G01*
X212825000Y-102400000D01*
G75*
G02*
X212750000Y-102325000I0J75000D01*
G01*
X212750000Y-101000000D01*
G75*
G02*
X212825000Y-100925000I75000J0D01*
G01*
X212975000Y-100925000D01*
G75*
G02*
X213050000Y-101000000I0J-75000D01*
G01*
G37*
G36*
G01*
X212550000Y-101000000D02*
X212550000Y-102325000D01*
G75*
G02*
X212475000Y-102400000I-75000J0D01*
G01*
X212325000Y-102400000D01*
G75*
G02*
X212250000Y-102325000I0J75000D01*
G01*
X212250000Y-101000000D01*
G75*
G02*
X212325000Y-100925000I75000J0D01*
G01*
X212475000Y-100925000D01*
G75*
G02*
X212550000Y-101000000I0J-75000D01*
G01*
G37*
G36*
G01*
X212050000Y-101000000D02*
X212050000Y-102325000D01*
G75*
G02*
X211975000Y-102400000I-75000J0D01*
G01*
X211825000Y-102400000D01*
G75*
G02*
X211750000Y-102325000I0J75000D01*
G01*
X211750000Y-101000000D01*
G75*
G02*
X211825000Y-100925000I75000J0D01*
G01*
X211975000Y-100925000D01*
G75*
G02*
X212050000Y-101000000I0J-75000D01*
G01*
G37*
G36*
G01*
X211550000Y-101000000D02*
X211550000Y-102325000D01*
G75*
G02*
X211475000Y-102400000I-75000J0D01*
G01*
X211325000Y-102400000D01*
G75*
G02*
X211250000Y-102325000I0J75000D01*
G01*
X211250000Y-101000000D01*
G75*
G02*
X211325000Y-100925000I75000J0D01*
G01*
X211475000Y-100925000D01*
G75*
G02*
X211550000Y-101000000I0J-75000D01*
G01*
G37*
G36*
G01*
X211050000Y-101000000D02*
X211050000Y-102325000D01*
G75*
G02*
X210975000Y-102400000I-75000J0D01*
G01*
X210825000Y-102400000D01*
G75*
G02*
X210750000Y-102325000I0J75000D01*
G01*
X210750000Y-101000000D01*
G75*
G02*
X210825000Y-100925000I75000J0D01*
G01*
X210975000Y-100925000D01*
G75*
G02*
X211050000Y-101000000I0J-75000D01*
G01*
G37*
G36*
G01*
X210550000Y-101000000D02*
X210550000Y-102325000D01*
G75*
G02*
X210475000Y-102400000I-75000J0D01*
G01*
X210325000Y-102400000D01*
G75*
G02*
X210250000Y-102325000I0J75000D01*
G01*
X210250000Y-101000000D01*
G75*
G02*
X210325000Y-100925000I75000J0D01*
G01*
X210475000Y-100925000D01*
G75*
G02*
X210550000Y-101000000I0J-75000D01*
G01*
G37*
G36*
G01*
X209725000Y-100175000D02*
X209725000Y-100325000D01*
G75*
G02*
X209650000Y-100400000I-75000J0D01*
G01*
X208325000Y-100400000D01*
G75*
G02*
X208250000Y-100325000I0J75000D01*
G01*
X208250000Y-100175000D01*
G75*
G02*
X208325000Y-100100000I75000J0D01*
G01*
X209650000Y-100100000D01*
G75*
G02*
X209725000Y-100175000I0J-75000D01*
G01*
G37*
G36*
G01*
X209725000Y-99675000D02*
X209725000Y-99825000D01*
G75*
G02*
X209650000Y-99900000I-75000J0D01*
G01*
X208325000Y-99900000D01*
G75*
G02*
X208250000Y-99825000I0J75000D01*
G01*
X208250000Y-99675000D01*
G75*
G02*
X208325000Y-99600000I75000J0D01*
G01*
X209650000Y-99600000D01*
G75*
G02*
X209725000Y-99675000I0J-75000D01*
G01*
G37*
G36*
G01*
X209725000Y-99175000D02*
X209725000Y-99325000D01*
G75*
G02*
X209650000Y-99400000I-75000J0D01*
G01*
X208325000Y-99400000D01*
G75*
G02*
X208250000Y-99325000I0J75000D01*
G01*
X208250000Y-99175000D01*
G75*
G02*
X208325000Y-99100000I75000J0D01*
G01*
X209650000Y-99100000D01*
G75*
G02*
X209725000Y-99175000I0J-75000D01*
G01*
G37*
G36*
G01*
X209725000Y-98675000D02*
X209725000Y-98825000D01*
G75*
G02*
X209650000Y-98900000I-75000J0D01*
G01*
X208325000Y-98900000D01*
G75*
G02*
X208250000Y-98825000I0J75000D01*
G01*
X208250000Y-98675000D01*
G75*
G02*
X208325000Y-98600000I75000J0D01*
G01*
X209650000Y-98600000D01*
G75*
G02*
X209725000Y-98675000I0J-75000D01*
G01*
G37*
G36*
G01*
X209725000Y-98175000D02*
X209725000Y-98325000D01*
G75*
G02*
X209650000Y-98400000I-75000J0D01*
G01*
X208325000Y-98400000D01*
G75*
G02*
X208250000Y-98325000I0J75000D01*
G01*
X208250000Y-98175000D01*
G75*
G02*
X208325000Y-98100000I75000J0D01*
G01*
X209650000Y-98100000D01*
G75*
G02*
X209725000Y-98175000I0J-75000D01*
G01*
G37*
G36*
G01*
X209725000Y-97675000D02*
X209725000Y-97825000D01*
G75*
G02*
X209650000Y-97900000I-75000J0D01*
G01*
X208325000Y-97900000D01*
G75*
G02*
X208250000Y-97825000I0J75000D01*
G01*
X208250000Y-97675000D01*
G75*
G02*
X208325000Y-97600000I75000J0D01*
G01*
X209650000Y-97600000D01*
G75*
G02*
X209725000Y-97675000I0J-75000D01*
G01*
G37*
G36*
G01*
X209725000Y-97175000D02*
X209725000Y-97325000D01*
G75*
G02*
X209650000Y-97400000I-75000J0D01*
G01*
X208325000Y-97400000D01*
G75*
G02*
X208250000Y-97325000I0J75000D01*
G01*
X208250000Y-97175000D01*
G75*
G02*
X208325000Y-97100000I75000J0D01*
G01*
X209650000Y-97100000D01*
G75*
G02*
X209725000Y-97175000I0J-75000D01*
G01*
G37*
G36*
G01*
X209725000Y-96675000D02*
X209725000Y-96825000D01*
G75*
G02*
X209650000Y-96900000I-75000J0D01*
G01*
X208325000Y-96900000D01*
G75*
G02*
X208250000Y-96825000I0J75000D01*
G01*
X208250000Y-96675000D01*
G75*
G02*
X208325000Y-96600000I75000J0D01*
G01*
X209650000Y-96600000D01*
G75*
G02*
X209725000Y-96675000I0J-75000D01*
G01*
G37*
G36*
G01*
X209725000Y-96175000D02*
X209725000Y-96325000D01*
G75*
G02*
X209650000Y-96400000I-75000J0D01*
G01*
X208325000Y-96400000D01*
G75*
G02*
X208250000Y-96325000I0J75000D01*
G01*
X208250000Y-96175000D01*
G75*
G02*
X208325000Y-96100000I75000J0D01*
G01*
X209650000Y-96100000D01*
G75*
G02*
X209725000Y-96175000I0J-75000D01*
G01*
G37*
G36*
G01*
X209725000Y-95675000D02*
X209725000Y-95825000D01*
G75*
G02*
X209650000Y-95900000I-75000J0D01*
G01*
X208325000Y-95900000D01*
G75*
G02*
X208250000Y-95825000I0J75000D01*
G01*
X208250000Y-95675000D01*
G75*
G02*
X208325000Y-95600000I75000J0D01*
G01*
X209650000Y-95600000D01*
G75*
G02*
X209725000Y-95675000I0J-75000D01*
G01*
G37*
G36*
G01*
X209725000Y-95175000D02*
X209725000Y-95325000D01*
G75*
G02*
X209650000Y-95400000I-75000J0D01*
G01*
X208325000Y-95400000D01*
G75*
G02*
X208250000Y-95325000I0J75000D01*
G01*
X208250000Y-95175000D01*
G75*
G02*
X208325000Y-95100000I75000J0D01*
G01*
X209650000Y-95100000D01*
G75*
G02*
X209725000Y-95175000I0J-75000D01*
G01*
G37*
G36*
G01*
X209725000Y-94675000D02*
X209725000Y-94825000D01*
G75*
G02*
X209650000Y-94900000I-75000J0D01*
G01*
X208325000Y-94900000D01*
G75*
G02*
X208250000Y-94825000I0J75000D01*
G01*
X208250000Y-94675000D01*
G75*
G02*
X208325000Y-94600000I75000J0D01*
G01*
X209650000Y-94600000D01*
G75*
G02*
X209725000Y-94675000I0J-75000D01*
G01*
G37*
G36*
G01*
X210550000Y-92675000D02*
X210550000Y-94000000D01*
G75*
G02*
X210475000Y-94075000I-75000J0D01*
G01*
X210325000Y-94075000D01*
G75*
G02*
X210250000Y-94000000I0J75000D01*
G01*
X210250000Y-92675000D01*
G75*
G02*
X210325000Y-92600000I75000J0D01*
G01*
X210475000Y-92600000D01*
G75*
G02*
X210550000Y-92675000I0J-75000D01*
G01*
G37*
G36*
G01*
X211050000Y-92675000D02*
X211050000Y-94000000D01*
G75*
G02*
X210975000Y-94075000I-75000J0D01*
G01*
X210825000Y-94075000D01*
G75*
G02*
X210750000Y-94000000I0J75000D01*
G01*
X210750000Y-92675000D01*
G75*
G02*
X210825000Y-92600000I75000J0D01*
G01*
X210975000Y-92600000D01*
G75*
G02*
X211050000Y-92675000I0J-75000D01*
G01*
G37*
G36*
G01*
X211550000Y-92675000D02*
X211550000Y-94000000D01*
G75*
G02*
X211475000Y-94075000I-75000J0D01*
G01*
X211325000Y-94075000D01*
G75*
G02*
X211250000Y-94000000I0J75000D01*
G01*
X211250000Y-92675000D01*
G75*
G02*
X211325000Y-92600000I75000J0D01*
G01*
X211475000Y-92600000D01*
G75*
G02*
X211550000Y-92675000I0J-75000D01*
G01*
G37*
G36*
G01*
X212050000Y-92675000D02*
X212050000Y-94000000D01*
G75*
G02*
X211975000Y-94075000I-75000J0D01*
G01*
X211825000Y-94075000D01*
G75*
G02*
X211750000Y-94000000I0J75000D01*
G01*
X211750000Y-92675000D01*
G75*
G02*
X211825000Y-92600000I75000J0D01*
G01*
X211975000Y-92600000D01*
G75*
G02*
X212050000Y-92675000I0J-75000D01*
G01*
G37*
G36*
G01*
X212550000Y-92675000D02*
X212550000Y-94000000D01*
G75*
G02*
X212475000Y-94075000I-75000J0D01*
G01*
X212325000Y-94075000D01*
G75*
G02*
X212250000Y-94000000I0J75000D01*
G01*
X212250000Y-92675000D01*
G75*
G02*
X212325000Y-92600000I75000J0D01*
G01*
X212475000Y-92600000D01*
G75*
G02*
X212550000Y-92675000I0J-75000D01*
G01*
G37*
G36*
G01*
X213050000Y-92675000D02*
X213050000Y-94000000D01*
G75*
G02*
X212975000Y-94075000I-75000J0D01*
G01*
X212825000Y-94075000D01*
G75*
G02*
X212750000Y-94000000I0J75000D01*
G01*
X212750000Y-92675000D01*
G75*
G02*
X212825000Y-92600000I75000J0D01*
G01*
X212975000Y-92600000D01*
G75*
G02*
X213050000Y-92675000I0J-75000D01*
G01*
G37*
G36*
G01*
X213550000Y-92675000D02*
X213550000Y-94000000D01*
G75*
G02*
X213475000Y-94075000I-75000J0D01*
G01*
X213325000Y-94075000D01*
G75*
G02*
X213250000Y-94000000I0J75000D01*
G01*
X213250000Y-92675000D01*
G75*
G02*
X213325000Y-92600000I75000J0D01*
G01*
X213475000Y-92600000D01*
G75*
G02*
X213550000Y-92675000I0J-75000D01*
G01*
G37*
G36*
G01*
X214050000Y-92675000D02*
X214050000Y-94000000D01*
G75*
G02*
X213975000Y-94075000I-75000J0D01*
G01*
X213825000Y-94075000D01*
G75*
G02*
X213750000Y-94000000I0J75000D01*
G01*
X213750000Y-92675000D01*
G75*
G02*
X213825000Y-92600000I75000J0D01*
G01*
X213975000Y-92600000D01*
G75*
G02*
X214050000Y-92675000I0J-75000D01*
G01*
G37*
G36*
G01*
X214550000Y-92675000D02*
X214550000Y-94000000D01*
G75*
G02*
X214475000Y-94075000I-75000J0D01*
G01*
X214325000Y-94075000D01*
G75*
G02*
X214250000Y-94000000I0J75000D01*
G01*
X214250000Y-92675000D01*
G75*
G02*
X214325000Y-92600000I75000J0D01*
G01*
X214475000Y-92600000D01*
G75*
G02*
X214550000Y-92675000I0J-75000D01*
G01*
G37*
G36*
G01*
X215050000Y-92675000D02*
X215050000Y-94000000D01*
G75*
G02*
X214975000Y-94075000I-75000J0D01*
G01*
X214825000Y-94075000D01*
G75*
G02*
X214750000Y-94000000I0J75000D01*
G01*
X214750000Y-92675000D01*
G75*
G02*
X214825000Y-92600000I75000J0D01*
G01*
X214975000Y-92600000D01*
G75*
G02*
X215050000Y-92675000I0J-75000D01*
G01*
G37*
G36*
G01*
X215550000Y-92675000D02*
X215550000Y-94000000D01*
G75*
G02*
X215475000Y-94075000I-75000J0D01*
G01*
X215325000Y-94075000D01*
G75*
G02*
X215250000Y-94000000I0J75000D01*
G01*
X215250000Y-92675000D01*
G75*
G02*
X215325000Y-92600000I75000J0D01*
G01*
X215475000Y-92600000D01*
G75*
G02*
X215550000Y-92675000I0J-75000D01*
G01*
G37*
G36*
G01*
X216050000Y-92675000D02*
X216050000Y-94000000D01*
G75*
G02*
X215975000Y-94075000I-75000J0D01*
G01*
X215825000Y-94075000D01*
G75*
G02*
X215750000Y-94000000I0J75000D01*
G01*
X215750000Y-92675000D01*
G75*
G02*
X215825000Y-92600000I75000J0D01*
G01*
X215975000Y-92600000D01*
G75*
G02*
X216050000Y-92675000I0J-75000D01*
G01*
G37*
G36*
G01*
X218050000Y-94675000D02*
X218050000Y-94825000D01*
G75*
G02*
X217975000Y-94900000I-75000J0D01*
G01*
X216650000Y-94900000D01*
G75*
G02*
X216575000Y-94825000I0J75000D01*
G01*
X216575000Y-94675000D01*
G75*
G02*
X216650000Y-94600000I75000J0D01*
G01*
X217975000Y-94600000D01*
G75*
G02*
X218050000Y-94675000I0J-75000D01*
G01*
G37*
G36*
G01*
X218050000Y-95175000D02*
X218050000Y-95325000D01*
G75*
G02*
X217975000Y-95400000I-75000J0D01*
G01*
X216650000Y-95400000D01*
G75*
G02*
X216575000Y-95325000I0J75000D01*
G01*
X216575000Y-95175000D01*
G75*
G02*
X216650000Y-95100000I75000J0D01*
G01*
X217975000Y-95100000D01*
G75*
G02*
X218050000Y-95175000I0J-75000D01*
G01*
G37*
G36*
G01*
X218050000Y-95675000D02*
X218050000Y-95825000D01*
G75*
G02*
X217975000Y-95900000I-75000J0D01*
G01*
X216650000Y-95900000D01*
G75*
G02*
X216575000Y-95825000I0J75000D01*
G01*
X216575000Y-95675000D01*
G75*
G02*
X216650000Y-95600000I75000J0D01*
G01*
X217975000Y-95600000D01*
G75*
G02*
X218050000Y-95675000I0J-75000D01*
G01*
G37*
G36*
G01*
X218050000Y-96175000D02*
X218050000Y-96325000D01*
G75*
G02*
X217975000Y-96400000I-75000J0D01*
G01*
X216650000Y-96400000D01*
G75*
G02*
X216575000Y-96325000I0J75000D01*
G01*
X216575000Y-96175000D01*
G75*
G02*
X216650000Y-96100000I75000J0D01*
G01*
X217975000Y-96100000D01*
G75*
G02*
X218050000Y-96175000I0J-75000D01*
G01*
G37*
G36*
G01*
X218050000Y-96675000D02*
X218050000Y-96825000D01*
G75*
G02*
X217975000Y-96900000I-75000J0D01*
G01*
X216650000Y-96900000D01*
G75*
G02*
X216575000Y-96825000I0J75000D01*
G01*
X216575000Y-96675000D01*
G75*
G02*
X216650000Y-96600000I75000J0D01*
G01*
X217975000Y-96600000D01*
G75*
G02*
X218050000Y-96675000I0J-75000D01*
G01*
G37*
G36*
G01*
X218050000Y-97175000D02*
X218050000Y-97325000D01*
G75*
G02*
X217975000Y-97400000I-75000J0D01*
G01*
X216650000Y-97400000D01*
G75*
G02*
X216575000Y-97325000I0J75000D01*
G01*
X216575000Y-97175000D01*
G75*
G02*
X216650000Y-97100000I75000J0D01*
G01*
X217975000Y-97100000D01*
G75*
G02*
X218050000Y-97175000I0J-75000D01*
G01*
G37*
G36*
G01*
X218050000Y-97675000D02*
X218050000Y-97825000D01*
G75*
G02*
X217975000Y-97900000I-75000J0D01*
G01*
X216650000Y-97900000D01*
G75*
G02*
X216575000Y-97825000I0J75000D01*
G01*
X216575000Y-97675000D01*
G75*
G02*
X216650000Y-97600000I75000J0D01*
G01*
X217975000Y-97600000D01*
G75*
G02*
X218050000Y-97675000I0J-75000D01*
G01*
G37*
G36*
G01*
X218050000Y-98175000D02*
X218050000Y-98325000D01*
G75*
G02*
X217975000Y-98400000I-75000J0D01*
G01*
X216650000Y-98400000D01*
G75*
G02*
X216575000Y-98325000I0J75000D01*
G01*
X216575000Y-98175000D01*
G75*
G02*
X216650000Y-98100000I75000J0D01*
G01*
X217975000Y-98100000D01*
G75*
G02*
X218050000Y-98175000I0J-75000D01*
G01*
G37*
G36*
G01*
X218050000Y-98675000D02*
X218050000Y-98825000D01*
G75*
G02*
X217975000Y-98900000I-75000J0D01*
G01*
X216650000Y-98900000D01*
G75*
G02*
X216575000Y-98825000I0J75000D01*
G01*
X216575000Y-98675000D01*
G75*
G02*
X216650000Y-98600000I75000J0D01*
G01*
X217975000Y-98600000D01*
G75*
G02*
X218050000Y-98675000I0J-75000D01*
G01*
G37*
G36*
G01*
X218050000Y-99175000D02*
X218050000Y-99325000D01*
G75*
G02*
X217975000Y-99400000I-75000J0D01*
G01*
X216650000Y-99400000D01*
G75*
G02*
X216575000Y-99325000I0J75000D01*
G01*
X216575000Y-99175000D01*
G75*
G02*
X216650000Y-99100000I75000J0D01*
G01*
X217975000Y-99100000D01*
G75*
G02*
X218050000Y-99175000I0J-75000D01*
G01*
G37*
G36*
G01*
X218050000Y-99675000D02*
X218050000Y-99825000D01*
G75*
G02*
X217975000Y-99900000I-75000J0D01*
G01*
X216650000Y-99900000D01*
G75*
G02*
X216575000Y-99825000I0J75000D01*
G01*
X216575000Y-99675000D01*
G75*
G02*
X216650000Y-99600000I75000J0D01*
G01*
X217975000Y-99600000D01*
G75*
G02*
X218050000Y-99675000I0J-75000D01*
G01*
G37*
G36*
G01*
X218050000Y-100175000D02*
X218050000Y-100325000D01*
G75*
G02*
X217975000Y-100400000I-75000J0D01*
G01*
X216650000Y-100400000D01*
G75*
G02*
X216575000Y-100325000I0J75000D01*
G01*
X216575000Y-100175000D01*
G75*
G02*
X216650000Y-100100000I75000J0D01*
G01*
X217975000Y-100100000D01*
G75*
G02*
X218050000Y-100175000I0J-75000D01*
G01*
G37*
G36*
G01*
X222257500Y-97537500D02*
X222257500Y-97062500D01*
G75*
G02*
X222495000Y-96825000I237500J0D01*
G01*
X223095000Y-96825000D01*
G75*
G02*
X223332500Y-97062500I0J-237500D01*
G01*
X223332500Y-97537500D01*
G75*
G02*
X223095000Y-97775000I-237500J0D01*
G01*
X222495000Y-97775000D01*
G75*
G02*
X222257500Y-97537500I0J237500D01*
G01*
G37*
G36*
G01*
X220532500Y-97537500D02*
X220532500Y-97062500D01*
G75*
G02*
X220770000Y-96825000I237500J0D01*
G01*
X221370000Y-96825000D01*
G75*
G02*
X221607500Y-97062500I0J-237500D01*
G01*
X221607500Y-97537500D01*
G75*
G02*
X221370000Y-97775000I-237500J0D01*
G01*
X220770000Y-97775000D01*
G75*
G02*
X220532500Y-97537500I0J237500D01*
G01*
G37*
G36*
G01*
X225742500Y-97062500D02*
X225742500Y-97537500D01*
G75*
G02*
X225505000Y-97775000I-237500J0D01*
G01*
X224905000Y-97775000D01*
G75*
G02*
X224667500Y-97537500I0J237500D01*
G01*
X224667500Y-97062500D01*
G75*
G02*
X224905000Y-96825000I237500J0D01*
G01*
X225505000Y-96825000D01*
G75*
G02*
X225742500Y-97062500I0J-237500D01*
G01*
G37*
G36*
G01*
X227467500Y-97062500D02*
X227467500Y-97537500D01*
G75*
G02*
X227230000Y-97775000I-237500J0D01*
G01*
X226630000Y-97775000D01*
G75*
G02*
X226392500Y-97537500I0J237500D01*
G01*
X226392500Y-97062500D01*
G75*
G02*
X226630000Y-96825000I237500J0D01*
G01*
X227230000Y-96825000D01*
G75*
G02*
X227467500Y-97062500I0J-237500D01*
G01*
G37*
G36*
G01*
X216600000Y-88974999D02*
X216600000Y-90225001D01*
G75*
G02*
X216350001Y-90475000I-249999J0D01*
G01*
X215549999Y-90475000D01*
G75*
G02*
X215300000Y-90225001I0J249999D01*
G01*
X215300000Y-88974999D01*
G75*
G02*
X215549999Y-88725000I249999J0D01*
G01*
X216350001Y-88725000D01*
G75*
G02*
X216600000Y-88974999I0J-249999D01*
G01*
G37*
G36*
G01*
X219700000Y-88974999D02*
X219700000Y-90225001D01*
G75*
G02*
X219450001Y-90475000I-249999J0D01*
G01*
X218649999Y-90475000D01*
G75*
G02*
X218400000Y-90225001I0J249999D01*
G01*
X218400000Y-88974999D01*
G75*
G02*
X218649999Y-88725000I249999J0D01*
G01*
X219450001Y-88725000D01*
G75*
G02*
X219700000Y-88974999I0J-249999D01*
G01*
G37*
D13*
X226040000Y-89400000D03*
D14*
X223500000Y-89400000D03*
D13*
X239500000Y-97240000D03*
D14*
X239500000Y-94700000D03*
G36*
G01*
X228837500Y-92487500D02*
X228362500Y-92487500D01*
G75*
G02*
X228125000Y-92250000I0J237500D01*
G01*
X228125000Y-91750000D01*
G75*
G02*
X228362500Y-91512500I237500J0D01*
G01*
X228837500Y-91512500D01*
G75*
G02*
X229075000Y-91750000I0J-237500D01*
G01*
X229075000Y-92250000D01*
G75*
G02*
X228837500Y-92487500I-237500J0D01*
G01*
G37*
G36*
G01*
X228837500Y-94312500D02*
X228362500Y-94312500D01*
G75*
G02*
X228125000Y-94075000I0J237500D01*
G01*
X228125000Y-93575000D01*
G75*
G02*
X228362500Y-93337500I237500J0D01*
G01*
X228837500Y-93337500D01*
G75*
G02*
X229075000Y-93575000I0J-237500D01*
G01*
X229075000Y-94075000D01*
G75*
G02*
X228837500Y-94312500I-237500J0D01*
G01*
G37*
G36*
G01*
X220212500Y-101975000D02*
X220687500Y-101975000D01*
G75*
G02*
X220925000Y-102212500I0J-237500D01*
G01*
X220925000Y-102712500D01*
G75*
G02*
X220687500Y-102950000I-237500J0D01*
G01*
X220212500Y-102950000D01*
G75*
G02*
X219975000Y-102712500I0J237500D01*
G01*
X219975000Y-102212500D01*
G75*
G02*
X220212500Y-101975000I237500J0D01*
G01*
G37*
G36*
G01*
X220212500Y-100150000D02*
X220687500Y-100150000D01*
G75*
G02*
X220925000Y-100387500I0J-237500D01*
G01*
X220925000Y-100887500D01*
G75*
G02*
X220687500Y-101125000I-237500J0D01*
G01*
X220212500Y-101125000D01*
G75*
G02*
X219975000Y-100887500I0J237500D01*
G01*
X219975000Y-100387500D01*
G75*
G02*
X220212500Y-100150000I237500J0D01*
G01*
G37*
G36*
G01*
X54762500Y-92225000D02*
X55237500Y-92225000D01*
G75*
G02*
X55475000Y-92462500I0J-237500D01*
G01*
X55475000Y-92962500D01*
G75*
G02*
X55237500Y-93200000I-237500J0D01*
G01*
X54762500Y-93200000D01*
G75*
G02*
X54525000Y-92962500I0J237500D01*
G01*
X54525000Y-92462500D01*
G75*
G02*
X54762500Y-92225000I237500J0D01*
G01*
G37*
G36*
G01*
X54762500Y-90400000D02*
X55237500Y-90400000D01*
G75*
G02*
X55475000Y-90637500I0J-237500D01*
G01*
X55475000Y-91137500D01*
G75*
G02*
X55237500Y-91375000I-237500J0D01*
G01*
X54762500Y-91375000D01*
G75*
G02*
X54525000Y-91137500I0J237500D01*
G01*
X54525000Y-90637500D01*
G75*
G02*
X54762500Y-90400000I237500J0D01*
G01*
G37*
G36*
G01*
X61762500Y-92237500D02*
X62237500Y-92237500D01*
G75*
G02*
X62475000Y-92475000I0J-237500D01*
G01*
X62475000Y-92975000D01*
G75*
G02*
X62237500Y-93212500I-237500J0D01*
G01*
X61762500Y-93212500D01*
G75*
G02*
X61525000Y-92975000I0J237500D01*
G01*
X61525000Y-92475000D01*
G75*
G02*
X61762500Y-92237500I237500J0D01*
G01*
G37*
G36*
G01*
X61762500Y-90412500D02*
X62237500Y-90412500D01*
G75*
G02*
X62475000Y-90650000I0J-237500D01*
G01*
X62475000Y-91150000D01*
G75*
G02*
X62237500Y-91387500I-237500J0D01*
G01*
X61762500Y-91387500D01*
G75*
G02*
X61525000Y-91150000I0J237500D01*
G01*
X61525000Y-90650000D01*
G75*
G02*
X61762500Y-90412500I237500J0D01*
G01*
G37*
G36*
G01*
X68762500Y-92237500D02*
X69237500Y-92237500D01*
G75*
G02*
X69475000Y-92475000I0J-237500D01*
G01*
X69475000Y-92975000D01*
G75*
G02*
X69237500Y-93212500I-237500J0D01*
G01*
X68762500Y-93212500D01*
G75*
G02*
X68525000Y-92975000I0J237500D01*
G01*
X68525000Y-92475000D01*
G75*
G02*
X68762500Y-92237500I237500J0D01*
G01*
G37*
G36*
G01*
X68762500Y-90412500D02*
X69237500Y-90412500D01*
G75*
G02*
X69475000Y-90650000I0J-237500D01*
G01*
X69475000Y-91150000D01*
G75*
G02*
X69237500Y-91387500I-237500J0D01*
G01*
X68762500Y-91387500D01*
G75*
G02*
X68525000Y-91150000I0J237500D01*
G01*
X68525000Y-90650000D01*
G75*
G02*
X68762500Y-90412500I237500J0D01*
G01*
G37*
G36*
G01*
X75762500Y-92225000D02*
X76237500Y-92225000D01*
G75*
G02*
X76475000Y-92462500I0J-237500D01*
G01*
X76475000Y-92962500D01*
G75*
G02*
X76237500Y-93200000I-237500J0D01*
G01*
X75762500Y-93200000D01*
G75*
G02*
X75525000Y-92962500I0J237500D01*
G01*
X75525000Y-92462500D01*
G75*
G02*
X75762500Y-92225000I237500J0D01*
G01*
G37*
G36*
G01*
X75762500Y-90400000D02*
X76237500Y-90400000D01*
G75*
G02*
X76475000Y-90637500I0J-237500D01*
G01*
X76475000Y-91137500D01*
G75*
G02*
X76237500Y-91375000I-237500J0D01*
G01*
X75762500Y-91375000D01*
G75*
G02*
X75525000Y-91137500I0J237500D01*
G01*
X75525000Y-90637500D01*
G75*
G02*
X75762500Y-90400000I237500J0D01*
G01*
G37*
G36*
G01*
X82762500Y-92225000D02*
X83237500Y-92225000D01*
G75*
G02*
X83475000Y-92462500I0J-237500D01*
G01*
X83475000Y-92962500D01*
G75*
G02*
X83237500Y-93200000I-237500J0D01*
G01*
X82762500Y-93200000D01*
G75*
G02*
X82525000Y-92962500I0J237500D01*
G01*
X82525000Y-92462500D01*
G75*
G02*
X82762500Y-92225000I237500J0D01*
G01*
G37*
G36*
G01*
X82762500Y-90400000D02*
X83237500Y-90400000D01*
G75*
G02*
X83475000Y-90637500I0J-237500D01*
G01*
X83475000Y-91137500D01*
G75*
G02*
X83237500Y-91375000I-237500J0D01*
G01*
X82762500Y-91375000D01*
G75*
G02*
X82525000Y-91137500I0J237500D01*
G01*
X82525000Y-90637500D01*
G75*
G02*
X82762500Y-90400000I237500J0D01*
G01*
G37*
G36*
G01*
X89662500Y-92225000D02*
X90137500Y-92225000D01*
G75*
G02*
X90375000Y-92462500I0J-237500D01*
G01*
X90375000Y-92962500D01*
G75*
G02*
X90137500Y-93200000I-237500J0D01*
G01*
X89662500Y-93200000D01*
G75*
G02*
X89425000Y-92962500I0J237500D01*
G01*
X89425000Y-92462500D01*
G75*
G02*
X89662500Y-92225000I237500J0D01*
G01*
G37*
G36*
G01*
X89662500Y-90400000D02*
X90137500Y-90400000D01*
G75*
G02*
X90375000Y-90637500I0J-237500D01*
G01*
X90375000Y-91137500D01*
G75*
G02*
X90137500Y-91375000I-237500J0D01*
G01*
X89662500Y-91375000D01*
G75*
G02*
X89425000Y-91137500I0J237500D01*
G01*
X89425000Y-90637500D01*
G75*
G02*
X89662500Y-90400000I237500J0D01*
G01*
G37*
G36*
G01*
X96762500Y-92237500D02*
X97237500Y-92237500D01*
G75*
G02*
X97475000Y-92475000I0J-237500D01*
G01*
X97475000Y-92975000D01*
G75*
G02*
X97237500Y-93212500I-237500J0D01*
G01*
X96762500Y-93212500D01*
G75*
G02*
X96525000Y-92975000I0J237500D01*
G01*
X96525000Y-92475000D01*
G75*
G02*
X96762500Y-92237500I237500J0D01*
G01*
G37*
G36*
G01*
X96762500Y-90412500D02*
X97237500Y-90412500D01*
G75*
G02*
X97475000Y-90650000I0J-237500D01*
G01*
X97475000Y-91150000D01*
G75*
G02*
X97237500Y-91387500I-237500J0D01*
G01*
X96762500Y-91387500D01*
G75*
G02*
X96525000Y-91150000I0J237500D01*
G01*
X96525000Y-90650000D01*
G75*
G02*
X96762500Y-90412500I237500J0D01*
G01*
G37*
G36*
G01*
X52962500Y-92237500D02*
X53437500Y-92237500D01*
G75*
G02*
X53675000Y-92475000I0J-237500D01*
G01*
X53675000Y-92975000D01*
G75*
G02*
X53437500Y-93212500I-237500J0D01*
G01*
X52962500Y-93212500D01*
G75*
G02*
X52725000Y-92975000I0J237500D01*
G01*
X52725000Y-92475000D01*
G75*
G02*
X52962500Y-92237500I237500J0D01*
G01*
G37*
G36*
G01*
X52962500Y-90412500D02*
X53437500Y-90412500D01*
G75*
G02*
X53675000Y-90650000I0J-237500D01*
G01*
X53675000Y-91150000D01*
G75*
G02*
X53437500Y-91387500I-237500J0D01*
G01*
X52962500Y-91387500D01*
G75*
G02*
X52725000Y-91150000I0J237500D01*
G01*
X52725000Y-90650000D01*
G75*
G02*
X52962500Y-90412500I237500J0D01*
G01*
G37*
G36*
G01*
X59962500Y-92225000D02*
X60437500Y-92225000D01*
G75*
G02*
X60675000Y-92462500I0J-237500D01*
G01*
X60675000Y-92962500D01*
G75*
G02*
X60437500Y-93200000I-237500J0D01*
G01*
X59962500Y-93200000D01*
G75*
G02*
X59725000Y-92962500I0J237500D01*
G01*
X59725000Y-92462500D01*
G75*
G02*
X59962500Y-92225000I237500J0D01*
G01*
G37*
G36*
G01*
X59962500Y-90400000D02*
X60437500Y-90400000D01*
G75*
G02*
X60675000Y-90637500I0J-237500D01*
G01*
X60675000Y-91137500D01*
G75*
G02*
X60437500Y-91375000I-237500J0D01*
G01*
X59962500Y-91375000D01*
G75*
G02*
X59725000Y-91137500I0J237500D01*
G01*
X59725000Y-90637500D01*
G75*
G02*
X59962500Y-90400000I237500J0D01*
G01*
G37*
G36*
G01*
X66962500Y-92225000D02*
X67437500Y-92225000D01*
G75*
G02*
X67675000Y-92462500I0J-237500D01*
G01*
X67675000Y-92962500D01*
G75*
G02*
X67437500Y-93200000I-237500J0D01*
G01*
X66962500Y-93200000D01*
G75*
G02*
X66725000Y-92962500I0J237500D01*
G01*
X66725000Y-92462500D01*
G75*
G02*
X66962500Y-92225000I237500J0D01*
G01*
G37*
G36*
G01*
X66962500Y-90400000D02*
X67437500Y-90400000D01*
G75*
G02*
X67675000Y-90637500I0J-237500D01*
G01*
X67675000Y-91137500D01*
G75*
G02*
X67437500Y-91375000I-237500J0D01*
G01*
X66962500Y-91375000D01*
G75*
G02*
X66725000Y-91137500I0J237500D01*
G01*
X66725000Y-90637500D01*
G75*
G02*
X66962500Y-90400000I237500J0D01*
G01*
G37*
G36*
G01*
X73962500Y-92225000D02*
X74437500Y-92225000D01*
G75*
G02*
X74675000Y-92462500I0J-237500D01*
G01*
X74675000Y-92962500D01*
G75*
G02*
X74437500Y-93200000I-237500J0D01*
G01*
X73962500Y-93200000D01*
G75*
G02*
X73725000Y-92962500I0J237500D01*
G01*
X73725000Y-92462500D01*
G75*
G02*
X73962500Y-92225000I237500J0D01*
G01*
G37*
G36*
G01*
X73962500Y-90400000D02*
X74437500Y-90400000D01*
G75*
G02*
X74675000Y-90637500I0J-237500D01*
G01*
X74675000Y-91137500D01*
G75*
G02*
X74437500Y-91375000I-237500J0D01*
G01*
X73962500Y-91375000D01*
G75*
G02*
X73725000Y-91137500I0J237500D01*
G01*
X73725000Y-90637500D01*
G75*
G02*
X73962500Y-90400000I237500J0D01*
G01*
G37*
G36*
G01*
X81062500Y-92212500D02*
X81537500Y-92212500D01*
G75*
G02*
X81775000Y-92450000I0J-237500D01*
G01*
X81775000Y-92950000D01*
G75*
G02*
X81537500Y-93187500I-237500J0D01*
G01*
X81062500Y-93187500D01*
G75*
G02*
X80825000Y-92950000I0J237500D01*
G01*
X80825000Y-92450000D01*
G75*
G02*
X81062500Y-92212500I237500J0D01*
G01*
G37*
G36*
G01*
X81062500Y-90387500D02*
X81537500Y-90387500D01*
G75*
G02*
X81775000Y-90625000I0J-237500D01*
G01*
X81775000Y-91125000D01*
G75*
G02*
X81537500Y-91362500I-237500J0D01*
G01*
X81062500Y-91362500D01*
G75*
G02*
X80825000Y-91125000I0J237500D01*
G01*
X80825000Y-90625000D01*
G75*
G02*
X81062500Y-90387500I237500J0D01*
G01*
G37*
G36*
G01*
X88062500Y-92225000D02*
X88537500Y-92225000D01*
G75*
G02*
X88775000Y-92462500I0J-237500D01*
G01*
X88775000Y-92962500D01*
G75*
G02*
X88537500Y-93200000I-237500J0D01*
G01*
X88062500Y-93200000D01*
G75*
G02*
X87825000Y-92962500I0J237500D01*
G01*
X87825000Y-92462500D01*
G75*
G02*
X88062500Y-92225000I237500J0D01*
G01*
G37*
G36*
G01*
X88062500Y-90400000D02*
X88537500Y-90400000D01*
G75*
G02*
X88775000Y-90637500I0J-237500D01*
G01*
X88775000Y-91137500D01*
G75*
G02*
X88537500Y-91375000I-237500J0D01*
G01*
X88062500Y-91375000D01*
G75*
G02*
X87825000Y-91137500I0J237500D01*
G01*
X87825000Y-90637500D01*
G75*
G02*
X88062500Y-90400000I237500J0D01*
G01*
G37*
G36*
G01*
X94962500Y-92225000D02*
X95437500Y-92225000D01*
G75*
G02*
X95675000Y-92462500I0J-237500D01*
G01*
X95675000Y-92962500D01*
G75*
G02*
X95437500Y-93200000I-237500J0D01*
G01*
X94962500Y-93200000D01*
G75*
G02*
X94725000Y-92962500I0J237500D01*
G01*
X94725000Y-92462500D01*
G75*
G02*
X94962500Y-92225000I237500J0D01*
G01*
G37*
G36*
G01*
X94962500Y-90400000D02*
X95437500Y-90400000D01*
G75*
G02*
X95675000Y-90637500I0J-237500D01*
G01*
X95675000Y-91137500D01*
G75*
G02*
X95437500Y-91375000I-237500J0D01*
G01*
X94962500Y-91375000D01*
G75*
G02*
X94725000Y-91137500I0J237500D01*
G01*
X94725000Y-90637500D01*
G75*
G02*
X94962500Y-90400000I237500J0D01*
G01*
G37*
G36*
G01*
X51262500Y-92225000D02*
X51737500Y-92225000D01*
G75*
G02*
X51975000Y-92462500I0J-237500D01*
G01*
X51975000Y-92962500D01*
G75*
G02*
X51737500Y-93200000I-237500J0D01*
G01*
X51262500Y-93200000D01*
G75*
G02*
X51025000Y-92962500I0J237500D01*
G01*
X51025000Y-92462500D01*
G75*
G02*
X51262500Y-92225000I237500J0D01*
G01*
G37*
G36*
G01*
X51262500Y-90400000D02*
X51737500Y-90400000D01*
G75*
G02*
X51975000Y-90637500I0J-237500D01*
G01*
X51975000Y-91137500D01*
G75*
G02*
X51737500Y-91375000I-237500J0D01*
G01*
X51262500Y-91375000D01*
G75*
G02*
X51025000Y-91137500I0J237500D01*
G01*
X51025000Y-90637500D01*
G75*
G02*
X51262500Y-90400000I237500J0D01*
G01*
G37*
G36*
G01*
X58262500Y-92225000D02*
X58737500Y-92225000D01*
G75*
G02*
X58975000Y-92462500I0J-237500D01*
G01*
X58975000Y-92962500D01*
G75*
G02*
X58737500Y-93200000I-237500J0D01*
G01*
X58262500Y-93200000D01*
G75*
G02*
X58025000Y-92962500I0J237500D01*
G01*
X58025000Y-92462500D01*
G75*
G02*
X58262500Y-92225000I237500J0D01*
G01*
G37*
G36*
G01*
X58262500Y-90400000D02*
X58737500Y-90400000D01*
G75*
G02*
X58975000Y-90637500I0J-237500D01*
G01*
X58975000Y-91137500D01*
G75*
G02*
X58737500Y-91375000I-237500J0D01*
G01*
X58262500Y-91375000D01*
G75*
G02*
X58025000Y-91137500I0J237500D01*
G01*
X58025000Y-90637500D01*
G75*
G02*
X58262500Y-90400000I237500J0D01*
G01*
G37*
G36*
G01*
X65262500Y-92225000D02*
X65737500Y-92225000D01*
G75*
G02*
X65975000Y-92462500I0J-237500D01*
G01*
X65975000Y-92962500D01*
G75*
G02*
X65737500Y-93200000I-237500J0D01*
G01*
X65262500Y-93200000D01*
G75*
G02*
X65025000Y-92962500I0J237500D01*
G01*
X65025000Y-92462500D01*
G75*
G02*
X65262500Y-92225000I237500J0D01*
G01*
G37*
G36*
G01*
X65262500Y-90400000D02*
X65737500Y-90400000D01*
G75*
G02*
X65975000Y-90637500I0J-237500D01*
G01*
X65975000Y-91137500D01*
G75*
G02*
X65737500Y-91375000I-237500J0D01*
G01*
X65262500Y-91375000D01*
G75*
G02*
X65025000Y-91137500I0J237500D01*
G01*
X65025000Y-90637500D01*
G75*
G02*
X65262500Y-90400000I237500J0D01*
G01*
G37*
G36*
G01*
X72262500Y-92225000D02*
X72737500Y-92225000D01*
G75*
G02*
X72975000Y-92462500I0J-237500D01*
G01*
X72975000Y-92962500D01*
G75*
G02*
X72737500Y-93200000I-237500J0D01*
G01*
X72262500Y-93200000D01*
G75*
G02*
X72025000Y-92962500I0J237500D01*
G01*
X72025000Y-92462500D01*
G75*
G02*
X72262500Y-92225000I237500J0D01*
G01*
G37*
G36*
G01*
X72262500Y-90400000D02*
X72737500Y-90400000D01*
G75*
G02*
X72975000Y-90637500I0J-237500D01*
G01*
X72975000Y-91137500D01*
G75*
G02*
X72737500Y-91375000I-237500J0D01*
G01*
X72262500Y-91375000D01*
G75*
G02*
X72025000Y-91137500I0J237500D01*
G01*
X72025000Y-90637500D01*
G75*
G02*
X72262500Y-90400000I237500J0D01*
G01*
G37*
G36*
G01*
X79262500Y-92237500D02*
X79737500Y-92237500D01*
G75*
G02*
X79975000Y-92475000I0J-237500D01*
G01*
X79975000Y-92975000D01*
G75*
G02*
X79737500Y-93212500I-237500J0D01*
G01*
X79262500Y-93212500D01*
G75*
G02*
X79025000Y-92975000I0J237500D01*
G01*
X79025000Y-92475000D01*
G75*
G02*
X79262500Y-92237500I237500J0D01*
G01*
G37*
G36*
G01*
X79262500Y-90412500D02*
X79737500Y-90412500D01*
G75*
G02*
X79975000Y-90650000I0J-237500D01*
G01*
X79975000Y-91150000D01*
G75*
G02*
X79737500Y-91387500I-237500J0D01*
G01*
X79262500Y-91387500D01*
G75*
G02*
X79025000Y-91150000I0J237500D01*
G01*
X79025000Y-90650000D01*
G75*
G02*
X79262500Y-90412500I237500J0D01*
G01*
G37*
G36*
G01*
X86262500Y-92225000D02*
X86737500Y-92225000D01*
G75*
G02*
X86975000Y-92462500I0J-237500D01*
G01*
X86975000Y-92962500D01*
G75*
G02*
X86737500Y-93200000I-237500J0D01*
G01*
X86262500Y-93200000D01*
G75*
G02*
X86025000Y-92962500I0J237500D01*
G01*
X86025000Y-92462500D01*
G75*
G02*
X86262500Y-92225000I237500J0D01*
G01*
G37*
G36*
G01*
X86262500Y-90400000D02*
X86737500Y-90400000D01*
G75*
G02*
X86975000Y-90637500I0J-237500D01*
G01*
X86975000Y-91137500D01*
G75*
G02*
X86737500Y-91375000I-237500J0D01*
G01*
X86262500Y-91375000D01*
G75*
G02*
X86025000Y-91137500I0J237500D01*
G01*
X86025000Y-90637500D01*
G75*
G02*
X86262500Y-90400000I237500J0D01*
G01*
G37*
G36*
G01*
X93262500Y-92225000D02*
X93737500Y-92225000D01*
G75*
G02*
X93975000Y-92462500I0J-237500D01*
G01*
X93975000Y-92962500D01*
G75*
G02*
X93737500Y-93200000I-237500J0D01*
G01*
X93262500Y-93200000D01*
G75*
G02*
X93025000Y-92962500I0J237500D01*
G01*
X93025000Y-92462500D01*
G75*
G02*
X93262500Y-92225000I237500J0D01*
G01*
G37*
G36*
G01*
X93262500Y-90400000D02*
X93737500Y-90400000D01*
G75*
G02*
X93975000Y-90637500I0J-237500D01*
G01*
X93975000Y-91137500D01*
G75*
G02*
X93737500Y-91375000I-237500J0D01*
G01*
X93262500Y-91375000D01*
G75*
G02*
X93025000Y-91137500I0J237500D01*
G01*
X93025000Y-90637500D01*
G75*
G02*
X93262500Y-90400000I237500J0D01*
G01*
G37*
G36*
G01*
X103762500Y-92225000D02*
X104237500Y-92225000D01*
G75*
G02*
X104475000Y-92462500I0J-237500D01*
G01*
X104475000Y-92962500D01*
G75*
G02*
X104237500Y-93200000I-237500J0D01*
G01*
X103762500Y-93200000D01*
G75*
G02*
X103525000Y-92962500I0J237500D01*
G01*
X103525000Y-92462500D01*
G75*
G02*
X103762500Y-92225000I237500J0D01*
G01*
G37*
G36*
G01*
X103762500Y-90400000D02*
X104237500Y-90400000D01*
G75*
G02*
X104475000Y-90637500I0J-237500D01*
G01*
X104475000Y-91137500D01*
G75*
G02*
X104237500Y-91375000I-237500J0D01*
G01*
X103762500Y-91375000D01*
G75*
G02*
X103525000Y-91137500I0J237500D01*
G01*
X103525000Y-90637500D01*
G75*
G02*
X103762500Y-90400000I237500J0D01*
G01*
G37*
G36*
G01*
X110762500Y-92225000D02*
X111237500Y-92225000D01*
G75*
G02*
X111475000Y-92462500I0J-237500D01*
G01*
X111475000Y-92962500D01*
G75*
G02*
X111237500Y-93200000I-237500J0D01*
G01*
X110762500Y-93200000D01*
G75*
G02*
X110525000Y-92962500I0J237500D01*
G01*
X110525000Y-92462500D01*
G75*
G02*
X110762500Y-92225000I237500J0D01*
G01*
G37*
G36*
G01*
X110762500Y-90400000D02*
X111237500Y-90400000D01*
G75*
G02*
X111475000Y-90637500I0J-237500D01*
G01*
X111475000Y-91137500D01*
G75*
G02*
X111237500Y-91375000I-237500J0D01*
G01*
X110762500Y-91375000D01*
G75*
G02*
X110525000Y-91137500I0J237500D01*
G01*
X110525000Y-90637500D01*
G75*
G02*
X110762500Y-90400000I237500J0D01*
G01*
G37*
G36*
G01*
X117762500Y-92225000D02*
X118237500Y-92225000D01*
G75*
G02*
X118475000Y-92462500I0J-237500D01*
G01*
X118475000Y-92962500D01*
G75*
G02*
X118237500Y-93200000I-237500J0D01*
G01*
X117762500Y-93200000D01*
G75*
G02*
X117525000Y-92962500I0J237500D01*
G01*
X117525000Y-92462500D01*
G75*
G02*
X117762500Y-92225000I237500J0D01*
G01*
G37*
G36*
G01*
X117762500Y-90400000D02*
X118237500Y-90400000D01*
G75*
G02*
X118475000Y-90637500I0J-237500D01*
G01*
X118475000Y-91137500D01*
G75*
G02*
X118237500Y-91375000I-237500J0D01*
G01*
X117762500Y-91375000D01*
G75*
G02*
X117525000Y-91137500I0J237500D01*
G01*
X117525000Y-90637500D01*
G75*
G02*
X117762500Y-90400000I237500J0D01*
G01*
G37*
G36*
G01*
X124762500Y-92225000D02*
X125237500Y-92225000D01*
G75*
G02*
X125475000Y-92462500I0J-237500D01*
G01*
X125475000Y-92962500D01*
G75*
G02*
X125237500Y-93200000I-237500J0D01*
G01*
X124762500Y-93200000D01*
G75*
G02*
X124525000Y-92962500I0J237500D01*
G01*
X124525000Y-92462500D01*
G75*
G02*
X124762500Y-92225000I237500J0D01*
G01*
G37*
G36*
G01*
X124762500Y-90400000D02*
X125237500Y-90400000D01*
G75*
G02*
X125475000Y-90637500I0J-237500D01*
G01*
X125475000Y-91137500D01*
G75*
G02*
X125237500Y-91375000I-237500J0D01*
G01*
X124762500Y-91375000D01*
G75*
G02*
X124525000Y-91137500I0J237500D01*
G01*
X124525000Y-90637500D01*
G75*
G02*
X124762500Y-90400000I237500J0D01*
G01*
G37*
G36*
G01*
X131762500Y-92225000D02*
X132237500Y-92225000D01*
G75*
G02*
X132475000Y-92462500I0J-237500D01*
G01*
X132475000Y-92962500D01*
G75*
G02*
X132237500Y-93200000I-237500J0D01*
G01*
X131762500Y-93200000D01*
G75*
G02*
X131525000Y-92962500I0J237500D01*
G01*
X131525000Y-92462500D01*
G75*
G02*
X131762500Y-92225000I237500J0D01*
G01*
G37*
G36*
G01*
X131762500Y-90400000D02*
X132237500Y-90400000D01*
G75*
G02*
X132475000Y-90637500I0J-237500D01*
G01*
X132475000Y-91137500D01*
G75*
G02*
X132237500Y-91375000I-237500J0D01*
G01*
X131762500Y-91375000D01*
G75*
G02*
X131525000Y-91137500I0J237500D01*
G01*
X131525000Y-90637500D01*
G75*
G02*
X131762500Y-90400000I237500J0D01*
G01*
G37*
G36*
G01*
X138762500Y-92212500D02*
X139237500Y-92212500D01*
G75*
G02*
X139475000Y-92450000I0J-237500D01*
G01*
X139475000Y-92950000D01*
G75*
G02*
X139237500Y-93187500I-237500J0D01*
G01*
X138762500Y-93187500D01*
G75*
G02*
X138525000Y-92950000I0J237500D01*
G01*
X138525000Y-92450000D01*
G75*
G02*
X138762500Y-92212500I237500J0D01*
G01*
G37*
G36*
G01*
X138762500Y-90387500D02*
X139237500Y-90387500D01*
G75*
G02*
X139475000Y-90625000I0J-237500D01*
G01*
X139475000Y-91125000D01*
G75*
G02*
X139237500Y-91362500I-237500J0D01*
G01*
X138762500Y-91362500D01*
G75*
G02*
X138525000Y-91125000I0J237500D01*
G01*
X138525000Y-90625000D01*
G75*
G02*
X138762500Y-90387500I237500J0D01*
G01*
G37*
G36*
G01*
X145762500Y-92212500D02*
X146237500Y-92212500D01*
G75*
G02*
X146475000Y-92450000I0J-237500D01*
G01*
X146475000Y-92950000D01*
G75*
G02*
X146237500Y-93187500I-237500J0D01*
G01*
X145762500Y-93187500D01*
G75*
G02*
X145525000Y-92950000I0J237500D01*
G01*
X145525000Y-92450000D01*
G75*
G02*
X145762500Y-92212500I237500J0D01*
G01*
G37*
G36*
G01*
X145762500Y-90387500D02*
X146237500Y-90387500D01*
G75*
G02*
X146475000Y-90625000I0J-237500D01*
G01*
X146475000Y-91125000D01*
G75*
G02*
X146237500Y-91362500I-237500J0D01*
G01*
X145762500Y-91362500D01*
G75*
G02*
X145525000Y-91125000I0J237500D01*
G01*
X145525000Y-90625000D01*
G75*
G02*
X145762500Y-90387500I237500J0D01*
G01*
G37*
G36*
G01*
X102062500Y-92225000D02*
X102537500Y-92225000D01*
G75*
G02*
X102775000Y-92462500I0J-237500D01*
G01*
X102775000Y-92962500D01*
G75*
G02*
X102537500Y-93200000I-237500J0D01*
G01*
X102062500Y-93200000D01*
G75*
G02*
X101825000Y-92962500I0J237500D01*
G01*
X101825000Y-92462500D01*
G75*
G02*
X102062500Y-92225000I237500J0D01*
G01*
G37*
G36*
G01*
X102062500Y-90400000D02*
X102537500Y-90400000D01*
G75*
G02*
X102775000Y-90637500I0J-237500D01*
G01*
X102775000Y-91137500D01*
G75*
G02*
X102537500Y-91375000I-237500J0D01*
G01*
X102062500Y-91375000D01*
G75*
G02*
X101825000Y-91137500I0J237500D01*
G01*
X101825000Y-90637500D01*
G75*
G02*
X102062500Y-90400000I237500J0D01*
G01*
G37*
G36*
G01*
X108962500Y-92225000D02*
X109437500Y-92225000D01*
G75*
G02*
X109675000Y-92462500I0J-237500D01*
G01*
X109675000Y-92962500D01*
G75*
G02*
X109437500Y-93200000I-237500J0D01*
G01*
X108962500Y-93200000D01*
G75*
G02*
X108725000Y-92962500I0J237500D01*
G01*
X108725000Y-92462500D01*
G75*
G02*
X108962500Y-92225000I237500J0D01*
G01*
G37*
G36*
G01*
X108962500Y-90400000D02*
X109437500Y-90400000D01*
G75*
G02*
X109675000Y-90637500I0J-237500D01*
G01*
X109675000Y-91137500D01*
G75*
G02*
X109437500Y-91375000I-237500J0D01*
G01*
X108962500Y-91375000D01*
G75*
G02*
X108725000Y-91137500I0J237500D01*
G01*
X108725000Y-90637500D01*
G75*
G02*
X108962500Y-90400000I237500J0D01*
G01*
G37*
G36*
G01*
X115962500Y-92312500D02*
X116437500Y-92312500D01*
G75*
G02*
X116675000Y-92550000I0J-237500D01*
G01*
X116675000Y-93050000D01*
G75*
G02*
X116437500Y-93287500I-237500J0D01*
G01*
X115962500Y-93287500D01*
G75*
G02*
X115725000Y-93050000I0J237500D01*
G01*
X115725000Y-92550000D01*
G75*
G02*
X115962500Y-92312500I237500J0D01*
G01*
G37*
G36*
G01*
X115962500Y-90487500D02*
X116437500Y-90487500D01*
G75*
G02*
X116675000Y-90725000I0J-237500D01*
G01*
X116675000Y-91225000D01*
G75*
G02*
X116437500Y-91462500I-237500J0D01*
G01*
X115962500Y-91462500D01*
G75*
G02*
X115725000Y-91225000I0J237500D01*
G01*
X115725000Y-90725000D01*
G75*
G02*
X115962500Y-90487500I237500J0D01*
G01*
G37*
G36*
G01*
X123062500Y-92225000D02*
X123537500Y-92225000D01*
G75*
G02*
X123775000Y-92462500I0J-237500D01*
G01*
X123775000Y-92962500D01*
G75*
G02*
X123537500Y-93200000I-237500J0D01*
G01*
X123062500Y-93200000D01*
G75*
G02*
X122825000Y-92962500I0J237500D01*
G01*
X122825000Y-92462500D01*
G75*
G02*
X123062500Y-92225000I237500J0D01*
G01*
G37*
G36*
G01*
X123062500Y-90400000D02*
X123537500Y-90400000D01*
G75*
G02*
X123775000Y-90637500I0J-237500D01*
G01*
X123775000Y-91137500D01*
G75*
G02*
X123537500Y-91375000I-237500J0D01*
G01*
X123062500Y-91375000D01*
G75*
G02*
X122825000Y-91137500I0J237500D01*
G01*
X122825000Y-90637500D01*
G75*
G02*
X123062500Y-90400000I237500J0D01*
G01*
G37*
G36*
G01*
X129962500Y-92225000D02*
X130437500Y-92225000D01*
G75*
G02*
X130675000Y-92462500I0J-237500D01*
G01*
X130675000Y-92962500D01*
G75*
G02*
X130437500Y-93200000I-237500J0D01*
G01*
X129962500Y-93200000D01*
G75*
G02*
X129725000Y-92962500I0J237500D01*
G01*
X129725000Y-92462500D01*
G75*
G02*
X129962500Y-92225000I237500J0D01*
G01*
G37*
G36*
G01*
X129962500Y-90400000D02*
X130437500Y-90400000D01*
G75*
G02*
X130675000Y-90637500I0J-237500D01*
G01*
X130675000Y-91137500D01*
G75*
G02*
X130437500Y-91375000I-237500J0D01*
G01*
X129962500Y-91375000D01*
G75*
G02*
X129725000Y-91137500I0J237500D01*
G01*
X129725000Y-90637500D01*
G75*
G02*
X129962500Y-90400000I237500J0D01*
G01*
G37*
G36*
G01*
X136962500Y-92237500D02*
X137437500Y-92237500D01*
G75*
G02*
X137675000Y-92475000I0J-237500D01*
G01*
X137675000Y-92975000D01*
G75*
G02*
X137437500Y-93212500I-237500J0D01*
G01*
X136962500Y-93212500D01*
G75*
G02*
X136725000Y-92975000I0J237500D01*
G01*
X136725000Y-92475000D01*
G75*
G02*
X136962500Y-92237500I237500J0D01*
G01*
G37*
G36*
G01*
X136962500Y-90412500D02*
X137437500Y-90412500D01*
G75*
G02*
X137675000Y-90650000I0J-237500D01*
G01*
X137675000Y-91150000D01*
G75*
G02*
X137437500Y-91387500I-237500J0D01*
G01*
X136962500Y-91387500D01*
G75*
G02*
X136725000Y-91150000I0J237500D01*
G01*
X136725000Y-90650000D01*
G75*
G02*
X136962500Y-90412500I237500J0D01*
G01*
G37*
G36*
G01*
X143962500Y-92225000D02*
X144437500Y-92225000D01*
G75*
G02*
X144675000Y-92462500I0J-237500D01*
G01*
X144675000Y-92962500D01*
G75*
G02*
X144437500Y-93200000I-237500J0D01*
G01*
X143962500Y-93200000D01*
G75*
G02*
X143725000Y-92962500I0J237500D01*
G01*
X143725000Y-92462500D01*
G75*
G02*
X143962500Y-92225000I237500J0D01*
G01*
G37*
G36*
G01*
X143962500Y-90400000D02*
X144437500Y-90400000D01*
G75*
G02*
X144675000Y-90637500I0J-237500D01*
G01*
X144675000Y-91137500D01*
G75*
G02*
X144437500Y-91375000I-237500J0D01*
G01*
X143962500Y-91375000D01*
G75*
G02*
X143725000Y-91137500I0J237500D01*
G01*
X143725000Y-90637500D01*
G75*
G02*
X143962500Y-90400000I237500J0D01*
G01*
G37*
G36*
G01*
X100362500Y-92212500D02*
X100837500Y-92212500D01*
G75*
G02*
X101075000Y-92450000I0J-237500D01*
G01*
X101075000Y-92950000D01*
G75*
G02*
X100837500Y-93187500I-237500J0D01*
G01*
X100362500Y-93187500D01*
G75*
G02*
X100125000Y-92950000I0J237500D01*
G01*
X100125000Y-92450000D01*
G75*
G02*
X100362500Y-92212500I237500J0D01*
G01*
G37*
G36*
G01*
X100362500Y-90387500D02*
X100837500Y-90387500D01*
G75*
G02*
X101075000Y-90625000I0J-237500D01*
G01*
X101075000Y-91125000D01*
G75*
G02*
X100837500Y-91362500I-237500J0D01*
G01*
X100362500Y-91362500D01*
G75*
G02*
X100125000Y-91125000I0J237500D01*
G01*
X100125000Y-90625000D01*
G75*
G02*
X100362500Y-90387500I237500J0D01*
G01*
G37*
G36*
G01*
X107262500Y-92212500D02*
X107737500Y-92212500D01*
G75*
G02*
X107975000Y-92450000I0J-237500D01*
G01*
X107975000Y-92950000D01*
G75*
G02*
X107737500Y-93187500I-237500J0D01*
G01*
X107262500Y-93187500D01*
G75*
G02*
X107025000Y-92950000I0J237500D01*
G01*
X107025000Y-92450000D01*
G75*
G02*
X107262500Y-92212500I237500J0D01*
G01*
G37*
G36*
G01*
X107262500Y-90387500D02*
X107737500Y-90387500D01*
G75*
G02*
X107975000Y-90625000I0J-237500D01*
G01*
X107975000Y-91125000D01*
G75*
G02*
X107737500Y-91362500I-237500J0D01*
G01*
X107262500Y-91362500D01*
G75*
G02*
X107025000Y-91125000I0J237500D01*
G01*
X107025000Y-90625000D01*
G75*
G02*
X107262500Y-90387500I237500J0D01*
G01*
G37*
G36*
G01*
X114262500Y-92225000D02*
X114737500Y-92225000D01*
G75*
G02*
X114975000Y-92462500I0J-237500D01*
G01*
X114975000Y-92962500D01*
G75*
G02*
X114737500Y-93200000I-237500J0D01*
G01*
X114262500Y-93200000D01*
G75*
G02*
X114025000Y-92962500I0J237500D01*
G01*
X114025000Y-92462500D01*
G75*
G02*
X114262500Y-92225000I237500J0D01*
G01*
G37*
G36*
G01*
X114262500Y-90400000D02*
X114737500Y-90400000D01*
G75*
G02*
X114975000Y-90637500I0J-237500D01*
G01*
X114975000Y-91137500D01*
G75*
G02*
X114737500Y-91375000I-237500J0D01*
G01*
X114262500Y-91375000D01*
G75*
G02*
X114025000Y-91137500I0J237500D01*
G01*
X114025000Y-90637500D01*
G75*
G02*
X114262500Y-90400000I237500J0D01*
G01*
G37*
G36*
G01*
X121262500Y-92225000D02*
X121737500Y-92225000D01*
G75*
G02*
X121975000Y-92462500I0J-237500D01*
G01*
X121975000Y-92962500D01*
G75*
G02*
X121737500Y-93200000I-237500J0D01*
G01*
X121262500Y-93200000D01*
G75*
G02*
X121025000Y-92962500I0J237500D01*
G01*
X121025000Y-92462500D01*
G75*
G02*
X121262500Y-92225000I237500J0D01*
G01*
G37*
G36*
G01*
X121262500Y-90400000D02*
X121737500Y-90400000D01*
G75*
G02*
X121975000Y-90637500I0J-237500D01*
G01*
X121975000Y-91137500D01*
G75*
G02*
X121737500Y-91375000I-237500J0D01*
G01*
X121262500Y-91375000D01*
G75*
G02*
X121025000Y-91137500I0J237500D01*
G01*
X121025000Y-90637500D01*
G75*
G02*
X121262500Y-90400000I237500J0D01*
G01*
G37*
G36*
G01*
X128262500Y-92225000D02*
X128737500Y-92225000D01*
G75*
G02*
X128975000Y-92462500I0J-237500D01*
G01*
X128975000Y-92962500D01*
G75*
G02*
X128737500Y-93200000I-237500J0D01*
G01*
X128262500Y-93200000D01*
G75*
G02*
X128025000Y-92962500I0J237500D01*
G01*
X128025000Y-92462500D01*
G75*
G02*
X128262500Y-92225000I237500J0D01*
G01*
G37*
G36*
G01*
X128262500Y-90400000D02*
X128737500Y-90400000D01*
G75*
G02*
X128975000Y-90637500I0J-237500D01*
G01*
X128975000Y-91137500D01*
G75*
G02*
X128737500Y-91375000I-237500J0D01*
G01*
X128262500Y-91375000D01*
G75*
G02*
X128025000Y-91137500I0J237500D01*
G01*
X128025000Y-90637500D01*
G75*
G02*
X128262500Y-90400000I237500J0D01*
G01*
G37*
G36*
G01*
X135262500Y-92225000D02*
X135737500Y-92225000D01*
G75*
G02*
X135975000Y-92462500I0J-237500D01*
G01*
X135975000Y-92962500D01*
G75*
G02*
X135737500Y-93200000I-237500J0D01*
G01*
X135262500Y-93200000D01*
G75*
G02*
X135025000Y-92962500I0J237500D01*
G01*
X135025000Y-92462500D01*
G75*
G02*
X135262500Y-92225000I237500J0D01*
G01*
G37*
G36*
G01*
X135262500Y-90400000D02*
X135737500Y-90400000D01*
G75*
G02*
X135975000Y-90637500I0J-237500D01*
G01*
X135975000Y-91137500D01*
G75*
G02*
X135737500Y-91375000I-237500J0D01*
G01*
X135262500Y-91375000D01*
G75*
G02*
X135025000Y-91137500I0J237500D01*
G01*
X135025000Y-90637500D01*
G75*
G02*
X135262500Y-90400000I237500J0D01*
G01*
G37*
G36*
G01*
X142262500Y-92225000D02*
X142737500Y-92225000D01*
G75*
G02*
X142975000Y-92462500I0J-237500D01*
G01*
X142975000Y-92962500D01*
G75*
G02*
X142737500Y-93200000I-237500J0D01*
G01*
X142262500Y-93200000D01*
G75*
G02*
X142025000Y-92962500I0J237500D01*
G01*
X142025000Y-92462500D01*
G75*
G02*
X142262500Y-92225000I237500J0D01*
G01*
G37*
G36*
G01*
X142262500Y-90400000D02*
X142737500Y-90400000D01*
G75*
G02*
X142975000Y-90637500I0J-237500D01*
G01*
X142975000Y-91137500D01*
G75*
G02*
X142737500Y-91375000I-237500J0D01*
G01*
X142262500Y-91375000D01*
G75*
G02*
X142025000Y-91137500I0J237500D01*
G01*
X142025000Y-90637500D01*
G75*
G02*
X142262500Y-90400000I237500J0D01*
G01*
G37*
G36*
G01*
X152662500Y-92225000D02*
X153137500Y-92225000D01*
G75*
G02*
X153375000Y-92462500I0J-237500D01*
G01*
X153375000Y-92962500D01*
G75*
G02*
X153137500Y-93200000I-237500J0D01*
G01*
X152662500Y-93200000D01*
G75*
G02*
X152425000Y-92962500I0J237500D01*
G01*
X152425000Y-92462500D01*
G75*
G02*
X152662500Y-92225000I237500J0D01*
G01*
G37*
G36*
G01*
X152662500Y-90400000D02*
X153137500Y-90400000D01*
G75*
G02*
X153375000Y-90637500I0J-237500D01*
G01*
X153375000Y-91137500D01*
G75*
G02*
X153137500Y-91375000I-237500J0D01*
G01*
X152662500Y-91375000D01*
G75*
G02*
X152425000Y-91137500I0J237500D01*
G01*
X152425000Y-90637500D01*
G75*
G02*
X152662500Y-90400000I237500J0D01*
G01*
G37*
G36*
G01*
X159762500Y-92225000D02*
X160237500Y-92225000D01*
G75*
G02*
X160475000Y-92462500I0J-237500D01*
G01*
X160475000Y-92962500D01*
G75*
G02*
X160237500Y-93200000I-237500J0D01*
G01*
X159762500Y-93200000D01*
G75*
G02*
X159525000Y-92962500I0J237500D01*
G01*
X159525000Y-92462500D01*
G75*
G02*
X159762500Y-92225000I237500J0D01*
G01*
G37*
G36*
G01*
X159762500Y-90400000D02*
X160237500Y-90400000D01*
G75*
G02*
X160475000Y-90637500I0J-237500D01*
G01*
X160475000Y-91137500D01*
G75*
G02*
X160237500Y-91375000I-237500J0D01*
G01*
X159762500Y-91375000D01*
G75*
G02*
X159525000Y-91137500I0J237500D01*
G01*
X159525000Y-90637500D01*
G75*
G02*
X159762500Y-90400000I237500J0D01*
G01*
G37*
G36*
G01*
X166762500Y-92225000D02*
X167237500Y-92225000D01*
G75*
G02*
X167475000Y-92462500I0J-237500D01*
G01*
X167475000Y-92962500D01*
G75*
G02*
X167237500Y-93200000I-237500J0D01*
G01*
X166762500Y-93200000D01*
G75*
G02*
X166525000Y-92962500I0J237500D01*
G01*
X166525000Y-92462500D01*
G75*
G02*
X166762500Y-92225000I237500J0D01*
G01*
G37*
G36*
G01*
X166762500Y-90400000D02*
X167237500Y-90400000D01*
G75*
G02*
X167475000Y-90637500I0J-237500D01*
G01*
X167475000Y-91137500D01*
G75*
G02*
X167237500Y-91375000I-237500J0D01*
G01*
X166762500Y-91375000D01*
G75*
G02*
X166525000Y-91137500I0J237500D01*
G01*
X166525000Y-90637500D01*
G75*
G02*
X166762500Y-90400000I237500J0D01*
G01*
G37*
G36*
G01*
X173762500Y-92237500D02*
X174237500Y-92237500D01*
G75*
G02*
X174475000Y-92475000I0J-237500D01*
G01*
X174475000Y-92975000D01*
G75*
G02*
X174237500Y-93212500I-237500J0D01*
G01*
X173762500Y-93212500D01*
G75*
G02*
X173525000Y-92975000I0J237500D01*
G01*
X173525000Y-92475000D01*
G75*
G02*
X173762500Y-92237500I237500J0D01*
G01*
G37*
G36*
G01*
X173762500Y-90412500D02*
X174237500Y-90412500D01*
G75*
G02*
X174475000Y-90650000I0J-237500D01*
G01*
X174475000Y-91150000D01*
G75*
G02*
X174237500Y-91387500I-237500J0D01*
G01*
X173762500Y-91387500D01*
G75*
G02*
X173525000Y-91150000I0J237500D01*
G01*
X173525000Y-90650000D01*
G75*
G02*
X173762500Y-90412500I237500J0D01*
G01*
G37*
G36*
G01*
X180762500Y-92237500D02*
X181237500Y-92237500D01*
G75*
G02*
X181475000Y-92475000I0J-237500D01*
G01*
X181475000Y-92975000D01*
G75*
G02*
X181237500Y-93212500I-237500J0D01*
G01*
X180762500Y-93212500D01*
G75*
G02*
X180525000Y-92975000I0J237500D01*
G01*
X180525000Y-92475000D01*
G75*
G02*
X180762500Y-92237500I237500J0D01*
G01*
G37*
G36*
G01*
X180762500Y-90412500D02*
X181237500Y-90412500D01*
G75*
G02*
X181475000Y-90650000I0J-237500D01*
G01*
X181475000Y-91150000D01*
G75*
G02*
X181237500Y-91387500I-237500J0D01*
G01*
X180762500Y-91387500D01*
G75*
G02*
X180525000Y-91150000I0J237500D01*
G01*
X180525000Y-90650000D01*
G75*
G02*
X180762500Y-90412500I237500J0D01*
G01*
G37*
G36*
G01*
X187762500Y-92212500D02*
X188237500Y-92212500D01*
G75*
G02*
X188475000Y-92450000I0J-237500D01*
G01*
X188475000Y-92950000D01*
G75*
G02*
X188237500Y-93187500I-237500J0D01*
G01*
X187762500Y-93187500D01*
G75*
G02*
X187525000Y-92950000I0J237500D01*
G01*
X187525000Y-92450000D01*
G75*
G02*
X187762500Y-92212500I237500J0D01*
G01*
G37*
G36*
G01*
X187762500Y-90387500D02*
X188237500Y-90387500D01*
G75*
G02*
X188475000Y-90625000I0J-237500D01*
G01*
X188475000Y-91125000D01*
G75*
G02*
X188237500Y-91362500I-237500J0D01*
G01*
X187762500Y-91362500D01*
G75*
G02*
X187525000Y-91125000I0J237500D01*
G01*
X187525000Y-90625000D01*
G75*
G02*
X187762500Y-90387500I237500J0D01*
G01*
G37*
G36*
G01*
X194762500Y-92225000D02*
X195237500Y-92225000D01*
G75*
G02*
X195475000Y-92462500I0J-237500D01*
G01*
X195475000Y-92962500D01*
G75*
G02*
X195237500Y-93200000I-237500J0D01*
G01*
X194762500Y-93200000D01*
G75*
G02*
X194525000Y-92962500I0J237500D01*
G01*
X194525000Y-92462500D01*
G75*
G02*
X194762500Y-92225000I237500J0D01*
G01*
G37*
G36*
G01*
X194762500Y-90400000D02*
X195237500Y-90400000D01*
G75*
G02*
X195475000Y-90637500I0J-237500D01*
G01*
X195475000Y-91137500D01*
G75*
G02*
X195237500Y-91375000I-237500J0D01*
G01*
X194762500Y-91375000D01*
G75*
G02*
X194525000Y-91137500I0J237500D01*
G01*
X194525000Y-90637500D01*
G75*
G02*
X194762500Y-90400000I237500J0D01*
G01*
G37*
G36*
G01*
X150962500Y-92237500D02*
X151437500Y-92237500D01*
G75*
G02*
X151675000Y-92475000I0J-237500D01*
G01*
X151675000Y-92975000D01*
G75*
G02*
X151437500Y-93212500I-237500J0D01*
G01*
X150962500Y-93212500D01*
G75*
G02*
X150725000Y-92975000I0J237500D01*
G01*
X150725000Y-92475000D01*
G75*
G02*
X150962500Y-92237500I237500J0D01*
G01*
G37*
G36*
G01*
X150962500Y-90412500D02*
X151437500Y-90412500D01*
G75*
G02*
X151675000Y-90650000I0J-237500D01*
G01*
X151675000Y-91150000D01*
G75*
G02*
X151437500Y-91387500I-237500J0D01*
G01*
X150962500Y-91387500D01*
G75*
G02*
X150725000Y-91150000I0J237500D01*
G01*
X150725000Y-90650000D01*
G75*
G02*
X150962500Y-90412500I237500J0D01*
G01*
G37*
G36*
G01*
X157962500Y-92225000D02*
X158437500Y-92225000D01*
G75*
G02*
X158675000Y-92462500I0J-237500D01*
G01*
X158675000Y-92962500D01*
G75*
G02*
X158437500Y-93200000I-237500J0D01*
G01*
X157962500Y-93200000D01*
G75*
G02*
X157725000Y-92962500I0J237500D01*
G01*
X157725000Y-92462500D01*
G75*
G02*
X157962500Y-92225000I237500J0D01*
G01*
G37*
G36*
G01*
X157962500Y-90400000D02*
X158437500Y-90400000D01*
G75*
G02*
X158675000Y-90637500I0J-237500D01*
G01*
X158675000Y-91137500D01*
G75*
G02*
X158437500Y-91375000I-237500J0D01*
G01*
X157962500Y-91375000D01*
G75*
G02*
X157725000Y-91137500I0J237500D01*
G01*
X157725000Y-90637500D01*
G75*
G02*
X157962500Y-90400000I237500J0D01*
G01*
G37*
G36*
G01*
X164962500Y-92225000D02*
X165437500Y-92225000D01*
G75*
G02*
X165675000Y-92462500I0J-237500D01*
G01*
X165675000Y-92962500D01*
G75*
G02*
X165437500Y-93200000I-237500J0D01*
G01*
X164962500Y-93200000D01*
G75*
G02*
X164725000Y-92962500I0J237500D01*
G01*
X164725000Y-92462500D01*
G75*
G02*
X164962500Y-92225000I237500J0D01*
G01*
G37*
G36*
G01*
X164962500Y-90400000D02*
X165437500Y-90400000D01*
G75*
G02*
X165675000Y-90637500I0J-237500D01*
G01*
X165675000Y-91137500D01*
G75*
G02*
X165437500Y-91375000I-237500J0D01*
G01*
X164962500Y-91375000D01*
G75*
G02*
X164725000Y-91137500I0J237500D01*
G01*
X164725000Y-90637500D01*
G75*
G02*
X164962500Y-90400000I237500J0D01*
G01*
G37*
G36*
G01*
X171962500Y-92225000D02*
X172437500Y-92225000D01*
G75*
G02*
X172675000Y-92462500I0J-237500D01*
G01*
X172675000Y-92962500D01*
G75*
G02*
X172437500Y-93200000I-237500J0D01*
G01*
X171962500Y-93200000D01*
G75*
G02*
X171725000Y-92962500I0J237500D01*
G01*
X171725000Y-92462500D01*
G75*
G02*
X171962500Y-92225000I237500J0D01*
G01*
G37*
G36*
G01*
X171962500Y-90400000D02*
X172437500Y-90400000D01*
G75*
G02*
X172675000Y-90637500I0J-237500D01*
G01*
X172675000Y-91137500D01*
G75*
G02*
X172437500Y-91375000I-237500J0D01*
G01*
X171962500Y-91375000D01*
G75*
G02*
X171725000Y-91137500I0J237500D01*
G01*
X171725000Y-90637500D01*
G75*
G02*
X171962500Y-90400000I237500J0D01*
G01*
G37*
G36*
G01*
X178962500Y-92225000D02*
X179437500Y-92225000D01*
G75*
G02*
X179675000Y-92462500I0J-237500D01*
G01*
X179675000Y-92962500D01*
G75*
G02*
X179437500Y-93200000I-237500J0D01*
G01*
X178962500Y-93200000D01*
G75*
G02*
X178725000Y-92962500I0J237500D01*
G01*
X178725000Y-92462500D01*
G75*
G02*
X178962500Y-92225000I237500J0D01*
G01*
G37*
G36*
G01*
X178962500Y-90400000D02*
X179437500Y-90400000D01*
G75*
G02*
X179675000Y-90637500I0J-237500D01*
G01*
X179675000Y-91137500D01*
G75*
G02*
X179437500Y-91375000I-237500J0D01*
G01*
X178962500Y-91375000D01*
G75*
G02*
X178725000Y-91137500I0J237500D01*
G01*
X178725000Y-90637500D01*
G75*
G02*
X178962500Y-90400000I237500J0D01*
G01*
G37*
G36*
G01*
X185962500Y-92225000D02*
X186437500Y-92225000D01*
G75*
G02*
X186675000Y-92462500I0J-237500D01*
G01*
X186675000Y-92962500D01*
G75*
G02*
X186437500Y-93200000I-237500J0D01*
G01*
X185962500Y-93200000D01*
G75*
G02*
X185725000Y-92962500I0J237500D01*
G01*
X185725000Y-92462500D01*
G75*
G02*
X185962500Y-92225000I237500J0D01*
G01*
G37*
G36*
G01*
X185962500Y-90400000D02*
X186437500Y-90400000D01*
G75*
G02*
X186675000Y-90637500I0J-237500D01*
G01*
X186675000Y-91137500D01*
G75*
G02*
X186437500Y-91375000I-237500J0D01*
G01*
X185962500Y-91375000D01*
G75*
G02*
X185725000Y-91137500I0J237500D01*
G01*
X185725000Y-90637500D01*
G75*
G02*
X185962500Y-90400000I237500J0D01*
G01*
G37*
G36*
G01*
X193062500Y-92237500D02*
X193537500Y-92237500D01*
G75*
G02*
X193775000Y-92475000I0J-237500D01*
G01*
X193775000Y-92975000D01*
G75*
G02*
X193537500Y-93212500I-237500J0D01*
G01*
X193062500Y-93212500D01*
G75*
G02*
X192825000Y-92975000I0J237500D01*
G01*
X192825000Y-92475000D01*
G75*
G02*
X193062500Y-92237500I237500J0D01*
G01*
G37*
G36*
G01*
X193062500Y-90412500D02*
X193537500Y-90412500D01*
G75*
G02*
X193775000Y-90650000I0J-237500D01*
G01*
X193775000Y-91150000D01*
G75*
G02*
X193537500Y-91387500I-237500J0D01*
G01*
X193062500Y-91387500D01*
G75*
G02*
X192825000Y-91150000I0J237500D01*
G01*
X192825000Y-90650000D01*
G75*
G02*
X193062500Y-90412500I237500J0D01*
G01*
G37*
G36*
G01*
X149262500Y-92225000D02*
X149737500Y-92225000D01*
G75*
G02*
X149975000Y-92462500I0J-237500D01*
G01*
X149975000Y-92962500D01*
G75*
G02*
X149737500Y-93200000I-237500J0D01*
G01*
X149262500Y-93200000D01*
G75*
G02*
X149025000Y-92962500I0J237500D01*
G01*
X149025000Y-92462500D01*
G75*
G02*
X149262500Y-92225000I237500J0D01*
G01*
G37*
G36*
G01*
X149262500Y-90400000D02*
X149737500Y-90400000D01*
G75*
G02*
X149975000Y-90637500I0J-237500D01*
G01*
X149975000Y-91137500D01*
G75*
G02*
X149737500Y-91375000I-237500J0D01*
G01*
X149262500Y-91375000D01*
G75*
G02*
X149025000Y-91137500I0J237500D01*
G01*
X149025000Y-90637500D01*
G75*
G02*
X149262500Y-90400000I237500J0D01*
G01*
G37*
G36*
G01*
X156262500Y-92225000D02*
X156737500Y-92225000D01*
G75*
G02*
X156975000Y-92462500I0J-237500D01*
G01*
X156975000Y-92962500D01*
G75*
G02*
X156737500Y-93200000I-237500J0D01*
G01*
X156262500Y-93200000D01*
G75*
G02*
X156025000Y-92962500I0J237500D01*
G01*
X156025000Y-92462500D01*
G75*
G02*
X156262500Y-92225000I237500J0D01*
G01*
G37*
G36*
G01*
X156262500Y-90400000D02*
X156737500Y-90400000D01*
G75*
G02*
X156975000Y-90637500I0J-237500D01*
G01*
X156975000Y-91137500D01*
G75*
G02*
X156737500Y-91375000I-237500J0D01*
G01*
X156262500Y-91375000D01*
G75*
G02*
X156025000Y-91137500I0J237500D01*
G01*
X156025000Y-90637500D01*
G75*
G02*
X156262500Y-90400000I237500J0D01*
G01*
G37*
G36*
G01*
X163262500Y-92212500D02*
X163737500Y-92212500D01*
G75*
G02*
X163975000Y-92450000I0J-237500D01*
G01*
X163975000Y-92950000D01*
G75*
G02*
X163737500Y-93187500I-237500J0D01*
G01*
X163262500Y-93187500D01*
G75*
G02*
X163025000Y-92950000I0J237500D01*
G01*
X163025000Y-92450000D01*
G75*
G02*
X163262500Y-92212500I237500J0D01*
G01*
G37*
G36*
G01*
X163262500Y-90387500D02*
X163737500Y-90387500D01*
G75*
G02*
X163975000Y-90625000I0J-237500D01*
G01*
X163975000Y-91125000D01*
G75*
G02*
X163737500Y-91362500I-237500J0D01*
G01*
X163262500Y-91362500D01*
G75*
G02*
X163025000Y-91125000I0J237500D01*
G01*
X163025000Y-90625000D01*
G75*
G02*
X163262500Y-90387500I237500J0D01*
G01*
G37*
G36*
G01*
X170262500Y-92225000D02*
X170737500Y-92225000D01*
G75*
G02*
X170975000Y-92462500I0J-237500D01*
G01*
X170975000Y-92962500D01*
G75*
G02*
X170737500Y-93200000I-237500J0D01*
G01*
X170262500Y-93200000D01*
G75*
G02*
X170025000Y-92962500I0J237500D01*
G01*
X170025000Y-92462500D01*
G75*
G02*
X170262500Y-92225000I237500J0D01*
G01*
G37*
G36*
G01*
X170262500Y-90400000D02*
X170737500Y-90400000D01*
G75*
G02*
X170975000Y-90637500I0J-237500D01*
G01*
X170975000Y-91137500D01*
G75*
G02*
X170737500Y-91375000I-237500J0D01*
G01*
X170262500Y-91375000D01*
G75*
G02*
X170025000Y-91137500I0J237500D01*
G01*
X170025000Y-90637500D01*
G75*
G02*
X170262500Y-90400000I237500J0D01*
G01*
G37*
G36*
G01*
X177262500Y-92225000D02*
X177737500Y-92225000D01*
G75*
G02*
X177975000Y-92462500I0J-237500D01*
G01*
X177975000Y-92962500D01*
G75*
G02*
X177737500Y-93200000I-237500J0D01*
G01*
X177262500Y-93200000D01*
G75*
G02*
X177025000Y-92962500I0J237500D01*
G01*
X177025000Y-92462500D01*
G75*
G02*
X177262500Y-92225000I237500J0D01*
G01*
G37*
G36*
G01*
X177262500Y-90400000D02*
X177737500Y-90400000D01*
G75*
G02*
X177975000Y-90637500I0J-237500D01*
G01*
X177975000Y-91137500D01*
G75*
G02*
X177737500Y-91375000I-237500J0D01*
G01*
X177262500Y-91375000D01*
G75*
G02*
X177025000Y-91137500I0J237500D01*
G01*
X177025000Y-90637500D01*
G75*
G02*
X177262500Y-90400000I237500J0D01*
G01*
G37*
G36*
G01*
X184262500Y-92225000D02*
X184737500Y-92225000D01*
G75*
G02*
X184975000Y-92462500I0J-237500D01*
G01*
X184975000Y-92962500D01*
G75*
G02*
X184737500Y-93200000I-237500J0D01*
G01*
X184262500Y-93200000D01*
G75*
G02*
X184025000Y-92962500I0J237500D01*
G01*
X184025000Y-92462500D01*
G75*
G02*
X184262500Y-92225000I237500J0D01*
G01*
G37*
G36*
G01*
X184262500Y-90400000D02*
X184737500Y-90400000D01*
G75*
G02*
X184975000Y-90637500I0J-237500D01*
G01*
X184975000Y-91137500D01*
G75*
G02*
X184737500Y-91375000I-237500J0D01*
G01*
X184262500Y-91375000D01*
G75*
G02*
X184025000Y-91137500I0J237500D01*
G01*
X184025000Y-90637500D01*
G75*
G02*
X184262500Y-90400000I237500J0D01*
G01*
G37*
G36*
G01*
X191262500Y-92225000D02*
X191737500Y-92225000D01*
G75*
G02*
X191975000Y-92462500I0J-237500D01*
G01*
X191975000Y-92962500D01*
G75*
G02*
X191737500Y-93200000I-237500J0D01*
G01*
X191262500Y-93200000D01*
G75*
G02*
X191025000Y-92962500I0J237500D01*
G01*
X191025000Y-92462500D01*
G75*
G02*
X191262500Y-92225000I237500J0D01*
G01*
G37*
G36*
G01*
X191262500Y-90400000D02*
X191737500Y-90400000D01*
G75*
G02*
X191975000Y-90637500I0J-237500D01*
G01*
X191975000Y-91137500D01*
G75*
G02*
X191737500Y-91375000I-237500J0D01*
G01*
X191262500Y-91375000D01*
G75*
G02*
X191025000Y-91137500I0J237500D01*
G01*
X191025000Y-90637500D01*
G75*
G02*
X191262500Y-90400000I237500J0D01*
G01*
G37*
D15*
X51550000Y-94850000D03*
X53250000Y-94850000D03*
X54950000Y-94850000D03*
X54950000Y-99650000D03*
X53250000Y-99650000D03*
X51550000Y-99650000D03*
X58550000Y-94850000D03*
X60250000Y-94850000D03*
X61950000Y-94850000D03*
X61950000Y-99650000D03*
X60250000Y-99650000D03*
X58550000Y-99650000D03*
X65550000Y-94850000D03*
X67250000Y-94850000D03*
X68950000Y-94850000D03*
X68950000Y-99650000D03*
X67250000Y-99650000D03*
X65550000Y-99650000D03*
X72550000Y-94850000D03*
X74250000Y-94850000D03*
X75950000Y-94850000D03*
X75950000Y-99650000D03*
X74250000Y-99650000D03*
X72550000Y-99650000D03*
X79550000Y-94850000D03*
X81250000Y-94850000D03*
X82950000Y-94850000D03*
X82950000Y-99650000D03*
X81250000Y-99650000D03*
X79550000Y-99650000D03*
X86550000Y-94850000D03*
X88250000Y-94850000D03*
X89950000Y-94850000D03*
X89950000Y-99650000D03*
X88250000Y-99650000D03*
X86550000Y-99650000D03*
X93550000Y-94850000D03*
X95250000Y-94850000D03*
X96950000Y-94850000D03*
X96950000Y-99650000D03*
X95250000Y-99650000D03*
X93550000Y-99650000D03*
X100550000Y-94850000D03*
X102250000Y-94850000D03*
X103950000Y-94850000D03*
X103950000Y-99650000D03*
X102250000Y-99650000D03*
X100550000Y-99650000D03*
X107550000Y-94850000D03*
X109250000Y-94850000D03*
X110950000Y-94850000D03*
X110950000Y-99650000D03*
X109250000Y-99650000D03*
X107550000Y-99650000D03*
X114550000Y-94850000D03*
X116250000Y-94850000D03*
X117950000Y-94850000D03*
X117950000Y-99650000D03*
X116250000Y-99650000D03*
X114550000Y-99650000D03*
X121550000Y-94850000D03*
X123250000Y-94850000D03*
X124950000Y-94850000D03*
X124950000Y-99650000D03*
X123250000Y-99650000D03*
X121550000Y-99650000D03*
X128550000Y-94850000D03*
X130250000Y-94850000D03*
X131950000Y-94850000D03*
X131950000Y-99650000D03*
X130250000Y-99650000D03*
X128550000Y-99650000D03*
X135550000Y-94850000D03*
X137250000Y-94850000D03*
X138950000Y-94850000D03*
X138950000Y-99650000D03*
X137250000Y-99650000D03*
X135550000Y-99650000D03*
X142550000Y-94850000D03*
X144250000Y-94850000D03*
X145950000Y-94850000D03*
X145950000Y-99650000D03*
X144250000Y-99650000D03*
X142550000Y-99650000D03*
X149550000Y-94850000D03*
X151250000Y-94850000D03*
X152950000Y-94850000D03*
X152950000Y-99650000D03*
X151250000Y-99650000D03*
X149550000Y-99650000D03*
X156550000Y-94850000D03*
X158250000Y-94850000D03*
X159950000Y-94850000D03*
X159950000Y-99650000D03*
X158250000Y-99650000D03*
X156550000Y-99650000D03*
X163550000Y-94850000D03*
X165250000Y-94850000D03*
X166950000Y-94850000D03*
X166950000Y-99650000D03*
X165250000Y-99650000D03*
X163550000Y-99650000D03*
X170550000Y-94850000D03*
X172250000Y-94850000D03*
X173950000Y-94850000D03*
X173950000Y-99650000D03*
X172250000Y-99650000D03*
X170550000Y-99650000D03*
X177550000Y-94850000D03*
X179250000Y-94850000D03*
X180950000Y-94850000D03*
X180950000Y-99650000D03*
X179250000Y-99650000D03*
X177550000Y-99650000D03*
X184550000Y-94850000D03*
X186250000Y-94850000D03*
X187950000Y-94850000D03*
X187950000Y-99650000D03*
X186250000Y-99650000D03*
X184550000Y-99650000D03*
X191550000Y-94850000D03*
X193250000Y-94850000D03*
X194950000Y-94850000D03*
X194950000Y-99650000D03*
X193250000Y-99650000D03*
X191550000Y-99650000D03*
D16*
X224500000Y-94300000D03*
X222650000Y-94300000D03*
D17*
X227310000Y-101450000D03*
X223890000Y-102400000D03*
X223890000Y-100500000D03*
D13*
X248000000Y-102660000D03*
X248000000Y-100120000D03*
X248000000Y-97580000D03*
X248000000Y-95040000D03*
D14*
X248000000Y-92500000D03*
G36*
G01*
X203903983Y-102176775D02*
X204823225Y-103096017D01*
G75*
G02*
X204823225Y-103449567I-176775J-176775D01*
G01*
X204239859Y-104032933D01*
G75*
G02*
X203886309Y-104032933I-176775J176775D01*
G01*
X202967067Y-103113691D01*
G75*
G02*
X202967067Y-102760141I176775J176775D01*
G01*
X203550433Y-102176775D01*
G75*
G02*
X203903983Y-102176775I176775J-176775D01*
G01*
G37*
G36*
G01*
X206113691Y-99967067D02*
X207032933Y-100886309D01*
G75*
G02*
X207032933Y-101239859I-176775J-176775D01*
G01*
X206449567Y-101823225D01*
G75*
G02*
X206096017Y-101823225I-176775J176775D01*
G01*
X205176775Y-100903983D01*
G75*
G02*
X205176775Y-100550433I176775J176775D01*
G01*
X205760141Y-99967067D01*
G75*
G02*
X206113691Y-99967067I176775J-176775D01*
G01*
G37*
G36*
G01*
X232850002Y-95462500D02*
X231549998Y-95462500D01*
G75*
G02*
X231300000Y-95212502I0J249998D01*
G01*
X231300000Y-94387498D01*
G75*
G02*
X231549998Y-94137500I249998J0D01*
G01*
X232850002Y-94137500D01*
G75*
G02*
X233100000Y-94387498I0J-249998D01*
G01*
X233100000Y-95212502D01*
G75*
G02*
X232850002Y-95462500I-249998J0D01*
G01*
G37*
G36*
G01*
X232850002Y-98587500D02*
X231549998Y-98587500D01*
G75*
G02*
X231300000Y-98337502I0J249998D01*
G01*
X231300000Y-97512498D01*
G75*
G02*
X231549998Y-97262500I249998J0D01*
G01*
X232850002Y-97262500D01*
G75*
G02*
X233100000Y-97512498I0J-249998D01*
G01*
X233100000Y-98337502D01*
G75*
G02*
X232850002Y-98587500I-249998J0D01*
G01*
G37*
M02*
