M48
; DRILL file {KiCad (5.1.10)-1} date 04/06/22 13:47:03
; FORMAT={-:-/ absolute / metric / decimal}
; #@! TF.CreationDate,2022-04-06T13:47:03+02:00
; #@! TF.GenerationSoftware,Kicad,Pcbnew,(5.1.10)-1
; #@! TF.FileFunction,Plated,1,2,PTH
FMAT,2
METRIC
T1C0.300
T2C0.400
T3C1.000
%
G90
G05
T1
X52.45Y-91.85
X54.15Y-91.75
X55.304Y-104.554
X56.7Y-90.9
X57.9Y-102.798
X59.2Y-103.3
X59.5Y-91.85
X60.4Y-102.1
X61.1Y-91.75
X61.7Y-101.55
X62.9Y-91.8
X62.977Y-104.027
X66.4Y-91.85
X68.25Y-91.8
X70.1Y-91.05
X71.604Y-104.554
X73.35Y-102.798
X73.45Y-91.9
X74.102Y-102.798
X75.05Y-91.85
X75.4Y-103.3
X76.65Y-102.1
X76.7Y-91.9
X77.95Y-101.55
X78.45Y-91.85
X79.223Y-104.027
X80.45Y-91.85
X84.15Y-91.3
X87.45Y-91.9
X89.2Y-91.7
X91.4Y-90.85
X91.446Y-104.554
X93.2Y-102.798
X93.948Y-102.798
X94.45Y-91.8
X95.15Y-103.3
X96.15Y-91.8
X96.5Y-102.1
X97.75Y-101.55
X97.95Y-91.85
X98.973Y-104.027
X99.25Y-91.75
X101.5Y-91.85
X105.45Y-90.85
X108.6Y-91.75
X110.25Y-91.8
X110.446Y-104.554
X112.15Y-102.798
X112.5Y-91.0
X112.898Y-102.798
X114.2Y-103.3
X115.4Y-91.9
X115.45Y-102.1
X116.7Y-101.55
X117.0Y-91.85
X117.977Y-104.027
X118.85Y-91.75
X120.15Y-91.7
X124.15Y-91.7
X126.1Y-90.8
X129.2Y-104.554
X129.45Y-91.85
X131.1Y-102.798
X131.2Y-91.8
X131.85Y-102.798
X132.9Y-103.3
X133.1Y-91.5
X134.25Y-102.1
X135.5Y-101.55
X136.3Y-91.9
X136.773Y-104.027
X138.1Y-91.75
X140.15Y-92.1
X143.35Y-91.9
X145.1Y-91.75
X147.25Y-90.9
X150.896Y-104.554
X152.15Y-102.798
X152.2Y-91.75
X153.45Y-102.798
X154.15Y-90.95
X154.7Y-103.3
X156.0Y-102.1
X157.25Y-101.55
X157.4Y-91.85
X158.527Y-104.027
X159.15Y-91.9
X161.1Y-91.85
X164.5Y-91.7
X165.896Y-104.554
X166.0Y-91.85
X167.7Y-102.798
X168.0Y-91.8
X168.45Y-102.798
X169.7Y-103.3
X169.75Y-91.9
X170.95Y-102.1
X171.5Y-91.85
X172.2Y-101.55
X173.4Y-91.85
X173.473Y-104.027
X175.146Y-104.554
X176.45Y-91.75
X180.0Y-91.7
X182.25Y-91.85
X182.4Y-102.798
X183.7Y-92.0
X183.8Y-102.602
X184.8Y-103.3
X185.543Y-91.943
X186.1Y-102.1
X186.908Y-91.993
X187.35Y-101.55
X188.573Y-104.027
X190.5Y-91.1
X192.65Y-91.85
X194.45Y-91.85
X204.9Y-102.0
X206.7Y-91.5
X207.3Y-99.5
X207.8Y-102.0
X209.8Y-102.6
X210.3Y-99.2
X212.8Y-95.3
X214.0Y-97.6
X215.6Y-103.723
X215.7Y-97.3
X215.965Y-95.623
X216.8Y-100.9
X218.6Y-95.8
X219.8Y-94.9
X221.5Y-95.7
X244.035Y-100.835
T2
X56.7Y-97.0
X70.65Y-97.15
X84.7Y-97.15
X103.75Y-97.3
X123.1Y-97.3
X144.1Y-97.25
X148.15Y-90.8
X160.05Y-97.2
X175.95Y-100.2
X226.2Y-93.2
X227.9Y-98.9
X241.4Y-90.5
T3
X223.5Y-89.4
X226.04Y-89.4
X239.5Y-94.7
X239.5Y-97.24
X248.0Y-92.5
X248.0Y-95.04
X248.0Y-97.58
X248.0Y-100.12
X248.0Y-102.66
T0
M30
