G04 #@! TF.GenerationSoftware,KiCad,Pcbnew,(5.1.10)-1*
G04 #@! TF.CreationDate,2022-04-06T13:47:01+02:00*
G04 #@! TF.ProjectId,POV_display_schematic,504f565f-6469-4737-906c-61795f736368,1*
G04 #@! TF.SameCoordinates,Original*
G04 #@! TF.FileFunction,Soldermask,Top*
G04 #@! TF.FilePolarity,Negative*
%FSLAX46Y46*%
G04 Gerber Fmt 4.6, Leading zero omitted, Abs format (unit mm)*
G04 Created by KiCad (PCBNEW (5.1.10)-1) date 2022-04-06 13:47:01*
%MOMM*%
%LPD*%
G01*
G04 APERTURE LIST*
%ADD10O,1.700000X1.700000*%
%ADD11R,1.700000X1.700000*%
%ADD12R,1.100000X2.000000*%
%ADD13R,1.050000X1.100000*%
%ADD14R,2.000000X0.650000*%
G04 APERTURE END LIST*
G36*
G01*
X216050000Y-101000000D02*
X216050000Y-102325000D01*
G75*
G02*
X215975000Y-102400000I-75000J0D01*
G01*
X215825000Y-102400000D01*
G75*
G02*
X215750000Y-102325000I0J75000D01*
G01*
X215750000Y-101000000D01*
G75*
G02*
X215825000Y-100925000I75000J0D01*
G01*
X215975000Y-100925000D01*
G75*
G02*
X216050000Y-101000000I0J-75000D01*
G01*
G37*
G36*
G01*
X215550000Y-101000000D02*
X215550000Y-102325000D01*
G75*
G02*
X215475000Y-102400000I-75000J0D01*
G01*
X215325000Y-102400000D01*
G75*
G02*
X215250000Y-102325000I0J75000D01*
G01*
X215250000Y-101000000D01*
G75*
G02*
X215325000Y-100925000I75000J0D01*
G01*
X215475000Y-100925000D01*
G75*
G02*
X215550000Y-101000000I0J-75000D01*
G01*
G37*
G36*
G01*
X215050000Y-101000000D02*
X215050000Y-102325000D01*
G75*
G02*
X214975000Y-102400000I-75000J0D01*
G01*
X214825000Y-102400000D01*
G75*
G02*
X214750000Y-102325000I0J75000D01*
G01*
X214750000Y-101000000D01*
G75*
G02*
X214825000Y-100925000I75000J0D01*
G01*
X214975000Y-100925000D01*
G75*
G02*
X215050000Y-101000000I0J-75000D01*
G01*
G37*
G36*
G01*
X214550000Y-101000000D02*
X214550000Y-102325000D01*
G75*
G02*
X214475000Y-102400000I-75000J0D01*
G01*
X214325000Y-102400000D01*
G75*
G02*
X214250000Y-102325000I0J75000D01*
G01*
X214250000Y-101000000D01*
G75*
G02*
X214325000Y-100925000I75000J0D01*
G01*
X214475000Y-100925000D01*
G75*
G02*
X214550000Y-101000000I0J-75000D01*
G01*
G37*
G36*
G01*
X214050000Y-101000000D02*
X214050000Y-102325000D01*
G75*
G02*
X213975000Y-102400000I-75000J0D01*
G01*
X213825000Y-102400000D01*
G75*
G02*
X213750000Y-102325000I0J75000D01*
G01*
X213750000Y-101000000D01*
G75*
G02*
X213825000Y-100925000I75000J0D01*
G01*
X213975000Y-100925000D01*
G75*
G02*
X214050000Y-101000000I0J-75000D01*
G01*
G37*
G36*
G01*
X213550000Y-101000000D02*
X213550000Y-102325000D01*
G75*
G02*
X213475000Y-102400000I-75000J0D01*
G01*
X213325000Y-102400000D01*
G75*
G02*
X213250000Y-102325000I0J75000D01*
G01*
X213250000Y-101000000D01*
G75*
G02*
X213325000Y-100925000I75000J0D01*
G01*
X213475000Y-100925000D01*
G75*
G02*
X213550000Y-101000000I0J-75000D01*
G01*
G37*
G36*
G01*
X213050000Y-101000000D02*
X213050000Y-102325000D01*
G75*
G02*
X212975000Y-102400000I-75000J0D01*
G01*
X212825000Y-102400000D01*
G75*
G02*
X212750000Y-102325000I0J75000D01*
G01*
X212750000Y-101000000D01*
G75*
G02*
X212825000Y-100925000I75000J0D01*
G01*
X212975000Y-100925000D01*
G75*
G02*
X213050000Y-101000000I0J-75000D01*
G01*
G37*
G36*
G01*
X212550000Y-101000000D02*
X212550000Y-102325000D01*
G75*
G02*
X212475000Y-102400000I-75000J0D01*
G01*
X212325000Y-102400000D01*
G75*
G02*
X212250000Y-102325000I0J75000D01*
G01*
X212250000Y-101000000D01*
G75*
G02*
X212325000Y-100925000I75000J0D01*
G01*
X212475000Y-100925000D01*
G75*
G02*
X212550000Y-101000000I0J-75000D01*
G01*
G37*
G36*
G01*
X212050000Y-101000000D02*
X212050000Y-102325000D01*
G75*
G02*
X211975000Y-102400000I-75000J0D01*
G01*
X211825000Y-102400000D01*
G75*
G02*
X211750000Y-102325000I0J75000D01*
G01*
X211750000Y-101000000D01*
G75*
G02*
X211825000Y-100925000I75000J0D01*
G01*
X211975000Y-100925000D01*
G75*
G02*
X212050000Y-101000000I0J-75000D01*
G01*
G37*
G36*
G01*
X211550000Y-101000000D02*
X211550000Y-102325000D01*
G75*
G02*
X211475000Y-102400000I-75000J0D01*
G01*
X211325000Y-102400000D01*
G75*
G02*
X211250000Y-102325000I0J75000D01*
G01*
X211250000Y-101000000D01*
G75*
G02*
X211325000Y-100925000I75000J0D01*
G01*
X211475000Y-100925000D01*
G75*
G02*
X211550000Y-101000000I0J-75000D01*
G01*
G37*
G36*
G01*
X211050000Y-101000000D02*
X211050000Y-102325000D01*
G75*
G02*
X210975000Y-102400000I-75000J0D01*
G01*
X210825000Y-102400000D01*
G75*
G02*
X210750000Y-102325000I0J75000D01*
G01*
X210750000Y-101000000D01*
G75*
G02*
X210825000Y-100925000I75000J0D01*
G01*
X210975000Y-100925000D01*
G75*
G02*
X211050000Y-101000000I0J-75000D01*
G01*
G37*
G36*
G01*
X210550000Y-101000000D02*
X210550000Y-102325000D01*
G75*
G02*
X210475000Y-102400000I-75000J0D01*
G01*
X210325000Y-102400000D01*
G75*
G02*
X210250000Y-102325000I0J75000D01*
G01*
X210250000Y-101000000D01*
G75*
G02*
X210325000Y-100925000I75000J0D01*
G01*
X210475000Y-100925000D01*
G75*
G02*
X210550000Y-101000000I0J-75000D01*
G01*
G37*
G36*
G01*
X209725000Y-100175000D02*
X209725000Y-100325000D01*
G75*
G02*
X209650000Y-100400000I-75000J0D01*
G01*
X208325000Y-100400000D01*
G75*
G02*
X208250000Y-100325000I0J75000D01*
G01*
X208250000Y-100175000D01*
G75*
G02*
X208325000Y-100100000I75000J0D01*
G01*
X209650000Y-100100000D01*
G75*
G02*
X209725000Y-100175000I0J-75000D01*
G01*
G37*
G36*
G01*
X209725000Y-99675000D02*
X209725000Y-99825000D01*
G75*
G02*
X209650000Y-99900000I-75000J0D01*
G01*
X208325000Y-99900000D01*
G75*
G02*
X208250000Y-99825000I0J75000D01*
G01*
X208250000Y-99675000D01*
G75*
G02*
X208325000Y-99600000I75000J0D01*
G01*
X209650000Y-99600000D01*
G75*
G02*
X209725000Y-99675000I0J-75000D01*
G01*
G37*
G36*
G01*
X209725000Y-99175000D02*
X209725000Y-99325000D01*
G75*
G02*
X209650000Y-99400000I-75000J0D01*
G01*
X208325000Y-99400000D01*
G75*
G02*
X208250000Y-99325000I0J75000D01*
G01*
X208250000Y-99175000D01*
G75*
G02*
X208325000Y-99100000I75000J0D01*
G01*
X209650000Y-99100000D01*
G75*
G02*
X209725000Y-99175000I0J-75000D01*
G01*
G37*
G36*
G01*
X209725000Y-98675000D02*
X209725000Y-98825000D01*
G75*
G02*
X209650000Y-98900000I-75000J0D01*
G01*
X208325000Y-98900000D01*
G75*
G02*
X208250000Y-98825000I0J75000D01*
G01*
X208250000Y-98675000D01*
G75*
G02*
X208325000Y-98600000I75000J0D01*
G01*
X209650000Y-98600000D01*
G75*
G02*
X209725000Y-98675000I0J-75000D01*
G01*
G37*
G36*
G01*
X209725000Y-98175000D02*
X209725000Y-98325000D01*
G75*
G02*
X209650000Y-98400000I-75000J0D01*
G01*
X208325000Y-98400000D01*
G75*
G02*
X208250000Y-98325000I0J75000D01*
G01*
X208250000Y-98175000D01*
G75*
G02*
X208325000Y-98100000I75000J0D01*
G01*
X209650000Y-98100000D01*
G75*
G02*
X209725000Y-98175000I0J-75000D01*
G01*
G37*
G36*
G01*
X209725000Y-97675000D02*
X209725000Y-97825000D01*
G75*
G02*
X209650000Y-97900000I-75000J0D01*
G01*
X208325000Y-97900000D01*
G75*
G02*
X208250000Y-97825000I0J75000D01*
G01*
X208250000Y-97675000D01*
G75*
G02*
X208325000Y-97600000I75000J0D01*
G01*
X209650000Y-97600000D01*
G75*
G02*
X209725000Y-97675000I0J-75000D01*
G01*
G37*
G36*
G01*
X209725000Y-97175000D02*
X209725000Y-97325000D01*
G75*
G02*
X209650000Y-97400000I-75000J0D01*
G01*
X208325000Y-97400000D01*
G75*
G02*
X208250000Y-97325000I0J75000D01*
G01*
X208250000Y-97175000D01*
G75*
G02*
X208325000Y-97100000I75000J0D01*
G01*
X209650000Y-97100000D01*
G75*
G02*
X209725000Y-97175000I0J-75000D01*
G01*
G37*
G36*
G01*
X209725000Y-96675000D02*
X209725000Y-96825000D01*
G75*
G02*
X209650000Y-96900000I-75000J0D01*
G01*
X208325000Y-96900000D01*
G75*
G02*
X208250000Y-96825000I0J75000D01*
G01*
X208250000Y-96675000D01*
G75*
G02*
X208325000Y-96600000I75000J0D01*
G01*
X209650000Y-96600000D01*
G75*
G02*
X209725000Y-96675000I0J-75000D01*
G01*
G37*
G36*
G01*
X209725000Y-96175000D02*
X209725000Y-96325000D01*
G75*
G02*
X209650000Y-96400000I-75000J0D01*
G01*
X208325000Y-96400000D01*
G75*
G02*
X208250000Y-96325000I0J75000D01*
G01*
X208250000Y-96175000D01*
G75*
G02*
X208325000Y-96100000I75000J0D01*
G01*
X209650000Y-96100000D01*
G75*
G02*
X209725000Y-96175000I0J-75000D01*
G01*
G37*
G36*
G01*
X209725000Y-95675000D02*
X209725000Y-95825000D01*
G75*
G02*
X209650000Y-95900000I-75000J0D01*
G01*
X208325000Y-95900000D01*
G75*
G02*
X208250000Y-95825000I0J75000D01*
G01*
X208250000Y-95675000D01*
G75*
G02*
X208325000Y-95600000I75000J0D01*
G01*
X209650000Y-95600000D01*
G75*
G02*
X209725000Y-95675000I0J-75000D01*
G01*
G37*
G36*
G01*
X209725000Y-95175000D02*
X209725000Y-95325000D01*
G75*
G02*
X209650000Y-95400000I-75000J0D01*
G01*
X208325000Y-95400000D01*
G75*
G02*
X208250000Y-95325000I0J75000D01*
G01*
X208250000Y-95175000D01*
G75*
G02*
X208325000Y-95100000I75000J0D01*
G01*
X209650000Y-95100000D01*
G75*
G02*
X209725000Y-95175000I0J-75000D01*
G01*
G37*
G36*
G01*
X209725000Y-94675000D02*
X209725000Y-94825000D01*
G75*
G02*
X209650000Y-94900000I-75000J0D01*
G01*
X208325000Y-94900000D01*
G75*
G02*
X208250000Y-94825000I0J75000D01*
G01*
X208250000Y-94675000D01*
G75*
G02*
X208325000Y-94600000I75000J0D01*
G01*
X209650000Y-94600000D01*
G75*
G02*
X209725000Y-94675000I0J-75000D01*
G01*
G37*
G36*
G01*
X210550000Y-92675000D02*
X210550000Y-94000000D01*
G75*
G02*
X210475000Y-94075000I-75000J0D01*
G01*
X210325000Y-94075000D01*
G75*
G02*
X210250000Y-94000000I0J75000D01*
G01*
X210250000Y-92675000D01*
G75*
G02*
X210325000Y-92600000I75000J0D01*
G01*
X210475000Y-92600000D01*
G75*
G02*
X210550000Y-92675000I0J-75000D01*
G01*
G37*
G36*
G01*
X211050000Y-92675000D02*
X211050000Y-94000000D01*
G75*
G02*
X210975000Y-94075000I-75000J0D01*
G01*
X210825000Y-94075000D01*
G75*
G02*
X210750000Y-94000000I0J75000D01*
G01*
X210750000Y-92675000D01*
G75*
G02*
X210825000Y-92600000I75000J0D01*
G01*
X210975000Y-92600000D01*
G75*
G02*
X211050000Y-92675000I0J-75000D01*
G01*
G37*
G36*
G01*
X211550000Y-92675000D02*
X211550000Y-94000000D01*
G75*
G02*
X211475000Y-94075000I-75000J0D01*
G01*
X211325000Y-94075000D01*
G75*
G02*
X211250000Y-94000000I0J75000D01*
G01*
X211250000Y-92675000D01*
G75*
G02*
X211325000Y-92600000I75000J0D01*
G01*
X211475000Y-92600000D01*
G75*
G02*
X211550000Y-92675000I0J-75000D01*
G01*
G37*
G36*
G01*
X212050000Y-92675000D02*
X212050000Y-94000000D01*
G75*
G02*
X211975000Y-94075000I-75000J0D01*
G01*
X211825000Y-94075000D01*
G75*
G02*
X211750000Y-94000000I0J75000D01*
G01*
X211750000Y-92675000D01*
G75*
G02*
X211825000Y-92600000I75000J0D01*
G01*
X211975000Y-92600000D01*
G75*
G02*
X212050000Y-92675000I0J-75000D01*
G01*
G37*
G36*
G01*
X212550000Y-92675000D02*
X212550000Y-94000000D01*
G75*
G02*
X212475000Y-94075000I-75000J0D01*
G01*
X212325000Y-94075000D01*
G75*
G02*
X212250000Y-94000000I0J75000D01*
G01*
X212250000Y-92675000D01*
G75*
G02*
X212325000Y-92600000I75000J0D01*
G01*
X212475000Y-92600000D01*
G75*
G02*
X212550000Y-92675000I0J-75000D01*
G01*
G37*
G36*
G01*
X213050000Y-92675000D02*
X213050000Y-94000000D01*
G75*
G02*
X212975000Y-94075000I-75000J0D01*
G01*
X212825000Y-94075000D01*
G75*
G02*
X212750000Y-94000000I0J75000D01*
G01*
X212750000Y-92675000D01*
G75*
G02*
X212825000Y-92600000I75000J0D01*
G01*
X212975000Y-92600000D01*
G75*
G02*
X213050000Y-92675000I0J-75000D01*
G01*
G37*
G36*
G01*
X213550000Y-92675000D02*
X213550000Y-94000000D01*
G75*
G02*
X213475000Y-94075000I-75000J0D01*
G01*
X213325000Y-94075000D01*
G75*
G02*
X213250000Y-94000000I0J75000D01*
G01*
X213250000Y-92675000D01*
G75*
G02*
X213325000Y-92600000I75000J0D01*
G01*
X213475000Y-92600000D01*
G75*
G02*
X213550000Y-92675000I0J-75000D01*
G01*
G37*
G36*
G01*
X214050000Y-92675000D02*
X214050000Y-94000000D01*
G75*
G02*
X213975000Y-94075000I-75000J0D01*
G01*
X213825000Y-94075000D01*
G75*
G02*
X213750000Y-94000000I0J75000D01*
G01*
X213750000Y-92675000D01*
G75*
G02*
X213825000Y-92600000I75000J0D01*
G01*
X213975000Y-92600000D01*
G75*
G02*
X214050000Y-92675000I0J-75000D01*
G01*
G37*
G36*
G01*
X214550000Y-92675000D02*
X214550000Y-94000000D01*
G75*
G02*
X214475000Y-94075000I-75000J0D01*
G01*
X214325000Y-94075000D01*
G75*
G02*
X214250000Y-94000000I0J75000D01*
G01*
X214250000Y-92675000D01*
G75*
G02*
X214325000Y-92600000I75000J0D01*
G01*
X214475000Y-92600000D01*
G75*
G02*
X214550000Y-92675000I0J-75000D01*
G01*
G37*
G36*
G01*
X215050000Y-92675000D02*
X215050000Y-94000000D01*
G75*
G02*
X214975000Y-94075000I-75000J0D01*
G01*
X214825000Y-94075000D01*
G75*
G02*
X214750000Y-94000000I0J75000D01*
G01*
X214750000Y-92675000D01*
G75*
G02*
X214825000Y-92600000I75000J0D01*
G01*
X214975000Y-92600000D01*
G75*
G02*
X215050000Y-92675000I0J-75000D01*
G01*
G37*
G36*
G01*
X215550000Y-92675000D02*
X215550000Y-94000000D01*
G75*
G02*
X215475000Y-94075000I-75000J0D01*
G01*
X215325000Y-94075000D01*
G75*
G02*
X215250000Y-94000000I0J75000D01*
G01*
X215250000Y-92675000D01*
G75*
G02*
X215325000Y-92600000I75000J0D01*
G01*
X215475000Y-92600000D01*
G75*
G02*
X215550000Y-92675000I0J-75000D01*
G01*
G37*
G36*
G01*
X216050000Y-92675000D02*
X216050000Y-94000000D01*
G75*
G02*
X215975000Y-94075000I-75000J0D01*
G01*
X215825000Y-94075000D01*
G75*
G02*
X215750000Y-94000000I0J75000D01*
G01*
X215750000Y-92675000D01*
G75*
G02*
X215825000Y-92600000I75000J0D01*
G01*
X215975000Y-92600000D01*
G75*
G02*
X216050000Y-92675000I0J-75000D01*
G01*
G37*
G36*
G01*
X218050000Y-94675000D02*
X218050000Y-94825000D01*
G75*
G02*
X217975000Y-94900000I-75000J0D01*
G01*
X216650000Y-94900000D01*
G75*
G02*
X216575000Y-94825000I0J75000D01*
G01*
X216575000Y-94675000D01*
G75*
G02*
X216650000Y-94600000I75000J0D01*
G01*
X217975000Y-94600000D01*
G75*
G02*
X218050000Y-94675000I0J-75000D01*
G01*
G37*
G36*
G01*
X218050000Y-95175000D02*
X218050000Y-95325000D01*
G75*
G02*
X217975000Y-95400000I-75000J0D01*
G01*
X216650000Y-95400000D01*
G75*
G02*
X216575000Y-95325000I0J75000D01*
G01*
X216575000Y-95175000D01*
G75*
G02*
X216650000Y-95100000I75000J0D01*
G01*
X217975000Y-95100000D01*
G75*
G02*
X218050000Y-95175000I0J-75000D01*
G01*
G37*
G36*
G01*
X218050000Y-95675000D02*
X218050000Y-95825000D01*
G75*
G02*
X217975000Y-95900000I-75000J0D01*
G01*
X216650000Y-95900000D01*
G75*
G02*
X216575000Y-95825000I0J75000D01*
G01*
X216575000Y-95675000D01*
G75*
G02*
X216650000Y-95600000I75000J0D01*
G01*
X217975000Y-95600000D01*
G75*
G02*
X218050000Y-95675000I0J-75000D01*
G01*
G37*
G36*
G01*
X218050000Y-96175000D02*
X218050000Y-96325000D01*
G75*
G02*
X217975000Y-96400000I-75000J0D01*
G01*
X216650000Y-96400000D01*
G75*
G02*
X216575000Y-96325000I0J75000D01*
G01*
X216575000Y-96175000D01*
G75*
G02*
X216650000Y-96100000I75000J0D01*
G01*
X217975000Y-96100000D01*
G75*
G02*
X218050000Y-96175000I0J-75000D01*
G01*
G37*
G36*
G01*
X218050000Y-96675000D02*
X218050000Y-96825000D01*
G75*
G02*
X217975000Y-96900000I-75000J0D01*
G01*
X216650000Y-96900000D01*
G75*
G02*
X216575000Y-96825000I0J75000D01*
G01*
X216575000Y-96675000D01*
G75*
G02*
X216650000Y-96600000I75000J0D01*
G01*
X217975000Y-96600000D01*
G75*
G02*
X218050000Y-96675000I0J-75000D01*
G01*
G37*
G36*
G01*
X218050000Y-97175000D02*
X218050000Y-97325000D01*
G75*
G02*
X217975000Y-97400000I-75000J0D01*
G01*
X216650000Y-97400000D01*
G75*
G02*
X216575000Y-97325000I0J75000D01*
G01*
X216575000Y-97175000D01*
G75*
G02*
X216650000Y-97100000I75000J0D01*
G01*
X217975000Y-97100000D01*
G75*
G02*
X218050000Y-97175000I0J-75000D01*
G01*
G37*
G36*
G01*
X218050000Y-97675000D02*
X218050000Y-97825000D01*
G75*
G02*
X217975000Y-97900000I-75000J0D01*
G01*
X216650000Y-97900000D01*
G75*
G02*
X216575000Y-97825000I0J75000D01*
G01*
X216575000Y-97675000D01*
G75*
G02*
X216650000Y-97600000I75000J0D01*
G01*
X217975000Y-97600000D01*
G75*
G02*
X218050000Y-97675000I0J-75000D01*
G01*
G37*
G36*
G01*
X218050000Y-98175000D02*
X218050000Y-98325000D01*
G75*
G02*
X217975000Y-98400000I-75000J0D01*
G01*
X216650000Y-98400000D01*
G75*
G02*
X216575000Y-98325000I0J75000D01*
G01*
X216575000Y-98175000D01*
G75*
G02*
X216650000Y-98100000I75000J0D01*
G01*
X217975000Y-98100000D01*
G75*
G02*
X218050000Y-98175000I0J-75000D01*
G01*
G37*
G36*
G01*
X218050000Y-98675000D02*
X218050000Y-98825000D01*
G75*
G02*
X217975000Y-98900000I-75000J0D01*
G01*
X216650000Y-98900000D01*
G75*
G02*
X216575000Y-98825000I0J75000D01*
G01*
X216575000Y-98675000D01*
G75*
G02*
X216650000Y-98600000I75000J0D01*
G01*
X217975000Y-98600000D01*
G75*
G02*
X218050000Y-98675000I0J-75000D01*
G01*
G37*
G36*
G01*
X218050000Y-99175000D02*
X218050000Y-99325000D01*
G75*
G02*
X217975000Y-99400000I-75000J0D01*
G01*
X216650000Y-99400000D01*
G75*
G02*
X216575000Y-99325000I0J75000D01*
G01*
X216575000Y-99175000D01*
G75*
G02*
X216650000Y-99100000I75000J0D01*
G01*
X217975000Y-99100000D01*
G75*
G02*
X218050000Y-99175000I0J-75000D01*
G01*
G37*
G36*
G01*
X218050000Y-99675000D02*
X218050000Y-99825000D01*
G75*
G02*
X217975000Y-99900000I-75000J0D01*
G01*
X216650000Y-99900000D01*
G75*
G02*
X216575000Y-99825000I0J75000D01*
G01*
X216575000Y-99675000D01*
G75*
G02*
X216650000Y-99600000I75000J0D01*
G01*
X217975000Y-99600000D01*
G75*
G02*
X218050000Y-99675000I0J-75000D01*
G01*
G37*
G36*
G01*
X218050000Y-100175000D02*
X218050000Y-100325000D01*
G75*
G02*
X217975000Y-100400000I-75000J0D01*
G01*
X216650000Y-100400000D01*
G75*
G02*
X216575000Y-100325000I0J75000D01*
G01*
X216575000Y-100175000D01*
G75*
G02*
X216650000Y-100100000I75000J0D01*
G01*
X217975000Y-100100000D01*
G75*
G02*
X218050000Y-100175000I0J-75000D01*
G01*
G37*
G36*
G01*
X222257500Y-97537500D02*
X222257500Y-97062500D01*
G75*
G02*
X222495000Y-96825000I237500J0D01*
G01*
X223095000Y-96825000D01*
G75*
G02*
X223332500Y-97062500I0J-237500D01*
G01*
X223332500Y-97537500D01*
G75*
G02*
X223095000Y-97775000I-237500J0D01*
G01*
X222495000Y-97775000D01*
G75*
G02*
X222257500Y-97537500I0J237500D01*
G01*
G37*
G36*
G01*
X220532500Y-97537500D02*
X220532500Y-97062500D01*
G75*
G02*
X220770000Y-96825000I237500J0D01*
G01*
X221370000Y-96825000D01*
G75*
G02*
X221607500Y-97062500I0J-237500D01*
G01*
X221607500Y-97537500D01*
G75*
G02*
X221370000Y-97775000I-237500J0D01*
G01*
X220770000Y-97775000D01*
G75*
G02*
X220532500Y-97537500I0J237500D01*
G01*
G37*
G36*
G01*
X225742500Y-97062500D02*
X225742500Y-97537500D01*
G75*
G02*
X225505000Y-97775000I-237500J0D01*
G01*
X224905000Y-97775000D01*
G75*
G02*
X224667500Y-97537500I0J237500D01*
G01*
X224667500Y-97062500D01*
G75*
G02*
X224905000Y-96825000I237500J0D01*
G01*
X225505000Y-96825000D01*
G75*
G02*
X225742500Y-97062500I0J-237500D01*
G01*
G37*
G36*
G01*
X227467500Y-97062500D02*
X227467500Y-97537500D01*
G75*
G02*
X227230000Y-97775000I-237500J0D01*
G01*
X226630000Y-97775000D01*
G75*
G02*
X226392500Y-97537500I0J237500D01*
G01*
X226392500Y-97062500D01*
G75*
G02*
X226630000Y-96825000I237500J0D01*
G01*
X227230000Y-96825000D01*
G75*
G02*
X227467500Y-97062500I0J-237500D01*
G01*
G37*
G36*
G01*
X216600000Y-88974999D02*
X216600000Y-90225001D01*
G75*
G02*
X216350001Y-90475000I-249999J0D01*
G01*
X215549999Y-90475000D01*
G75*
G02*
X215300000Y-90225001I0J249999D01*
G01*
X215300000Y-88974999D01*
G75*
G02*
X215549999Y-88725000I249999J0D01*
G01*
X216350001Y-88725000D01*
G75*
G02*
X216600000Y-88974999I0J-249999D01*
G01*
G37*
G36*
G01*
X219700000Y-88974999D02*
X219700000Y-90225001D01*
G75*
G02*
X219450001Y-90475000I-249999J0D01*
G01*
X218649999Y-90475000D01*
G75*
G02*
X218400000Y-90225001I0J249999D01*
G01*
X218400000Y-88974999D01*
G75*
G02*
X218649999Y-88725000I249999J0D01*
G01*
X219450001Y-88725000D01*
G75*
G02*
X219700000Y-88974999I0J-249999D01*
G01*
G37*
D10*
X226040000Y-89400000D03*
D11*
X223500000Y-89400000D03*
D10*
X239500000Y-97240000D03*
D11*
X239500000Y-94700000D03*
G36*
G01*
X228837500Y-92487500D02*
X228362500Y-92487500D01*
G75*
G02*
X228125000Y-92250000I0J237500D01*
G01*
X228125000Y-91750000D01*
G75*
G02*
X228362500Y-91512500I237500J0D01*
G01*
X228837500Y-91512500D01*
G75*
G02*
X229075000Y-91750000I0J-237500D01*
G01*
X229075000Y-92250000D01*
G75*
G02*
X228837500Y-92487500I-237500J0D01*
G01*
G37*
G36*
G01*
X228837500Y-94312500D02*
X228362500Y-94312500D01*
G75*
G02*
X228125000Y-94075000I0J237500D01*
G01*
X228125000Y-93575000D01*
G75*
G02*
X228362500Y-93337500I237500J0D01*
G01*
X228837500Y-93337500D01*
G75*
G02*
X229075000Y-93575000I0J-237500D01*
G01*
X229075000Y-94075000D01*
G75*
G02*
X228837500Y-94312500I-237500J0D01*
G01*
G37*
G36*
G01*
X220212500Y-101975000D02*
X220687500Y-101975000D01*
G75*
G02*
X220925000Y-102212500I0J-237500D01*
G01*
X220925000Y-102712500D01*
G75*
G02*
X220687500Y-102950000I-237500J0D01*
G01*
X220212500Y-102950000D01*
G75*
G02*
X219975000Y-102712500I0J237500D01*
G01*
X219975000Y-102212500D01*
G75*
G02*
X220212500Y-101975000I237500J0D01*
G01*
G37*
G36*
G01*
X220212500Y-100150000D02*
X220687500Y-100150000D01*
G75*
G02*
X220925000Y-100387500I0J-237500D01*
G01*
X220925000Y-100887500D01*
G75*
G02*
X220687500Y-101125000I-237500J0D01*
G01*
X220212500Y-101125000D01*
G75*
G02*
X219975000Y-100887500I0J237500D01*
G01*
X219975000Y-100387500D01*
G75*
G02*
X220212500Y-100150000I237500J0D01*
G01*
G37*
G36*
G01*
X54762500Y-92225000D02*
X55237500Y-92225000D01*
G75*
G02*
X55475000Y-92462500I0J-237500D01*
G01*
X55475000Y-92962500D01*
G75*
G02*
X55237500Y-93200000I-237500J0D01*
G01*
X54762500Y-93200000D01*
G75*
G02*
X54525000Y-92962500I0J237500D01*
G01*
X54525000Y-92462500D01*
G75*
G02*
X54762500Y-92225000I237500J0D01*
G01*
G37*
G36*
G01*
X54762500Y-90400000D02*
X55237500Y-90400000D01*
G75*
G02*
X55475000Y-90637500I0J-237500D01*
G01*
X55475000Y-91137500D01*
G75*
G02*
X55237500Y-91375000I-237500J0D01*
G01*
X54762500Y-91375000D01*
G75*
G02*
X54525000Y-91137500I0J237500D01*
G01*
X54525000Y-90637500D01*
G75*
G02*
X54762500Y-90400000I237500J0D01*
G01*
G37*
G36*
G01*
X61762500Y-92237500D02*
X62237500Y-92237500D01*
G75*
G02*
X62475000Y-92475000I0J-237500D01*
G01*
X62475000Y-92975000D01*
G75*
G02*
X62237500Y-93212500I-237500J0D01*
G01*
X61762500Y-93212500D01*
G75*
G02*
X61525000Y-92975000I0J237500D01*
G01*
X61525000Y-92475000D01*
G75*
G02*
X61762500Y-92237500I237500J0D01*
G01*
G37*
G36*
G01*
X61762500Y-90412500D02*
X62237500Y-90412500D01*
G75*
G02*
X62475000Y-90650000I0J-237500D01*
G01*
X62475000Y-91150000D01*
G75*
G02*
X62237500Y-91387500I-237500J0D01*
G01*
X61762500Y-91387500D01*
G75*
G02*
X61525000Y-91150000I0J237500D01*
G01*
X61525000Y-90650000D01*
G75*
G02*
X61762500Y-90412500I237500J0D01*
G01*
G37*
G36*
G01*
X68762500Y-92237500D02*
X69237500Y-92237500D01*
G75*
G02*
X69475000Y-92475000I0J-237500D01*
G01*
X69475000Y-92975000D01*
G75*
G02*
X69237500Y-93212500I-237500J0D01*
G01*
X68762500Y-93212500D01*
G75*
G02*
X68525000Y-92975000I0J237500D01*
G01*
X68525000Y-92475000D01*
G75*
G02*
X68762500Y-92237500I237500J0D01*
G01*
G37*
G36*
G01*
X68762500Y-90412500D02*
X69237500Y-90412500D01*
G75*
G02*
X69475000Y-90650000I0J-237500D01*
G01*
X69475000Y-91150000D01*
G75*
G02*
X69237500Y-91387500I-237500J0D01*
G01*
X68762500Y-91387500D01*
G75*
G02*
X68525000Y-91150000I0J237500D01*
G01*
X68525000Y-90650000D01*
G75*
G02*
X68762500Y-90412500I237500J0D01*
G01*
G37*
G36*
G01*
X75762500Y-92225000D02*
X76237500Y-92225000D01*
G75*
G02*
X76475000Y-92462500I0J-237500D01*
G01*
X76475000Y-92962500D01*
G75*
G02*
X76237500Y-93200000I-237500J0D01*
G01*
X75762500Y-93200000D01*
G75*
G02*
X75525000Y-92962500I0J237500D01*
G01*
X75525000Y-92462500D01*
G75*
G02*
X75762500Y-92225000I237500J0D01*
G01*
G37*
G36*
G01*
X75762500Y-90400000D02*
X76237500Y-90400000D01*
G75*
G02*
X76475000Y-90637500I0J-237500D01*
G01*
X76475000Y-91137500D01*
G75*
G02*
X76237500Y-91375000I-237500J0D01*
G01*
X75762500Y-91375000D01*
G75*
G02*
X75525000Y-91137500I0J237500D01*
G01*
X75525000Y-90637500D01*
G75*
G02*
X75762500Y-90400000I237500J0D01*
G01*
G37*
G36*
G01*
X82762500Y-92225000D02*
X83237500Y-92225000D01*
G75*
G02*
X83475000Y-92462500I0J-237500D01*
G01*
X83475000Y-92962500D01*
G75*
G02*
X83237500Y-93200000I-237500J0D01*
G01*
X82762500Y-93200000D01*
G75*
G02*
X82525000Y-92962500I0J237500D01*
G01*
X82525000Y-92462500D01*
G75*
G02*
X82762500Y-92225000I237500J0D01*
G01*
G37*
G36*
G01*
X82762500Y-90400000D02*
X83237500Y-90400000D01*
G75*
G02*
X83475000Y-90637500I0J-237500D01*
G01*
X83475000Y-91137500D01*
G75*
G02*
X83237500Y-91375000I-237500J0D01*
G01*
X82762500Y-91375000D01*
G75*
G02*
X82525000Y-91137500I0J237500D01*
G01*
X82525000Y-90637500D01*
G75*
G02*
X82762500Y-90400000I237500J0D01*
G01*
G37*
G36*
G01*
X89662500Y-92225000D02*
X90137500Y-92225000D01*
G75*
G02*
X90375000Y-92462500I0J-237500D01*
G01*
X90375000Y-92962500D01*
G75*
G02*
X90137500Y-93200000I-237500J0D01*
G01*
X89662500Y-93200000D01*
G75*
G02*
X89425000Y-92962500I0J237500D01*
G01*
X89425000Y-92462500D01*
G75*
G02*
X89662500Y-92225000I237500J0D01*
G01*
G37*
G36*
G01*
X89662500Y-90400000D02*
X90137500Y-90400000D01*
G75*
G02*
X90375000Y-90637500I0J-237500D01*
G01*
X90375000Y-91137500D01*
G75*
G02*
X90137500Y-91375000I-237500J0D01*
G01*
X89662500Y-91375000D01*
G75*
G02*
X89425000Y-91137500I0J237500D01*
G01*
X89425000Y-90637500D01*
G75*
G02*
X89662500Y-90400000I237500J0D01*
G01*
G37*
G36*
G01*
X96762500Y-92237500D02*
X97237500Y-92237500D01*
G75*
G02*
X97475000Y-92475000I0J-237500D01*
G01*
X97475000Y-92975000D01*
G75*
G02*
X97237500Y-93212500I-237500J0D01*
G01*
X96762500Y-93212500D01*
G75*
G02*
X96525000Y-92975000I0J237500D01*
G01*
X96525000Y-92475000D01*
G75*
G02*
X96762500Y-92237500I237500J0D01*
G01*
G37*
G36*
G01*
X96762500Y-90412500D02*
X97237500Y-90412500D01*
G75*
G02*
X97475000Y-90650000I0J-237500D01*
G01*
X97475000Y-91150000D01*
G75*
G02*
X97237500Y-91387500I-237500J0D01*
G01*
X96762500Y-91387500D01*
G75*
G02*
X96525000Y-91150000I0J237500D01*
G01*
X96525000Y-90650000D01*
G75*
G02*
X96762500Y-90412500I237500J0D01*
G01*
G37*
G36*
G01*
X52962500Y-92237500D02*
X53437500Y-92237500D01*
G75*
G02*
X53675000Y-92475000I0J-237500D01*
G01*
X53675000Y-92975000D01*
G75*
G02*
X53437500Y-93212500I-237500J0D01*
G01*
X52962500Y-93212500D01*
G75*
G02*
X52725000Y-92975000I0J237500D01*
G01*
X52725000Y-92475000D01*
G75*
G02*
X52962500Y-92237500I237500J0D01*
G01*
G37*
G36*
G01*
X52962500Y-90412500D02*
X53437500Y-90412500D01*
G75*
G02*
X53675000Y-90650000I0J-237500D01*
G01*
X53675000Y-91150000D01*
G75*
G02*
X53437500Y-91387500I-237500J0D01*
G01*
X52962500Y-91387500D01*
G75*
G02*
X52725000Y-91150000I0J237500D01*
G01*
X52725000Y-90650000D01*
G75*
G02*
X52962500Y-90412500I237500J0D01*
G01*
G37*
G36*
G01*
X59962500Y-92225000D02*
X60437500Y-92225000D01*
G75*
G02*
X60675000Y-92462500I0J-237500D01*
G01*
X60675000Y-92962500D01*
G75*
G02*
X60437500Y-93200000I-237500J0D01*
G01*
X59962500Y-93200000D01*
G75*
G02*
X59725000Y-92962500I0J237500D01*
G01*
X59725000Y-92462500D01*
G75*
G02*
X59962500Y-92225000I237500J0D01*
G01*
G37*
G36*
G01*
X59962500Y-90400000D02*
X60437500Y-90400000D01*
G75*
G02*
X60675000Y-90637500I0J-237500D01*
G01*
X60675000Y-91137500D01*
G75*
G02*
X60437500Y-91375000I-237500J0D01*
G01*
X59962500Y-91375000D01*
G75*
G02*
X59725000Y-91137500I0J237500D01*
G01*
X59725000Y-90637500D01*
G75*
G02*
X59962500Y-90400000I237500J0D01*
G01*
G37*
G36*
G01*
X66962500Y-92225000D02*
X67437500Y-92225000D01*
G75*
G02*
X67675000Y-92462500I0J-237500D01*
G01*
X67675000Y-92962500D01*
G75*
G02*
X67437500Y-93200000I-237500J0D01*
G01*
X66962500Y-93200000D01*
G75*
G02*
X66725000Y-92962500I0J237500D01*
G01*
X66725000Y-92462500D01*
G75*
G02*
X66962500Y-92225000I237500J0D01*
G01*
G37*
G36*
G01*
X66962500Y-90400000D02*
X67437500Y-90400000D01*
G75*
G02*
X67675000Y-90637500I0J-237500D01*
G01*
X67675000Y-91137500D01*
G75*
G02*
X67437500Y-91375000I-237500J0D01*
G01*
X66962500Y-91375000D01*
G75*
G02*
X66725000Y-91137500I0J237500D01*
G01*
X66725000Y-90637500D01*
G75*
G02*
X66962500Y-90400000I237500J0D01*
G01*
G37*
G36*
G01*
X73962500Y-92225000D02*
X74437500Y-92225000D01*
G75*
G02*
X74675000Y-92462500I0J-237500D01*
G01*
X74675000Y-92962500D01*
G75*
G02*
X74437500Y-93200000I-237500J0D01*
G01*
X73962500Y-93200000D01*
G75*
G02*
X73725000Y-92962500I0J237500D01*
G01*
X73725000Y-92462500D01*
G75*
G02*
X73962500Y-92225000I237500J0D01*
G01*
G37*
G36*
G01*
X73962500Y-90400000D02*
X74437500Y-90400000D01*
G75*
G02*
X74675000Y-90637500I0J-237500D01*
G01*
X74675000Y-91137500D01*
G75*
G02*
X74437500Y-91375000I-237500J0D01*
G01*
X73962500Y-91375000D01*
G75*
G02*
X73725000Y-91137500I0J237500D01*
G01*
X73725000Y-90637500D01*
G75*
G02*
X73962500Y-90400000I237500J0D01*
G01*
G37*
G36*
G01*
X81062500Y-92212500D02*
X81537500Y-92212500D01*
G75*
G02*
X81775000Y-92450000I0J-237500D01*
G01*
X81775000Y-92950000D01*
G75*
G02*
X81537500Y-93187500I-237500J0D01*
G01*
X81062500Y-93187500D01*
G75*
G02*
X80825000Y-92950000I0J237500D01*
G01*
X80825000Y-92450000D01*
G75*
G02*
X81062500Y-92212500I237500J0D01*
G01*
G37*
G36*
G01*
X81062500Y-90387500D02*
X81537500Y-90387500D01*
G75*
G02*
X81775000Y-90625000I0J-237500D01*
G01*
X81775000Y-91125000D01*
G75*
G02*
X81537500Y-91362500I-237500J0D01*
G01*
X81062500Y-91362500D01*
G75*
G02*
X80825000Y-91125000I0J237500D01*
G01*
X80825000Y-90625000D01*
G75*
G02*
X81062500Y-90387500I237500J0D01*
G01*
G37*
G36*
G01*
X88062500Y-92225000D02*
X88537500Y-92225000D01*
G75*
G02*
X88775000Y-92462500I0J-237500D01*
G01*
X88775000Y-92962500D01*
G75*
G02*
X88537500Y-93200000I-237500J0D01*
G01*
X88062500Y-93200000D01*
G75*
G02*
X87825000Y-92962500I0J237500D01*
G01*
X87825000Y-92462500D01*
G75*
G02*
X88062500Y-92225000I237500J0D01*
G01*
G37*
G36*
G01*
X88062500Y-90400000D02*
X88537500Y-90400000D01*
G75*
G02*
X88775000Y-90637500I0J-237500D01*
G01*
X88775000Y-91137500D01*
G75*
G02*
X88537500Y-91375000I-237500J0D01*
G01*
X88062500Y-91375000D01*
G75*
G02*
X87825000Y-91137500I0J237500D01*
G01*
X87825000Y-90637500D01*
G75*
G02*
X88062500Y-90400000I237500J0D01*
G01*
G37*
G36*
G01*
X94962500Y-92225000D02*
X95437500Y-92225000D01*
G75*
G02*
X95675000Y-92462500I0J-237500D01*
G01*
X95675000Y-92962500D01*
G75*
G02*
X95437500Y-93200000I-237500J0D01*
G01*
X94962500Y-93200000D01*
G75*
G02*
X94725000Y-92962500I0J237500D01*
G01*
X94725000Y-92462500D01*
G75*
G02*
X94962500Y-92225000I237500J0D01*
G01*
G37*
G36*
G01*
X94962500Y-90400000D02*
X95437500Y-90400000D01*
G75*
G02*
X95675000Y-90637500I0J-237500D01*
G01*
X95675000Y-91137500D01*
G75*
G02*
X95437500Y-91375000I-237500J0D01*
G01*
X94962500Y-91375000D01*
G75*
G02*
X94725000Y-91137500I0J237500D01*
G01*
X94725000Y-90637500D01*
G75*
G02*
X94962500Y-90400000I237500J0D01*
G01*
G37*
G36*
G01*
X51262500Y-92225000D02*
X51737500Y-92225000D01*
G75*
G02*
X51975000Y-92462500I0J-237500D01*
G01*
X51975000Y-92962500D01*
G75*
G02*
X51737500Y-93200000I-237500J0D01*
G01*
X51262500Y-93200000D01*
G75*
G02*
X51025000Y-92962500I0J237500D01*
G01*
X51025000Y-92462500D01*
G75*
G02*
X51262500Y-92225000I237500J0D01*
G01*
G37*
G36*
G01*
X51262500Y-90400000D02*
X51737500Y-90400000D01*
G75*
G02*
X51975000Y-90637500I0J-237500D01*
G01*
X51975000Y-91137500D01*
G75*
G02*
X51737500Y-91375000I-237500J0D01*
G01*
X51262500Y-91375000D01*
G75*
G02*
X51025000Y-91137500I0J237500D01*
G01*
X51025000Y-90637500D01*
G75*
G02*
X51262500Y-90400000I237500J0D01*
G01*
G37*
G36*
G01*
X58262500Y-92225000D02*
X58737500Y-92225000D01*
G75*
G02*
X58975000Y-92462500I0J-237500D01*
G01*
X58975000Y-92962500D01*
G75*
G02*
X58737500Y-93200000I-237500J0D01*
G01*
X58262500Y-93200000D01*
G75*
G02*
X58025000Y-92962500I0J237500D01*
G01*
X58025000Y-92462500D01*
G75*
G02*
X58262500Y-92225000I237500J0D01*
G01*
G37*
G36*
G01*
X58262500Y-90400000D02*
X58737500Y-90400000D01*
G75*
G02*
X58975000Y-90637500I0J-237500D01*
G01*
X58975000Y-91137500D01*
G75*
G02*
X58737500Y-91375000I-237500J0D01*
G01*
X58262500Y-91375000D01*
G75*
G02*
X58025000Y-91137500I0J237500D01*
G01*
X58025000Y-90637500D01*
G75*
G02*
X58262500Y-90400000I237500J0D01*
G01*
G37*
G36*
G01*
X65262500Y-92225000D02*
X65737500Y-92225000D01*
G75*
G02*
X65975000Y-92462500I0J-237500D01*
G01*
X65975000Y-92962500D01*
G75*
G02*
X65737500Y-93200000I-237500J0D01*
G01*
X65262500Y-93200000D01*
G75*
G02*
X65025000Y-92962500I0J237500D01*
G01*
X65025000Y-92462500D01*
G75*
G02*
X65262500Y-92225000I237500J0D01*
G01*
G37*
G36*
G01*
X65262500Y-90400000D02*
X65737500Y-90400000D01*
G75*
G02*
X65975000Y-90637500I0J-237500D01*
G01*
X65975000Y-91137500D01*
G75*
G02*
X65737500Y-91375000I-237500J0D01*
G01*
X65262500Y-91375000D01*
G75*
G02*
X65025000Y-91137500I0J237500D01*
G01*
X65025000Y-90637500D01*
G75*
G02*
X65262500Y-90400000I237500J0D01*
G01*
G37*
G36*
G01*
X72262500Y-92225000D02*
X72737500Y-92225000D01*
G75*
G02*
X72975000Y-92462500I0J-237500D01*
G01*
X72975000Y-92962500D01*
G75*
G02*
X72737500Y-93200000I-237500J0D01*
G01*
X72262500Y-93200000D01*
G75*
G02*
X72025000Y-92962500I0J237500D01*
G01*
X72025000Y-92462500D01*
G75*
G02*
X72262500Y-92225000I237500J0D01*
G01*
G37*
G36*
G01*
X72262500Y-90400000D02*
X72737500Y-90400000D01*
G75*
G02*
X72975000Y-90637500I0J-237500D01*
G01*
X72975000Y-91137500D01*
G75*
G02*
X72737500Y-91375000I-237500J0D01*
G01*
X72262500Y-91375000D01*
G75*
G02*
X72025000Y-91137500I0J237500D01*
G01*
X72025000Y-90637500D01*
G75*
G02*
X72262500Y-90400000I237500J0D01*
G01*
G37*
G36*
G01*
X79262500Y-92237500D02*
X79737500Y-92237500D01*
G75*
G02*
X79975000Y-92475000I0J-237500D01*
G01*
X79975000Y-92975000D01*
G75*
G02*
X79737500Y-93212500I-237500J0D01*
G01*
X79262500Y-93212500D01*
G75*
G02*
X79025000Y-92975000I0J237500D01*
G01*
X79025000Y-92475000D01*
G75*
G02*
X79262500Y-92237500I237500J0D01*
G01*
G37*
G36*
G01*
X79262500Y-90412500D02*
X79737500Y-90412500D01*
G75*
G02*
X79975000Y-90650000I0J-237500D01*
G01*
X79975000Y-91150000D01*
G75*
G02*
X79737500Y-91387500I-237500J0D01*
G01*
X79262500Y-91387500D01*
G75*
G02*
X79025000Y-91150000I0J237500D01*
G01*
X79025000Y-90650000D01*
G75*
G02*
X79262500Y-90412500I237500J0D01*
G01*
G37*
G36*
G01*
X86262500Y-92225000D02*
X86737500Y-92225000D01*
G75*
G02*
X86975000Y-92462500I0J-237500D01*
G01*
X86975000Y-92962500D01*
G75*
G02*
X86737500Y-93200000I-237500J0D01*
G01*
X86262500Y-93200000D01*
G75*
G02*
X86025000Y-92962500I0J237500D01*
G01*
X86025000Y-92462500D01*
G75*
G02*
X86262500Y-92225000I237500J0D01*
G01*
G37*
G36*
G01*
X86262500Y-90400000D02*
X86737500Y-90400000D01*
G75*
G02*
X86975000Y-90637500I0J-237500D01*
G01*
X86975000Y-91137500D01*
G75*
G02*
X86737500Y-91375000I-237500J0D01*
G01*
X86262500Y-91375000D01*
G75*
G02*
X86025000Y-91137500I0J237500D01*
G01*
X86025000Y-90637500D01*
G75*
G02*
X86262500Y-90400000I237500J0D01*
G01*
G37*
G36*
G01*
X93262500Y-92225000D02*
X93737500Y-92225000D01*
G75*
G02*
X93975000Y-92462500I0J-237500D01*
G01*
X93975000Y-92962500D01*
G75*
G02*
X93737500Y-93200000I-237500J0D01*
G01*
X93262500Y-93200000D01*
G75*
G02*
X93025000Y-92962500I0J237500D01*
G01*
X93025000Y-92462500D01*
G75*
G02*
X93262500Y-92225000I237500J0D01*
G01*
G37*
G36*
G01*
X93262500Y-90400000D02*
X93737500Y-90400000D01*
G75*
G02*
X93975000Y-90637500I0J-237500D01*
G01*
X93975000Y-91137500D01*
G75*
G02*
X93737500Y-91375000I-237500J0D01*
G01*
X93262500Y-91375000D01*
G75*
G02*
X93025000Y-91137500I0J237500D01*
G01*
X93025000Y-90637500D01*
G75*
G02*
X93262500Y-90400000I237500J0D01*
G01*
G37*
G36*
G01*
X103762500Y-92225000D02*
X104237500Y-92225000D01*
G75*
G02*
X104475000Y-92462500I0J-237500D01*
G01*
X104475000Y-92962500D01*
G75*
G02*
X104237500Y-93200000I-237500J0D01*
G01*
X103762500Y-93200000D01*
G75*
G02*
X103525000Y-92962500I0J237500D01*
G01*
X103525000Y-92462500D01*
G75*
G02*
X103762500Y-92225000I237500J0D01*
G01*
G37*
G36*
G01*
X103762500Y-90400000D02*
X104237500Y-90400000D01*
G75*
G02*
X104475000Y-90637500I0J-237500D01*
G01*
X104475000Y-91137500D01*
G75*
G02*
X104237500Y-91375000I-237500J0D01*
G01*
X103762500Y-91375000D01*
G75*
G02*
X103525000Y-91137500I0J237500D01*
G01*
X103525000Y-90637500D01*
G75*
G02*
X103762500Y-90400000I237500J0D01*
G01*
G37*
G36*
G01*
X110762500Y-92225000D02*
X111237500Y-92225000D01*
G75*
G02*
X111475000Y-92462500I0J-237500D01*
G01*
X111475000Y-92962500D01*
G75*
G02*
X111237500Y-93200000I-237500J0D01*
G01*
X110762500Y-93200000D01*
G75*
G02*
X110525000Y-92962500I0J237500D01*
G01*
X110525000Y-92462500D01*
G75*
G02*
X110762500Y-92225000I237500J0D01*
G01*
G37*
G36*
G01*
X110762500Y-90400000D02*
X111237500Y-90400000D01*
G75*
G02*
X111475000Y-90637500I0J-237500D01*
G01*
X111475000Y-91137500D01*
G75*
G02*
X111237500Y-91375000I-237500J0D01*
G01*
X110762500Y-91375000D01*
G75*
G02*
X110525000Y-91137500I0J237500D01*
G01*
X110525000Y-90637500D01*
G75*
G02*
X110762500Y-90400000I237500J0D01*
G01*
G37*
G36*
G01*
X117762500Y-92225000D02*
X118237500Y-92225000D01*
G75*
G02*
X118475000Y-92462500I0J-237500D01*
G01*
X118475000Y-92962500D01*
G75*
G02*
X118237500Y-93200000I-237500J0D01*
G01*
X117762500Y-93200000D01*
G75*
G02*
X117525000Y-92962500I0J237500D01*
G01*
X117525000Y-92462500D01*
G75*
G02*
X117762500Y-92225000I237500J0D01*
G01*
G37*
G36*
G01*
X117762500Y-90400000D02*
X118237500Y-90400000D01*
G75*
G02*
X118475000Y-90637500I0J-237500D01*
G01*
X118475000Y-91137500D01*
G75*
G02*
X118237500Y-91375000I-237500J0D01*
G01*
X117762500Y-91375000D01*
G75*
G02*
X117525000Y-91137500I0J237500D01*
G01*
X117525000Y-90637500D01*
G75*
G02*
X117762500Y-90400000I237500J0D01*
G01*
G37*
G36*
G01*
X124762500Y-92225000D02*
X125237500Y-92225000D01*
G75*
G02*
X125475000Y-92462500I0J-237500D01*
G01*
X125475000Y-92962500D01*
G75*
G02*
X125237500Y-93200000I-237500J0D01*
G01*
X124762500Y-93200000D01*
G75*
G02*
X124525000Y-92962500I0J237500D01*
G01*
X124525000Y-92462500D01*
G75*
G02*
X124762500Y-92225000I237500J0D01*
G01*
G37*
G36*
G01*
X124762500Y-90400000D02*
X125237500Y-90400000D01*
G75*
G02*
X125475000Y-90637500I0J-237500D01*
G01*
X125475000Y-91137500D01*
G75*
G02*
X125237500Y-91375000I-237500J0D01*
G01*
X124762500Y-91375000D01*
G75*
G02*
X124525000Y-91137500I0J237500D01*
G01*
X124525000Y-90637500D01*
G75*
G02*
X124762500Y-90400000I237500J0D01*
G01*
G37*
G36*
G01*
X131762500Y-92225000D02*
X132237500Y-92225000D01*
G75*
G02*
X132475000Y-92462500I0J-237500D01*
G01*
X132475000Y-92962500D01*
G75*
G02*
X132237500Y-93200000I-237500J0D01*
G01*
X131762500Y-93200000D01*
G75*
G02*
X131525000Y-92962500I0J237500D01*
G01*
X131525000Y-92462500D01*
G75*
G02*
X131762500Y-92225000I237500J0D01*
G01*
G37*
G36*
G01*
X131762500Y-90400000D02*
X132237500Y-90400000D01*
G75*
G02*
X132475000Y-90637500I0J-237500D01*
G01*
X132475000Y-91137500D01*
G75*
G02*
X132237500Y-91375000I-237500J0D01*
G01*
X131762500Y-91375000D01*
G75*
G02*
X131525000Y-91137500I0J237500D01*
G01*
X131525000Y-90637500D01*
G75*
G02*
X131762500Y-90400000I237500J0D01*
G01*
G37*
G36*
G01*
X138762500Y-92212500D02*
X139237500Y-92212500D01*
G75*
G02*
X139475000Y-92450000I0J-237500D01*
G01*
X139475000Y-92950000D01*
G75*
G02*
X139237500Y-93187500I-237500J0D01*
G01*
X138762500Y-93187500D01*
G75*
G02*
X138525000Y-92950000I0J237500D01*
G01*
X138525000Y-92450000D01*
G75*
G02*
X138762500Y-92212500I237500J0D01*
G01*
G37*
G36*
G01*
X138762500Y-90387500D02*
X139237500Y-90387500D01*
G75*
G02*
X139475000Y-90625000I0J-237500D01*
G01*
X139475000Y-91125000D01*
G75*
G02*
X139237500Y-91362500I-237500J0D01*
G01*
X138762500Y-91362500D01*
G75*
G02*
X138525000Y-91125000I0J237500D01*
G01*
X138525000Y-90625000D01*
G75*
G02*
X138762500Y-90387500I237500J0D01*
G01*
G37*
G36*
G01*
X145762500Y-92212500D02*
X146237500Y-92212500D01*
G75*
G02*
X146475000Y-92450000I0J-237500D01*
G01*
X146475000Y-92950000D01*
G75*
G02*
X146237500Y-93187500I-237500J0D01*
G01*
X145762500Y-93187500D01*
G75*
G02*
X145525000Y-92950000I0J237500D01*
G01*
X145525000Y-92450000D01*
G75*
G02*
X145762500Y-92212500I237500J0D01*
G01*
G37*
G36*
G01*
X145762500Y-90387500D02*
X146237500Y-90387500D01*
G75*
G02*
X146475000Y-90625000I0J-237500D01*
G01*
X146475000Y-91125000D01*
G75*
G02*
X146237500Y-91362500I-237500J0D01*
G01*
X145762500Y-91362500D01*
G75*
G02*
X145525000Y-91125000I0J237500D01*
G01*
X145525000Y-90625000D01*
G75*
G02*
X145762500Y-90387500I237500J0D01*
G01*
G37*
G36*
G01*
X102062500Y-92225000D02*
X102537500Y-92225000D01*
G75*
G02*
X102775000Y-92462500I0J-237500D01*
G01*
X102775000Y-92962500D01*
G75*
G02*
X102537500Y-93200000I-237500J0D01*
G01*
X102062500Y-93200000D01*
G75*
G02*
X101825000Y-92962500I0J237500D01*
G01*
X101825000Y-92462500D01*
G75*
G02*
X102062500Y-92225000I237500J0D01*
G01*
G37*
G36*
G01*
X102062500Y-90400000D02*
X102537500Y-90400000D01*
G75*
G02*
X102775000Y-90637500I0J-237500D01*
G01*
X102775000Y-91137500D01*
G75*
G02*
X102537500Y-91375000I-237500J0D01*
G01*
X102062500Y-91375000D01*
G75*
G02*
X101825000Y-91137500I0J237500D01*
G01*
X101825000Y-90637500D01*
G75*
G02*
X102062500Y-90400000I237500J0D01*
G01*
G37*
G36*
G01*
X108962500Y-92225000D02*
X109437500Y-92225000D01*
G75*
G02*
X109675000Y-92462500I0J-237500D01*
G01*
X109675000Y-92962500D01*
G75*
G02*
X109437500Y-93200000I-237500J0D01*
G01*
X108962500Y-93200000D01*
G75*
G02*
X108725000Y-92962500I0J237500D01*
G01*
X108725000Y-92462500D01*
G75*
G02*
X108962500Y-92225000I237500J0D01*
G01*
G37*
G36*
G01*
X108962500Y-90400000D02*
X109437500Y-90400000D01*
G75*
G02*
X109675000Y-90637500I0J-237500D01*
G01*
X109675000Y-91137500D01*
G75*
G02*
X109437500Y-91375000I-237500J0D01*
G01*
X108962500Y-91375000D01*
G75*
G02*
X108725000Y-91137500I0J237500D01*
G01*
X108725000Y-90637500D01*
G75*
G02*
X108962500Y-90400000I237500J0D01*
G01*
G37*
G36*
G01*
X115962500Y-92312500D02*
X116437500Y-92312500D01*
G75*
G02*
X116675000Y-92550000I0J-237500D01*
G01*
X116675000Y-93050000D01*
G75*
G02*
X116437500Y-93287500I-237500J0D01*
G01*
X115962500Y-93287500D01*
G75*
G02*
X115725000Y-93050000I0J237500D01*
G01*
X115725000Y-92550000D01*
G75*
G02*
X115962500Y-92312500I237500J0D01*
G01*
G37*
G36*
G01*
X115962500Y-90487500D02*
X116437500Y-90487500D01*
G75*
G02*
X116675000Y-90725000I0J-237500D01*
G01*
X116675000Y-91225000D01*
G75*
G02*
X116437500Y-91462500I-237500J0D01*
G01*
X115962500Y-91462500D01*
G75*
G02*
X115725000Y-91225000I0J237500D01*
G01*
X115725000Y-90725000D01*
G75*
G02*
X115962500Y-90487500I237500J0D01*
G01*
G37*
G36*
G01*
X123062500Y-92225000D02*
X123537500Y-92225000D01*
G75*
G02*
X123775000Y-92462500I0J-237500D01*
G01*
X123775000Y-92962500D01*
G75*
G02*
X123537500Y-93200000I-237500J0D01*
G01*
X123062500Y-93200000D01*
G75*
G02*
X122825000Y-92962500I0J237500D01*
G01*
X122825000Y-92462500D01*
G75*
G02*
X123062500Y-92225000I237500J0D01*
G01*
G37*
G36*
G01*
X123062500Y-90400000D02*
X123537500Y-90400000D01*
G75*
G02*
X123775000Y-90637500I0J-237500D01*
G01*
X123775000Y-91137500D01*
G75*
G02*
X123537500Y-91375000I-237500J0D01*
G01*
X123062500Y-91375000D01*
G75*
G02*
X122825000Y-91137500I0J237500D01*
G01*
X122825000Y-90637500D01*
G75*
G02*
X123062500Y-90400000I237500J0D01*
G01*
G37*
G36*
G01*
X129962500Y-92225000D02*
X130437500Y-92225000D01*
G75*
G02*
X130675000Y-92462500I0J-237500D01*
G01*
X130675000Y-92962500D01*
G75*
G02*
X130437500Y-93200000I-237500J0D01*
G01*
X129962500Y-93200000D01*
G75*
G02*
X129725000Y-92962500I0J237500D01*
G01*
X129725000Y-92462500D01*
G75*
G02*
X129962500Y-92225000I237500J0D01*
G01*
G37*
G36*
G01*
X129962500Y-90400000D02*
X130437500Y-90400000D01*
G75*
G02*
X130675000Y-90637500I0J-237500D01*
G01*
X130675000Y-91137500D01*
G75*
G02*
X130437500Y-91375000I-237500J0D01*
G01*
X129962500Y-91375000D01*
G75*
G02*
X129725000Y-91137500I0J237500D01*
G01*
X129725000Y-90637500D01*
G75*
G02*
X129962500Y-90400000I237500J0D01*
G01*
G37*
G36*
G01*
X136962500Y-92237500D02*
X137437500Y-92237500D01*
G75*
G02*
X137675000Y-92475000I0J-237500D01*
G01*
X137675000Y-92975000D01*
G75*
G02*
X137437500Y-93212500I-237500J0D01*
G01*
X136962500Y-93212500D01*
G75*
G02*
X136725000Y-92975000I0J237500D01*
G01*
X136725000Y-92475000D01*
G75*
G02*
X136962500Y-92237500I237500J0D01*
G01*
G37*
G36*
G01*
X136962500Y-90412500D02*
X137437500Y-90412500D01*
G75*
G02*
X137675000Y-90650000I0J-237500D01*
G01*
X137675000Y-91150000D01*
G75*
G02*
X137437500Y-91387500I-237500J0D01*
G01*
X136962500Y-91387500D01*
G75*
G02*
X136725000Y-91150000I0J237500D01*
G01*
X136725000Y-90650000D01*
G75*
G02*
X136962500Y-90412500I237500J0D01*
G01*
G37*
G36*
G01*
X143962500Y-92225000D02*
X144437500Y-92225000D01*
G75*
G02*
X144675000Y-92462500I0J-237500D01*
G01*
X144675000Y-92962500D01*
G75*
G02*
X144437500Y-93200000I-237500J0D01*
G01*
X143962500Y-93200000D01*
G75*
G02*
X143725000Y-92962500I0J237500D01*
G01*
X143725000Y-92462500D01*
G75*
G02*
X143962500Y-92225000I237500J0D01*
G01*
G37*
G36*
G01*
X143962500Y-90400000D02*
X144437500Y-90400000D01*
G75*
G02*
X144675000Y-90637500I0J-237500D01*
G01*
X144675000Y-91137500D01*
G75*
G02*
X144437500Y-91375000I-237500J0D01*
G01*
X143962500Y-91375000D01*
G75*
G02*
X143725000Y-91137500I0J237500D01*
G01*
X143725000Y-90637500D01*
G75*
G02*
X143962500Y-90400000I237500J0D01*
G01*
G37*
G36*
G01*
X100362500Y-92212500D02*
X100837500Y-92212500D01*
G75*
G02*
X101075000Y-92450000I0J-237500D01*
G01*
X101075000Y-92950000D01*
G75*
G02*
X100837500Y-93187500I-237500J0D01*
G01*
X100362500Y-93187500D01*
G75*
G02*
X100125000Y-92950000I0J237500D01*
G01*
X100125000Y-92450000D01*
G75*
G02*
X100362500Y-92212500I237500J0D01*
G01*
G37*
G36*
G01*
X100362500Y-90387500D02*
X100837500Y-90387500D01*
G75*
G02*
X101075000Y-90625000I0J-237500D01*
G01*
X101075000Y-91125000D01*
G75*
G02*
X100837500Y-91362500I-237500J0D01*
G01*
X100362500Y-91362500D01*
G75*
G02*
X100125000Y-91125000I0J237500D01*
G01*
X100125000Y-90625000D01*
G75*
G02*
X100362500Y-90387500I237500J0D01*
G01*
G37*
G36*
G01*
X107262500Y-92212500D02*
X107737500Y-92212500D01*
G75*
G02*
X107975000Y-92450000I0J-237500D01*
G01*
X107975000Y-92950000D01*
G75*
G02*
X107737500Y-93187500I-237500J0D01*
G01*
X107262500Y-93187500D01*
G75*
G02*
X107025000Y-92950000I0J237500D01*
G01*
X107025000Y-92450000D01*
G75*
G02*
X107262500Y-92212500I237500J0D01*
G01*
G37*
G36*
G01*
X107262500Y-90387500D02*
X107737500Y-90387500D01*
G75*
G02*
X107975000Y-90625000I0J-237500D01*
G01*
X107975000Y-91125000D01*
G75*
G02*
X107737500Y-91362500I-237500J0D01*
G01*
X107262500Y-91362500D01*
G75*
G02*
X107025000Y-91125000I0J237500D01*
G01*
X107025000Y-90625000D01*
G75*
G02*
X107262500Y-90387500I237500J0D01*
G01*
G37*
G36*
G01*
X114262500Y-92225000D02*
X114737500Y-92225000D01*
G75*
G02*
X114975000Y-92462500I0J-237500D01*
G01*
X114975000Y-92962500D01*
G75*
G02*
X114737500Y-93200000I-237500J0D01*
G01*
X114262500Y-93200000D01*
G75*
G02*
X114025000Y-92962500I0J237500D01*
G01*
X114025000Y-92462500D01*
G75*
G02*
X114262500Y-92225000I237500J0D01*
G01*
G37*
G36*
G01*
X114262500Y-90400000D02*
X114737500Y-90400000D01*
G75*
G02*
X114975000Y-90637500I0J-237500D01*
G01*
X114975000Y-91137500D01*
G75*
G02*
X114737500Y-91375000I-237500J0D01*
G01*
X114262500Y-91375000D01*
G75*
G02*
X114025000Y-91137500I0J237500D01*
G01*
X114025000Y-90637500D01*
G75*
G02*
X114262500Y-90400000I237500J0D01*
G01*
G37*
G36*
G01*
X121262500Y-92225000D02*
X121737500Y-92225000D01*
G75*
G02*
X121975000Y-92462500I0J-237500D01*
G01*
X121975000Y-92962500D01*
G75*
G02*
X121737500Y-93200000I-237500J0D01*
G01*
X121262500Y-93200000D01*
G75*
G02*
X121025000Y-92962500I0J237500D01*
G01*
X121025000Y-92462500D01*
G75*
G02*
X121262500Y-92225000I237500J0D01*
G01*
G37*
G36*
G01*
X121262500Y-90400000D02*
X121737500Y-90400000D01*
G75*
G02*
X121975000Y-90637500I0J-237500D01*
G01*
X121975000Y-91137500D01*
G75*
G02*
X121737500Y-91375000I-237500J0D01*
G01*
X121262500Y-91375000D01*
G75*
G02*
X121025000Y-91137500I0J237500D01*
G01*
X121025000Y-90637500D01*
G75*
G02*
X121262500Y-90400000I237500J0D01*
G01*
G37*
G36*
G01*
X128262500Y-92225000D02*
X128737500Y-92225000D01*
G75*
G02*
X128975000Y-92462500I0J-237500D01*
G01*
X128975000Y-92962500D01*
G75*
G02*
X128737500Y-93200000I-237500J0D01*
G01*
X128262500Y-93200000D01*
G75*
G02*
X128025000Y-92962500I0J237500D01*
G01*
X128025000Y-92462500D01*
G75*
G02*
X128262500Y-92225000I237500J0D01*
G01*
G37*
G36*
G01*
X128262500Y-90400000D02*
X128737500Y-90400000D01*
G75*
G02*
X128975000Y-90637500I0J-237500D01*
G01*
X128975000Y-91137500D01*
G75*
G02*
X128737500Y-91375000I-237500J0D01*
G01*
X128262500Y-91375000D01*
G75*
G02*
X128025000Y-91137500I0J237500D01*
G01*
X128025000Y-90637500D01*
G75*
G02*
X128262500Y-90400000I237500J0D01*
G01*
G37*
G36*
G01*
X135262500Y-92225000D02*
X135737500Y-92225000D01*
G75*
G02*
X135975000Y-92462500I0J-237500D01*
G01*
X135975000Y-92962500D01*
G75*
G02*
X135737500Y-93200000I-237500J0D01*
G01*
X135262500Y-93200000D01*
G75*
G02*
X135025000Y-92962500I0J237500D01*
G01*
X135025000Y-92462500D01*
G75*
G02*
X135262500Y-92225000I237500J0D01*
G01*
G37*
G36*
G01*
X135262500Y-90400000D02*
X135737500Y-90400000D01*
G75*
G02*
X135975000Y-90637500I0J-237500D01*
G01*
X135975000Y-91137500D01*
G75*
G02*
X135737500Y-91375000I-237500J0D01*
G01*
X135262500Y-91375000D01*
G75*
G02*
X135025000Y-91137500I0J237500D01*
G01*
X135025000Y-90637500D01*
G75*
G02*
X135262500Y-90400000I237500J0D01*
G01*
G37*
G36*
G01*
X142262500Y-92225000D02*
X142737500Y-92225000D01*
G75*
G02*
X142975000Y-92462500I0J-237500D01*
G01*
X142975000Y-92962500D01*
G75*
G02*
X142737500Y-93200000I-237500J0D01*
G01*
X142262500Y-93200000D01*
G75*
G02*
X142025000Y-92962500I0J237500D01*
G01*
X142025000Y-92462500D01*
G75*
G02*
X142262500Y-92225000I237500J0D01*
G01*
G37*
G36*
G01*
X142262500Y-90400000D02*
X142737500Y-90400000D01*
G75*
G02*
X142975000Y-90637500I0J-237500D01*
G01*
X142975000Y-91137500D01*
G75*
G02*
X142737500Y-91375000I-237500J0D01*
G01*
X142262500Y-91375000D01*
G75*
G02*
X142025000Y-91137500I0J237500D01*
G01*
X142025000Y-90637500D01*
G75*
G02*
X142262500Y-90400000I237500J0D01*
G01*
G37*
G36*
G01*
X152662500Y-92225000D02*
X153137500Y-92225000D01*
G75*
G02*
X153375000Y-92462500I0J-237500D01*
G01*
X153375000Y-92962500D01*
G75*
G02*
X153137500Y-93200000I-237500J0D01*
G01*
X152662500Y-93200000D01*
G75*
G02*
X152425000Y-92962500I0J237500D01*
G01*
X152425000Y-92462500D01*
G75*
G02*
X152662500Y-92225000I237500J0D01*
G01*
G37*
G36*
G01*
X152662500Y-90400000D02*
X153137500Y-90400000D01*
G75*
G02*
X153375000Y-90637500I0J-237500D01*
G01*
X153375000Y-91137500D01*
G75*
G02*
X153137500Y-91375000I-237500J0D01*
G01*
X152662500Y-91375000D01*
G75*
G02*
X152425000Y-91137500I0J237500D01*
G01*
X152425000Y-90637500D01*
G75*
G02*
X152662500Y-90400000I237500J0D01*
G01*
G37*
G36*
G01*
X159762500Y-92225000D02*
X160237500Y-92225000D01*
G75*
G02*
X160475000Y-92462500I0J-237500D01*
G01*
X160475000Y-92962500D01*
G75*
G02*
X160237500Y-93200000I-237500J0D01*
G01*
X159762500Y-93200000D01*
G75*
G02*
X159525000Y-92962500I0J237500D01*
G01*
X159525000Y-92462500D01*
G75*
G02*
X159762500Y-92225000I237500J0D01*
G01*
G37*
G36*
G01*
X159762500Y-90400000D02*
X160237500Y-90400000D01*
G75*
G02*
X160475000Y-90637500I0J-237500D01*
G01*
X160475000Y-91137500D01*
G75*
G02*
X160237500Y-91375000I-237500J0D01*
G01*
X159762500Y-91375000D01*
G75*
G02*
X159525000Y-91137500I0J237500D01*
G01*
X159525000Y-90637500D01*
G75*
G02*
X159762500Y-90400000I237500J0D01*
G01*
G37*
G36*
G01*
X166762500Y-92225000D02*
X167237500Y-92225000D01*
G75*
G02*
X167475000Y-92462500I0J-237500D01*
G01*
X167475000Y-92962500D01*
G75*
G02*
X167237500Y-93200000I-237500J0D01*
G01*
X166762500Y-93200000D01*
G75*
G02*
X166525000Y-92962500I0J237500D01*
G01*
X166525000Y-92462500D01*
G75*
G02*
X166762500Y-92225000I237500J0D01*
G01*
G37*
G36*
G01*
X166762500Y-90400000D02*
X167237500Y-90400000D01*
G75*
G02*
X167475000Y-90637500I0J-237500D01*
G01*
X167475000Y-91137500D01*
G75*
G02*
X167237500Y-91375000I-237500J0D01*
G01*
X166762500Y-91375000D01*
G75*
G02*
X166525000Y-91137500I0J237500D01*
G01*
X166525000Y-90637500D01*
G75*
G02*
X166762500Y-90400000I237500J0D01*
G01*
G37*
G36*
G01*
X173762500Y-92237500D02*
X174237500Y-92237500D01*
G75*
G02*
X174475000Y-92475000I0J-237500D01*
G01*
X174475000Y-92975000D01*
G75*
G02*
X174237500Y-93212500I-237500J0D01*
G01*
X173762500Y-93212500D01*
G75*
G02*
X173525000Y-92975000I0J237500D01*
G01*
X173525000Y-92475000D01*
G75*
G02*
X173762500Y-92237500I237500J0D01*
G01*
G37*
G36*
G01*
X173762500Y-90412500D02*
X174237500Y-90412500D01*
G75*
G02*
X174475000Y-90650000I0J-237500D01*
G01*
X174475000Y-91150000D01*
G75*
G02*
X174237500Y-91387500I-237500J0D01*
G01*
X173762500Y-91387500D01*
G75*
G02*
X173525000Y-91150000I0J237500D01*
G01*
X173525000Y-90650000D01*
G75*
G02*
X173762500Y-90412500I237500J0D01*
G01*
G37*
G36*
G01*
X180762500Y-92237500D02*
X181237500Y-92237500D01*
G75*
G02*
X181475000Y-92475000I0J-237500D01*
G01*
X181475000Y-92975000D01*
G75*
G02*
X181237500Y-93212500I-237500J0D01*
G01*
X180762500Y-93212500D01*
G75*
G02*
X180525000Y-92975000I0J237500D01*
G01*
X180525000Y-92475000D01*
G75*
G02*
X180762500Y-92237500I237500J0D01*
G01*
G37*
G36*
G01*
X180762500Y-90412500D02*
X181237500Y-90412500D01*
G75*
G02*
X181475000Y-90650000I0J-237500D01*
G01*
X181475000Y-91150000D01*
G75*
G02*
X181237500Y-91387500I-237500J0D01*
G01*
X180762500Y-91387500D01*
G75*
G02*
X180525000Y-91150000I0J237500D01*
G01*
X180525000Y-90650000D01*
G75*
G02*
X180762500Y-90412500I237500J0D01*
G01*
G37*
G36*
G01*
X187762500Y-92212500D02*
X188237500Y-92212500D01*
G75*
G02*
X188475000Y-92450000I0J-237500D01*
G01*
X188475000Y-92950000D01*
G75*
G02*
X188237500Y-93187500I-237500J0D01*
G01*
X187762500Y-93187500D01*
G75*
G02*
X187525000Y-92950000I0J237500D01*
G01*
X187525000Y-92450000D01*
G75*
G02*
X187762500Y-92212500I237500J0D01*
G01*
G37*
G36*
G01*
X187762500Y-90387500D02*
X188237500Y-90387500D01*
G75*
G02*
X188475000Y-90625000I0J-237500D01*
G01*
X188475000Y-91125000D01*
G75*
G02*
X188237500Y-91362500I-237500J0D01*
G01*
X187762500Y-91362500D01*
G75*
G02*
X187525000Y-91125000I0J237500D01*
G01*
X187525000Y-90625000D01*
G75*
G02*
X187762500Y-90387500I237500J0D01*
G01*
G37*
G36*
G01*
X194762500Y-92225000D02*
X195237500Y-92225000D01*
G75*
G02*
X195475000Y-92462500I0J-237500D01*
G01*
X195475000Y-92962500D01*
G75*
G02*
X195237500Y-93200000I-237500J0D01*
G01*
X194762500Y-93200000D01*
G75*
G02*
X194525000Y-92962500I0J237500D01*
G01*
X194525000Y-92462500D01*
G75*
G02*
X194762500Y-92225000I237500J0D01*
G01*
G37*
G36*
G01*
X194762500Y-90400000D02*
X195237500Y-90400000D01*
G75*
G02*
X195475000Y-90637500I0J-237500D01*
G01*
X195475000Y-91137500D01*
G75*
G02*
X195237500Y-91375000I-237500J0D01*
G01*
X194762500Y-91375000D01*
G75*
G02*
X194525000Y-91137500I0J237500D01*
G01*
X194525000Y-90637500D01*
G75*
G02*
X194762500Y-90400000I237500J0D01*
G01*
G37*
G36*
G01*
X150962500Y-92237500D02*
X151437500Y-92237500D01*
G75*
G02*
X151675000Y-92475000I0J-237500D01*
G01*
X151675000Y-92975000D01*
G75*
G02*
X151437500Y-93212500I-237500J0D01*
G01*
X150962500Y-93212500D01*
G75*
G02*
X150725000Y-92975000I0J237500D01*
G01*
X150725000Y-92475000D01*
G75*
G02*
X150962500Y-92237500I237500J0D01*
G01*
G37*
G36*
G01*
X150962500Y-90412500D02*
X151437500Y-90412500D01*
G75*
G02*
X151675000Y-90650000I0J-237500D01*
G01*
X151675000Y-91150000D01*
G75*
G02*
X151437500Y-91387500I-237500J0D01*
G01*
X150962500Y-91387500D01*
G75*
G02*
X150725000Y-91150000I0J237500D01*
G01*
X150725000Y-90650000D01*
G75*
G02*
X150962500Y-90412500I237500J0D01*
G01*
G37*
G36*
G01*
X157962500Y-92225000D02*
X158437500Y-92225000D01*
G75*
G02*
X158675000Y-92462500I0J-237500D01*
G01*
X158675000Y-92962500D01*
G75*
G02*
X158437500Y-93200000I-237500J0D01*
G01*
X157962500Y-93200000D01*
G75*
G02*
X157725000Y-92962500I0J237500D01*
G01*
X157725000Y-92462500D01*
G75*
G02*
X157962500Y-92225000I237500J0D01*
G01*
G37*
G36*
G01*
X157962500Y-90400000D02*
X158437500Y-90400000D01*
G75*
G02*
X158675000Y-90637500I0J-237500D01*
G01*
X158675000Y-91137500D01*
G75*
G02*
X158437500Y-91375000I-237500J0D01*
G01*
X157962500Y-91375000D01*
G75*
G02*
X157725000Y-91137500I0J237500D01*
G01*
X157725000Y-90637500D01*
G75*
G02*
X157962500Y-90400000I237500J0D01*
G01*
G37*
G36*
G01*
X164962500Y-92225000D02*
X165437500Y-92225000D01*
G75*
G02*
X165675000Y-92462500I0J-237500D01*
G01*
X165675000Y-92962500D01*
G75*
G02*
X165437500Y-93200000I-237500J0D01*
G01*
X164962500Y-93200000D01*
G75*
G02*
X164725000Y-92962500I0J237500D01*
G01*
X164725000Y-92462500D01*
G75*
G02*
X164962500Y-92225000I237500J0D01*
G01*
G37*
G36*
G01*
X164962500Y-90400000D02*
X165437500Y-90400000D01*
G75*
G02*
X165675000Y-90637500I0J-237500D01*
G01*
X165675000Y-91137500D01*
G75*
G02*
X165437500Y-91375000I-237500J0D01*
G01*
X164962500Y-91375000D01*
G75*
G02*
X164725000Y-91137500I0J237500D01*
G01*
X164725000Y-90637500D01*
G75*
G02*
X164962500Y-90400000I237500J0D01*
G01*
G37*
G36*
G01*
X171962500Y-92225000D02*
X172437500Y-92225000D01*
G75*
G02*
X172675000Y-92462500I0J-237500D01*
G01*
X172675000Y-92962500D01*
G75*
G02*
X172437500Y-93200000I-237500J0D01*
G01*
X171962500Y-93200000D01*
G75*
G02*
X171725000Y-92962500I0J237500D01*
G01*
X171725000Y-92462500D01*
G75*
G02*
X171962500Y-92225000I237500J0D01*
G01*
G37*
G36*
G01*
X171962500Y-90400000D02*
X172437500Y-90400000D01*
G75*
G02*
X172675000Y-90637500I0J-237500D01*
G01*
X172675000Y-91137500D01*
G75*
G02*
X172437500Y-91375000I-237500J0D01*
G01*
X171962500Y-91375000D01*
G75*
G02*
X171725000Y-91137500I0J237500D01*
G01*
X171725000Y-90637500D01*
G75*
G02*
X171962500Y-90400000I237500J0D01*
G01*
G37*
G36*
G01*
X178962500Y-92225000D02*
X179437500Y-92225000D01*
G75*
G02*
X179675000Y-92462500I0J-237500D01*
G01*
X179675000Y-92962500D01*
G75*
G02*
X179437500Y-93200000I-237500J0D01*
G01*
X178962500Y-93200000D01*
G75*
G02*
X178725000Y-92962500I0J237500D01*
G01*
X178725000Y-92462500D01*
G75*
G02*
X178962500Y-92225000I237500J0D01*
G01*
G37*
G36*
G01*
X178962500Y-90400000D02*
X179437500Y-90400000D01*
G75*
G02*
X179675000Y-90637500I0J-237500D01*
G01*
X179675000Y-91137500D01*
G75*
G02*
X179437500Y-91375000I-237500J0D01*
G01*
X178962500Y-91375000D01*
G75*
G02*
X178725000Y-91137500I0J237500D01*
G01*
X178725000Y-90637500D01*
G75*
G02*
X178962500Y-90400000I237500J0D01*
G01*
G37*
G36*
G01*
X185962500Y-92225000D02*
X186437500Y-92225000D01*
G75*
G02*
X186675000Y-92462500I0J-237500D01*
G01*
X186675000Y-92962500D01*
G75*
G02*
X186437500Y-93200000I-237500J0D01*
G01*
X185962500Y-93200000D01*
G75*
G02*
X185725000Y-92962500I0J237500D01*
G01*
X185725000Y-92462500D01*
G75*
G02*
X185962500Y-92225000I237500J0D01*
G01*
G37*
G36*
G01*
X185962500Y-90400000D02*
X186437500Y-90400000D01*
G75*
G02*
X186675000Y-90637500I0J-237500D01*
G01*
X186675000Y-91137500D01*
G75*
G02*
X186437500Y-91375000I-237500J0D01*
G01*
X185962500Y-91375000D01*
G75*
G02*
X185725000Y-91137500I0J237500D01*
G01*
X185725000Y-90637500D01*
G75*
G02*
X185962500Y-90400000I237500J0D01*
G01*
G37*
G36*
G01*
X193062500Y-92237500D02*
X193537500Y-92237500D01*
G75*
G02*
X193775000Y-92475000I0J-237500D01*
G01*
X193775000Y-92975000D01*
G75*
G02*
X193537500Y-93212500I-237500J0D01*
G01*
X193062500Y-93212500D01*
G75*
G02*
X192825000Y-92975000I0J237500D01*
G01*
X192825000Y-92475000D01*
G75*
G02*
X193062500Y-92237500I237500J0D01*
G01*
G37*
G36*
G01*
X193062500Y-90412500D02*
X193537500Y-90412500D01*
G75*
G02*
X193775000Y-90650000I0J-237500D01*
G01*
X193775000Y-91150000D01*
G75*
G02*
X193537500Y-91387500I-237500J0D01*
G01*
X193062500Y-91387500D01*
G75*
G02*
X192825000Y-91150000I0J237500D01*
G01*
X192825000Y-90650000D01*
G75*
G02*
X193062500Y-90412500I237500J0D01*
G01*
G37*
G36*
G01*
X149262500Y-92225000D02*
X149737500Y-92225000D01*
G75*
G02*
X149975000Y-92462500I0J-237500D01*
G01*
X149975000Y-92962500D01*
G75*
G02*
X149737500Y-93200000I-237500J0D01*
G01*
X149262500Y-93200000D01*
G75*
G02*
X149025000Y-92962500I0J237500D01*
G01*
X149025000Y-92462500D01*
G75*
G02*
X149262500Y-92225000I237500J0D01*
G01*
G37*
G36*
G01*
X149262500Y-90400000D02*
X149737500Y-90400000D01*
G75*
G02*
X149975000Y-90637500I0J-237500D01*
G01*
X149975000Y-91137500D01*
G75*
G02*
X149737500Y-91375000I-237500J0D01*
G01*
X149262500Y-91375000D01*
G75*
G02*
X149025000Y-91137500I0J237500D01*
G01*
X149025000Y-90637500D01*
G75*
G02*
X149262500Y-90400000I237500J0D01*
G01*
G37*
G36*
G01*
X156262500Y-92225000D02*
X156737500Y-92225000D01*
G75*
G02*
X156975000Y-92462500I0J-237500D01*
G01*
X156975000Y-92962500D01*
G75*
G02*
X156737500Y-93200000I-237500J0D01*
G01*
X156262500Y-93200000D01*
G75*
G02*
X156025000Y-92962500I0J237500D01*
G01*
X156025000Y-92462500D01*
G75*
G02*
X156262500Y-92225000I237500J0D01*
G01*
G37*
G36*
G01*
X156262500Y-90400000D02*
X156737500Y-90400000D01*
G75*
G02*
X156975000Y-90637500I0J-237500D01*
G01*
X156975000Y-91137500D01*
G75*
G02*
X156737500Y-91375000I-237500J0D01*
G01*
X156262500Y-91375000D01*
G75*
G02*
X156025000Y-91137500I0J237500D01*
G01*
X156025000Y-90637500D01*
G75*
G02*
X156262500Y-90400000I237500J0D01*
G01*
G37*
G36*
G01*
X163262500Y-92212500D02*
X163737500Y-92212500D01*
G75*
G02*
X163975000Y-92450000I0J-237500D01*
G01*
X163975000Y-92950000D01*
G75*
G02*
X163737500Y-93187500I-237500J0D01*
G01*
X163262500Y-93187500D01*
G75*
G02*
X163025000Y-92950000I0J237500D01*
G01*
X163025000Y-92450000D01*
G75*
G02*
X163262500Y-92212500I237500J0D01*
G01*
G37*
G36*
G01*
X163262500Y-90387500D02*
X163737500Y-90387500D01*
G75*
G02*
X163975000Y-90625000I0J-237500D01*
G01*
X163975000Y-91125000D01*
G75*
G02*
X163737500Y-91362500I-237500J0D01*
G01*
X163262500Y-91362500D01*
G75*
G02*
X163025000Y-91125000I0J237500D01*
G01*
X163025000Y-90625000D01*
G75*
G02*
X163262500Y-90387500I237500J0D01*
G01*
G37*
G36*
G01*
X170262500Y-92225000D02*
X170737500Y-92225000D01*
G75*
G02*
X170975000Y-92462500I0J-237500D01*
G01*
X170975000Y-92962500D01*
G75*
G02*
X170737500Y-93200000I-237500J0D01*
G01*
X170262500Y-93200000D01*
G75*
G02*
X170025000Y-92962500I0J237500D01*
G01*
X170025000Y-92462500D01*
G75*
G02*
X170262500Y-92225000I237500J0D01*
G01*
G37*
G36*
G01*
X170262500Y-90400000D02*
X170737500Y-90400000D01*
G75*
G02*
X170975000Y-90637500I0J-237500D01*
G01*
X170975000Y-91137500D01*
G75*
G02*
X170737500Y-91375000I-237500J0D01*
G01*
X170262500Y-91375000D01*
G75*
G02*
X170025000Y-91137500I0J237500D01*
G01*
X170025000Y-90637500D01*
G75*
G02*
X170262500Y-90400000I237500J0D01*
G01*
G37*
G36*
G01*
X177262500Y-92225000D02*
X177737500Y-92225000D01*
G75*
G02*
X177975000Y-92462500I0J-237500D01*
G01*
X177975000Y-92962500D01*
G75*
G02*
X177737500Y-93200000I-237500J0D01*
G01*
X177262500Y-93200000D01*
G75*
G02*
X177025000Y-92962500I0J237500D01*
G01*
X177025000Y-92462500D01*
G75*
G02*
X177262500Y-92225000I237500J0D01*
G01*
G37*
G36*
G01*
X177262500Y-90400000D02*
X177737500Y-90400000D01*
G75*
G02*
X177975000Y-90637500I0J-237500D01*
G01*
X177975000Y-91137500D01*
G75*
G02*
X177737500Y-91375000I-237500J0D01*
G01*
X177262500Y-91375000D01*
G75*
G02*
X177025000Y-91137500I0J237500D01*
G01*
X177025000Y-90637500D01*
G75*
G02*
X177262500Y-90400000I237500J0D01*
G01*
G37*
G36*
G01*
X184262500Y-92225000D02*
X184737500Y-92225000D01*
G75*
G02*
X184975000Y-92462500I0J-237500D01*
G01*
X184975000Y-92962500D01*
G75*
G02*
X184737500Y-93200000I-237500J0D01*
G01*
X184262500Y-93200000D01*
G75*
G02*
X184025000Y-92962500I0J237500D01*
G01*
X184025000Y-92462500D01*
G75*
G02*
X184262500Y-92225000I237500J0D01*
G01*
G37*
G36*
G01*
X184262500Y-90400000D02*
X184737500Y-90400000D01*
G75*
G02*
X184975000Y-90637500I0J-237500D01*
G01*
X184975000Y-91137500D01*
G75*
G02*
X184737500Y-91375000I-237500J0D01*
G01*
X184262500Y-91375000D01*
G75*
G02*
X184025000Y-91137500I0J237500D01*
G01*
X184025000Y-90637500D01*
G75*
G02*
X184262500Y-90400000I237500J0D01*
G01*
G37*
G36*
G01*
X191262500Y-92225000D02*
X191737500Y-92225000D01*
G75*
G02*
X191975000Y-92462500I0J-237500D01*
G01*
X191975000Y-92962500D01*
G75*
G02*
X191737500Y-93200000I-237500J0D01*
G01*
X191262500Y-93200000D01*
G75*
G02*
X191025000Y-92962500I0J237500D01*
G01*
X191025000Y-92462500D01*
G75*
G02*
X191262500Y-92225000I237500J0D01*
G01*
G37*
G36*
G01*
X191262500Y-90400000D02*
X191737500Y-90400000D01*
G75*
G02*
X191975000Y-90637500I0J-237500D01*
G01*
X191975000Y-91137500D01*
G75*
G02*
X191737500Y-91375000I-237500J0D01*
G01*
X191262500Y-91375000D01*
G75*
G02*
X191025000Y-91137500I0J237500D01*
G01*
X191025000Y-90637500D01*
G75*
G02*
X191262500Y-90400000I237500J0D01*
G01*
G37*
D12*
X51550000Y-94850000D03*
X53250000Y-94850000D03*
X54950000Y-94850000D03*
X54950000Y-99650000D03*
X53250000Y-99650000D03*
X51550000Y-99650000D03*
X58550000Y-94850000D03*
X60250000Y-94850000D03*
X61950000Y-94850000D03*
X61950000Y-99650000D03*
X60250000Y-99650000D03*
X58550000Y-99650000D03*
X65550000Y-94850000D03*
X67250000Y-94850000D03*
X68950000Y-94850000D03*
X68950000Y-99650000D03*
X67250000Y-99650000D03*
X65550000Y-99650000D03*
X72550000Y-94850000D03*
X74250000Y-94850000D03*
X75950000Y-94850000D03*
X75950000Y-99650000D03*
X74250000Y-99650000D03*
X72550000Y-99650000D03*
X79550000Y-94850000D03*
X81250000Y-94850000D03*
X82950000Y-94850000D03*
X82950000Y-99650000D03*
X81250000Y-99650000D03*
X79550000Y-99650000D03*
X86550000Y-94850000D03*
X88250000Y-94850000D03*
X89950000Y-94850000D03*
X89950000Y-99650000D03*
X88250000Y-99650000D03*
X86550000Y-99650000D03*
X93550000Y-94850000D03*
X95250000Y-94850000D03*
X96950000Y-94850000D03*
X96950000Y-99650000D03*
X95250000Y-99650000D03*
X93550000Y-99650000D03*
X100550000Y-94850000D03*
X102250000Y-94850000D03*
X103950000Y-94850000D03*
X103950000Y-99650000D03*
X102250000Y-99650000D03*
X100550000Y-99650000D03*
X107550000Y-94850000D03*
X109250000Y-94850000D03*
X110950000Y-94850000D03*
X110950000Y-99650000D03*
X109250000Y-99650000D03*
X107550000Y-99650000D03*
X114550000Y-94850000D03*
X116250000Y-94850000D03*
X117950000Y-94850000D03*
X117950000Y-99650000D03*
X116250000Y-99650000D03*
X114550000Y-99650000D03*
X121550000Y-94850000D03*
X123250000Y-94850000D03*
X124950000Y-94850000D03*
X124950000Y-99650000D03*
X123250000Y-99650000D03*
X121550000Y-99650000D03*
X128550000Y-94850000D03*
X130250000Y-94850000D03*
X131950000Y-94850000D03*
X131950000Y-99650000D03*
X130250000Y-99650000D03*
X128550000Y-99650000D03*
X135550000Y-94850000D03*
X137250000Y-94850000D03*
X138950000Y-94850000D03*
X138950000Y-99650000D03*
X137250000Y-99650000D03*
X135550000Y-99650000D03*
X142550000Y-94850000D03*
X144250000Y-94850000D03*
X145950000Y-94850000D03*
X145950000Y-99650000D03*
X144250000Y-99650000D03*
X142550000Y-99650000D03*
X149550000Y-94850000D03*
X151250000Y-94850000D03*
X152950000Y-94850000D03*
X152950000Y-99650000D03*
X151250000Y-99650000D03*
X149550000Y-99650000D03*
X156550000Y-94850000D03*
X158250000Y-94850000D03*
X159950000Y-94850000D03*
X159950000Y-99650000D03*
X158250000Y-99650000D03*
X156550000Y-99650000D03*
X163550000Y-94850000D03*
X165250000Y-94850000D03*
X166950000Y-94850000D03*
X166950000Y-99650000D03*
X165250000Y-99650000D03*
X163550000Y-99650000D03*
X170550000Y-94850000D03*
X172250000Y-94850000D03*
X173950000Y-94850000D03*
X173950000Y-99650000D03*
X172250000Y-99650000D03*
X170550000Y-99650000D03*
X177550000Y-94850000D03*
X179250000Y-94850000D03*
X180950000Y-94850000D03*
X180950000Y-99650000D03*
X179250000Y-99650000D03*
X177550000Y-99650000D03*
X184550000Y-94850000D03*
X186250000Y-94850000D03*
X187950000Y-94850000D03*
X187950000Y-99650000D03*
X186250000Y-99650000D03*
X184550000Y-99650000D03*
X191550000Y-94850000D03*
X193250000Y-94850000D03*
X194950000Y-94850000D03*
X194950000Y-99650000D03*
X193250000Y-99650000D03*
X191550000Y-99650000D03*
D13*
X224500000Y-94300000D03*
X222650000Y-94300000D03*
D14*
X227310000Y-101450000D03*
X223890000Y-102400000D03*
X223890000Y-100500000D03*
D10*
X248000000Y-102660000D03*
X248000000Y-100120000D03*
X248000000Y-97580000D03*
X248000000Y-95040000D03*
D11*
X248000000Y-92500000D03*
G36*
G01*
X203903983Y-102176775D02*
X204823225Y-103096017D01*
G75*
G02*
X204823225Y-103449567I-176775J-176775D01*
G01*
X204239859Y-104032933D01*
G75*
G02*
X203886309Y-104032933I-176775J176775D01*
G01*
X202967067Y-103113691D01*
G75*
G02*
X202967067Y-102760141I176775J176775D01*
G01*
X203550433Y-102176775D01*
G75*
G02*
X203903983Y-102176775I176775J-176775D01*
G01*
G37*
G36*
G01*
X206113691Y-99967067D02*
X207032933Y-100886309D01*
G75*
G02*
X207032933Y-101239859I-176775J-176775D01*
G01*
X206449567Y-101823225D01*
G75*
G02*
X206096017Y-101823225I-176775J176775D01*
G01*
X205176775Y-100903983D01*
G75*
G02*
X205176775Y-100550433I176775J176775D01*
G01*
X205760141Y-99967067D01*
G75*
G02*
X206113691Y-99967067I176775J-176775D01*
G01*
G37*
G36*
G01*
X232850002Y-95462500D02*
X231549998Y-95462500D01*
G75*
G02*
X231300000Y-95212502I0J249998D01*
G01*
X231300000Y-94387498D01*
G75*
G02*
X231549998Y-94137500I249998J0D01*
G01*
X232850002Y-94137500D01*
G75*
G02*
X233100000Y-94387498I0J-249998D01*
G01*
X233100000Y-95212502D01*
G75*
G02*
X232850002Y-95462500I-249998J0D01*
G01*
G37*
G36*
G01*
X232850002Y-98587500D02*
X231549998Y-98587500D01*
G75*
G02*
X231300000Y-98337502I0J249998D01*
G01*
X231300000Y-97512498D01*
G75*
G02*
X231549998Y-97262500I249998J0D01*
G01*
X232850002Y-97262500D01*
G75*
G02*
X233100000Y-97512498I0J-249998D01*
G01*
X233100000Y-98337502D01*
G75*
G02*
X232850002Y-98587500I-249998J0D01*
G01*
G37*
M02*
