G04 #@! TF.GenerationSoftware,KiCad,Pcbnew,(5.1.10)-1*
G04 #@! TF.CreationDate,2022-04-06T13:47:01+02:00*
G04 #@! TF.ProjectId,POV_display_schematic,504f565f-6469-4737-906c-61795f736368,1*
G04 #@! TF.SameCoordinates,Original*
G04 #@! TF.FileFunction,Legend,Bot*
G04 #@! TF.FilePolarity,Positive*
%FSLAX46Y46*%
G04 Gerber Fmt 4.6, Leading zero omitted, Abs format (unit mm)*
G04 Created by KiCad (PCBNEW (5.1.10)-1) date 2022-04-06 13:47:01*
%MOMM*%
%LPD*%
G01*
G04 APERTURE LIST*
%ADD10C,0.152400*%
%ADD11C,0.120000*%
%ADD12C,0.150000*%
%ADD13O,1.700000X1.700000*%
%ADD14R,1.700000X1.700000*%
%ADD15R,2.300000X0.900000*%
%ADD16R,0.650000X2.000000*%
G04 APERTURE END LIST*
D10*
X242409638Y-97258057D02*
X241790361Y-97258057D01*
X242409638Y-94558057D02*
X241790361Y-94558057D01*
X242100000Y-94867695D02*
X242100000Y-94248419D01*
X207500000Y-90000000D02*
X207500000Y-105000000D01*
X192500000Y-105000000D02*
X192500000Y-90000000D01*
D11*
X214311252Y-100410000D02*
X212888748Y-100410000D01*
X214311252Y-98590000D02*
X212888748Y-98590000D01*
X234860000Y-93550000D02*
X234860000Y-92240000D01*
X234860000Y-92240000D02*
X232140000Y-92240000D01*
X231000000Y-96730000D02*
X232140000Y-96730000D01*
X234860000Y-96960000D02*
X234860000Y-95650000D01*
X232140000Y-96960000D02*
X234860000Y-96960000D01*
X232140000Y-96960000D02*
X232140000Y-96730000D01*
X232140000Y-92240000D02*
X232140000Y-92470000D01*
X235600000Y-102950000D02*
X236650000Y-102950000D01*
X236650000Y-102950000D02*
X236650000Y-101100000D01*
X233600000Y-102950000D02*
X234600000Y-102950000D01*
X233590000Y-102930000D02*
X233590000Y-100500000D01*
X229700000Y-101060000D02*
X228650000Y-101060000D01*
X228650000Y-101060000D02*
X228650000Y-102910000D01*
X231700000Y-101060000D02*
X230700000Y-101060000D01*
X231710000Y-101080000D02*
X231710000Y-103510000D01*
X240830000Y-98570000D02*
X238170000Y-98570000D01*
X240830000Y-95970000D02*
X240830000Y-98570000D01*
X238170000Y-95970000D02*
X238170000Y-98570000D01*
X240830000Y-95970000D02*
X238170000Y-95970000D01*
X240830000Y-94700000D02*
X240830000Y-93370000D01*
X240830000Y-93370000D02*
X239500000Y-93370000D01*
X240777065Y-100190000D02*
X239322937Y-100190000D01*
X240777065Y-102010000D02*
X239322937Y-102010000D01*
X239322936Y-104610000D02*
X240777064Y-104610000D01*
X239322936Y-102790000D02*
X240777064Y-102790000D01*
X223472936Y-104610000D02*
X224927064Y-104610000D01*
X223472936Y-102790000D02*
X224927064Y-102790000D01*
X226990000Y-94088748D02*
X226990000Y-95511252D01*
X228810000Y-94088748D02*
X228810000Y-95511252D01*
X235988748Y-91110000D02*
X237411252Y-91110000D01*
X235988748Y-89290000D02*
X237411252Y-89290000D01*
X64860000Y-97300000D02*
X64860000Y-99250000D01*
X64860000Y-97300000D02*
X64860000Y-95350000D01*
X54740000Y-97300000D02*
X54740000Y-99250000D01*
X54740000Y-97300000D02*
X54740000Y-93850000D01*
X81110000Y-97300000D02*
X81110000Y-99250000D01*
X81110000Y-97300000D02*
X81110000Y-95350000D01*
X70990000Y-97300000D02*
X70990000Y-99250000D01*
X70990000Y-97300000D02*
X70990000Y-93850000D01*
X100910000Y-97300000D02*
X100910000Y-99250000D01*
X100910000Y-97300000D02*
X100910000Y-95350000D01*
X90790000Y-97300000D02*
X90790000Y-99250000D01*
X90790000Y-97300000D02*
X90790000Y-93850000D01*
X119860000Y-97300000D02*
X119860000Y-99250000D01*
X119860000Y-97300000D02*
X119860000Y-95350000D01*
X109740000Y-97300000D02*
X109740000Y-99250000D01*
X109740000Y-97300000D02*
X109740000Y-93850000D01*
X138660000Y-97400000D02*
X138660000Y-99350000D01*
X138660000Y-97400000D02*
X138660000Y-95450000D01*
X128540000Y-97400000D02*
X128540000Y-99350000D01*
X128540000Y-97400000D02*
X128540000Y-93950000D01*
X160410000Y-97200000D02*
X160410000Y-99150000D01*
X160410000Y-97200000D02*
X160410000Y-95250000D01*
X150290000Y-97200000D02*
X150290000Y-99150000D01*
X150290000Y-97200000D02*
X150290000Y-93750000D01*
X175410000Y-97300000D02*
X175410000Y-99250000D01*
X175410000Y-97300000D02*
X175410000Y-95350000D01*
X165290000Y-97300000D02*
X165290000Y-99250000D01*
X165290000Y-97300000D02*
X165290000Y-93850000D01*
X190460000Y-97225000D02*
X190460000Y-99175000D01*
X190460000Y-97225000D02*
X190460000Y-95275000D01*
X180340000Y-97225000D02*
X180340000Y-99175000D01*
X180340000Y-97225000D02*
X180340000Y-93775000D01*
X69160000Y-99248752D02*
X69160000Y-97826248D01*
X67340000Y-99248752D02*
X67340000Y-97826248D01*
X52960000Y-99248752D02*
X52960000Y-97826248D01*
X51140000Y-99248752D02*
X51140000Y-97826248D01*
X88960000Y-99211252D02*
X88960000Y-97788748D01*
X87140000Y-99211252D02*
X87140000Y-97788748D01*
X107910000Y-99261252D02*
X107910000Y-97838748D01*
X106090000Y-99261252D02*
X106090000Y-97838748D01*
X125810000Y-99148752D02*
X125810000Y-97726248D01*
X123990000Y-99148752D02*
X123990000Y-97726248D01*
X148510000Y-99148752D02*
X148510000Y-97726248D01*
X146690000Y-99148752D02*
X146690000Y-97726248D01*
X163810000Y-99148752D02*
X163810000Y-97726248D01*
X161990000Y-99148752D02*
X161990000Y-97726248D01*
X178810000Y-99073752D02*
X178810000Y-97651248D01*
X176990000Y-99073752D02*
X176990000Y-97651248D01*
X211573752Y-104190000D02*
X210151248Y-104190000D01*
X211573752Y-106010000D02*
X210151248Y-106010000D01*
X211948752Y-89490000D02*
X210526248Y-89490000D01*
X211948752Y-91310000D02*
X210526248Y-91310000D01*
D12*
X214242857Y-98007142D02*
X214290476Y-98054761D01*
X214433333Y-98102380D01*
X214528571Y-98102380D01*
X214671428Y-98054761D01*
X214766666Y-97959523D01*
X214814285Y-97864285D01*
X214861904Y-97673809D01*
X214861904Y-97530952D01*
X214814285Y-97340476D01*
X214766666Y-97245238D01*
X214671428Y-97150000D01*
X214528571Y-97102380D01*
X214433333Y-97102380D01*
X214290476Y-97150000D01*
X214242857Y-97197619D01*
X213290476Y-98102380D02*
X213861904Y-98102380D01*
X213576190Y-98102380D02*
X213576190Y-97102380D01*
X213671428Y-97245238D01*
X213766666Y-97340476D01*
X213861904Y-97388095D01*
X212957142Y-97102380D02*
X212290476Y-97102380D01*
X212719047Y-98102380D01*
X234738095Y-97552380D02*
X234738095Y-98361904D01*
X234690476Y-98457142D01*
X234642857Y-98504761D01*
X234547619Y-98552380D01*
X234357142Y-98552380D01*
X234261904Y-98504761D01*
X234214285Y-98457142D01*
X234166666Y-98361904D01*
X234166666Y-97552380D01*
X233166666Y-98552380D02*
X233738095Y-98552380D01*
X233452380Y-98552380D02*
X233452380Y-97552380D01*
X233547619Y-97695238D01*
X233642857Y-97790476D01*
X233738095Y-97838095D01*
X232214285Y-98552380D02*
X232785714Y-98552380D01*
X232500000Y-98552380D02*
X232500000Y-97552380D01*
X232595238Y-97695238D01*
X232690476Y-97790476D01*
X232785714Y-97838095D01*
X233197619Y-101904761D02*
X233150000Y-101809523D01*
X233054761Y-101714285D01*
X232911904Y-101571428D01*
X232864285Y-101476190D01*
X232864285Y-101380952D01*
X233102380Y-101428571D02*
X233054761Y-101333333D01*
X232959523Y-101238095D01*
X232769047Y-101190476D01*
X232435714Y-101190476D01*
X232245238Y-101238095D01*
X232150000Y-101333333D01*
X232102380Y-101428571D01*
X232102380Y-101619047D01*
X232150000Y-101714285D01*
X232245238Y-101809523D01*
X232435714Y-101857142D01*
X232769047Y-101857142D01*
X232959523Y-101809523D01*
X233054761Y-101714285D01*
X233102380Y-101619047D01*
X233102380Y-101428571D01*
X232197619Y-102238095D02*
X232150000Y-102285714D01*
X232102380Y-102380952D01*
X232102380Y-102619047D01*
X232150000Y-102714285D01*
X232197619Y-102761904D01*
X232292857Y-102809523D01*
X232388095Y-102809523D01*
X232530952Y-102761904D01*
X233102380Y-102190476D01*
X233102380Y-102809523D01*
X228347619Y-102014761D02*
X228300000Y-101919523D01*
X228204761Y-101824285D01*
X228061904Y-101681428D01*
X228014285Y-101586190D01*
X228014285Y-101490952D01*
X228252380Y-101538571D02*
X228204761Y-101443333D01*
X228109523Y-101348095D01*
X227919047Y-101300476D01*
X227585714Y-101300476D01*
X227395238Y-101348095D01*
X227300000Y-101443333D01*
X227252380Y-101538571D01*
X227252380Y-101729047D01*
X227300000Y-101824285D01*
X227395238Y-101919523D01*
X227585714Y-101967142D01*
X227919047Y-101967142D01*
X228109523Y-101919523D01*
X228204761Y-101824285D01*
X228252380Y-101729047D01*
X228252380Y-101538571D01*
X228252380Y-102919523D02*
X228252380Y-102348095D01*
X228252380Y-102633809D02*
X227252380Y-102633809D01*
X227395238Y-102538571D01*
X227490476Y-102443333D01*
X227538095Y-102348095D01*
X240285714Y-92298571D02*
X240142857Y-92346190D01*
X240095238Y-92393809D01*
X240047619Y-92489047D01*
X240047619Y-92631904D01*
X240095238Y-92727142D01*
X240142857Y-92774761D01*
X240238095Y-92822380D01*
X240619047Y-92822380D01*
X240619047Y-91822380D01*
X240285714Y-91822380D01*
X240190476Y-91870000D01*
X240142857Y-91917619D01*
X240095238Y-92012857D01*
X240095238Y-92108095D01*
X240142857Y-92203333D01*
X240190476Y-92250952D01*
X240285714Y-92298571D01*
X240619047Y-92298571D01*
X239761904Y-91822380D02*
X239190476Y-91822380D01*
X239476190Y-92822380D02*
X239476190Y-91822380D01*
X238333333Y-92822380D02*
X238904761Y-92822380D01*
X238619047Y-92822380D02*
X238619047Y-91822380D01*
X238714285Y-91965238D01*
X238809523Y-92060476D01*
X238904761Y-92108095D01*
X244642857Y-101552380D02*
X244976190Y-101076190D01*
X245214285Y-101552380D02*
X245214285Y-100552380D01*
X244833333Y-100552380D01*
X244738095Y-100600000D01*
X244690476Y-100647619D01*
X244642857Y-100742857D01*
X244642857Y-100885714D01*
X244690476Y-100980952D01*
X244738095Y-101028571D01*
X244833333Y-101076190D01*
X245214285Y-101076190D01*
X243785714Y-100552380D02*
X243976190Y-100552380D01*
X244071428Y-100600000D01*
X244119047Y-100647619D01*
X244214285Y-100790476D01*
X244261904Y-100980952D01*
X244261904Y-101361904D01*
X244214285Y-101457142D01*
X244166666Y-101504761D01*
X244071428Y-101552380D01*
X243880952Y-101552380D01*
X243785714Y-101504761D01*
X243738095Y-101457142D01*
X243690476Y-101361904D01*
X243690476Y-101123809D01*
X243738095Y-101028571D01*
X243785714Y-100980952D01*
X243880952Y-100933333D01*
X244071428Y-100933333D01*
X244166666Y-100980952D01*
X244214285Y-101028571D01*
X244261904Y-101123809D01*
X243119047Y-100980952D02*
X243214285Y-100933333D01*
X243261904Y-100885714D01*
X243309523Y-100790476D01*
X243309523Y-100742857D01*
X243261904Y-100647619D01*
X243214285Y-100600000D01*
X243119047Y-100552380D01*
X242928571Y-100552380D01*
X242833333Y-100600000D01*
X242785714Y-100647619D01*
X242738095Y-100742857D01*
X242738095Y-100790476D01*
X242785714Y-100885714D01*
X242833333Y-100933333D01*
X242928571Y-100980952D01*
X243119047Y-100980952D01*
X243214285Y-101028571D01*
X243261904Y-101076190D01*
X243309523Y-101171428D01*
X243309523Y-101361904D01*
X243261904Y-101457142D01*
X243214285Y-101504761D01*
X243119047Y-101552380D01*
X242928571Y-101552380D01*
X242833333Y-101504761D01*
X242785714Y-101457142D01*
X242738095Y-101361904D01*
X242738095Y-101171428D01*
X242785714Y-101076190D01*
X242833333Y-101028571D01*
X242928571Y-100980952D01*
X244742857Y-104052380D02*
X245076190Y-103576190D01*
X245314285Y-104052380D02*
X245314285Y-103052380D01*
X244933333Y-103052380D01*
X244838095Y-103100000D01*
X244790476Y-103147619D01*
X244742857Y-103242857D01*
X244742857Y-103385714D01*
X244790476Y-103480952D01*
X244838095Y-103528571D01*
X244933333Y-103576190D01*
X245314285Y-103576190D01*
X243885714Y-103052380D02*
X244076190Y-103052380D01*
X244171428Y-103100000D01*
X244219047Y-103147619D01*
X244314285Y-103290476D01*
X244361904Y-103480952D01*
X244361904Y-103861904D01*
X244314285Y-103957142D01*
X244266666Y-104004761D01*
X244171428Y-104052380D01*
X243980952Y-104052380D01*
X243885714Y-104004761D01*
X243838095Y-103957142D01*
X243790476Y-103861904D01*
X243790476Y-103623809D01*
X243838095Y-103528571D01*
X243885714Y-103480952D01*
X243980952Y-103433333D01*
X244171428Y-103433333D01*
X244266666Y-103480952D01*
X244314285Y-103528571D01*
X244361904Y-103623809D01*
X243457142Y-103052380D02*
X242790476Y-103052380D01*
X243219047Y-104052380D01*
X224842857Y-105972380D02*
X225176190Y-105496190D01*
X225414285Y-105972380D02*
X225414285Y-104972380D01*
X225033333Y-104972380D01*
X224938095Y-105020000D01*
X224890476Y-105067619D01*
X224842857Y-105162857D01*
X224842857Y-105305714D01*
X224890476Y-105400952D01*
X224938095Y-105448571D01*
X225033333Y-105496190D01*
X225414285Y-105496190D01*
X223985714Y-104972380D02*
X224176190Y-104972380D01*
X224271428Y-105020000D01*
X224319047Y-105067619D01*
X224414285Y-105210476D01*
X224461904Y-105400952D01*
X224461904Y-105781904D01*
X224414285Y-105877142D01*
X224366666Y-105924761D01*
X224271428Y-105972380D01*
X224080952Y-105972380D01*
X223985714Y-105924761D01*
X223938095Y-105877142D01*
X223890476Y-105781904D01*
X223890476Y-105543809D01*
X223938095Y-105448571D01*
X223985714Y-105400952D01*
X224080952Y-105353333D01*
X224271428Y-105353333D01*
X224366666Y-105400952D01*
X224414285Y-105448571D01*
X224461904Y-105543809D01*
X223033333Y-104972380D02*
X223223809Y-104972380D01*
X223319047Y-105020000D01*
X223366666Y-105067619D01*
X223461904Y-105210476D01*
X223509523Y-105400952D01*
X223509523Y-105781904D01*
X223461904Y-105877142D01*
X223414285Y-105924761D01*
X223319047Y-105972380D01*
X223128571Y-105972380D01*
X223033333Y-105924761D01*
X222985714Y-105877142D01*
X222938095Y-105781904D01*
X222938095Y-105543809D01*
X222985714Y-105448571D01*
X223033333Y-105400952D01*
X223128571Y-105353333D01*
X223319047Y-105353333D01*
X223414285Y-105400952D01*
X223461904Y-105448571D01*
X223509523Y-105543809D01*
X226407142Y-94157142D02*
X226454761Y-94109523D01*
X226502380Y-93966666D01*
X226502380Y-93871428D01*
X226454761Y-93728571D01*
X226359523Y-93633333D01*
X226264285Y-93585714D01*
X226073809Y-93538095D01*
X225930952Y-93538095D01*
X225740476Y-93585714D01*
X225645238Y-93633333D01*
X225550000Y-93728571D01*
X225502380Y-93871428D01*
X225502380Y-93966666D01*
X225550000Y-94109523D01*
X225597619Y-94157142D01*
X226502380Y-95109523D02*
X226502380Y-94538095D01*
X226502380Y-94823809D02*
X225502380Y-94823809D01*
X225645238Y-94728571D01*
X225740476Y-94633333D01*
X225788095Y-94538095D01*
X225502380Y-95966666D02*
X225502380Y-95776190D01*
X225550000Y-95680952D01*
X225597619Y-95633333D01*
X225740476Y-95538095D01*
X225930952Y-95490476D01*
X226311904Y-95490476D01*
X226407142Y-95538095D01*
X226454761Y-95585714D01*
X226502380Y-95680952D01*
X226502380Y-95871428D01*
X226454761Y-95966666D01*
X226407142Y-96014285D01*
X226311904Y-96061904D01*
X226073809Y-96061904D01*
X225978571Y-96014285D01*
X225930952Y-95966666D01*
X225883333Y-95871428D01*
X225883333Y-95680952D01*
X225930952Y-95585714D01*
X225978571Y-95538095D01*
X226073809Y-95490476D01*
X237342857Y-92407142D02*
X237390476Y-92454761D01*
X237533333Y-92502380D01*
X237628571Y-92502380D01*
X237771428Y-92454761D01*
X237866666Y-92359523D01*
X237914285Y-92264285D01*
X237961904Y-92073809D01*
X237961904Y-91930952D01*
X237914285Y-91740476D01*
X237866666Y-91645238D01*
X237771428Y-91550000D01*
X237628571Y-91502380D01*
X237533333Y-91502380D01*
X237390476Y-91550000D01*
X237342857Y-91597619D01*
X236390476Y-92502380D02*
X236961904Y-92502380D01*
X236676190Y-92502380D02*
X236676190Y-91502380D01*
X236771428Y-91645238D01*
X236866666Y-91740476D01*
X236961904Y-91788095D01*
X235485714Y-91502380D02*
X235961904Y-91502380D01*
X236009523Y-91978571D01*
X235961904Y-91930952D01*
X235866666Y-91883333D01*
X235628571Y-91883333D01*
X235533333Y-91930952D01*
X235485714Y-91978571D01*
X235438095Y-92073809D01*
X235438095Y-92311904D01*
X235485714Y-92407142D01*
X235533333Y-92454761D01*
X235628571Y-92502380D01*
X235866666Y-92502380D01*
X235961904Y-92454761D01*
X236009523Y-92407142D01*
X57452380Y-96061904D02*
X58261904Y-96061904D01*
X58357142Y-96109523D01*
X58404761Y-96157142D01*
X58452380Y-96252380D01*
X58452380Y-96442857D01*
X58404761Y-96538095D01*
X58357142Y-96585714D01*
X58261904Y-96633333D01*
X57452380Y-96633333D01*
X58452380Y-97633333D02*
X58452380Y-97061904D01*
X58452380Y-97347619D02*
X57452380Y-97347619D01*
X57595238Y-97252380D01*
X57690476Y-97157142D01*
X57738095Y-97061904D01*
X57452380Y-98252380D02*
X57452380Y-98347619D01*
X57500000Y-98442857D01*
X57547619Y-98490476D01*
X57642857Y-98538095D01*
X57833333Y-98585714D01*
X58071428Y-98585714D01*
X58261904Y-98538095D01*
X58357142Y-98490476D01*
X58404761Y-98442857D01*
X58452380Y-98347619D01*
X58452380Y-98252380D01*
X58404761Y-98157142D01*
X58357142Y-98109523D01*
X58261904Y-98061904D01*
X58071428Y-98014285D01*
X57833333Y-98014285D01*
X57642857Y-98061904D01*
X57547619Y-98109523D01*
X57500000Y-98157142D01*
X57452380Y-98252380D01*
X72252380Y-96538095D02*
X73061904Y-96538095D01*
X73157142Y-96585714D01*
X73204761Y-96633333D01*
X73252380Y-96728571D01*
X73252380Y-96919047D01*
X73204761Y-97014285D01*
X73157142Y-97061904D01*
X73061904Y-97109523D01*
X72252380Y-97109523D01*
X72680952Y-97728571D02*
X72633333Y-97633333D01*
X72585714Y-97585714D01*
X72490476Y-97538095D01*
X72442857Y-97538095D01*
X72347619Y-97585714D01*
X72300000Y-97633333D01*
X72252380Y-97728571D01*
X72252380Y-97919047D01*
X72300000Y-98014285D01*
X72347619Y-98061904D01*
X72442857Y-98109523D01*
X72490476Y-98109523D01*
X72585714Y-98061904D01*
X72633333Y-98014285D01*
X72680952Y-97919047D01*
X72680952Y-97728571D01*
X72728571Y-97633333D01*
X72776190Y-97585714D01*
X72871428Y-97538095D01*
X73061904Y-97538095D01*
X73157142Y-97585714D01*
X73204761Y-97633333D01*
X73252380Y-97728571D01*
X73252380Y-97919047D01*
X73204761Y-98014285D01*
X73157142Y-98061904D01*
X73061904Y-98109523D01*
X72871428Y-98109523D01*
X72776190Y-98061904D01*
X72728571Y-98014285D01*
X72680952Y-97919047D01*
X92252380Y-96538095D02*
X93061904Y-96538095D01*
X93157142Y-96585714D01*
X93204761Y-96633333D01*
X93252380Y-96728571D01*
X93252380Y-96919047D01*
X93204761Y-97014285D01*
X93157142Y-97061904D01*
X93061904Y-97109523D01*
X92252380Y-97109523D01*
X92252380Y-97490476D02*
X92252380Y-98157142D01*
X93252380Y-97728571D01*
X110652380Y-96538095D02*
X111461904Y-96538095D01*
X111557142Y-96585714D01*
X111604761Y-96633333D01*
X111652380Y-96728571D01*
X111652380Y-96919047D01*
X111604761Y-97014285D01*
X111557142Y-97061904D01*
X111461904Y-97109523D01*
X110652380Y-97109523D01*
X110652380Y-98061904D02*
X110652380Y-97585714D01*
X111128571Y-97538095D01*
X111080952Y-97585714D01*
X111033333Y-97680952D01*
X111033333Y-97919047D01*
X111080952Y-98014285D01*
X111128571Y-98061904D01*
X111223809Y-98109523D01*
X111461904Y-98109523D01*
X111557142Y-98061904D01*
X111604761Y-98014285D01*
X111652380Y-97919047D01*
X111652380Y-97680952D01*
X111604761Y-97585714D01*
X111557142Y-97538095D01*
X129752380Y-96638095D02*
X130561904Y-96638095D01*
X130657142Y-96685714D01*
X130704761Y-96733333D01*
X130752380Y-96828571D01*
X130752380Y-97019047D01*
X130704761Y-97114285D01*
X130657142Y-97161904D01*
X130561904Y-97209523D01*
X129752380Y-97209523D01*
X130085714Y-98114285D02*
X130752380Y-98114285D01*
X129704761Y-97876190D02*
X130419047Y-97638095D01*
X130419047Y-98257142D01*
X151352380Y-96538095D02*
X152161904Y-96538095D01*
X152257142Y-96585714D01*
X152304761Y-96633333D01*
X152352380Y-96728571D01*
X152352380Y-96919047D01*
X152304761Y-97014285D01*
X152257142Y-97061904D01*
X152161904Y-97109523D01*
X151352380Y-97109523D01*
X151352380Y-97490476D02*
X151352380Y-98109523D01*
X151733333Y-97776190D01*
X151733333Y-97919047D01*
X151780952Y-98014285D01*
X151828571Y-98061904D01*
X151923809Y-98109523D01*
X152161904Y-98109523D01*
X152257142Y-98061904D01*
X152304761Y-98014285D01*
X152352380Y-97919047D01*
X152352380Y-97633333D01*
X152304761Y-97538095D01*
X152257142Y-97490476D01*
X166652380Y-96538095D02*
X167461904Y-96538095D01*
X167557142Y-96585714D01*
X167604761Y-96633333D01*
X167652380Y-96728571D01*
X167652380Y-96919047D01*
X167604761Y-97014285D01*
X167557142Y-97061904D01*
X167461904Y-97109523D01*
X166652380Y-97109523D01*
X166747619Y-97538095D02*
X166700000Y-97585714D01*
X166652380Y-97680952D01*
X166652380Y-97919047D01*
X166700000Y-98014285D01*
X166747619Y-98061904D01*
X166842857Y-98109523D01*
X166938095Y-98109523D01*
X167080952Y-98061904D01*
X167652380Y-97490476D01*
X167652380Y-98109523D01*
X180952380Y-96463095D02*
X181761904Y-96463095D01*
X181857142Y-96510714D01*
X181904761Y-96558333D01*
X181952380Y-96653571D01*
X181952380Y-96844047D01*
X181904761Y-96939285D01*
X181857142Y-96986904D01*
X181761904Y-97034523D01*
X180952380Y-97034523D01*
X181952380Y-98034523D02*
X181952380Y-97463095D01*
X181952380Y-97748809D02*
X180952380Y-97748809D01*
X181095238Y-97653571D01*
X181190476Y-97558333D01*
X181238095Y-97463095D01*
X70457142Y-97894642D02*
X70504761Y-97847023D01*
X70552380Y-97704166D01*
X70552380Y-97608928D01*
X70504761Y-97466071D01*
X70409523Y-97370833D01*
X70314285Y-97323214D01*
X70123809Y-97275595D01*
X69980952Y-97275595D01*
X69790476Y-97323214D01*
X69695238Y-97370833D01*
X69600000Y-97466071D01*
X69552380Y-97608928D01*
X69552380Y-97704166D01*
X69600000Y-97847023D01*
X69647619Y-97894642D01*
X70552380Y-98847023D02*
X70552380Y-98275595D01*
X70552380Y-98561309D02*
X69552380Y-98561309D01*
X69695238Y-98466071D01*
X69790476Y-98370833D01*
X69838095Y-98275595D01*
X69885714Y-99704166D02*
X70552380Y-99704166D01*
X69504761Y-99466071D02*
X70219047Y-99227976D01*
X70219047Y-99847023D01*
X54257142Y-97894642D02*
X54304761Y-97847023D01*
X54352380Y-97704166D01*
X54352380Y-97608928D01*
X54304761Y-97466071D01*
X54209523Y-97370833D01*
X54114285Y-97323214D01*
X53923809Y-97275595D01*
X53780952Y-97275595D01*
X53590476Y-97323214D01*
X53495238Y-97370833D01*
X53400000Y-97466071D01*
X53352380Y-97608928D01*
X53352380Y-97704166D01*
X53400000Y-97847023D01*
X53447619Y-97894642D01*
X54352380Y-98847023D02*
X54352380Y-98275595D01*
X54352380Y-98561309D02*
X53352380Y-98561309D01*
X53495238Y-98466071D01*
X53590476Y-98370833D01*
X53638095Y-98275595D01*
X53352380Y-99466071D02*
X53352380Y-99561309D01*
X53400000Y-99656547D01*
X53447619Y-99704166D01*
X53542857Y-99751785D01*
X53733333Y-99799404D01*
X53971428Y-99799404D01*
X54161904Y-99751785D01*
X54257142Y-99704166D01*
X54304761Y-99656547D01*
X54352380Y-99561309D01*
X54352380Y-99466071D01*
X54304761Y-99370833D01*
X54257142Y-99323214D01*
X54161904Y-99275595D01*
X53971428Y-99227976D01*
X53733333Y-99227976D01*
X53542857Y-99275595D01*
X53447619Y-99323214D01*
X53400000Y-99370833D01*
X53352380Y-99466071D01*
X90257142Y-98333333D02*
X90304761Y-98285714D01*
X90352380Y-98142857D01*
X90352380Y-98047619D01*
X90304761Y-97904761D01*
X90209523Y-97809523D01*
X90114285Y-97761904D01*
X89923809Y-97714285D01*
X89780952Y-97714285D01*
X89590476Y-97761904D01*
X89495238Y-97809523D01*
X89400000Y-97904761D01*
X89352380Y-98047619D01*
X89352380Y-98142857D01*
X89400000Y-98285714D01*
X89447619Y-98333333D01*
X89352380Y-98666666D02*
X89352380Y-99333333D01*
X90352380Y-98904761D01*
X109207142Y-98383333D02*
X109254761Y-98335714D01*
X109302380Y-98192857D01*
X109302380Y-98097619D01*
X109254761Y-97954761D01*
X109159523Y-97859523D01*
X109064285Y-97811904D01*
X108873809Y-97764285D01*
X108730952Y-97764285D01*
X108540476Y-97811904D01*
X108445238Y-97859523D01*
X108350000Y-97954761D01*
X108302380Y-98097619D01*
X108302380Y-98192857D01*
X108350000Y-98335714D01*
X108397619Y-98383333D01*
X108302380Y-99288095D02*
X108302380Y-98811904D01*
X108778571Y-98764285D01*
X108730952Y-98811904D01*
X108683333Y-98907142D01*
X108683333Y-99145238D01*
X108730952Y-99240476D01*
X108778571Y-99288095D01*
X108873809Y-99335714D01*
X109111904Y-99335714D01*
X109207142Y-99288095D01*
X109254761Y-99240476D01*
X109302380Y-99145238D01*
X109302380Y-98907142D01*
X109254761Y-98811904D01*
X109207142Y-98764285D01*
X127107142Y-98270833D02*
X127154761Y-98223214D01*
X127202380Y-98080357D01*
X127202380Y-97985119D01*
X127154761Y-97842261D01*
X127059523Y-97747023D01*
X126964285Y-97699404D01*
X126773809Y-97651785D01*
X126630952Y-97651785D01*
X126440476Y-97699404D01*
X126345238Y-97747023D01*
X126250000Y-97842261D01*
X126202380Y-97985119D01*
X126202380Y-98080357D01*
X126250000Y-98223214D01*
X126297619Y-98270833D01*
X126535714Y-99127976D02*
X127202380Y-99127976D01*
X126154761Y-98889880D02*
X126869047Y-98651785D01*
X126869047Y-99270833D01*
X149807142Y-98270833D02*
X149854761Y-98223214D01*
X149902380Y-98080357D01*
X149902380Y-97985119D01*
X149854761Y-97842261D01*
X149759523Y-97747023D01*
X149664285Y-97699404D01*
X149473809Y-97651785D01*
X149330952Y-97651785D01*
X149140476Y-97699404D01*
X149045238Y-97747023D01*
X148950000Y-97842261D01*
X148902380Y-97985119D01*
X148902380Y-98080357D01*
X148950000Y-98223214D01*
X148997619Y-98270833D01*
X148902380Y-98604166D02*
X148902380Y-99223214D01*
X149283333Y-98889880D01*
X149283333Y-99032738D01*
X149330952Y-99127976D01*
X149378571Y-99175595D01*
X149473809Y-99223214D01*
X149711904Y-99223214D01*
X149807142Y-99175595D01*
X149854761Y-99127976D01*
X149902380Y-99032738D01*
X149902380Y-98747023D01*
X149854761Y-98651785D01*
X149807142Y-98604166D01*
X163166666Y-95457142D02*
X163214285Y-95504761D01*
X163357142Y-95552380D01*
X163452380Y-95552380D01*
X163595238Y-95504761D01*
X163690476Y-95409523D01*
X163738095Y-95314285D01*
X163785714Y-95123809D01*
X163785714Y-94980952D01*
X163738095Y-94790476D01*
X163690476Y-94695238D01*
X163595238Y-94600000D01*
X163452380Y-94552380D01*
X163357142Y-94552380D01*
X163214285Y-94600000D01*
X163166666Y-94647619D01*
X162785714Y-94647619D02*
X162738095Y-94600000D01*
X162642857Y-94552380D01*
X162404761Y-94552380D01*
X162309523Y-94600000D01*
X162261904Y-94647619D01*
X162214285Y-94742857D01*
X162214285Y-94838095D01*
X162261904Y-94980952D01*
X162833333Y-95552380D01*
X162214285Y-95552380D01*
X178166666Y-94682142D02*
X178214285Y-94729761D01*
X178357142Y-94777380D01*
X178452380Y-94777380D01*
X178595238Y-94729761D01*
X178690476Y-94634523D01*
X178738095Y-94539285D01*
X178785714Y-94348809D01*
X178785714Y-94205952D01*
X178738095Y-94015476D01*
X178690476Y-93920238D01*
X178595238Y-93825000D01*
X178452380Y-93777380D01*
X178357142Y-93777380D01*
X178214285Y-93825000D01*
X178166666Y-93872619D01*
X177214285Y-94777380D02*
X177785714Y-94777380D01*
X177500000Y-94777380D02*
X177500000Y-93777380D01*
X177595238Y-93920238D01*
X177690476Y-94015476D01*
X177785714Y-94063095D01*
X211505357Y-103607142D02*
X211552976Y-103654761D01*
X211695833Y-103702380D01*
X211791071Y-103702380D01*
X211933928Y-103654761D01*
X212029166Y-103559523D01*
X212076785Y-103464285D01*
X212124404Y-103273809D01*
X212124404Y-103130952D01*
X212076785Y-102940476D01*
X212029166Y-102845238D01*
X211933928Y-102750000D01*
X211791071Y-102702380D01*
X211695833Y-102702380D01*
X211552976Y-102750000D01*
X211505357Y-102797619D01*
X210552976Y-103702380D02*
X211124404Y-103702380D01*
X210838690Y-103702380D02*
X210838690Y-102702380D01*
X210933928Y-102845238D01*
X211029166Y-102940476D01*
X211124404Y-102988095D01*
X209600595Y-103702380D02*
X210172023Y-103702380D01*
X209886309Y-103702380D02*
X209886309Y-102702380D01*
X209981547Y-102845238D01*
X210076785Y-102940476D01*
X210172023Y-102988095D01*
X211404166Y-88907142D02*
X211451785Y-88954761D01*
X211594642Y-89002380D01*
X211689880Y-89002380D01*
X211832738Y-88954761D01*
X211927976Y-88859523D01*
X211975595Y-88764285D01*
X212023214Y-88573809D01*
X212023214Y-88430952D01*
X211975595Y-88240476D01*
X211927976Y-88145238D01*
X211832738Y-88050000D01*
X211689880Y-88002380D01*
X211594642Y-88002380D01*
X211451785Y-88050000D01*
X211404166Y-88097619D01*
X210927976Y-89002380D02*
X210737500Y-89002380D01*
X210642261Y-88954761D01*
X210594642Y-88907142D01*
X210499404Y-88764285D01*
X210451785Y-88573809D01*
X210451785Y-88192857D01*
X210499404Y-88097619D01*
X210547023Y-88050000D01*
X210642261Y-88002380D01*
X210832738Y-88002380D01*
X210927976Y-88050000D01*
X210975595Y-88097619D01*
X211023214Y-88192857D01*
X211023214Y-88430952D01*
X210975595Y-88526190D01*
X210927976Y-88573809D01*
X210832738Y-88621428D01*
X210642261Y-88621428D01*
X210547023Y-88573809D01*
X210499404Y-88526190D01*
X210451785Y-88430952D01*
%LPC*%
G36*
G01*
X212700000Y-98849998D02*
X212700000Y-100150002D01*
G75*
G02*
X212450002Y-100400000I-249998J0D01*
G01*
X211624998Y-100400000D01*
G75*
G02*
X211375000Y-100150002I0J249998D01*
G01*
X211375000Y-98849998D01*
G75*
G02*
X211624998Y-98600000I249998J0D01*
G01*
X212450002Y-98600000D01*
G75*
G02*
X212700000Y-98849998I0J-249998D01*
G01*
G37*
G36*
G01*
X215825000Y-98849998D02*
X215825000Y-100150002D01*
G75*
G02*
X215575002Y-100400000I-249998J0D01*
G01*
X214749998Y-100400000D01*
G75*
G02*
X214500000Y-100150002I0J249998D01*
G01*
X214500000Y-98849998D01*
G75*
G02*
X214749998Y-98600000I249998J0D01*
G01*
X215575002Y-98600000D01*
G75*
G02*
X215825000Y-98849998I0J-249998D01*
G01*
G37*
D13*
X226040000Y-89400000D03*
D14*
X223500000Y-89400000D03*
D10*
G36*
X236500000Y-95466500D02*
G01*
X232375000Y-95466500D01*
X232375000Y-95050000D01*
X229900000Y-95050000D01*
X229900000Y-94150000D01*
X232375000Y-94150000D01*
X232375000Y-93733500D01*
X236500000Y-93733500D01*
X236500000Y-95466500D01*
G37*
D15*
X231050000Y-93100000D03*
X231050000Y-96100000D03*
D16*
X235100000Y-103710000D03*
X236050000Y-100290000D03*
X234150000Y-100290000D03*
X230200000Y-100300000D03*
X229250000Y-103720000D03*
X231150000Y-103720000D03*
D13*
X239500000Y-97240000D03*
D14*
X239500000Y-94700000D03*
G36*
G01*
X239150001Y-100474999D02*
X239150001Y-101725001D01*
G75*
G02*
X238900002Y-101975000I-249999J0D01*
G01*
X238100000Y-101975000D01*
G75*
G02*
X237850001Y-101725001I0J249999D01*
G01*
X237850001Y-100474999D01*
G75*
G02*
X238100000Y-100225000I249999J0D01*
G01*
X238900002Y-100225000D01*
G75*
G02*
X239150001Y-100474999I0J-249999D01*
G01*
G37*
G36*
G01*
X242250001Y-100474999D02*
X242250001Y-101725001D01*
G75*
G02*
X242000002Y-101975000I-249999J0D01*
G01*
X241200000Y-101975000D01*
G75*
G02*
X240950001Y-101725001I0J249999D01*
G01*
X240950001Y-100474999D01*
G75*
G02*
X241200000Y-100225000I249999J0D01*
G01*
X242000002Y-100225000D01*
G75*
G02*
X242250001Y-100474999I0J-249999D01*
G01*
G37*
G36*
G01*
X240950000Y-104325001D02*
X240950000Y-103074999D01*
G75*
G02*
X241199999Y-102825000I249999J0D01*
G01*
X242000001Y-102825000D01*
G75*
G02*
X242250000Y-103074999I0J-249999D01*
G01*
X242250000Y-104325001D01*
G75*
G02*
X242000001Y-104575000I-249999J0D01*
G01*
X241199999Y-104575000D01*
G75*
G02*
X240950000Y-104325001I0J249999D01*
G01*
G37*
G36*
G01*
X237850000Y-104325001D02*
X237850000Y-103074999D01*
G75*
G02*
X238099999Y-102825000I249999J0D01*
G01*
X238900001Y-102825000D01*
G75*
G02*
X239150000Y-103074999I0J-249999D01*
G01*
X239150000Y-104325001D01*
G75*
G02*
X238900001Y-104575000I-249999J0D01*
G01*
X238099999Y-104575000D01*
G75*
G02*
X237850000Y-104325001I0J249999D01*
G01*
G37*
G36*
G01*
X225100000Y-104325001D02*
X225100000Y-103074999D01*
G75*
G02*
X225349999Y-102825000I249999J0D01*
G01*
X226150001Y-102825000D01*
G75*
G02*
X226400000Y-103074999I0J-249999D01*
G01*
X226400000Y-104325001D01*
G75*
G02*
X226150001Y-104575000I-249999J0D01*
G01*
X225349999Y-104575000D01*
G75*
G02*
X225100000Y-104325001I0J249999D01*
G01*
G37*
G36*
G01*
X222000000Y-104325001D02*
X222000000Y-103074999D01*
G75*
G02*
X222249999Y-102825000I249999J0D01*
G01*
X223050001Y-102825000D01*
G75*
G02*
X223300000Y-103074999I0J-249999D01*
G01*
X223300000Y-104325001D01*
G75*
G02*
X223050001Y-104575000I-249999J0D01*
G01*
X222249999Y-104575000D01*
G75*
G02*
X222000000Y-104325001I0J249999D01*
G01*
G37*
G36*
G01*
X227249998Y-95700000D02*
X228550002Y-95700000D01*
G75*
G02*
X228800000Y-95949998I0J-249998D01*
G01*
X228800000Y-96775002D01*
G75*
G02*
X228550002Y-97025000I-249998J0D01*
G01*
X227249998Y-97025000D01*
G75*
G02*
X227000000Y-96775002I0J249998D01*
G01*
X227000000Y-95949998D01*
G75*
G02*
X227249998Y-95700000I249998J0D01*
G01*
G37*
G36*
G01*
X227249998Y-92575000D02*
X228550002Y-92575000D01*
G75*
G02*
X228800000Y-92824998I0J-249998D01*
G01*
X228800000Y-93650002D01*
G75*
G02*
X228550002Y-93900000I-249998J0D01*
G01*
X227249998Y-93900000D01*
G75*
G02*
X227000000Y-93650002I0J249998D01*
G01*
X227000000Y-92824998D01*
G75*
G02*
X227249998Y-92575000I249998J0D01*
G01*
G37*
G36*
G01*
X237600000Y-90850002D02*
X237600000Y-89549998D01*
G75*
G02*
X237849998Y-89300000I249998J0D01*
G01*
X238675002Y-89300000D01*
G75*
G02*
X238925000Y-89549998I0J-249998D01*
G01*
X238925000Y-90850002D01*
G75*
G02*
X238675002Y-91100000I-249998J0D01*
G01*
X237849998Y-91100000D01*
G75*
G02*
X237600000Y-90850002I0J249998D01*
G01*
G37*
G36*
G01*
X234475000Y-90850002D02*
X234475000Y-89549998D01*
G75*
G02*
X234724998Y-89300000I249998J0D01*
G01*
X235550002Y-89300000D01*
G75*
G02*
X235800000Y-89549998I0J-249998D01*
G01*
X235800000Y-90850002D01*
G75*
G02*
X235550002Y-91100000I-249998J0D01*
G01*
X234724998Y-91100000D01*
G75*
G02*
X234475000Y-90850002I0J249998D01*
G01*
G37*
G36*
G01*
X55205000Y-99000000D02*
X55505000Y-99000000D01*
G75*
G02*
X55655000Y-99150000I0J-150000D01*
G01*
X55655000Y-100600000D01*
G75*
G02*
X55505000Y-100750000I-150000J0D01*
G01*
X55205000Y-100750000D01*
G75*
G02*
X55055000Y-100600000I0J150000D01*
G01*
X55055000Y-99150000D01*
G75*
G02*
X55205000Y-99000000I150000J0D01*
G01*
G37*
G36*
G01*
X56475000Y-99000000D02*
X56775000Y-99000000D01*
G75*
G02*
X56925000Y-99150000I0J-150000D01*
G01*
X56925000Y-100600000D01*
G75*
G02*
X56775000Y-100750000I-150000J0D01*
G01*
X56475000Y-100750000D01*
G75*
G02*
X56325000Y-100600000I0J150000D01*
G01*
X56325000Y-99150000D01*
G75*
G02*
X56475000Y-99000000I150000J0D01*
G01*
G37*
G36*
G01*
X57745000Y-99000000D02*
X58045000Y-99000000D01*
G75*
G02*
X58195000Y-99150000I0J-150000D01*
G01*
X58195000Y-100600000D01*
G75*
G02*
X58045000Y-100750000I-150000J0D01*
G01*
X57745000Y-100750000D01*
G75*
G02*
X57595000Y-100600000I0J150000D01*
G01*
X57595000Y-99150000D01*
G75*
G02*
X57745000Y-99000000I150000J0D01*
G01*
G37*
G36*
G01*
X59015000Y-99000000D02*
X59315000Y-99000000D01*
G75*
G02*
X59465000Y-99150000I0J-150000D01*
G01*
X59465000Y-100600000D01*
G75*
G02*
X59315000Y-100750000I-150000J0D01*
G01*
X59015000Y-100750000D01*
G75*
G02*
X58865000Y-100600000I0J150000D01*
G01*
X58865000Y-99150000D01*
G75*
G02*
X59015000Y-99000000I150000J0D01*
G01*
G37*
G36*
G01*
X60285000Y-99000000D02*
X60585000Y-99000000D01*
G75*
G02*
X60735000Y-99150000I0J-150000D01*
G01*
X60735000Y-100600000D01*
G75*
G02*
X60585000Y-100750000I-150000J0D01*
G01*
X60285000Y-100750000D01*
G75*
G02*
X60135000Y-100600000I0J150000D01*
G01*
X60135000Y-99150000D01*
G75*
G02*
X60285000Y-99000000I150000J0D01*
G01*
G37*
G36*
G01*
X61555000Y-99000000D02*
X61855000Y-99000000D01*
G75*
G02*
X62005000Y-99150000I0J-150000D01*
G01*
X62005000Y-100600000D01*
G75*
G02*
X61855000Y-100750000I-150000J0D01*
G01*
X61555000Y-100750000D01*
G75*
G02*
X61405000Y-100600000I0J150000D01*
G01*
X61405000Y-99150000D01*
G75*
G02*
X61555000Y-99000000I150000J0D01*
G01*
G37*
G36*
G01*
X62825000Y-99000000D02*
X63125000Y-99000000D01*
G75*
G02*
X63275000Y-99150000I0J-150000D01*
G01*
X63275000Y-100600000D01*
G75*
G02*
X63125000Y-100750000I-150000J0D01*
G01*
X62825000Y-100750000D01*
G75*
G02*
X62675000Y-100600000I0J150000D01*
G01*
X62675000Y-99150000D01*
G75*
G02*
X62825000Y-99000000I150000J0D01*
G01*
G37*
G36*
G01*
X64095000Y-99000000D02*
X64395000Y-99000000D01*
G75*
G02*
X64545000Y-99150000I0J-150000D01*
G01*
X64545000Y-100600000D01*
G75*
G02*
X64395000Y-100750000I-150000J0D01*
G01*
X64095000Y-100750000D01*
G75*
G02*
X63945000Y-100600000I0J150000D01*
G01*
X63945000Y-99150000D01*
G75*
G02*
X64095000Y-99000000I150000J0D01*
G01*
G37*
G36*
G01*
X64095000Y-93850000D02*
X64395000Y-93850000D01*
G75*
G02*
X64545000Y-94000000I0J-150000D01*
G01*
X64545000Y-95450000D01*
G75*
G02*
X64395000Y-95600000I-150000J0D01*
G01*
X64095000Y-95600000D01*
G75*
G02*
X63945000Y-95450000I0J150000D01*
G01*
X63945000Y-94000000D01*
G75*
G02*
X64095000Y-93850000I150000J0D01*
G01*
G37*
G36*
G01*
X62825000Y-93850000D02*
X63125000Y-93850000D01*
G75*
G02*
X63275000Y-94000000I0J-150000D01*
G01*
X63275000Y-95450000D01*
G75*
G02*
X63125000Y-95600000I-150000J0D01*
G01*
X62825000Y-95600000D01*
G75*
G02*
X62675000Y-95450000I0J150000D01*
G01*
X62675000Y-94000000D01*
G75*
G02*
X62825000Y-93850000I150000J0D01*
G01*
G37*
G36*
G01*
X61555000Y-93850000D02*
X61855000Y-93850000D01*
G75*
G02*
X62005000Y-94000000I0J-150000D01*
G01*
X62005000Y-95450000D01*
G75*
G02*
X61855000Y-95600000I-150000J0D01*
G01*
X61555000Y-95600000D01*
G75*
G02*
X61405000Y-95450000I0J150000D01*
G01*
X61405000Y-94000000D01*
G75*
G02*
X61555000Y-93850000I150000J0D01*
G01*
G37*
G36*
G01*
X60285000Y-93850000D02*
X60585000Y-93850000D01*
G75*
G02*
X60735000Y-94000000I0J-150000D01*
G01*
X60735000Y-95450000D01*
G75*
G02*
X60585000Y-95600000I-150000J0D01*
G01*
X60285000Y-95600000D01*
G75*
G02*
X60135000Y-95450000I0J150000D01*
G01*
X60135000Y-94000000D01*
G75*
G02*
X60285000Y-93850000I150000J0D01*
G01*
G37*
G36*
G01*
X59015000Y-93850000D02*
X59315000Y-93850000D01*
G75*
G02*
X59465000Y-94000000I0J-150000D01*
G01*
X59465000Y-95450000D01*
G75*
G02*
X59315000Y-95600000I-150000J0D01*
G01*
X59015000Y-95600000D01*
G75*
G02*
X58865000Y-95450000I0J150000D01*
G01*
X58865000Y-94000000D01*
G75*
G02*
X59015000Y-93850000I150000J0D01*
G01*
G37*
G36*
G01*
X57745000Y-93850000D02*
X58045000Y-93850000D01*
G75*
G02*
X58195000Y-94000000I0J-150000D01*
G01*
X58195000Y-95450000D01*
G75*
G02*
X58045000Y-95600000I-150000J0D01*
G01*
X57745000Y-95600000D01*
G75*
G02*
X57595000Y-95450000I0J150000D01*
G01*
X57595000Y-94000000D01*
G75*
G02*
X57745000Y-93850000I150000J0D01*
G01*
G37*
G36*
G01*
X56475000Y-93850000D02*
X56775000Y-93850000D01*
G75*
G02*
X56925000Y-94000000I0J-150000D01*
G01*
X56925000Y-95450000D01*
G75*
G02*
X56775000Y-95600000I-150000J0D01*
G01*
X56475000Y-95600000D01*
G75*
G02*
X56325000Y-95450000I0J150000D01*
G01*
X56325000Y-94000000D01*
G75*
G02*
X56475000Y-93850000I150000J0D01*
G01*
G37*
G36*
G01*
X55205000Y-93850000D02*
X55505000Y-93850000D01*
G75*
G02*
X55655000Y-94000000I0J-150000D01*
G01*
X55655000Y-95450000D01*
G75*
G02*
X55505000Y-95600000I-150000J0D01*
G01*
X55205000Y-95600000D01*
G75*
G02*
X55055000Y-95450000I0J150000D01*
G01*
X55055000Y-94000000D01*
G75*
G02*
X55205000Y-93850000I150000J0D01*
G01*
G37*
G36*
G01*
X71455000Y-99000000D02*
X71755000Y-99000000D01*
G75*
G02*
X71905000Y-99150000I0J-150000D01*
G01*
X71905000Y-100600000D01*
G75*
G02*
X71755000Y-100750000I-150000J0D01*
G01*
X71455000Y-100750000D01*
G75*
G02*
X71305000Y-100600000I0J150000D01*
G01*
X71305000Y-99150000D01*
G75*
G02*
X71455000Y-99000000I150000J0D01*
G01*
G37*
G36*
G01*
X72725000Y-99000000D02*
X73025000Y-99000000D01*
G75*
G02*
X73175000Y-99150000I0J-150000D01*
G01*
X73175000Y-100600000D01*
G75*
G02*
X73025000Y-100750000I-150000J0D01*
G01*
X72725000Y-100750000D01*
G75*
G02*
X72575000Y-100600000I0J150000D01*
G01*
X72575000Y-99150000D01*
G75*
G02*
X72725000Y-99000000I150000J0D01*
G01*
G37*
G36*
G01*
X73995000Y-99000000D02*
X74295000Y-99000000D01*
G75*
G02*
X74445000Y-99150000I0J-150000D01*
G01*
X74445000Y-100600000D01*
G75*
G02*
X74295000Y-100750000I-150000J0D01*
G01*
X73995000Y-100750000D01*
G75*
G02*
X73845000Y-100600000I0J150000D01*
G01*
X73845000Y-99150000D01*
G75*
G02*
X73995000Y-99000000I150000J0D01*
G01*
G37*
G36*
G01*
X75265000Y-99000000D02*
X75565000Y-99000000D01*
G75*
G02*
X75715000Y-99150000I0J-150000D01*
G01*
X75715000Y-100600000D01*
G75*
G02*
X75565000Y-100750000I-150000J0D01*
G01*
X75265000Y-100750000D01*
G75*
G02*
X75115000Y-100600000I0J150000D01*
G01*
X75115000Y-99150000D01*
G75*
G02*
X75265000Y-99000000I150000J0D01*
G01*
G37*
G36*
G01*
X76535000Y-99000000D02*
X76835000Y-99000000D01*
G75*
G02*
X76985000Y-99150000I0J-150000D01*
G01*
X76985000Y-100600000D01*
G75*
G02*
X76835000Y-100750000I-150000J0D01*
G01*
X76535000Y-100750000D01*
G75*
G02*
X76385000Y-100600000I0J150000D01*
G01*
X76385000Y-99150000D01*
G75*
G02*
X76535000Y-99000000I150000J0D01*
G01*
G37*
G36*
G01*
X77805000Y-99000000D02*
X78105000Y-99000000D01*
G75*
G02*
X78255000Y-99150000I0J-150000D01*
G01*
X78255000Y-100600000D01*
G75*
G02*
X78105000Y-100750000I-150000J0D01*
G01*
X77805000Y-100750000D01*
G75*
G02*
X77655000Y-100600000I0J150000D01*
G01*
X77655000Y-99150000D01*
G75*
G02*
X77805000Y-99000000I150000J0D01*
G01*
G37*
G36*
G01*
X79075000Y-99000000D02*
X79375000Y-99000000D01*
G75*
G02*
X79525000Y-99150000I0J-150000D01*
G01*
X79525000Y-100600000D01*
G75*
G02*
X79375000Y-100750000I-150000J0D01*
G01*
X79075000Y-100750000D01*
G75*
G02*
X78925000Y-100600000I0J150000D01*
G01*
X78925000Y-99150000D01*
G75*
G02*
X79075000Y-99000000I150000J0D01*
G01*
G37*
G36*
G01*
X80345000Y-99000000D02*
X80645000Y-99000000D01*
G75*
G02*
X80795000Y-99150000I0J-150000D01*
G01*
X80795000Y-100600000D01*
G75*
G02*
X80645000Y-100750000I-150000J0D01*
G01*
X80345000Y-100750000D01*
G75*
G02*
X80195000Y-100600000I0J150000D01*
G01*
X80195000Y-99150000D01*
G75*
G02*
X80345000Y-99000000I150000J0D01*
G01*
G37*
G36*
G01*
X80345000Y-93850000D02*
X80645000Y-93850000D01*
G75*
G02*
X80795000Y-94000000I0J-150000D01*
G01*
X80795000Y-95450000D01*
G75*
G02*
X80645000Y-95600000I-150000J0D01*
G01*
X80345000Y-95600000D01*
G75*
G02*
X80195000Y-95450000I0J150000D01*
G01*
X80195000Y-94000000D01*
G75*
G02*
X80345000Y-93850000I150000J0D01*
G01*
G37*
G36*
G01*
X79075000Y-93850000D02*
X79375000Y-93850000D01*
G75*
G02*
X79525000Y-94000000I0J-150000D01*
G01*
X79525000Y-95450000D01*
G75*
G02*
X79375000Y-95600000I-150000J0D01*
G01*
X79075000Y-95600000D01*
G75*
G02*
X78925000Y-95450000I0J150000D01*
G01*
X78925000Y-94000000D01*
G75*
G02*
X79075000Y-93850000I150000J0D01*
G01*
G37*
G36*
G01*
X77805000Y-93850000D02*
X78105000Y-93850000D01*
G75*
G02*
X78255000Y-94000000I0J-150000D01*
G01*
X78255000Y-95450000D01*
G75*
G02*
X78105000Y-95600000I-150000J0D01*
G01*
X77805000Y-95600000D01*
G75*
G02*
X77655000Y-95450000I0J150000D01*
G01*
X77655000Y-94000000D01*
G75*
G02*
X77805000Y-93850000I150000J0D01*
G01*
G37*
G36*
G01*
X76535000Y-93850000D02*
X76835000Y-93850000D01*
G75*
G02*
X76985000Y-94000000I0J-150000D01*
G01*
X76985000Y-95450000D01*
G75*
G02*
X76835000Y-95600000I-150000J0D01*
G01*
X76535000Y-95600000D01*
G75*
G02*
X76385000Y-95450000I0J150000D01*
G01*
X76385000Y-94000000D01*
G75*
G02*
X76535000Y-93850000I150000J0D01*
G01*
G37*
G36*
G01*
X75265000Y-93850000D02*
X75565000Y-93850000D01*
G75*
G02*
X75715000Y-94000000I0J-150000D01*
G01*
X75715000Y-95450000D01*
G75*
G02*
X75565000Y-95600000I-150000J0D01*
G01*
X75265000Y-95600000D01*
G75*
G02*
X75115000Y-95450000I0J150000D01*
G01*
X75115000Y-94000000D01*
G75*
G02*
X75265000Y-93850000I150000J0D01*
G01*
G37*
G36*
G01*
X73995000Y-93850000D02*
X74295000Y-93850000D01*
G75*
G02*
X74445000Y-94000000I0J-150000D01*
G01*
X74445000Y-95450000D01*
G75*
G02*
X74295000Y-95600000I-150000J0D01*
G01*
X73995000Y-95600000D01*
G75*
G02*
X73845000Y-95450000I0J150000D01*
G01*
X73845000Y-94000000D01*
G75*
G02*
X73995000Y-93850000I150000J0D01*
G01*
G37*
G36*
G01*
X72725000Y-93850000D02*
X73025000Y-93850000D01*
G75*
G02*
X73175000Y-94000000I0J-150000D01*
G01*
X73175000Y-95450000D01*
G75*
G02*
X73025000Y-95600000I-150000J0D01*
G01*
X72725000Y-95600000D01*
G75*
G02*
X72575000Y-95450000I0J150000D01*
G01*
X72575000Y-94000000D01*
G75*
G02*
X72725000Y-93850000I150000J0D01*
G01*
G37*
G36*
G01*
X71455000Y-93850000D02*
X71755000Y-93850000D01*
G75*
G02*
X71905000Y-94000000I0J-150000D01*
G01*
X71905000Y-95450000D01*
G75*
G02*
X71755000Y-95600000I-150000J0D01*
G01*
X71455000Y-95600000D01*
G75*
G02*
X71305000Y-95450000I0J150000D01*
G01*
X71305000Y-94000000D01*
G75*
G02*
X71455000Y-93850000I150000J0D01*
G01*
G37*
G36*
G01*
X91255000Y-99000000D02*
X91555000Y-99000000D01*
G75*
G02*
X91705000Y-99150000I0J-150000D01*
G01*
X91705000Y-100600000D01*
G75*
G02*
X91555000Y-100750000I-150000J0D01*
G01*
X91255000Y-100750000D01*
G75*
G02*
X91105000Y-100600000I0J150000D01*
G01*
X91105000Y-99150000D01*
G75*
G02*
X91255000Y-99000000I150000J0D01*
G01*
G37*
G36*
G01*
X92525000Y-99000000D02*
X92825000Y-99000000D01*
G75*
G02*
X92975000Y-99150000I0J-150000D01*
G01*
X92975000Y-100600000D01*
G75*
G02*
X92825000Y-100750000I-150000J0D01*
G01*
X92525000Y-100750000D01*
G75*
G02*
X92375000Y-100600000I0J150000D01*
G01*
X92375000Y-99150000D01*
G75*
G02*
X92525000Y-99000000I150000J0D01*
G01*
G37*
G36*
G01*
X93795000Y-99000000D02*
X94095000Y-99000000D01*
G75*
G02*
X94245000Y-99150000I0J-150000D01*
G01*
X94245000Y-100600000D01*
G75*
G02*
X94095000Y-100750000I-150000J0D01*
G01*
X93795000Y-100750000D01*
G75*
G02*
X93645000Y-100600000I0J150000D01*
G01*
X93645000Y-99150000D01*
G75*
G02*
X93795000Y-99000000I150000J0D01*
G01*
G37*
G36*
G01*
X95065000Y-99000000D02*
X95365000Y-99000000D01*
G75*
G02*
X95515000Y-99150000I0J-150000D01*
G01*
X95515000Y-100600000D01*
G75*
G02*
X95365000Y-100750000I-150000J0D01*
G01*
X95065000Y-100750000D01*
G75*
G02*
X94915000Y-100600000I0J150000D01*
G01*
X94915000Y-99150000D01*
G75*
G02*
X95065000Y-99000000I150000J0D01*
G01*
G37*
G36*
G01*
X96335000Y-99000000D02*
X96635000Y-99000000D01*
G75*
G02*
X96785000Y-99150000I0J-150000D01*
G01*
X96785000Y-100600000D01*
G75*
G02*
X96635000Y-100750000I-150000J0D01*
G01*
X96335000Y-100750000D01*
G75*
G02*
X96185000Y-100600000I0J150000D01*
G01*
X96185000Y-99150000D01*
G75*
G02*
X96335000Y-99000000I150000J0D01*
G01*
G37*
G36*
G01*
X97605000Y-99000000D02*
X97905000Y-99000000D01*
G75*
G02*
X98055000Y-99150000I0J-150000D01*
G01*
X98055000Y-100600000D01*
G75*
G02*
X97905000Y-100750000I-150000J0D01*
G01*
X97605000Y-100750000D01*
G75*
G02*
X97455000Y-100600000I0J150000D01*
G01*
X97455000Y-99150000D01*
G75*
G02*
X97605000Y-99000000I150000J0D01*
G01*
G37*
G36*
G01*
X98875000Y-99000000D02*
X99175000Y-99000000D01*
G75*
G02*
X99325000Y-99150000I0J-150000D01*
G01*
X99325000Y-100600000D01*
G75*
G02*
X99175000Y-100750000I-150000J0D01*
G01*
X98875000Y-100750000D01*
G75*
G02*
X98725000Y-100600000I0J150000D01*
G01*
X98725000Y-99150000D01*
G75*
G02*
X98875000Y-99000000I150000J0D01*
G01*
G37*
G36*
G01*
X100145000Y-99000000D02*
X100445000Y-99000000D01*
G75*
G02*
X100595000Y-99150000I0J-150000D01*
G01*
X100595000Y-100600000D01*
G75*
G02*
X100445000Y-100750000I-150000J0D01*
G01*
X100145000Y-100750000D01*
G75*
G02*
X99995000Y-100600000I0J150000D01*
G01*
X99995000Y-99150000D01*
G75*
G02*
X100145000Y-99000000I150000J0D01*
G01*
G37*
G36*
G01*
X100145000Y-93850000D02*
X100445000Y-93850000D01*
G75*
G02*
X100595000Y-94000000I0J-150000D01*
G01*
X100595000Y-95450000D01*
G75*
G02*
X100445000Y-95600000I-150000J0D01*
G01*
X100145000Y-95600000D01*
G75*
G02*
X99995000Y-95450000I0J150000D01*
G01*
X99995000Y-94000000D01*
G75*
G02*
X100145000Y-93850000I150000J0D01*
G01*
G37*
G36*
G01*
X98875000Y-93850000D02*
X99175000Y-93850000D01*
G75*
G02*
X99325000Y-94000000I0J-150000D01*
G01*
X99325000Y-95450000D01*
G75*
G02*
X99175000Y-95600000I-150000J0D01*
G01*
X98875000Y-95600000D01*
G75*
G02*
X98725000Y-95450000I0J150000D01*
G01*
X98725000Y-94000000D01*
G75*
G02*
X98875000Y-93850000I150000J0D01*
G01*
G37*
G36*
G01*
X97605000Y-93850000D02*
X97905000Y-93850000D01*
G75*
G02*
X98055000Y-94000000I0J-150000D01*
G01*
X98055000Y-95450000D01*
G75*
G02*
X97905000Y-95600000I-150000J0D01*
G01*
X97605000Y-95600000D01*
G75*
G02*
X97455000Y-95450000I0J150000D01*
G01*
X97455000Y-94000000D01*
G75*
G02*
X97605000Y-93850000I150000J0D01*
G01*
G37*
G36*
G01*
X96335000Y-93850000D02*
X96635000Y-93850000D01*
G75*
G02*
X96785000Y-94000000I0J-150000D01*
G01*
X96785000Y-95450000D01*
G75*
G02*
X96635000Y-95600000I-150000J0D01*
G01*
X96335000Y-95600000D01*
G75*
G02*
X96185000Y-95450000I0J150000D01*
G01*
X96185000Y-94000000D01*
G75*
G02*
X96335000Y-93850000I150000J0D01*
G01*
G37*
G36*
G01*
X95065000Y-93850000D02*
X95365000Y-93850000D01*
G75*
G02*
X95515000Y-94000000I0J-150000D01*
G01*
X95515000Y-95450000D01*
G75*
G02*
X95365000Y-95600000I-150000J0D01*
G01*
X95065000Y-95600000D01*
G75*
G02*
X94915000Y-95450000I0J150000D01*
G01*
X94915000Y-94000000D01*
G75*
G02*
X95065000Y-93850000I150000J0D01*
G01*
G37*
G36*
G01*
X93795000Y-93850000D02*
X94095000Y-93850000D01*
G75*
G02*
X94245000Y-94000000I0J-150000D01*
G01*
X94245000Y-95450000D01*
G75*
G02*
X94095000Y-95600000I-150000J0D01*
G01*
X93795000Y-95600000D01*
G75*
G02*
X93645000Y-95450000I0J150000D01*
G01*
X93645000Y-94000000D01*
G75*
G02*
X93795000Y-93850000I150000J0D01*
G01*
G37*
G36*
G01*
X92525000Y-93850000D02*
X92825000Y-93850000D01*
G75*
G02*
X92975000Y-94000000I0J-150000D01*
G01*
X92975000Y-95450000D01*
G75*
G02*
X92825000Y-95600000I-150000J0D01*
G01*
X92525000Y-95600000D01*
G75*
G02*
X92375000Y-95450000I0J150000D01*
G01*
X92375000Y-94000000D01*
G75*
G02*
X92525000Y-93850000I150000J0D01*
G01*
G37*
G36*
G01*
X91255000Y-93850000D02*
X91555000Y-93850000D01*
G75*
G02*
X91705000Y-94000000I0J-150000D01*
G01*
X91705000Y-95450000D01*
G75*
G02*
X91555000Y-95600000I-150000J0D01*
G01*
X91255000Y-95600000D01*
G75*
G02*
X91105000Y-95450000I0J150000D01*
G01*
X91105000Y-94000000D01*
G75*
G02*
X91255000Y-93850000I150000J0D01*
G01*
G37*
G36*
G01*
X110205000Y-99000000D02*
X110505000Y-99000000D01*
G75*
G02*
X110655000Y-99150000I0J-150000D01*
G01*
X110655000Y-100600000D01*
G75*
G02*
X110505000Y-100750000I-150000J0D01*
G01*
X110205000Y-100750000D01*
G75*
G02*
X110055000Y-100600000I0J150000D01*
G01*
X110055000Y-99150000D01*
G75*
G02*
X110205000Y-99000000I150000J0D01*
G01*
G37*
G36*
G01*
X111475000Y-99000000D02*
X111775000Y-99000000D01*
G75*
G02*
X111925000Y-99150000I0J-150000D01*
G01*
X111925000Y-100600000D01*
G75*
G02*
X111775000Y-100750000I-150000J0D01*
G01*
X111475000Y-100750000D01*
G75*
G02*
X111325000Y-100600000I0J150000D01*
G01*
X111325000Y-99150000D01*
G75*
G02*
X111475000Y-99000000I150000J0D01*
G01*
G37*
G36*
G01*
X112745000Y-99000000D02*
X113045000Y-99000000D01*
G75*
G02*
X113195000Y-99150000I0J-150000D01*
G01*
X113195000Y-100600000D01*
G75*
G02*
X113045000Y-100750000I-150000J0D01*
G01*
X112745000Y-100750000D01*
G75*
G02*
X112595000Y-100600000I0J150000D01*
G01*
X112595000Y-99150000D01*
G75*
G02*
X112745000Y-99000000I150000J0D01*
G01*
G37*
G36*
G01*
X114015000Y-99000000D02*
X114315000Y-99000000D01*
G75*
G02*
X114465000Y-99150000I0J-150000D01*
G01*
X114465000Y-100600000D01*
G75*
G02*
X114315000Y-100750000I-150000J0D01*
G01*
X114015000Y-100750000D01*
G75*
G02*
X113865000Y-100600000I0J150000D01*
G01*
X113865000Y-99150000D01*
G75*
G02*
X114015000Y-99000000I150000J0D01*
G01*
G37*
G36*
G01*
X115285000Y-99000000D02*
X115585000Y-99000000D01*
G75*
G02*
X115735000Y-99150000I0J-150000D01*
G01*
X115735000Y-100600000D01*
G75*
G02*
X115585000Y-100750000I-150000J0D01*
G01*
X115285000Y-100750000D01*
G75*
G02*
X115135000Y-100600000I0J150000D01*
G01*
X115135000Y-99150000D01*
G75*
G02*
X115285000Y-99000000I150000J0D01*
G01*
G37*
G36*
G01*
X116555000Y-99000000D02*
X116855000Y-99000000D01*
G75*
G02*
X117005000Y-99150000I0J-150000D01*
G01*
X117005000Y-100600000D01*
G75*
G02*
X116855000Y-100750000I-150000J0D01*
G01*
X116555000Y-100750000D01*
G75*
G02*
X116405000Y-100600000I0J150000D01*
G01*
X116405000Y-99150000D01*
G75*
G02*
X116555000Y-99000000I150000J0D01*
G01*
G37*
G36*
G01*
X117825000Y-99000000D02*
X118125000Y-99000000D01*
G75*
G02*
X118275000Y-99150000I0J-150000D01*
G01*
X118275000Y-100600000D01*
G75*
G02*
X118125000Y-100750000I-150000J0D01*
G01*
X117825000Y-100750000D01*
G75*
G02*
X117675000Y-100600000I0J150000D01*
G01*
X117675000Y-99150000D01*
G75*
G02*
X117825000Y-99000000I150000J0D01*
G01*
G37*
G36*
G01*
X119095000Y-99000000D02*
X119395000Y-99000000D01*
G75*
G02*
X119545000Y-99150000I0J-150000D01*
G01*
X119545000Y-100600000D01*
G75*
G02*
X119395000Y-100750000I-150000J0D01*
G01*
X119095000Y-100750000D01*
G75*
G02*
X118945000Y-100600000I0J150000D01*
G01*
X118945000Y-99150000D01*
G75*
G02*
X119095000Y-99000000I150000J0D01*
G01*
G37*
G36*
G01*
X119095000Y-93850000D02*
X119395000Y-93850000D01*
G75*
G02*
X119545000Y-94000000I0J-150000D01*
G01*
X119545000Y-95450000D01*
G75*
G02*
X119395000Y-95600000I-150000J0D01*
G01*
X119095000Y-95600000D01*
G75*
G02*
X118945000Y-95450000I0J150000D01*
G01*
X118945000Y-94000000D01*
G75*
G02*
X119095000Y-93850000I150000J0D01*
G01*
G37*
G36*
G01*
X117825000Y-93850000D02*
X118125000Y-93850000D01*
G75*
G02*
X118275000Y-94000000I0J-150000D01*
G01*
X118275000Y-95450000D01*
G75*
G02*
X118125000Y-95600000I-150000J0D01*
G01*
X117825000Y-95600000D01*
G75*
G02*
X117675000Y-95450000I0J150000D01*
G01*
X117675000Y-94000000D01*
G75*
G02*
X117825000Y-93850000I150000J0D01*
G01*
G37*
G36*
G01*
X116555000Y-93850000D02*
X116855000Y-93850000D01*
G75*
G02*
X117005000Y-94000000I0J-150000D01*
G01*
X117005000Y-95450000D01*
G75*
G02*
X116855000Y-95600000I-150000J0D01*
G01*
X116555000Y-95600000D01*
G75*
G02*
X116405000Y-95450000I0J150000D01*
G01*
X116405000Y-94000000D01*
G75*
G02*
X116555000Y-93850000I150000J0D01*
G01*
G37*
G36*
G01*
X115285000Y-93850000D02*
X115585000Y-93850000D01*
G75*
G02*
X115735000Y-94000000I0J-150000D01*
G01*
X115735000Y-95450000D01*
G75*
G02*
X115585000Y-95600000I-150000J0D01*
G01*
X115285000Y-95600000D01*
G75*
G02*
X115135000Y-95450000I0J150000D01*
G01*
X115135000Y-94000000D01*
G75*
G02*
X115285000Y-93850000I150000J0D01*
G01*
G37*
G36*
G01*
X114015000Y-93850000D02*
X114315000Y-93850000D01*
G75*
G02*
X114465000Y-94000000I0J-150000D01*
G01*
X114465000Y-95450000D01*
G75*
G02*
X114315000Y-95600000I-150000J0D01*
G01*
X114015000Y-95600000D01*
G75*
G02*
X113865000Y-95450000I0J150000D01*
G01*
X113865000Y-94000000D01*
G75*
G02*
X114015000Y-93850000I150000J0D01*
G01*
G37*
G36*
G01*
X112745000Y-93850000D02*
X113045000Y-93850000D01*
G75*
G02*
X113195000Y-94000000I0J-150000D01*
G01*
X113195000Y-95450000D01*
G75*
G02*
X113045000Y-95600000I-150000J0D01*
G01*
X112745000Y-95600000D01*
G75*
G02*
X112595000Y-95450000I0J150000D01*
G01*
X112595000Y-94000000D01*
G75*
G02*
X112745000Y-93850000I150000J0D01*
G01*
G37*
G36*
G01*
X111475000Y-93850000D02*
X111775000Y-93850000D01*
G75*
G02*
X111925000Y-94000000I0J-150000D01*
G01*
X111925000Y-95450000D01*
G75*
G02*
X111775000Y-95600000I-150000J0D01*
G01*
X111475000Y-95600000D01*
G75*
G02*
X111325000Y-95450000I0J150000D01*
G01*
X111325000Y-94000000D01*
G75*
G02*
X111475000Y-93850000I150000J0D01*
G01*
G37*
G36*
G01*
X110205000Y-93850000D02*
X110505000Y-93850000D01*
G75*
G02*
X110655000Y-94000000I0J-150000D01*
G01*
X110655000Y-95450000D01*
G75*
G02*
X110505000Y-95600000I-150000J0D01*
G01*
X110205000Y-95600000D01*
G75*
G02*
X110055000Y-95450000I0J150000D01*
G01*
X110055000Y-94000000D01*
G75*
G02*
X110205000Y-93850000I150000J0D01*
G01*
G37*
G36*
G01*
X129005000Y-99100000D02*
X129305000Y-99100000D01*
G75*
G02*
X129455000Y-99250000I0J-150000D01*
G01*
X129455000Y-100700000D01*
G75*
G02*
X129305000Y-100850000I-150000J0D01*
G01*
X129005000Y-100850000D01*
G75*
G02*
X128855000Y-100700000I0J150000D01*
G01*
X128855000Y-99250000D01*
G75*
G02*
X129005000Y-99100000I150000J0D01*
G01*
G37*
G36*
G01*
X130275000Y-99100000D02*
X130575000Y-99100000D01*
G75*
G02*
X130725000Y-99250000I0J-150000D01*
G01*
X130725000Y-100700000D01*
G75*
G02*
X130575000Y-100850000I-150000J0D01*
G01*
X130275000Y-100850000D01*
G75*
G02*
X130125000Y-100700000I0J150000D01*
G01*
X130125000Y-99250000D01*
G75*
G02*
X130275000Y-99100000I150000J0D01*
G01*
G37*
G36*
G01*
X131545000Y-99100000D02*
X131845000Y-99100000D01*
G75*
G02*
X131995000Y-99250000I0J-150000D01*
G01*
X131995000Y-100700000D01*
G75*
G02*
X131845000Y-100850000I-150000J0D01*
G01*
X131545000Y-100850000D01*
G75*
G02*
X131395000Y-100700000I0J150000D01*
G01*
X131395000Y-99250000D01*
G75*
G02*
X131545000Y-99100000I150000J0D01*
G01*
G37*
G36*
G01*
X132815000Y-99100000D02*
X133115000Y-99100000D01*
G75*
G02*
X133265000Y-99250000I0J-150000D01*
G01*
X133265000Y-100700000D01*
G75*
G02*
X133115000Y-100850000I-150000J0D01*
G01*
X132815000Y-100850000D01*
G75*
G02*
X132665000Y-100700000I0J150000D01*
G01*
X132665000Y-99250000D01*
G75*
G02*
X132815000Y-99100000I150000J0D01*
G01*
G37*
G36*
G01*
X134085000Y-99100000D02*
X134385000Y-99100000D01*
G75*
G02*
X134535000Y-99250000I0J-150000D01*
G01*
X134535000Y-100700000D01*
G75*
G02*
X134385000Y-100850000I-150000J0D01*
G01*
X134085000Y-100850000D01*
G75*
G02*
X133935000Y-100700000I0J150000D01*
G01*
X133935000Y-99250000D01*
G75*
G02*
X134085000Y-99100000I150000J0D01*
G01*
G37*
G36*
G01*
X135355000Y-99100000D02*
X135655000Y-99100000D01*
G75*
G02*
X135805000Y-99250000I0J-150000D01*
G01*
X135805000Y-100700000D01*
G75*
G02*
X135655000Y-100850000I-150000J0D01*
G01*
X135355000Y-100850000D01*
G75*
G02*
X135205000Y-100700000I0J150000D01*
G01*
X135205000Y-99250000D01*
G75*
G02*
X135355000Y-99100000I150000J0D01*
G01*
G37*
G36*
G01*
X136625000Y-99100000D02*
X136925000Y-99100000D01*
G75*
G02*
X137075000Y-99250000I0J-150000D01*
G01*
X137075000Y-100700000D01*
G75*
G02*
X136925000Y-100850000I-150000J0D01*
G01*
X136625000Y-100850000D01*
G75*
G02*
X136475000Y-100700000I0J150000D01*
G01*
X136475000Y-99250000D01*
G75*
G02*
X136625000Y-99100000I150000J0D01*
G01*
G37*
G36*
G01*
X137895000Y-99100000D02*
X138195000Y-99100000D01*
G75*
G02*
X138345000Y-99250000I0J-150000D01*
G01*
X138345000Y-100700000D01*
G75*
G02*
X138195000Y-100850000I-150000J0D01*
G01*
X137895000Y-100850000D01*
G75*
G02*
X137745000Y-100700000I0J150000D01*
G01*
X137745000Y-99250000D01*
G75*
G02*
X137895000Y-99100000I150000J0D01*
G01*
G37*
G36*
G01*
X137895000Y-93950000D02*
X138195000Y-93950000D01*
G75*
G02*
X138345000Y-94100000I0J-150000D01*
G01*
X138345000Y-95550000D01*
G75*
G02*
X138195000Y-95700000I-150000J0D01*
G01*
X137895000Y-95700000D01*
G75*
G02*
X137745000Y-95550000I0J150000D01*
G01*
X137745000Y-94100000D01*
G75*
G02*
X137895000Y-93950000I150000J0D01*
G01*
G37*
G36*
G01*
X136625000Y-93950000D02*
X136925000Y-93950000D01*
G75*
G02*
X137075000Y-94100000I0J-150000D01*
G01*
X137075000Y-95550000D01*
G75*
G02*
X136925000Y-95700000I-150000J0D01*
G01*
X136625000Y-95700000D01*
G75*
G02*
X136475000Y-95550000I0J150000D01*
G01*
X136475000Y-94100000D01*
G75*
G02*
X136625000Y-93950000I150000J0D01*
G01*
G37*
G36*
G01*
X135355000Y-93950000D02*
X135655000Y-93950000D01*
G75*
G02*
X135805000Y-94100000I0J-150000D01*
G01*
X135805000Y-95550000D01*
G75*
G02*
X135655000Y-95700000I-150000J0D01*
G01*
X135355000Y-95700000D01*
G75*
G02*
X135205000Y-95550000I0J150000D01*
G01*
X135205000Y-94100000D01*
G75*
G02*
X135355000Y-93950000I150000J0D01*
G01*
G37*
G36*
G01*
X134085000Y-93950000D02*
X134385000Y-93950000D01*
G75*
G02*
X134535000Y-94100000I0J-150000D01*
G01*
X134535000Y-95550000D01*
G75*
G02*
X134385000Y-95700000I-150000J0D01*
G01*
X134085000Y-95700000D01*
G75*
G02*
X133935000Y-95550000I0J150000D01*
G01*
X133935000Y-94100000D01*
G75*
G02*
X134085000Y-93950000I150000J0D01*
G01*
G37*
G36*
G01*
X132815000Y-93950000D02*
X133115000Y-93950000D01*
G75*
G02*
X133265000Y-94100000I0J-150000D01*
G01*
X133265000Y-95550000D01*
G75*
G02*
X133115000Y-95700000I-150000J0D01*
G01*
X132815000Y-95700000D01*
G75*
G02*
X132665000Y-95550000I0J150000D01*
G01*
X132665000Y-94100000D01*
G75*
G02*
X132815000Y-93950000I150000J0D01*
G01*
G37*
G36*
G01*
X131545000Y-93950000D02*
X131845000Y-93950000D01*
G75*
G02*
X131995000Y-94100000I0J-150000D01*
G01*
X131995000Y-95550000D01*
G75*
G02*
X131845000Y-95700000I-150000J0D01*
G01*
X131545000Y-95700000D01*
G75*
G02*
X131395000Y-95550000I0J150000D01*
G01*
X131395000Y-94100000D01*
G75*
G02*
X131545000Y-93950000I150000J0D01*
G01*
G37*
G36*
G01*
X130275000Y-93950000D02*
X130575000Y-93950000D01*
G75*
G02*
X130725000Y-94100000I0J-150000D01*
G01*
X130725000Y-95550000D01*
G75*
G02*
X130575000Y-95700000I-150000J0D01*
G01*
X130275000Y-95700000D01*
G75*
G02*
X130125000Y-95550000I0J150000D01*
G01*
X130125000Y-94100000D01*
G75*
G02*
X130275000Y-93950000I150000J0D01*
G01*
G37*
G36*
G01*
X129005000Y-93950000D02*
X129305000Y-93950000D01*
G75*
G02*
X129455000Y-94100000I0J-150000D01*
G01*
X129455000Y-95550000D01*
G75*
G02*
X129305000Y-95700000I-150000J0D01*
G01*
X129005000Y-95700000D01*
G75*
G02*
X128855000Y-95550000I0J150000D01*
G01*
X128855000Y-94100000D01*
G75*
G02*
X129005000Y-93950000I150000J0D01*
G01*
G37*
G36*
G01*
X150755000Y-98900000D02*
X151055000Y-98900000D01*
G75*
G02*
X151205000Y-99050000I0J-150000D01*
G01*
X151205000Y-100500000D01*
G75*
G02*
X151055000Y-100650000I-150000J0D01*
G01*
X150755000Y-100650000D01*
G75*
G02*
X150605000Y-100500000I0J150000D01*
G01*
X150605000Y-99050000D01*
G75*
G02*
X150755000Y-98900000I150000J0D01*
G01*
G37*
G36*
G01*
X152025000Y-98900000D02*
X152325000Y-98900000D01*
G75*
G02*
X152475000Y-99050000I0J-150000D01*
G01*
X152475000Y-100500000D01*
G75*
G02*
X152325000Y-100650000I-150000J0D01*
G01*
X152025000Y-100650000D01*
G75*
G02*
X151875000Y-100500000I0J150000D01*
G01*
X151875000Y-99050000D01*
G75*
G02*
X152025000Y-98900000I150000J0D01*
G01*
G37*
G36*
G01*
X153295000Y-98900000D02*
X153595000Y-98900000D01*
G75*
G02*
X153745000Y-99050000I0J-150000D01*
G01*
X153745000Y-100500000D01*
G75*
G02*
X153595000Y-100650000I-150000J0D01*
G01*
X153295000Y-100650000D01*
G75*
G02*
X153145000Y-100500000I0J150000D01*
G01*
X153145000Y-99050000D01*
G75*
G02*
X153295000Y-98900000I150000J0D01*
G01*
G37*
G36*
G01*
X154565000Y-98900000D02*
X154865000Y-98900000D01*
G75*
G02*
X155015000Y-99050000I0J-150000D01*
G01*
X155015000Y-100500000D01*
G75*
G02*
X154865000Y-100650000I-150000J0D01*
G01*
X154565000Y-100650000D01*
G75*
G02*
X154415000Y-100500000I0J150000D01*
G01*
X154415000Y-99050000D01*
G75*
G02*
X154565000Y-98900000I150000J0D01*
G01*
G37*
G36*
G01*
X155835000Y-98900000D02*
X156135000Y-98900000D01*
G75*
G02*
X156285000Y-99050000I0J-150000D01*
G01*
X156285000Y-100500000D01*
G75*
G02*
X156135000Y-100650000I-150000J0D01*
G01*
X155835000Y-100650000D01*
G75*
G02*
X155685000Y-100500000I0J150000D01*
G01*
X155685000Y-99050000D01*
G75*
G02*
X155835000Y-98900000I150000J0D01*
G01*
G37*
G36*
G01*
X157105000Y-98900000D02*
X157405000Y-98900000D01*
G75*
G02*
X157555000Y-99050000I0J-150000D01*
G01*
X157555000Y-100500000D01*
G75*
G02*
X157405000Y-100650000I-150000J0D01*
G01*
X157105000Y-100650000D01*
G75*
G02*
X156955000Y-100500000I0J150000D01*
G01*
X156955000Y-99050000D01*
G75*
G02*
X157105000Y-98900000I150000J0D01*
G01*
G37*
G36*
G01*
X158375000Y-98900000D02*
X158675000Y-98900000D01*
G75*
G02*
X158825000Y-99050000I0J-150000D01*
G01*
X158825000Y-100500000D01*
G75*
G02*
X158675000Y-100650000I-150000J0D01*
G01*
X158375000Y-100650000D01*
G75*
G02*
X158225000Y-100500000I0J150000D01*
G01*
X158225000Y-99050000D01*
G75*
G02*
X158375000Y-98900000I150000J0D01*
G01*
G37*
G36*
G01*
X159645000Y-98900000D02*
X159945000Y-98900000D01*
G75*
G02*
X160095000Y-99050000I0J-150000D01*
G01*
X160095000Y-100500000D01*
G75*
G02*
X159945000Y-100650000I-150000J0D01*
G01*
X159645000Y-100650000D01*
G75*
G02*
X159495000Y-100500000I0J150000D01*
G01*
X159495000Y-99050000D01*
G75*
G02*
X159645000Y-98900000I150000J0D01*
G01*
G37*
G36*
G01*
X159645000Y-93750000D02*
X159945000Y-93750000D01*
G75*
G02*
X160095000Y-93900000I0J-150000D01*
G01*
X160095000Y-95350000D01*
G75*
G02*
X159945000Y-95500000I-150000J0D01*
G01*
X159645000Y-95500000D01*
G75*
G02*
X159495000Y-95350000I0J150000D01*
G01*
X159495000Y-93900000D01*
G75*
G02*
X159645000Y-93750000I150000J0D01*
G01*
G37*
G36*
G01*
X158375000Y-93750000D02*
X158675000Y-93750000D01*
G75*
G02*
X158825000Y-93900000I0J-150000D01*
G01*
X158825000Y-95350000D01*
G75*
G02*
X158675000Y-95500000I-150000J0D01*
G01*
X158375000Y-95500000D01*
G75*
G02*
X158225000Y-95350000I0J150000D01*
G01*
X158225000Y-93900000D01*
G75*
G02*
X158375000Y-93750000I150000J0D01*
G01*
G37*
G36*
G01*
X157105000Y-93750000D02*
X157405000Y-93750000D01*
G75*
G02*
X157555000Y-93900000I0J-150000D01*
G01*
X157555000Y-95350000D01*
G75*
G02*
X157405000Y-95500000I-150000J0D01*
G01*
X157105000Y-95500000D01*
G75*
G02*
X156955000Y-95350000I0J150000D01*
G01*
X156955000Y-93900000D01*
G75*
G02*
X157105000Y-93750000I150000J0D01*
G01*
G37*
G36*
G01*
X155835000Y-93750000D02*
X156135000Y-93750000D01*
G75*
G02*
X156285000Y-93900000I0J-150000D01*
G01*
X156285000Y-95350000D01*
G75*
G02*
X156135000Y-95500000I-150000J0D01*
G01*
X155835000Y-95500000D01*
G75*
G02*
X155685000Y-95350000I0J150000D01*
G01*
X155685000Y-93900000D01*
G75*
G02*
X155835000Y-93750000I150000J0D01*
G01*
G37*
G36*
G01*
X154565000Y-93750000D02*
X154865000Y-93750000D01*
G75*
G02*
X155015000Y-93900000I0J-150000D01*
G01*
X155015000Y-95350000D01*
G75*
G02*
X154865000Y-95500000I-150000J0D01*
G01*
X154565000Y-95500000D01*
G75*
G02*
X154415000Y-95350000I0J150000D01*
G01*
X154415000Y-93900000D01*
G75*
G02*
X154565000Y-93750000I150000J0D01*
G01*
G37*
G36*
G01*
X153295000Y-93750000D02*
X153595000Y-93750000D01*
G75*
G02*
X153745000Y-93900000I0J-150000D01*
G01*
X153745000Y-95350000D01*
G75*
G02*
X153595000Y-95500000I-150000J0D01*
G01*
X153295000Y-95500000D01*
G75*
G02*
X153145000Y-95350000I0J150000D01*
G01*
X153145000Y-93900000D01*
G75*
G02*
X153295000Y-93750000I150000J0D01*
G01*
G37*
G36*
G01*
X152025000Y-93750000D02*
X152325000Y-93750000D01*
G75*
G02*
X152475000Y-93900000I0J-150000D01*
G01*
X152475000Y-95350000D01*
G75*
G02*
X152325000Y-95500000I-150000J0D01*
G01*
X152025000Y-95500000D01*
G75*
G02*
X151875000Y-95350000I0J150000D01*
G01*
X151875000Y-93900000D01*
G75*
G02*
X152025000Y-93750000I150000J0D01*
G01*
G37*
G36*
G01*
X150755000Y-93750000D02*
X151055000Y-93750000D01*
G75*
G02*
X151205000Y-93900000I0J-150000D01*
G01*
X151205000Y-95350000D01*
G75*
G02*
X151055000Y-95500000I-150000J0D01*
G01*
X150755000Y-95500000D01*
G75*
G02*
X150605000Y-95350000I0J150000D01*
G01*
X150605000Y-93900000D01*
G75*
G02*
X150755000Y-93750000I150000J0D01*
G01*
G37*
G36*
G01*
X165755000Y-99000000D02*
X166055000Y-99000000D01*
G75*
G02*
X166205000Y-99150000I0J-150000D01*
G01*
X166205000Y-100600000D01*
G75*
G02*
X166055000Y-100750000I-150000J0D01*
G01*
X165755000Y-100750000D01*
G75*
G02*
X165605000Y-100600000I0J150000D01*
G01*
X165605000Y-99150000D01*
G75*
G02*
X165755000Y-99000000I150000J0D01*
G01*
G37*
G36*
G01*
X167025000Y-99000000D02*
X167325000Y-99000000D01*
G75*
G02*
X167475000Y-99150000I0J-150000D01*
G01*
X167475000Y-100600000D01*
G75*
G02*
X167325000Y-100750000I-150000J0D01*
G01*
X167025000Y-100750000D01*
G75*
G02*
X166875000Y-100600000I0J150000D01*
G01*
X166875000Y-99150000D01*
G75*
G02*
X167025000Y-99000000I150000J0D01*
G01*
G37*
G36*
G01*
X168295000Y-99000000D02*
X168595000Y-99000000D01*
G75*
G02*
X168745000Y-99150000I0J-150000D01*
G01*
X168745000Y-100600000D01*
G75*
G02*
X168595000Y-100750000I-150000J0D01*
G01*
X168295000Y-100750000D01*
G75*
G02*
X168145000Y-100600000I0J150000D01*
G01*
X168145000Y-99150000D01*
G75*
G02*
X168295000Y-99000000I150000J0D01*
G01*
G37*
G36*
G01*
X169565000Y-99000000D02*
X169865000Y-99000000D01*
G75*
G02*
X170015000Y-99150000I0J-150000D01*
G01*
X170015000Y-100600000D01*
G75*
G02*
X169865000Y-100750000I-150000J0D01*
G01*
X169565000Y-100750000D01*
G75*
G02*
X169415000Y-100600000I0J150000D01*
G01*
X169415000Y-99150000D01*
G75*
G02*
X169565000Y-99000000I150000J0D01*
G01*
G37*
G36*
G01*
X170835000Y-99000000D02*
X171135000Y-99000000D01*
G75*
G02*
X171285000Y-99150000I0J-150000D01*
G01*
X171285000Y-100600000D01*
G75*
G02*
X171135000Y-100750000I-150000J0D01*
G01*
X170835000Y-100750000D01*
G75*
G02*
X170685000Y-100600000I0J150000D01*
G01*
X170685000Y-99150000D01*
G75*
G02*
X170835000Y-99000000I150000J0D01*
G01*
G37*
G36*
G01*
X172105000Y-99000000D02*
X172405000Y-99000000D01*
G75*
G02*
X172555000Y-99150000I0J-150000D01*
G01*
X172555000Y-100600000D01*
G75*
G02*
X172405000Y-100750000I-150000J0D01*
G01*
X172105000Y-100750000D01*
G75*
G02*
X171955000Y-100600000I0J150000D01*
G01*
X171955000Y-99150000D01*
G75*
G02*
X172105000Y-99000000I150000J0D01*
G01*
G37*
G36*
G01*
X173375000Y-99000000D02*
X173675000Y-99000000D01*
G75*
G02*
X173825000Y-99150000I0J-150000D01*
G01*
X173825000Y-100600000D01*
G75*
G02*
X173675000Y-100750000I-150000J0D01*
G01*
X173375000Y-100750000D01*
G75*
G02*
X173225000Y-100600000I0J150000D01*
G01*
X173225000Y-99150000D01*
G75*
G02*
X173375000Y-99000000I150000J0D01*
G01*
G37*
G36*
G01*
X174645000Y-99000000D02*
X174945000Y-99000000D01*
G75*
G02*
X175095000Y-99150000I0J-150000D01*
G01*
X175095000Y-100600000D01*
G75*
G02*
X174945000Y-100750000I-150000J0D01*
G01*
X174645000Y-100750000D01*
G75*
G02*
X174495000Y-100600000I0J150000D01*
G01*
X174495000Y-99150000D01*
G75*
G02*
X174645000Y-99000000I150000J0D01*
G01*
G37*
G36*
G01*
X174645000Y-93850000D02*
X174945000Y-93850000D01*
G75*
G02*
X175095000Y-94000000I0J-150000D01*
G01*
X175095000Y-95450000D01*
G75*
G02*
X174945000Y-95600000I-150000J0D01*
G01*
X174645000Y-95600000D01*
G75*
G02*
X174495000Y-95450000I0J150000D01*
G01*
X174495000Y-94000000D01*
G75*
G02*
X174645000Y-93850000I150000J0D01*
G01*
G37*
G36*
G01*
X173375000Y-93850000D02*
X173675000Y-93850000D01*
G75*
G02*
X173825000Y-94000000I0J-150000D01*
G01*
X173825000Y-95450000D01*
G75*
G02*
X173675000Y-95600000I-150000J0D01*
G01*
X173375000Y-95600000D01*
G75*
G02*
X173225000Y-95450000I0J150000D01*
G01*
X173225000Y-94000000D01*
G75*
G02*
X173375000Y-93850000I150000J0D01*
G01*
G37*
G36*
G01*
X172105000Y-93850000D02*
X172405000Y-93850000D01*
G75*
G02*
X172555000Y-94000000I0J-150000D01*
G01*
X172555000Y-95450000D01*
G75*
G02*
X172405000Y-95600000I-150000J0D01*
G01*
X172105000Y-95600000D01*
G75*
G02*
X171955000Y-95450000I0J150000D01*
G01*
X171955000Y-94000000D01*
G75*
G02*
X172105000Y-93850000I150000J0D01*
G01*
G37*
G36*
G01*
X170835000Y-93850000D02*
X171135000Y-93850000D01*
G75*
G02*
X171285000Y-94000000I0J-150000D01*
G01*
X171285000Y-95450000D01*
G75*
G02*
X171135000Y-95600000I-150000J0D01*
G01*
X170835000Y-95600000D01*
G75*
G02*
X170685000Y-95450000I0J150000D01*
G01*
X170685000Y-94000000D01*
G75*
G02*
X170835000Y-93850000I150000J0D01*
G01*
G37*
G36*
G01*
X169565000Y-93850000D02*
X169865000Y-93850000D01*
G75*
G02*
X170015000Y-94000000I0J-150000D01*
G01*
X170015000Y-95450000D01*
G75*
G02*
X169865000Y-95600000I-150000J0D01*
G01*
X169565000Y-95600000D01*
G75*
G02*
X169415000Y-95450000I0J150000D01*
G01*
X169415000Y-94000000D01*
G75*
G02*
X169565000Y-93850000I150000J0D01*
G01*
G37*
G36*
G01*
X168295000Y-93850000D02*
X168595000Y-93850000D01*
G75*
G02*
X168745000Y-94000000I0J-150000D01*
G01*
X168745000Y-95450000D01*
G75*
G02*
X168595000Y-95600000I-150000J0D01*
G01*
X168295000Y-95600000D01*
G75*
G02*
X168145000Y-95450000I0J150000D01*
G01*
X168145000Y-94000000D01*
G75*
G02*
X168295000Y-93850000I150000J0D01*
G01*
G37*
G36*
G01*
X167025000Y-93850000D02*
X167325000Y-93850000D01*
G75*
G02*
X167475000Y-94000000I0J-150000D01*
G01*
X167475000Y-95450000D01*
G75*
G02*
X167325000Y-95600000I-150000J0D01*
G01*
X167025000Y-95600000D01*
G75*
G02*
X166875000Y-95450000I0J150000D01*
G01*
X166875000Y-94000000D01*
G75*
G02*
X167025000Y-93850000I150000J0D01*
G01*
G37*
G36*
G01*
X165755000Y-93850000D02*
X166055000Y-93850000D01*
G75*
G02*
X166205000Y-94000000I0J-150000D01*
G01*
X166205000Y-95450000D01*
G75*
G02*
X166055000Y-95600000I-150000J0D01*
G01*
X165755000Y-95600000D01*
G75*
G02*
X165605000Y-95450000I0J150000D01*
G01*
X165605000Y-94000000D01*
G75*
G02*
X165755000Y-93850000I150000J0D01*
G01*
G37*
G36*
G01*
X180805000Y-98925000D02*
X181105000Y-98925000D01*
G75*
G02*
X181255000Y-99075000I0J-150000D01*
G01*
X181255000Y-100525000D01*
G75*
G02*
X181105000Y-100675000I-150000J0D01*
G01*
X180805000Y-100675000D01*
G75*
G02*
X180655000Y-100525000I0J150000D01*
G01*
X180655000Y-99075000D01*
G75*
G02*
X180805000Y-98925000I150000J0D01*
G01*
G37*
G36*
G01*
X182075000Y-98925000D02*
X182375000Y-98925000D01*
G75*
G02*
X182525000Y-99075000I0J-150000D01*
G01*
X182525000Y-100525000D01*
G75*
G02*
X182375000Y-100675000I-150000J0D01*
G01*
X182075000Y-100675000D01*
G75*
G02*
X181925000Y-100525000I0J150000D01*
G01*
X181925000Y-99075000D01*
G75*
G02*
X182075000Y-98925000I150000J0D01*
G01*
G37*
G36*
G01*
X183345000Y-98925000D02*
X183645000Y-98925000D01*
G75*
G02*
X183795000Y-99075000I0J-150000D01*
G01*
X183795000Y-100525000D01*
G75*
G02*
X183645000Y-100675000I-150000J0D01*
G01*
X183345000Y-100675000D01*
G75*
G02*
X183195000Y-100525000I0J150000D01*
G01*
X183195000Y-99075000D01*
G75*
G02*
X183345000Y-98925000I150000J0D01*
G01*
G37*
G36*
G01*
X184615000Y-98925000D02*
X184915000Y-98925000D01*
G75*
G02*
X185065000Y-99075000I0J-150000D01*
G01*
X185065000Y-100525000D01*
G75*
G02*
X184915000Y-100675000I-150000J0D01*
G01*
X184615000Y-100675000D01*
G75*
G02*
X184465000Y-100525000I0J150000D01*
G01*
X184465000Y-99075000D01*
G75*
G02*
X184615000Y-98925000I150000J0D01*
G01*
G37*
G36*
G01*
X185885000Y-98925000D02*
X186185000Y-98925000D01*
G75*
G02*
X186335000Y-99075000I0J-150000D01*
G01*
X186335000Y-100525000D01*
G75*
G02*
X186185000Y-100675000I-150000J0D01*
G01*
X185885000Y-100675000D01*
G75*
G02*
X185735000Y-100525000I0J150000D01*
G01*
X185735000Y-99075000D01*
G75*
G02*
X185885000Y-98925000I150000J0D01*
G01*
G37*
G36*
G01*
X187155000Y-98925000D02*
X187455000Y-98925000D01*
G75*
G02*
X187605000Y-99075000I0J-150000D01*
G01*
X187605000Y-100525000D01*
G75*
G02*
X187455000Y-100675000I-150000J0D01*
G01*
X187155000Y-100675000D01*
G75*
G02*
X187005000Y-100525000I0J150000D01*
G01*
X187005000Y-99075000D01*
G75*
G02*
X187155000Y-98925000I150000J0D01*
G01*
G37*
G36*
G01*
X188425000Y-98925000D02*
X188725000Y-98925000D01*
G75*
G02*
X188875000Y-99075000I0J-150000D01*
G01*
X188875000Y-100525000D01*
G75*
G02*
X188725000Y-100675000I-150000J0D01*
G01*
X188425000Y-100675000D01*
G75*
G02*
X188275000Y-100525000I0J150000D01*
G01*
X188275000Y-99075000D01*
G75*
G02*
X188425000Y-98925000I150000J0D01*
G01*
G37*
G36*
G01*
X189695000Y-98925000D02*
X189995000Y-98925000D01*
G75*
G02*
X190145000Y-99075000I0J-150000D01*
G01*
X190145000Y-100525000D01*
G75*
G02*
X189995000Y-100675000I-150000J0D01*
G01*
X189695000Y-100675000D01*
G75*
G02*
X189545000Y-100525000I0J150000D01*
G01*
X189545000Y-99075000D01*
G75*
G02*
X189695000Y-98925000I150000J0D01*
G01*
G37*
G36*
G01*
X189695000Y-93775000D02*
X189995000Y-93775000D01*
G75*
G02*
X190145000Y-93925000I0J-150000D01*
G01*
X190145000Y-95375000D01*
G75*
G02*
X189995000Y-95525000I-150000J0D01*
G01*
X189695000Y-95525000D01*
G75*
G02*
X189545000Y-95375000I0J150000D01*
G01*
X189545000Y-93925000D01*
G75*
G02*
X189695000Y-93775000I150000J0D01*
G01*
G37*
G36*
G01*
X188425000Y-93775000D02*
X188725000Y-93775000D01*
G75*
G02*
X188875000Y-93925000I0J-150000D01*
G01*
X188875000Y-95375000D01*
G75*
G02*
X188725000Y-95525000I-150000J0D01*
G01*
X188425000Y-95525000D01*
G75*
G02*
X188275000Y-95375000I0J150000D01*
G01*
X188275000Y-93925000D01*
G75*
G02*
X188425000Y-93775000I150000J0D01*
G01*
G37*
G36*
G01*
X187155000Y-93775000D02*
X187455000Y-93775000D01*
G75*
G02*
X187605000Y-93925000I0J-150000D01*
G01*
X187605000Y-95375000D01*
G75*
G02*
X187455000Y-95525000I-150000J0D01*
G01*
X187155000Y-95525000D01*
G75*
G02*
X187005000Y-95375000I0J150000D01*
G01*
X187005000Y-93925000D01*
G75*
G02*
X187155000Y-93775000I150000J0D01*
G01*
G37*
G36*
G01*
X185885000Y-93775000D02*
X186185000Y-93775000D01*
G75*
G02*
X186335000Y-93925000I0J-150000D01*
G01*
X186335000Y-95375000D01*
G75*
G02*
X186185000Y-95525000I-150000J0D01*
G01*
X185885000Y-95525000D01*
G75*
G02*
X185735000Y-95375000I0J150000D01*
G01*
X185735000Y-93925000D01*
G75*
G02*
X185885000Y-93775000I150000J0D01*
G01*
G37*
G36*
G01*
X184615000Y-93775000D02*
X184915000Y-93775000D01*
G75*
G02*
X185065000Y-93925000I0J-150000D01*
G01*
X185065000Y-95375000D01*
G75*
G02*
X184915000Y-95525000I-150000J0D01*
G01*
X184615000Y-95525000D01*
G75*
G02*
X184465000Y-95375000I0J150000D01*
G01*
X184465000Y-93925000D01*
G75*
G02*
X184615000Y-93775000I150000J0D01*
G01*
G37*
G36*
G01*
X183345000Y-93775000D02*
X183645000Y-93775000D01*
G75*
G02*
X183795000Y-93925000I0J-150000D01*
G01*
X183795000Y-95375000D01*
G75*
G02*
X183645000Y-95525000I-150000J0D01*
G01*
X183345000Y-95525000D01*
G75*
G02*
X183195000Y-95375000I0J150000D01*
G01*
X183195000Y-93925000D01*
G75*
G02*
X183345000Y-93775000I150000J0D01*
G01*
G37*
G36*
G01*
X182075000Y-93775000D02*
X182375000Y-93775000D01*
G75*
G02*
X182525000Y-93925000I0J-150000D01*
G01*
X182525000Y-95375000D01*
G75*
G02*
X182375000Y-95525000I-150000J0D01*
G01*
X182075000Y-95525000D01*
G75*
G02*
X181925000Y-95375000I0J150000D01*
G01*
X181925000Y-93925000D01*
G75*
G02*
X182075000Y-93775000I150000J0D01*
G01*
G37*
G36*
G01*
X180805000Y-93775000D02*
X181105000Y-93775000D01*
G75*
G02*
X181255000Y-93925000I0J-150000D01*
G01*
X181255000Y-95375000D01*
G75*
G02*
X181105000Y-95525000I-150000J0D01*
G01*
X180805000Y-95525000D01*
G75*
G02*
X180655000Y-95375000I0J150000D01*
G01*
X180655000Y-93925000D01*
G75*
G02*
X180805000Y-93775000I150000J0D01*
G01*
G37*
G36*
G01*
X68900002Y-97637500D02*
X67599998Y-97637500D01*
G75*
G02*
X67350000Y-97387502I0J249998D01*
G01*
X67350000Y-96562498D01*
G75*
G02*
X67599998Y-96312500I249998J0D01*
G01*
X68900002Y-96312500D01*
G75*
G02*
X69150000Y-96562498I0J-249998D01*
G01*
X69150000Y-97387502D01*
G75*
G02*
X68900002Y-97637500I-249998J0D01*
G01*
G37*
G36*
G01*
X68900002Y-100762500D02*
X67599998Y-100762500D01*
G75*
G02*
X67350000Y-100512502I0J249998D01*
G01*
X67350000Y-99687498D01*
G75*
G02*
X67599998Y-99437500I249998J0D01*
G01*
X68900002Y-99437500D01*
G75*
G02*
X69150000Y-99687498I0J-249998D01*
G01*
X69150000Y-100512502D01*
G75*
G02*
X68900002Y-100762500I-249998J0D01*
G01*
G37*
G36*
G01*
X52700002Y-97637500D02*
X51399998Y-97637500D01*
G75*
G02*
X51150000Y-97387502I0J249998D01*
G01*
X51150000Y-96562498D01*
G75*
G02*
X51399998Y-96312500I249998J0D01*
G01*
X52700002Y-96312500D01*
G75*
G02*
X52950000Y-96562498I0J-249998D01*
G01*
X52950000Y-97387502D01*
G75*
G02*
X52700002Y-97637500I-249998J0D01*
G01*
G37*
G36*
G01*
X52700002Y-100762500D02*
X51399998Y-100762500D01*
G75*
G02*
X51150000Y-100512502I0J249998D01*
G01*
X51150000Y-99687498D01*
G75*
G02*
X51399998Y-99437500I249998J0D01*
G01*
X52700002Y-99437500D01*
G75*
G02*
X52950000Y-99687498I0J-249998D01*
G01*
X52950000Y-100512502D01*
G75*
G02*
X52700002Y-100762500I-249998J0D01*
G01*
G37*
G36*
G01*
X88700002Y-97600000D02*
X87399998Y-97600000D01*
G75*
G02*
X87150000Y-97350002I0J249998D01*
G01*
X87150000Y-96524998D01*
G75*
G02*
X87399998Y-96275000I249998J0D01*
G01*
X88700002Y-96275000D01*
G75*
G02*
X88950000Y-96524998I0J-249998D01*
G01*
X88950000Y-97350002D01*
G75*
G02*
X88700002Y-97600000I-249998J0D01*
G01*
G37*
G36*
G01*
X88700002Y-100725000D02*
X87399998Y-100725000D01*
G75*
G02*
X87150000Y-100475002I0J249998D01*
G01*
X87150000Y-99649998D01*
G75*
G02*
X87399998Y-99400000I249998J0D01*
G01*
X88700002Y-99400000D01*
G75*
G02*
X88950000Y-99649998I0J-249998D01*
G01*
X88950000Y-100475002D01*
G75*
G02*
X88700002Y-100725000I-249998J0D01*
G01*
G37*
G36*
G01*
X107650002Y-97650000D02*
X106349998Y-97650000D01*
G75*
G02*
X106100000Y-97400002I0J249998D01*
G01*
X106100000Y-96574998D01*
G75*
G02*
X106349998Y-96325000I249998J0D01*
G01*
X107650002Y-96325000D01*
G75*
G02*
X107900000Y-96574998I0J-249998D01*
G01*
X107900000Y-97400002D01*
G75*
G02*
X107650002Y-97650000I-249998J0D01*
G01*
G37*
G36*
G01*
X107650002Y-100775000D02*
X106349998Y-100775000D01*
G75*
G02*
X106100000Y-100525002I0J249998D01*
G01*
X106100000Y-99699998D01*
G75*
G02*
X106349998Y-99450000I249998J0D01*
G01*
X107650002Y-99450000D01*
G75*
G02*
X107900000Y-99699998I0J-249998D01*
G01*
X107900000Y-100525002D01*
G75*
G02*
X107650002Y-100775000I-249998J0D01*
G01*
G37*
G36*
G01*
X125550002Y-97537500D02*
X124249998Y-97537500D01*
G75*
G02*
X124000000Y-97287502I0J249998D01*
G01*
X124000000Y-96462498D01*
G75*
G02*
X124249998Y-96212500I249998J0D01*
G01*
X125550002Y-96212500D01*
G75*
G02*
X125800000Y-96462498I0J-249998D01*
G01*
X125800000Y-97287502D01*
G75*
G02*
X125550002Y-97537500I-249998J0D01*
G01*
G37*
G36*
G01*
X125550002Y-100662500D02*
X124249998Y-100662500D01*
G75*
G02*
X124000000Y-100412502I0J249998D01*
G01*
X124000000Y-99587498D01*
G75*
G02*
X124249998Y-99337500I249998J0D01*
G01*
X125550002Y-99337500D01*
G75*
G02*
X125800000Y-99587498I0J-249998D01*
G01*
X125800000Y-100412502D01*
G75*
G02*
X125550002Y-100662500I-249998J0D01*
G01*
G37*
G36*
G01*
X148250002Y-97537500D02*
X146949998Y-97537500D01*
G75*
G02*
X146700000Y-97287502I0J249998D01*
G01*
X146700000Y-96462498D01*
G75*
G02*
X146949998Y-96212500I249998J0D01*
G01*
X148250002Y-96212500D01*
G75*
G02*
X148500000Y-96462498I0J-249998D01*
G01*
X148500000Y-97287502D01*
G75*
G02*
X148250002Y-97537500I-249998J0D01*
G01*
G37*
G36*
G01*
X148250002Y-100662500D02*
X146949998Y-100662500D01*
G75*
G02*
X146700000Y-100412502I0J249998D01*
G01*
X146700000Y-99587498D01*
G75*
G02*
X146949998Y-99337500I249998J0D01*
G01*
X148250002Y-99337500D01*
G75*
G02*
X148500000Y-99587498I0J-249998D01*
G01*
X148500000Y-100412502D01*
G75*
G02*
X148250002Y-100662500I-249998J0D01*
G01*
G37*
G36*
G01*
X163550002Y-97537500D02*
X162249998Y-97537500D01*
G75*
G02*
X162000000Y-97287502I0J249998D01*
G01*
X162000000Y-96462498D01*
G75*
G02*
X162249998Y-96212500I249998J0D01*
G01*
X163550002Y-96212500D01*
G75*
G02*
X163800000Y-96462498I0J-249998D01*
G01*
X163800000Y-97287502D01*
G75*
G02*
X163550002Y-97537500I-249998J0D01*
G01*
G37*
G36*
G01*
X163550002Y-100662500D02*
X162249998Y-100662500D01*
G75*
G02*
X162000000Y-100412502I0J249998D01*
G01*
X162000000Y-99587498D01*
G75*
G02*
X162249998Y-99337500I249998J0D01*
G01*
X163550002Y-99337500D01*
G75*
G02*
X163800000Y-99587498I0J-249998D01*
G01*
X163800000Y-100412502D01*
G75*
G02*
X163550002Y-100662500I-249998J0D01*
G01*
G37*
G36*
G01*
X178550002Y-97462500D02*
X177249998Y-97462500D01*
G75*
G02*
X177000000Y-97212502I0J249998D01*
G01*
X177000000Y-96387498D01*
G75*
G02*
X177249998Y-96137500I249998J0D01*
G01*
X178550002Y-96137500D01*
G75*
G02*
X178800000Y-96387498I0J-249998D01*
G01*
X178800000Y-97212502D01*
G75*
G02*
X178550002Y-97462500I-249998J0D01*
G01*
G37*
G36*
G01*
X178550002Y-100587500D02*
X177249998Y-100587500D01*
G75*
G02*
X177000000Y-100337502I0J249998D01*
G01*
X177000000Y-99512498D01*
G75*
G02*
X177249998Y-99262500I249998J0D01*
G01*
X178550002Y-99262500D01*
G75*
G02*
X178800000Y-99512498I0J-249998D01*
G01*
X178800000Y-100337502D01*
G75*
G02*
X178550002Y-100587500I-249998J0D01*
G01*
G37*
D13*
X248000000Y-102660000D03*
X248000000Y-100120000D03*
X248000000Y-97580000D03*
X248000000Y-95040000D03*
D14*
X248000000Y-92500000D03*
G36*
G01*
X209962500Y-104449998D02*
X209962500Y-105750002D01*
G75*
G02*
X209712502Y-106000000I-249998J0D01*
G01*
X208887498Y-106000000D01*
G75*
G02*
X208637500Y-105750002I0J249998D01*
G01*
X208637500Y-104449998D01*
G75*
G02*
X208887498Y-104200000I249998J0D01*
G01*
X209712502Y-104200000D01*
G75*
G02*
X209962500Y-104449998I0J-249998D01*
G01*
G37*
G36*
G01*
X213087500Y-104449998D02*
X213087500Y-105750002D01*
G75*
G02*
X212837502Y-106000000I-249998J0D01*
G01*
X212012498Y-106000000D01*
G75*
G02*
X211762500Y-105750002I0J249998D01*
G01*
X211762500Y-104449998D01*
G75*
G02*
X212012498Y-104200000I249998J0D01*
G01*
X212837502Y-104200000D01*
G75*
G02*
X213087500Y-104449998I0J-249998D01*
G01*
G37*
G36*
G01*
X210337500Y-89749998D02*
X210337500Y-91050002D01*
G75*
G02*
X210087502Y-91300000I-249998J0D01*
G01*
X209262498Y-91300000D01*
G75*
G02*
X209012500Y-91050002I0J249998D01*
G01*
X209012500Y-89749998D01*
G75*
G02*
X209262498Y-89500000I249998J0D01*
G01*
X210087502Y-89500000D01*
G75*
G02*
X210337500Y-89749998I0J-249998D01*
G01*
G37*
G36*
G01*
X213462500Y-89749998D02*
X213462500Y-91050002D01*
G75*
G02*
X213212502Y-91300000I-249998J0D01*
G01*
X212387498Y-91300000D01*
G75*
G02*
X212137500Y-91050002I0J249998D01*
G01*
X212137500Y-89749998D01*
G75*
G02*
X212387498Y-89500000I249998J0D01*
G01*
X213212502Y-89500000D01*
G75*
G02*
X213462500Y-89749998I0J-249998D01*
G01*
G37*
M02*
