%FSLAX45Y45*%
G04 Gerber Fmt 4.5, Leading zero omitted, Abs format (unit mm)*
G04 Created by KiCad (PCBNEW (5.1.10)-1) date 2022-04-06 13:47:04*
%MOMM*%
%LPD*%
G01*
G04 APERTURE LIST*
%TA.AperFunction,Profile*%
%ADD10C,0.038100*%
%TD*%
%ADD11C,0.200000*%
%ADD12C,0.300000*%
G04 APERTURE END LIST*
D10*
X5000000Y-10500000D02*
X20750000Y-10500000D01*
X20750000Y-9000000D02*
X5000000Y-9000000D01*
X20750000Y-10750000D02*
X20750000Y-10500000D01*
X25000000Y-10750000D02*
X20750000Y-10750000D01*
X25000000Y-10500000D02*
X25000000Y-10750000D01*
X25000000Y-8750000D02*
X25000000Y-9000000D01*
X20750000Y-8750000D02*
X25000000Y-8750000D01*
X20750000Y-9000000D02*
X20750000Y-8750000D01*
X20150000Y-10150000D02*
G75*
G03*
X20150000Y-10150000I-150000J0D01*
G01*
X20150000Y-9350000D02*
G75*
G03*
X20150000Y-9350000I-150000J0D01*
G01*
X25000000Y-10500000D02*
X25000000Y-9000000D01*
X5000000Y-9000000D02*
X5000000Y-10500000D01*
D11*
X5230000Y-9170000D02*
X5260000Y-9200000D01*
X5260000Y-9170000D02*
X5230000Y-9200000D01*
X5400000Y-9160000D02*
X5430000Y-9190000D01*
X5430000Y-9160000D02*
X5400000Y-9190000D01*
X5515394Y-10440395D02*
X5545394Y-10470395D01*
X5545394Y-10440395D02*
X5515394Y-10470395D01*
X5655000Y-9075000D02*
X5685000Y-9105000D01*
X5685000Y-9075000D02*
X5655000Y-9105000D01*
X5775000Y-10264794D02*
X5805000Y-10294794D01*
X5805000Y-10264794D02*
X5775000Y-10294794D01*
X5904994Y-10314994D02*
X5934994Y-10344994D01*
X5934994Y-10314994D02*
X5904994Y-10344994D01*
X5935000Y-9170000D02*
X5965000Y-9200000D01*
X5965000Y-9170000D02*
X5935000Y-9200000D01*
X6025000Y-10195000D02*
X6055000Y-10225000D01*
X6055000Y-10195000D02*
X6025000Y-10225000D01*
X6095000Y-9160000D02*
X6125000Y-9190000D01*
X6125000Y-9160000D02*
X6095000Y-9190000D01*
X6155000Y-10140000D02*
X6185000Y-10170000D01*
X6185000Y-10140000D02*
X6155000Y-10170000D01*
X6275000Y-9165000D02*
X6305000Y-9195000D01*
X6305000Y-9165000D02*
X6275000Y-9195000D01*
X6282694Y-10387694D02*
X6312694Y-10417694D01*
X6312694Y-10387694D02*
X6282694Y-10417694D01*
X6625000Y-9170000D02*
X6655000Y-9200000D01*
X6655000Y-9170000D02*
X6625000Y-9200000D01*
X6810000Y-9165000D02*
X6840000Y-9195000D01*
X6840000Y-9165000D02*
X6810000Y-9195000D01*
X6995000Y-9090000D02*
X7025000Y-9120000D01*
X7025000Y-9090000D02*
X6995000Y-9120000D01*
X7145394Y-10440395D02*
X7175394Y-10470395D01*
X7175394Y-10440395D02*
X7145394Y-10470395D01*
X7320000Y-10264794D02*
X7350000Y-10294794D01*
X7350000Y-10264794D02*
X7320000Y-10294794D01*
X7330000Y-9175000D02*
X7360000Y-9205000D01*
X7360000Y-9175000D02*
X7330000Y-9205000D01*
X7395206Y-10264794D02*
X7425206Y-10294794D01*
X7425206Y-10264794D02*
X7395206Y-10294794D01*
X7490000Y-9170000D02*
X7520000Y-9200000D01*
X7520000Y-9170000D02*
X7490000Y-9200000D01*
X7524994Y-10314994D02*
X7554994Y-10344994D01*
X7554994Y-10314994D02*
X7524994Y-10344994D01*
X7650000Y-10195000D02*
X7680000Y-10225000D01*
X7680000Y-10195000D02*
X7650000Y-10225000D01*
X7655000Y-9175000D02*
X7685000Y-9205000D01*
X7685000Y-9175000D02*
X7655000Y-9205000D01*
X7780000Y-10140000D02*
X7810000Y-10170000D01*
X7810000Y-10140000D02*
X7780000Y-10170000D01*
X7830000Y-9170000D02*
X7860000Y-9200000D01*
X7860000Y-9170000D02*
X7830000Y-9200000D01*
X7907306Y-10387694D02*
X7937306Y-10417694D01*
X7937306Y-10387694D02*
X7907306Y-10417694D01*
X8030000Y-9170000D02*
X8060000Y-9200000D01*
X8060000Y-9170000D02*
X8030000Y-9200000D01*
X8400000Y-9115000D02*
X8430000Y-9145000D01*
X8430000Y-9115000D02*
X8400000Y-9145000D01*
X8730000Y-9175000D02*
X8760000Y-9205000D01*
X8760000Y-9175000D02*
X8730000Y-9205000D01*
X8905000Y-9155000D02*
X8935000Y-9185000D01*
X8935000Y-9155000D02*
X8905000Y-9185000D01*
X9125000Y-9070000D02*
X9155000Y-9100000D01*
X9155000Y-9070000D02*
X9125000Y-9100000D01*
X9129606Y-10440395D02*
X9159606Y-10470395D01*
X9159606Y-10440395D02*
X9129606Y-10470395D01*
X9305000Y-10264794D02*
X9335000Y-10294794D01*
X9335000Y-10264794D02*
X9305000Y-10294794D01*
X9379794Y-10264794D02*
X9409794Y-10294794D01*
X9409794Y-10264794D02*
X9379794Y-10294794D01*
X9430000Y-9165000D02*
X9460000Y-9195000D01*
X9460000Y-9165000D02*
X9430000Y-9195000D01*
X9500006Y-10314994D02*
X9530006Y-10344994D01*
X9530006Y-10314994D02*
X9500006Y-10344994D01*
X9600000Y-9165000D02*
X9630000Y-9195000D01*
X9630000Y-9165000D02*
X9600000Y-9195000D01*
X9635000Y-10195000D02*
X9665000Y-10225000D01*
X9665000Y-10195000D02*
X9635000Y-10225000D01*
X9760000Y-10140000D02*
X9790000Y-10170000D01*
X9790000Y-10140000D02*
X9760000Y-10170000D01*
X9780000Y-9170000D02*
X9810000Y-9200000D01*
X9810000Y-9170000D02*
X9780000Y-9200000D01*
X9882306Y-10387694D02*
X9912306Y-10417694D01*
X9912306Y-10387694D02*
X9882306Y-10417694D01*
X9910000Y-9160000D02*
X9940000Y-9190000D01*
X9940000Y-9160000D02*
X9910000Y-9190000D01*
X10135000Y-9170000D02*
X10165000Y-9200000D01*
X10165000Y-9170000D02*
X10135000Y-9200000D01*
X10530000Y-9070000D02*
X10560000Y-9100000D01*
X10560000Y-9070000D02*
X10530000Y-9100000D01*
X10845000Y-9160000D02*
X10875000Y-9190000D01*
X10875000Y-9160000D02*
X10845000Y-9190000D01*
X11010000Y-9165000D02*
X11040000Y-9195000D01*
X11040000Y-9165000D02*
X11010000Y-9195000D01*
X11029606Y-10440395D02*
X11059606Y-10470395D01*
X11059606Y-10440395D02*
X11029606Y-10470395D01*
X11200000Y-10264794D02*
X11230000Y-10294794D01*
X11230000Y-10264794D02*
X11200000Y-10294794D01*
X11235000Y-9085000D02*
X11265000Y-9115000D01*
X11265000Y-9085000D02*
X11235000Y-9115000D01*
X11274794Y-10264794D02*
X11304794Y-10294794D01*
X11304794Y-10264794D02*
X11274794Y-10294794D01*
X11405006Y-10314994D02*
X11435006Y-10344994D01*
X11435006Y-10314994D02*
X11405006Y-10344994D01*
X11525000Y-9175000D02*
X11555000Y-9205000D01*
X11555000Y-9175000D02*
X11525000Y-9205000D01*
X11530000Y-10195000D02*
X11560000Y-10225000D01*
X11560000Y-10195000D02*
X11530000Y-10225000D01*
X11655000Y-10140000D02*
X11685000Y-10170000D01*
X11685000Y-10140000D02*
X11655000Y-10170000D01*
X11685000Y-9170000D02*
X11715000Y-9200000D01*
X11715000Y-9170000D02*
X11685000Y-9200000D01*
X11782694Y-10387694D02*
X11812694Y-10417694D01*
X11812694Y-10387694D02*
X11782694Y-10417694D01*
X11870000Y-9160000D02*
X11900000Y-9190000D01*
X11900000Y-9160000D02*
X11870000Y-9190000D01*
X12000000Y-9155000D02*
X12030000Y-9185000D01*
X12030000Y-9155000D02*
X12000000Y-9185000D01*
X12400000Y-9155000D02*
X12430000Y-9185000D01*
X12430000Y-9155000D02*
X12400000Y-9185000D01*
X12595000Y-9065000D02*
X12625000Y-9095000D01*
X12625000Y-9065000D02*
X12595000Y-9095000D01*
X12905000Y-10440395D02*
X12935000Y-10470395D01*
X12935000Y-10440395D02*
X12905000Y-10470395D01*
X12930000Y-9170000D02*
X12960000Y-9200000D01*
X12960000Y-9170000D02*
X12930000Y-9200000D01*
X13095000Y-10264794D02*
X13125000Y-10294794D01*
X13125000Y-10264794D02*
X13095000Y-10294794D01*
X13105000Y-9165000D02*
X13135000Y-9195000D01*
X13135000Y-9165000D02*
X13105000Y-9195000D01*
X13170000Y-10264794D02*
X13200000Y-10294794D01*
X13200000Y-10264794D02*
X13170000Y-10294794D01*
X13274994Y-10314994D02*
X13304994Y-10344994D01*
X13304994Y-10314994D02*
X13274994Y-10344994D01*
X13295000Y-9135000D02*
X13325000Y-9165000D01*
X13325000Y-9135000D02*
X13295000Y-9165000D01*
X13410000Y-10195000D02*
X13440000Y-10225000D01*
X13440000Y-10195000D02*
X13410000Y-10225000D01*
X13535000Y-10140000D02*
X13565000Y-10170000D01*
X13565000Y-10140000D02*
X13535000Y-10170000D01*
X13615000Y-9175000D02*
X13645000Y-9205000D01*
X13645000Y-9175000D02*
X13615000Y-9205000D01*
X13662306Y-10387694D02*
X13692306Y-10417694D01*
X13692306Y-10387694D02*
X13662306Y-10417694D01*
X13795000Y-9160000D02*
X13825000Y-9190000D01*
X13825000Y-9160000D02*
X13795000Y-9190000D01*
X14000000Y-9195000D02*
X14030000Y-9225000D01*
X14030000Y-9195000D02*
X14000000Y-9225000D01*
X14320000Y-9175000D02*
X14350000Y-9205000D01*
X14350000Y-9175000D02*
X14320000Y-9205000D01*
X14495000Y-9160000D02*
X14525000Y-9190000D01*
X14525000Y-9160000D02*
X14495000Y-9190000D01*
X14710000Y-9075000D02*
X14740000Y-9105000D01*
X14740000Y-9075000D02*
X14710000Y-9105000D01*
X15074606Y-10440395D02*
X15104606Y-10470395D01*
X15104606Y-10440395D02*
X15074606Y-10470395D01*
X15200000Y-10264794D02*
X15230000Y-10294794D01*
X15230000Y-10264794D02*
X15200000Y-10294794D01*
X15205000Y-9160000D02*
X15235000Y-9190000D01*
X15235000Y-9160000D02*
X15205000Y-9190000D01*
X15330000Y-10264794D02*
X15360000Y-10294794D01*
X15360000Y-10264794D02*
X15330000Y-10294794D01*
X15400000Y-9080000D02*
X15430000Y-9110000D01*
X15430000Y-9080000D02*
X15400000Y-9110000D01*
X15455006Y-10314994D02*
X15485006Y-10344994D01*
X15485006Y-10314994D02*
X15455006Y-10344994D01*
X15585000Y-10195000D02*
X15615000Y-10225000D01*
X15615000Y-10195000D02*
X15585000Y-10225000D01*
X15710000Y-10140000D02*
X15740000Y-10170000D01*
X15740000Y-10140000D02*
X15710000Y-10170000D01*
X15725000Y-9170000D02*
X15755000Y-9200000D01*
X15755000Y-9170000D02*
X15725000Y-9200000D01*
X15837694Y-10387694D02*
X15867694Y-10417694D01*
X15867694Y-10387694D02*
X15837694Y-10417694D01*
X15900000Y-9175000D02*
X15930000Y-9205000D01*
X15930000Y-9175000D02*
X15900000Y-9205000D01*
X16095000Y-9170000D02*
X16125000Y-9200000D01*
X16125000Y-9170000D02*
X16095000Y-9200000D01*
X16435000Y-9155000D02*
X16465000Y-9185000D01*
X16465000Y-9155000D02*
X16435000Y-9185000D01*
X16574606Y-10440395D02*
X16604606Y-10470395D01*
X16604606Y-10440395D02*
X16574606Y-10470395D01*
X16585000Y-9170000D02*
X16615000Y-9200000D01*
X16615000Y-9170000D02*
X16585000Y-9200000D01*
X16755000Y-10264794D02*
X16785000Y-10294794D01*
X16785000Y-10264794D02*
X16755000Y-10294794D01*
X16785000Y-9165000D02*
X16815000Y-9195000D01*
X16815000Y-9165000D02*
X16785000Y-9195000D01*
X16830000Y-10264794D02*
X16860000Y-10294794D01*
X16860000Y-10264794D02*
X16830000Y-10294794D01*
X16954994Y-10314994D02*
X16984994Y-10344994D01*
X16984994Y-10314994D02*
X16954994Y-10344994D01*
X16960000Y-9175000D02*
X16990000Y-9205000D01*
X16990000Y-9175000D02*
X16960000Y-9205000D01*
X17080000Y-10195000D02*
X17110000Y-10225000D01*
X17110000Y-10195000D02*
X17080000Y-10225000D01*
X17135000Y-9170000D02*
X17165000Y-9200000D01*
X17165000Y-9170000D02*
X17135000Y-9200000D01*
X17205000Y-10140000D02*
X17235000Y-10170000D01*
X17235000Y-10140000D02*
X17205000Y-10170000D01*
X17325000Y-9170000D02*
X17355000Y-9200000D01*
X17355000Y-9170000D02*
X17325000Y-9200000D01*
X17332306Y-10387694D02*
X17362306Y-10417694D01*
X17362306Y-10387694D02*
X17332306Y-10417694D01*
X17499606Y-10440395D02*
X17529606Y-10470395D01*
X17529606Y-10440395D02*
X17499606Y-10470395D01*
X17630000Y-9160000D02*
X17660000Y-9190000D01*
X17660000Y-9160000D02*
X17630000Y-9190000D01*
X17985000Y-9155000D02*
X18015000Y-9185000D01*
X18015000Y-9155000D02*
X17985000Y-9185000D01*
X18210000Y-9170000D02*
X18240000Y-9200000D01*
X18240000Y-9170000D02*
X18210000Y-9200000D01*
X18225000Y-10264794D02*
X18255000Y-10294794D01*
X18255000Y-10264794D02*
X18225000Y-10294794D01*
X18355000Y-9185000D02*
X18385000Y-9215000D01*
X18385000Y-9185000D02*
X18355000Y-9215000D01*
X18365000Y-10245200D02*
X18395000Y-10275200D01*
X18395000Y-10245200D02*
X18365000Y-10275200D01*
X18464994Y-10314994D02*
X18494994Y-10344994D01*
X18494994Y-10314994D02*
X18464994Y-10344994D01*
X18539263Y-9179263D02*
X18569263Y-9209263D01*
X18569263Y-9179263D02*
X18539263Y-9209263D01*
X18595000Y-10195000D02*
X18625000Y-10225000D01*
X18625000Y-10195000D02*
X18595000Y-10225000D01*
X18675784Y-9184310D02*
X18705784Y-9214310D01*
X18705784Y-9184310D02*
X18675784Y-9214310D01*
X18720000Y-10140000D02*
X18750000Y-10170000D01*
X18750000Y-10140000D02*
X18720000Y-10170000D01*
X18842306Y-10387694D02*
X18872306Y-10417694D01*
X18872306Y-10387694D02*
X18842306Y-10417694D01*
X19035000Y-9095000D02*
X19065000Y-9125000D01*
X19065000Y-9095000D02*
X19035000Y-9125000D01*
X19250000Y-9170000D02*
X19280000Y-9200000D01*
X19280000Y-9170000D02*
X19250000Y-9200000D01*
X19430000Y-9170000D02*
X19460000Y-9200000D01*
X19460000Y-9170000D02*
X19430000Y-9200000D01*
X20475000Y-10185000D02*
X20505000Y-10215000D01*
X20505000Y-10185000D02*
X20475000Y-10215000D01*
X20655000Y-9135000D02*
X20685000Y-9165000D01*
X20685000Y-9135000D02*
X20655000Y-9165000D01*
X20715000Y-9935000D02*
X20745000Y-9965000D01*
X20745000Y-9935000D02*
X20715000Y-9965000D01*
X20765000Y-10185000D02*
X20795000Y-10215000D01*
X20795000Y-10185000D02*
X20765000Y-10215000D01*
X20965000Y-10245000D02*
X20995000Y-10275000D01*
X20995000Y-10245000D02*
X20965000Y-10275000D01*
X21015000Y-9905000D02*
X21045000Y-9935000D01*
X21045000Y-9905000D02*
X21015000Y-9935000D01*
X21265000Y-9515000D02*
X21295000Y-9545000D01*
X21295000Y-9515000D02*
X21265000Y-9545000D01*
X21385000Y-9745000D02*
X21415000Y-9775000D01*
X21415000Y-9745000D02*
X21385000Y-9775000D01*
X21545000Y-10357292D02*
X21575000Y-10387292D01*
X21575000Y-10357292D02*
X21545000Y-10387292D01*
X21555000Y-9715000D02*
X21585000Y-9745000D01*
X21585000Y-9715000D02*
X21555000Y-9745000D01*
X21581540Y-9547300D02*
X21611540Y-9577300D01*
X21611540Y-9547300D02*
X21581540Y-9577300D01*
X21665000Y-10075000D02*
X21695000Y-10105000D01*
X21695000Y-10075000D02*
X21665000Y-10105000D01*
X21845000Y-9565000D02*
X21875000Y-9595000D01*
X21875000Y-9565000D02*
X21845000Y-9595000D01*
X21965000Y-9475000D02*
X21995000Y-9505000D01*
X21995000Y-9475000D02*
X21965000Y-9505000D01*
X22135000Y-9555000D02*
X22165000Y-9585000D01*
X22165000Y-9555000D02*
X22135000Y-9585000D01*
X24388503Y-10068503D02*
X24418503Y-10098503D01*
X24418503Y-10068503D02*
X24388503Y-10098503D01*
X5690000Y-9700000D02*
G75*
G03*
X5690000Y-9700000I-20000J0D01*
G01*
X7085000Y-9715000D02*
G75*
G03*
X7085000Y-9715000I-20000J0D01*
G01*
X8490000Y-9715000D02*
G75*
G03*
X8490000Y-9715000I-20000J0D01*
G01*
X10395000Y-9730000D02*
G75*
G03*
X10395000Y-9730000I-20000J0D01*
G01*
X12330000Y-9730000D02*
G75*
G03*
X12330000Y-9730000I-20000J0D01*
G01*
X14430000Y-9725000D02*
G75*
G03*
X14430000Y-9725000I-20000J0D01*
G01*
X14835000Y-9080000D02*
G75*
G03*
X14835000Y-9080000I-20000J0D01*
G01*
X16025000Y-9720000D02*
G75*
G03*
X16025000Y-9720000I-20000J0D01*
G01*
X17615000Y-10020000D02*
G75*
G03*
X17615000Y-10020000I-20000J0D01*
G01*
X22640000Y-9320000D02*
G75*
G03*
X22640000Y-9320000I-20000J0D01*
G01*
X22810000Y-9890000D02*
G75*
G03*
X22810000Y-9890000I-20000J0D01*
G01*
X24160000Y-9050000D02*
G75*
G03*
X24160000Y-9050000I-20000J0D01*
G01*
X22350000Y-8890000D02*
X22350000Y-8990000D01*
X22300000Y-8940000D02*
X22400000Y-8940000D01*
X22604000Y-8890000D02*
X22604000Y-8990000D01*
X22554000Y-8940000D02*
X22654000Y-8940000D01*
X23950000Y-9420000D02*
X23950000Y-9520000D01*
X23900000Y-9470000D02*
X24000000Y-9470000D01*
X23950000Y-9674000D02*
X23950000Y-9774000D01*
X23900000Y-9724000D02*
X24000000Y-9724000D01*
X24800000Y-9200000D02*
X24800000Y-9300000D01*
X24750000Y-9250000D02*
X24850000Y-9250000D01*
X24800000Y-9454000D02*
X24800000Y-9554000D01*
X24750000Y-9504000D02*
X24850000Y-9504000D01*
X24800000Y-9708000D02*
X24800000Y-9808000D01*
X24750000Y-9758000D02*
X24850000Y-9758000D01*
X24800000Y-9962000D02*
X24800000Y-10062000D01*
X24750000Y-10012000D02*
X24850000Y-10012000D01*
X24800000Y-10216000D02*
X24800000Y-10316000D01*
X24750000Y-10266000D02*
X24850000Y-10266000D01*
D12*
X5284523Y-11217619D02*
X5284523Y-10917619D01*
X5355952Y-10917619D01*
X5398809Y-10931905D01*
X5427381Y-10960477D01*
X5441666Y-10989048D01*
X5455952Y-11046191D01*
X5455952Y-11089048D01*
X5441666Y-11146191D01*
X5427381Y-11174762D01*
X5398809Y-11203334D01*
X5355952Y-11217619D01*
X5284523Y-11217619D01*
X5584523Y-11217619D02*
X5584523Y-11017619D01*
X5584523Y-11074762D02*
X5598809Y-11046191D01*
X5613095Y-11031905D01*
X5641666Y-11017619D01*
X5670238Y-11017619D01*
X5770238Y-11217619D02*
X5770238Y-11017619D01*
X5770238Y-10917619D02*
X5755952Y-10931905D01*
X5770238Y-10946191D01*
X5784523Y-10931905D01*
X5770238Y-10917619D01*
X5770238Y-10946191D01*
X5955952Y-11217619D02*
X5927381Y-11203334D01*
X5913095Y-11174762D01*
X5913095Y-10917619D01*
X6113095Y-11217619D02*
X6084523Y-11203334D01*
X6070238Y-11174762D01*
X6070238Y-10917619D01*
X6455952Y-11217619D02*
X6455952Y-10917619D01*
X6555952Y-11131905D01*
X6655952Y-10917619D01*
X6655952Y-11217619D01*
X6927381Y-11217619D02*
X6927381Y-11060477D01*
X6913095Y-11031905D01*
X6884523Y-11017619D01*
X6827381Y-11017619D01*
X6798809Y-11031905D01*
X6927381Y-11203334D02*
X6898809Y-11217619D01*
X6827381Y-11217619D01*
X6798809Y-11203334D01*
X6784523Y-11174762D01*
X6784523Y-11146191D01*
X6798809Y-11117619D01*
X6827381Y-11103334D01*
X6898809Y-11103334D01*
X6927381Y-11089048D01*
X7070238Y-11017619D02*
X7070238Y-11317619D01*
X7070238Y-11031905D02*
X7098809Y-11017619D01*
X7155952Y-11017619D01*
X7184523Y-11031905D01*
X7198809Y-11046191D01*
X7213095Y-11074762D01*
X7213095Y-11160477D01*
X7198809Y-11189048D01*
X7184523Y-11203334D01*
X7155952Y-11217619D01*
X7098809Y-11217619D01*
X7070238Y-11203334D01*
X7341666Y-11189048D02*
X7355952Y-11203334D01*
X7341666Y-11217619D01*
X7327381Y-11203334D01*
X7341666Y-11189048D01*
X7341666Y-11217619D01*
X7341666Y-11031905D02*
X7355952Y-11046191D01*
X7341666Y-11060477D01*
X7327381Y-11046191D01*
X7341666Y-11031905D01*
X7341666Y-11060477D01*
X4968095Y-11696905D02*
X4998095Y-11726905D01*
X4998095Y-11696905D02*
X4968095Y-11726905D01*
X5341666Y-11547619D02*
X5370238Y-11547619D01*
X5398809Y-11561905D01*
X5413095Y-11576191D01*
X5427381Y-11604762D01*
X5441666Y-11661905D01*
X5441666Y-11733334D01*
X5427381Y-11790476D01*
X5413095Y-11819048D01*
X5398809Y-11833334D01*
X5370238Y-11847619D01*
X5341666Y-11847619D01*
X5313095Y-11833334D01*
X5298809Y-11819048D01*
X5284523Y-11790476D01*
X5270238Y-11733334D01*
X5270238Y-11661905D01*
X5284523Y-11604762D01*
X5298809Y-11576191D01*
X5313095Y-11561905D01*
X5341666Y-11547619D01*
X5570238Y-11819048D02*
X5584523Y-11833334D01*
X5570238Y-11847619D01*
X5555952Y-11833334D01*
X5570238Y-11819048D01*
X5570238Y-11847619D01*
X5684523Y-11547619D02*
X5870238Y-11547619D01*
X5770238Y-11661905D01*
X5813095Y-11661905D01*
X5841666Y-11676191D01*
X5855952Y-11690476D01*
X5870238Y-11719048D01*
X5870238Y-11790476D01*
X5855952Y-11819048D01*
X5841666Y-11833334D01*
X5813095Y-11847619D01*
X5727381Y-11847619D01*
X5698809Y-11833334D01*
X5684523Y-11819048D01*
X6055952Y-11547619D02*
X6084523Y-11547619D01*
X6113095Y-11561905D01*
X6127381Y-11576191D01*
X6141666Y-11604762D01*
X6155952Y-11661905D01*
X6155952Y-11733334D01*
X6141666Y-11790476D01*
X6127381Y-11819048D01*
X6113095Y-11833334D01*
X6084523Y-11847619D01*
X6055952Y-11847619D01*
X6027381Y-11833334D01*
X6013095Y-11819048D01*
X5998809Y-11790476D01*
X5984523Y-11733334D01*
X5984523Y-11661905D01*
X5998809Y-11604762D01*
X6013095Y-11576191D01*
X6027381Y-11561905D01*
X6055952Y-11547619D01*
X6341666Y-11547619D02*
X6370238Y-11547619D01*
X6398809Y-11561905D01*
X6413095Y-11576191D01*
X6427381Y-11604762D01*
X6441666Y-11661905D01*
X6441666Y-11733334D01*
X6427381Y-11790476D01*
X6413095Y-11819048D01*
X6398809Y-11833334D01*
X6370238Y-11847619D01*
X6341666Y-11847619D01*
X6313095Y-11833334D01*
X6298809Y-11819048D01*
X6284523Y-11790476D01*
X6270238Y-11733334D01*
X6270238Y-11661905D01*
X6284523Y-11604762D01*
X6298809Y-11576191D01*
X6313095Y-11561905D01*
X6341666Y-11547619D01*
X6570238Y-11847619D02*
X6570238Y-11647619D01*
X6570238Y-11676191D02*
X6584523Y-11661905D01*
X6613095Y-11647619D01*
X6655952Y-11647619D01*
X6684523Y-11661905D01*
X6698809Y-11690476D01*
X6698809Y-11847619D01*
X6698809Y-11690476D02*
X6713095Y-11661905D01*
X6741666Y-11647619D01*
X6784523Y-11647619D01*
X6813095Y-11661905D01*
X6827381Y-11690476D01*
X6827381Y-11847619D01*
X6970238Y-11847619D02*
X6970238Y-11647619D01*
X6970238Y-11676191D02*
X6984523Y-11661905D01*
X7013095Y-11647619D01*
X7055952Y-11647619D01*
X7084523Y-11661905D01*
X7098809Y-11690476D01*
X7098809Y-11847619D01*
X7098809Y-11690476D02*
X7113095Y-11661905D01*
X7141666Y-11647619D01*
X7184523Y-11647619D01*
X7213095Y-11661905D01*
X7227381Y-11690476D01*
X7227381Y-11847619D01*
X7813095Y-11533334D02*
X7555952Y-11919048D01*
X8198809Y-11547619D02*
X8227381Y-11547619D01*
X8255952Y-11561905D01*
X8270238Y-11576191D01*
X8284523Y-11604762D01*
X8298809Y-11661905D01*
X8298809Y-11733334D01*
X8284523Y-11790476D01*
X8270238Y-11819048D01*
X8255952Y-11833334D01*
X8227381Y-11847619D01*
X8198809Y-11847619D01*
X8170238Y-11833334D01*
X8155952Y-11819048D01*
X8141666Y-11790476D01*
X8127381Y-11733334D01*
X8127381Y-11661905D01*
X8141666Y-11604762D01*
X8155952Y-11576191D01*
X8170238Y-11561905D01*
X8198809Y-11547619D01*
X8427381Y-11819048D02*
X8441666Y-11833334D01*
X8427381Y-11847619D01*
X8413095Y-11833334D01*
X8427381Y-11819048D01*
X8427381Y-11847619D01*
X8627381Y-11547619D02*
X8655952Y-11547619D01*
X8684523Y-11561905D01*
X8698809Y-11576191D01*
X8713095Y-11604762D01*
X8727381Y-11661905D01*
X8727381Y-11733334D01*
X8713095Y-11790476D01*
X8698809Y-11819048D01*
X8684523Y-11833334D01*
X8655952Y-11847619D01*
X8627381Y-11847619D01*
X8598809Y-11833334D01*
X8584523Y-11819048D01*
X8570238Y-11790476D01*
X8555952Y-11733334D01*
X8555952Y-11661905D01*
X8570238Y-11604762D01*
X8584523Y-11576191D01*
X8598809Y-11561905D01*
X8627381Y-11547619D01*
X9013095Y-11847619D02*
X8841666Y-11847619D01*
X8927381Y-11847619D02*
X8927381Y-11547619D01*
X8898809Y-11590476D01*
X8870238Y-11619048D01*
X8841666Y-11633334D01*
X9298809Y-11847619D02*
X9127381Y-11847619D01*
X9213095Y-11847619D02*
X9213095Y-11547619D01*
X9184523Y-11590476D01*
X9155952Y-11619048D01*
X9127381Y-11633334D01*
X9470238Y-11676191D02*
X9441666Y-11661905D01*
X9427381Y-11647619D01*
X9413095Y-11619048D01*
X9413095Y-11604762D01*
X9427381Y-11576191D01*
X9441666Y-11561905D01*
X9470238Y-11547619D01*
X9527381Y-11547619D01*
X9555952Y-11561905D01*
X9570238Y-11576191D01*
X9584523Y-11604762D01*
X9584523Y-11619048D01*
X9570238Y-11647619D01*
X9555952Y-11661905D01*
X9527381Y-11676191D01*
X9470238Y-11676191D01*
X9441666Y-11690476D01*
X9427381Y-11704762D01*
X9413095Y-11733334D01*
X9413095Y-11790476D01*
X9427381Y-11819048D01*
X9441666Y-11833334D01*
X9470238Y-11847619D01*
X9527381Y-11847619D01*
X9555952Y-11833334D01*
X9570238Y-11819048D01*
X9584523Y-11790476D01*
X9584523Y-11733334D01*
X9570238Y-11704762D01*
X9555952Y-11690476D01*
X9527381Y-11676191D01*
X9698809Y-11547619D02*
X9698809Y-11604762D01*
X9813095Y-11547619D02*
X9813095Y-11604762D01*
X10255952Y-11961905D02*
X10241666Y-11947619D01*
X10213095Y-11904762D01*
X10198809Y-11876191D01*
X10184523Y-11833334D01*
X10170238Y-11761905D01*
X10170238Y-11704762D01*
X10184523Y-11633334D01*
X10198809Y-11590476D01*
X10213095Y-11561905D01*
X10241666Y-11519048D01*
X10255952Y-11504762D01*
X10527381Y-11847619D02*
X10355952Y-11847619D01*
X10441666Y-11847619D02*
X10441666Y-11547619D01*
X10413095Y-11590476D01*
X10384523Y-11619048D01*
X10355952Y-11633334D01*
X10627381Y-11547619D02*
X10813095Y-11547619D01*
X10713095Y-11661905D01*
X10755952Y-11661905D01*
X10784523Y-11676191D01*
X10798809Y-11690476D01*
X10813095Y-11719048D01*
X10813095Y-11790476D01*
X10798809Y-11819048D01*
X10784523Y-11833334D01*
X10755952Y-11847619D01*
X10670238Y-11847619D01*
X10641666Y-11833334D01*
X10627381Y-11819048D01*
X10913095Y-11547619D02*
X11098809Y-11547619D01*
X10998809Y-11661905D01*
X11041666Y-11661905D01*
X11070238Y-11676191D01*
X11084523Y-11690476D01*
X11098809Y-11719048D01*
X11098809Y-11790476D01*
X11084523Y-11819048D01*
X11070238Y-11833334D01*
X11041666Y-11847619D01*
X10955952Y-11847619D01*
X10927381Y-11833334D01*
X10913095Y-11819048D01*
X11455952Y-11847619D02*
X11455952Y-11547619D01*
X11584523Y-11847619D02*
X11584523Y-11690476D01*
X11570238Y-11661905D01*
X11541666Y-11647619D01*
X11498809Y-11647619D01*
X11470238Y-11661905D01*
X11455952Y-11676191D01*
X11770238Y-11847619D02*
X11741666Y-11833334D01*
X11727381Y-11819048D01*
X11713095Y-11790476D01*
X11713095Y-11704762D01*
X11727381Y-11676191D01*
X11741666Y-11661905D01*
X11770238Y-11647619D01*
X11813095Y-11647619D01*
X11841666Y-11661905D01*
X11855952Y-11676191D01*
X11870238Y-11704762D01*
X11870238Y-11790476D01*
X11855952Y-11819048D01*
X11841666Y-11833334D01*
X11813095Y-11847619D01*
X11770238Y-11847619D01*
X12041666Y-11847619D02*
X12013095Y-11833334D01*
X11998809Y-11804762D01*
X11998809Y-11547619D01*
X12270238Y-11833334D02*
X12241666Y-11847619D01*
X12184523Y-11847619D01*
X12155952Y-11833334D01*
X12141666Y-11804762D01*
X12141666Y-11690476D01*
X12155952Y-11661905D01*
X12184523Y-11647619D01*
X12241666Y-11647619D01*
X12270238Y-11661905D01*
X12284523Y-11690476D01*
X12284523Y-11719048D01*
X12141666Y-11747619D01*
X12398809Y-11833334D02*
X12427381Y-11847619D01*
X12484523Y-11847619D01*
X12513095Y-11833334D01*
X12527381Y-11804762D01*
X12527381Y-11790476D01*
X12513095Y-11761905D01*
X12484523Y-11747619D01*
X12441666Y-11747619D01*
X12413095Y-11733334D01*
X12398809Y-11704762D01*
X12398809Y-11690476D01*
X12413095Y-11661905D01*
X12441666Y-11647619D01*
X12484523Y-11647619D01*
X12513095Y-11661905D01*
X12627381Y-11961905D02*
X12641666Y-11947619D01*
X12670238Y-11904762D01*
X12684523Y-11876191D01*
X12698809Y-11833334D01*
X12713095Y-11761905D01*
X12713095Y-11704762D01*
X12698809Y-11633334D01*
X12684523Y-11590476D01*
X12670238Y-11561905D01*
X12641666Y-11519048D01*
X12627381Y-11504762D01*
X4998095Y-12107905D02*
G75*
G03*
X4998095Y-12107905I-20000J0D01*
G01*
X5341666Y-11943619D02*
X5370238Y-11943619D01*
X5398809Y-11957905D01*
X5413095Y-11972191D01*
X5427381Y-12000762D01*
X5441666Y-12057905D01*
X5441666Y-12129334D01*
X5427381Y-12186476D01*
X5413095Y-12215048D01*
X5398809Y-12229334D01*
X5370238Y-12243619D01*
X5341666Y-12243619D01*
X5313095Y-12229334D01*
X5298809Y-12215048D01*
X5284523Y-12186476D01*
X5270238Y-12129334D01*
X5270238Y-12057905D01*
X5284523Y-12000762D01*
X5298809Y-11972191D01*
X5313095Y-11957905D01*
X5341666Y-11943619D01*
X5570238Y-12215048D02*
X5584523Y-12229334D01*
X5570238Y-12243619D01*
X5555952Y-12229334D01*
X5570238Y-12215048D01*
X5570238Y-12243619D01*
X5841666Y-12043619D02*
X5841666Y-12243619D01*
X5770238Y-11929334D02*
X5698809Y-12143619D01*
X5884523Y-12143619D01*
X6055952Y-11943619D02*
X6084523Y-11943619D01*
X6113095Y-11957905D01*
X6127381Y-11972191D01*
X6141666Y-12000762D01*
X6155952Y-12057905D01*
X6155952Y-12129334D01*
X6141666Y-12186476D01*
X6127381Y-12215048D01*
X6113095Y-12229334D01*
X6084523Y-12243619D01*
X6055952Y-12243619D01*
X6027381Y-12229334D01*
X6013095Y-12215048D01*
X5998809Y-12186476D01*
X5984523Y-12129334D01*
X5984523Y-12057905D01*
X5998809Y-12000762D01*
X6013095Y-11972191D01*
X6027381Y-11957905D01*
X6055952Y-11943619D01*
X6341666Y-11943619D02*
X6370238Y-11943619D01*
X6398809Y-11957905D01*
X6413095Y-11972191D01*
X6427381Y-12000762D01*
X6441666Y-12057905D01*
X6441666Y-12129334D01*
X6427381Y-12186476D01*
X6413095Y-12215048D01*
X6398809Y-12229334D01*
X6370238Y-12243619D01*
X6341666Y-12243619D01*
X6313095Y-12229334D01*
X6298809Y-12215048D01*
X6284523Y-12186476D01*
X6270238Y-12129334D01*
X6270238Y-12057905D01*
X6284523Y-12000762D01*
X6298809Y-11972191D01*
X6313095Y-11957905D01*
X6341666Y-11943619D01*
X6570238Y-12243619D02*
X6570238Y-12043619D01*
X6570238Y-12072191D02*
X6584523Y-12057905D01*
X6613095Y-12043619D01*
X6655952Y-12043619D01*
X6684523Y-12057905D01*
X6698809Y-12086476D01*
X6698809Y-12243619D01*
X6698809Y-12086476D02*
X6713095Y-12057905D01*
X6741666Y-12043619D01*
X6784523Y-12043619D01*
X6813095Y-12057905D01*
X6827381Y-12086476D01*
X6827381Y-12243619D01*
X6970238Y-12243619D02*
X6970238Y-12043619D01*
X6970238Y-12072191D02*
X6984523Y-12057905D01*
X7013095Y-12043619D01*
X7055952Y-12043619D01*
X7084523Y-12057905D01*
X7098809Y-12086476D01*
X7098809Y-12243619D01*
X7098809Y-12086476D02*
X7113095Y-12057905D01*
X7141666Y-12043619D01*
X7184523Y-12043619D01*
X7213095Y-12057905D01*
X7227381Y-12086476D01*
X7227381Y-12243619D01*
X7813095Y-11929334D02*
X7555952Y-12315048D01*
X8198809Y-11943619D02*
X8227381Y-11943619D01*
X8255952Y-11957905D01*
X8270238Y-11972191D01*
X8284523Y-12000762D01*
X8298809Y-12057905D01*
X8298809Y-12129334D01*
X8284523Y-12186476D01*
X8270238Y-12215048D01*
X8255952Y-12229334D01*
X8227381Y-12243619D01*
X8198809Y-12243619D01*
X8170238Y-12229334D01*
X8155952Y-12215048D01*
X8141666Y-12186476D01*
X8127381Y-12129334D01*
X8127381Y-12057905D01*
X8141666Y-12000762D01*
X8155952Y-11972191D01*
X8170238Y-11957905D01*
X8198809Y-11943619D01*
X8427381Y-12215048D02*
X8441666Y-12229334D01*
X8427381Y-12243619D01*
X8413095Y-12229334D01*
X8427381Y-12215048D01*
X8427381Y-12243619D01*
X8627381Y-11943619D02*
X8655952Y-11943619D01*
X8684523Y-11957905D01*
X8698809Y-11972191D01*
X8713095Y-12000762D01*
X8727381Y-12057905D01*
X8727381Y-12129334D01*
X8713095Y-12186476D01*
X8698809Y-12215048D01*
X8684523Y-12229334D01*
X8655952Y-12243619D01*
X8627381Y-12243619D01*
X8598809Y-12229334D01*
X8584523Y-12215048D01*
X8570238Y-12186476D01*
X8555952Y-12129334D01*
X8555952Y-12057905D01*
X8570238Y-12000762D01*
X8584523Y-11972191D01*
X8598809Y-11957905D01*
X8627381Y-11943619D01*
X9013095Y-12243619D02*
X8841666Y-12243619D01*
X8927381Y-12243619D02*
X8927381Y-11943619D01*
X8898809Y-11986476D01*
X8870238Y-12015048D01*
X8841666Y-12029334D01*
X9284523Y-11943619D02*
X9141666Y-11943619D01*
X9127381Y-12086476D01*
X9141666Y-12072191D01*
X9170238Y-12057905D01*
X9241666Y-12057905D01*
X9270238Y-12072191D01*
X9284523Y-12086476D01*
X9298809Y-12115048D01*
X9298809Y-12186476D01*
X9284523Y-12215048D01*
X9270238Y-12229334D01*
X9241666Y-12243619D01*
X9170238Y-12243619D01*
X9141666Y-12229334D01*
X9127381Y-12215048D01*
X9398809Y-11943619D02*
X9598809Y-11943619D01*
X9470238Y-12243619D01*
X9698809Y-11943619D02*
X9698809Y-12000762D01*
X9813095Y-11943619D02*
X9813095Y-12000762D01*
X10255952Y-12357905D02*
X10241666Y-12343619D01*
X10213095Y-12300762D01*
X10198809Y-12272191D01*
X10184523Y-12229334D01*
X10170238Y-12157905D01*
X10170238Y-12100762D01*
X10184523Y-12029334D01*
X10198809Y-11986476D01*
X10213095Y-11957905D01*
X10241666Y-11915048D01*
X10255952Y-11900762D01*
X10527381Y-12243619D02*
X10355952Y-12243619D01*
X10441666Y-12243619D02*
X10441666Y-11943619D01*
X10413095Y-11986476D01*
X10384523Y-12015048D01*
X10355952Y-12029334D01*
X10641666Y-11972191D02*
X10655952Y-11957905D01*
X10684523Y-11943619D01*
X10755952Y-11943619D01*
X10784523Y-11957905D01*
X10798809Y-11972191D01*
X10813095Y-12000762D01*
X10813095Y-12029334D01*
X10798809Y-12072191D01*
X10627381Y-12243619D01*
X10813095Y-12243619D01*
X11170238Y-12243619D02*
X11170238Y-11943619D01*
X11298809Y-12243619D02*
X11298809Y-12086476D01*
X11284523Y-12057905D01*
X11255952Y-12043619D01*
X11213095Y-12043619D01*
X11184523Y-12057905D01*
X11170238Y-12072191D01*
X11484523Y-12243619D02*
X11455952Y-12229334D01*
X11441666Y-12215048D01*
X11427381Y-12186476D01*
X11427381Y-12100762D01*
X11441666Y-12072191D01*
X11455952Y-12057905D01*
X11484523Y-12043619D01*
X11527381Y-12043619D01*
X11555952Y-12057905D01*
X11570238Y-12072191D01*
X11584523Y-12100762D01*
X11584523Y-12186476D01*
X11570238Y-12215048D01*
X11555952Y-12229334D01*
X11527381Y-12243619D01*
X11484523Y-12243619D01*
X11755952Y-12243619D02*
X11727381Y-12229334D01*
X11713095Y-12200762D01*
X11713095Y-11943619D01*
X11984523Y-12229334D02*
X11955952Y-12243619D01*
X11898809Y-12243619D01*
X11870238Y-12229334D01*
X11855952Y-12200762D01*
X11855952Y-12086476D01*
X11870238Y-12057905D01*
X11898809Y-12043619D01*
X11955952Y-12043619D01*
X11984523Y-12057905D01*
X11998809Y-12086476D01*
X11998809Y-12115048D01*
X11855952Y-12143619D01*
X12113095Y-12229334D02*
X12141666Y-12243619D01*
X12198809Y-12243619D01*
X12227381Y-12229334D01*
X12241666Y-12200762D01*
X12241666Y-12186476D01*
X12227381Y-12157905D01*
X12198809Y-12143619D01*
X12155952Y-12143619D01*
X12127381Y-12129334D01*
X12113095Y-12100762D01*
X12113095Y-12086476D01*
X12127381Y-12057905D01*
X12155952Y-12043619D01*
X12198809Y-12043619D01*
X12227381Y-12057905D01*
X12341666Y-12357905D02*
X12355952Y-12343619D01*
X12384523Y-12300762D01*
X12398809Y-12272191D01*
X12413095Y-12229334D01*
X12427381Y-12157905D01*
X12427381Y-12100762D01*
X12413095Y-12029334D01*
X12398809Y-11986476D01*
X12384523Y-11957905D01*
X12355952Y-11915048D01*
X12341666Y-11900762D01*
X4948095Y-12453905D02*
X4948095Y-12553905D01*
X4898095Y-12503905D02*
X4998095Y-12503905D01*
X5441666Y-12639619D02*
X5270238Y-12639619D01*
X5355952Y-12639619D02*
X5355952Y-12339619D01*
X5327381Y-12382476D01*
X5298809Y-12411048D01*
X5270238Y-12425334D01*
X5570238Y-12611048D02*
X5584523Y-12625334D01*
X5570238Y-12639619D01*
X5555952Y-12625334D01*
X5570238Y-12611048D01*
X5570238Y-12639619D01*
X5770238Y-12339619D02*
X5798809Y-12339619D01*
X5827381Y-12353905D01*
X5841666Y-12368191D01*
X5855952Y-12396762D01*
X5870238Y-12453905D01*
X5870238Y-12525334D01*
X5855952Y-12582476D01*
X5841666Y-12611048D01*
X5827381Y-12625334D01*
X5798809Y-12639619D01*
X5770238Y-12639619D01*
X5741666Y-12625334D01*
X5727381Y-12611048D01*
X5713095Y-12582476D01*
X5698809Y-12525334D01*
X5698809Y-12453905D01*
X5713095Y-12396762D01*
X5727381Y-12368191D01*
X5741666Y-12353905D01*
X5770238Y-12339619D01*
X6055952Y-12339619D02*
X6084523Y-12339619D01*
X6113095Y-12353905D01*
X6127381Y-12368191D01*
X6141666Y-12396762D01*
X6155952Y-12453905D01*
X6155952Y-12525334D01*
X6141666Y-12582476D01*
X6127381Y-12611048D01*
X6113095Y-12625334D01*
X6084523Y-12639619D01*
X6055952Y-12639619D01*
X6027381Y-12625334D01*
X6013095Y-12611048D01*
X5998809Y-12582476D01*
X5984523Y-12525334D01*
X5984523Y-12453905D01*
X5998809Y-12396762D01*
X6013095Y-12368191D01*
X6027381Y-12353905D01*
X6055952Y-12339619D01*
X6341666Y-12339619D02*
X6370238Y-12339619D01*
X6398809Y-12353905D01*
X6413095Y-12368191D01*
X6427381Y-12396762D01*
X6441666Y-12453905D01*
X6441666Y-12525334D01*
X6427381Y-12582476D01*
X6413095Y-12611048D01*
X6398809Y-12625334D01*
X6370238Y-12639619D01*
X6341666Y-12639619D01*
X6313095Y-12625334D01*
X6298809Y-12611048D01*
X6284523Y-12582476D01*
X6270238Y-12525334D01*
X6270238Y-12453905D01*
X6284523Y-12396762D01*
X6298809Y-12368191D01*
X6313095Y-12353905D01*
X6341666Y-12339619D01*
X6570238Y-12639619D02*
X6570238Y-12439619D01*
X6570238Y-12468191D02*
X6584523Y-12453905D01*
X6613095Y-12439619D01*
X6655952Y-12439619D01*
X6684523Y-12453905D01*
X6698809Y-12482476D01*
X6698809Y-12639619D01*
X6698809Y-12482476D02*
X6713095Y-12453905D01*
X6741666Y-12439619D01*
X6784523Y-12439619D01*
X6813095Y-12453905D01*
X6827381Y-12482476D01*
X6827381Y-12639619D01*
X6970238Y-12639619D02*
X6970238Y-12439619D01*
X6970238Y-12468191D02*
X6984523Y-12453905D01*
X7013095Y-12439619D01*
X7055952Y-12439619D01*
X7084523Y-12453905D01*
X7098809Y-12482476D01*
X7098809Y-12639619D01*
X7098809Y-12482476D02*
X7113095Y-12453905D01*
X7141666Y-12439619D01*
X7184523Y-12439619D01*
X7213095Y-12453905D01*
X7227381Y-12482476D01*
X7227381Y-12639619D01*
X7813095Y-12325334D02*
X7555952Y-12711048D01*
X8198809Y-12339619D02*
X8227381Y-12339619D01*
X8255952Y-12353905D01*
X8270238Y-12368191D01*
X8284523Y-12396762D01*
X8298809Y-12453905D01*
X8298809Y-12525334D01*
X8284523Y-12582476D01*
X8270238Y-12611048D01*
X8255952Y-12625334D01*
X8227381Y-12639619D01*
X8198809Y-12639619D01*
X8170238Y-12625334D01*
X8155952Y-12611048D01*
X8141666Y-12582476D01*
X8127381Y-12525334D01*
X8127381Y-12453905D01*
X8141666Y-12396762D01*
X8155952Y-12368191D01*
X8170238Y-12353905D01*
X8198809Y-12339619D01*
X8427381Y-12611048D02*
X8441666Y-12625334D01*
X8427381Y-12639619D01*
X8413095Y-12625334D01*
X8427381Y-12611048D01*
X8427381Y-12639619D01*
X8627381Y-12339619D02*
X8655952Y-12339619D01*
X8684523Y-12353905D01*
X8698809Y-12368191D01*
X8713095Y-12396762D01*
X8727381Y-12453905D01*
X8727381Y-12525334D01*
X8713095Y-12582476D01*
X8698809Y-12611048D01*
X8684523Y-12625334D01*
X8655952Y-12639619D01*
X8627381Y-12639619D01*
X8598809Y-12625334D01*
X8584523Y-12611048D01*
X8570238Y-12582476D01*
X8555952Y-12525334D01*
X8555952Y-12453905D01*
X8570238Y-12396762D01*
X8584523Y-12368191D01*
X8598809Y-12353905D01*
X8627381Y-12339619D01*
X8827381Y-12339619D02*
X9013095Y-12339619D01*
X8913095Y-12453905D01*
X8955952Y-12453905D01*
X8984523Y-12468191D01*
X8998809Y-12482476D01*
X9013095Y-12511048D01*
X9013095Y-12582476D01*
X8998809Y-12611048D01*
X8984523Y-12625334D01*
X8955952Y-12639619D01*
X8870238Y-12639619D01*
X8841666Y-12625334D01*
X8827381Y-12611048D01*
X9155952Y-12639619D02*
X9213095Y-12639619D01*
X9241666Y-12625334D01*
X9255952Y-12611048D01*
X9284523Y-12568191D01*
X9298809Y-12511048D01*
X9298809Y-12396762D01*
X9284523Y-12368191D01*
X9270238Y-12353905D01*
X9241666Y-12339619D01*
X9184523Y-12339619D01*
X9155952Y-12353905D01*
X9141666Y-12368191D01*
X9127381Y-12396762D01*
X9127381Y-12468191D01*
X9141666Y-12496762D01*
X9155952Y-12511048D01*
X9184523Y-12525334D01*
X9241666Y-12525334D01*
X9270238Y-12511048D01*
X9284523Y-12496762D01*
X9298809Y-12468191D01*
X9555952Y-12439619D02*
X9555952Y-12639619D01*
X9484523Y-12325334D02*
X9413095Y-12539619D01*
X9598809Y-12539619D01*
X9698809Y-12339619D02*
X9698809Y-12396762D01*
X9813095Y-12339619D02*
X9813095Y-12396762D01*
X10255952Y-12753905D02*
X10241666Y-12739619D01*
X10213095Y-12696762D01*
X10198809Y-12668191D01*
X10184523Y-12625334D01*
X10170238Y-12553905D01*
X10170238Y-12496762D01*
X10184523Y-12425334D01*
X10198809Y-12382476D01*
X10213095Y-12353905D01*
X10241666Y-12311048D01*
X10255952Y-12296762D01*
X10384523Y-12639619D02*
X10441666Y-12639619D01*
X10470238Y-12625334D01*
X10484523Y-12611048D01*
X10513095Y-12568191D01*
X10527381Y-12511048D01*
X10527381Y-12396762D01*
X10513095Y-12368191D01*
X10498809Y-12353905D01*
X10470238Y-12339619D01*
X10413095Y-12339619D01*
X10384523Y-12353905D01*
X10370238Y-12368191D01*
X10355952Y-12396762D01*
X10355952Y-12468191D01*
X10370238Y-12496762D01*
X10384523Y-12511048D01*
X10413095Y-12525334D01*
X10470238Y-12525334D01*
X10498809Y-12511048D01*
X10513095Y-12496762D01*
X10527381Y-12468191D01*
X10884523Y-12639619D02*
X10884523Y-12339619D01*
X11013095Y-12639619D02*
X11013095Y-12482476D01*
X10998809Y-12453905D01*
X10970238Y-12439619D01*
X10927381Y-12439619D01*
X10898809Y-12453905D01*
X10884523Y-12468191D01*
X11198809Y-12639619D02*
X11170238Y-12625334D01*
X11155952Y-12611048D01*
X11141666Y-12582476D01*
X11141666Y-12496762D01*
X11155952Y-12468191D01*
X11170238Y-12453905D01*
X11198809Y-12439619D01*
X11241666Y-12439619D01*
X11270238Y-12453905D01*
X11284523Y-12468191D01*
X11298809Y-12496762D01*
X11298809Y-12582476D01*
X11284523Y-12611048D01*
X11270238Y-12625334D01*
X11241666Y-12639619D01*
X11198809Y-12639619D01*
X11470238Y-12639619D02*
X11441666Y-12625334D01*
X11427381Y-12596762D01*
X11427381Y-12339619D01*
X11698809Y-12625334D02*
X11670238Y-12639619D01*
X11613095Y-12639619D01*
X11584523Y-12625334D01*
X11570238Y-12596762D01*
X11570238Y-12482476D01*
X11584523Y-12453905D01*
X11613095Y-12439619D01*
X11670238Y-12439619D01*
X11698809Y-12453905D01*
X11713095Y-12482476D01*
X11713095Y-12511048D01*
X11570238Y-12539619D01*
X11827381Y-12625334D02*
X11855952Y-12639619D01*
X11913095Y-12639619D01*
X11941666Y-12625334D01*
X11955952Y-12596762D01*
X11955952Y-12582476D01*
X11941666Y-12553905D01*
X11913095Y-12539619D01*
X11870238Y-12539619D01*
X11841666Y-12525334D01*
X11827381Y-12496762D01*
X11827381Y-12482476D01*
X11841666Y-12453905D01*
X11870238Y-12439619D01*
X11913095Y-12439619D01*
X11941666Y-12453905D01*
X12055952Y-12753905D02*
X12070238Y-12739619D01*
X12098809Y-12696762D01*
X12113095Y-12668191D01*
X12127381Y-12625334D01*
X12141666Y-12553905D01*
X12141666Y-12496762D01*
X12127381Y-12425334D01*
X12113095Y-12382476D01*
X12098809Y-12353905D01*
X12070238Y-12311048D01*
X12055952Y-12296762D01*
M02*
